<?xml version="1.0" encoding="UTF-8" standalone="no"?>
<!DOCTYPE svg PUBLIC "-//W3C//DTD SVG 1.1//EN"
 "http://www.w3.org/Graphics/SVG/1.1/DTD/svg11.dtd">
<!-- Generated by graphviz version 12.2.1 (20241206.2353)
 -->
<!-- Title: add_client Pages: 1 -->
<svg width="597pt" height="123pt"
 viewBox="0.00 0.00 597.25 123.00" xmlns="http://www.w3.org/2000/svg" xmlns:xlink="http://www.w3.org/1999/xlink">
<g id="graph0" class="graph" transform="scale(1 1) rotate(0) translate(4 119)">
<title>add_client</title>
<!-- Node1 -->
<g id="Node000001" class="node">
<title>Node1</title>
<g id="a_Node000001"><a xlink:title=" ">
<polygon fill="#999999" stroke="#666666" points="60.25,-20 0,-20 0,0 60.25,0 60.25,-20"/>
<text text-anchor="middle" x="30.12" y="-6.5" font-family="Helvetica,sans-Serif" font-size="10.00">add_client</text>
</a>
</g>
</g>
<!-- Node2 -->
<g id="Node000002" class="node">
<title>Node2</title>
<g id="a_Node000002"><a xlink:href="client_8c.html#a143835100e57a86e1106918450df6887" target="_top" xlink:title=" ">
<polygon fill="white" stroke="#666666" points="180.5,-39 96.25,-39 96.25,-19 180.5,-19 180.5,-39"/>
<text text-anchor="middle" x="138.38" y="-25.5" font-family="Helvetica,sans-Serif" font-size="10.00">add_client_data</text>
</a>
</g>
</g>
<!-- Node1&#45;&gt;Node2 -->
<g id="edge1_Node000001_Node000002" class="edge">
<title>Node1&#45;&gt;Node2</title>
<g id="a_edge1_Node000001_Node000002"><a xlink:title=" ">
<path fill="none" stroke="#63b8ff" d="M60.72,-15.29C68.24,-16.64 76.54,-18.12 84.82,-19.6"/>
<polygon fill="#63b8ff" stroke="#63b8ff" points="84.08,-23.02 94.54,-21.34 85.31,-16.13 84.08,-23.02"/>
</a>
</g>
</g>
<!-- Node5 -->
<g id="Node000005" class="node">
<title>Node5</title>
<g id="a_Node000005"><a xlink:href="parser_8c.html#a3fd716b111caa8f93098f7e5070fd0bb" target="_top" xlink:title=" ">
<polygon fill="white" stroke="#666666" points="589.25,-58 517.75,-58 517.75,-38 589.25,-38 589.25,-58"/>
<text text-anchor="middle" x="553.5" y="-44.5" font-family="Helvetica,sans-Serif" font-size="10.00">display_error</text>
</a>
</g>
</g>
<!-- Node1&#45;&gt;Node5 -->
<g id="edge7_Node000001_Node000005" class="edge">
<title>Node1&#45;&gt;Node5</title>
<g id="a_edge7_Node000001_Node000005"><a xlink:title=" ">
<path fill="none" stroke="#63b8ff" d="M60.62,-9.25C90.76,-8.66 138.92,-8.21 180.5,-10 314.76,-15.78 348.45,-18.97 481.75,-36 489.65,-37.01 498.01,-38.26 506.11,-39.57"/>
<polygon fill="#63b8ff" stroke="#63b8ff" points="505.38,-43 515.82,-41.2 506.54,-36.1 505.38,-43"/>
</a>
</g>
</g>
<!-- Node3 -->
<g id="Node000003" class="node">
<title>Node3</title>
<g id="a_Node000003"><a xlink:href="command_8c.html#a7ea78ee6c9551b3b281b8dc72f4e2f1f" target="_top" xlink:title=" ">
<polygon fill="white" stroke="#666666" points="340.5,-77 216.5,-77 216.5,-57 340.5,-57 340.5,-77"/>
<text text-anchor="middle" x="278.5" y="-63.5" font-family="Helvetica,sans-Serif" font-size="10.00">append_client_out_buffer</text>
</a>
</g>
</g>
<!-- Node2&#45;&gt;Node3 -->
<g id="edge2_Node000002_Node000003" class="edge">
<title>Node2&#45;&gt;Node3</title>
<g id="a_edge2_Node000002_Node000003"><a xlink:title=" ">
<path fill="none" stroke="#63b8ff" d="M177.48,-39.48C193.34,-43.85 211.93,-48.96 228.76,-53.59"/>
<polygon fill="#63b8ff" stroke="#63b8ff" points="227.49,-56.87 238.06,-56.15 229.34,-50.12 227.49,-56.87"/>
</a>
</g>
</g>
<!-- Node2&#45;&gt;Node5 -->
<g id="edge6_Node000002_Node000005" class="edge">
<title>Node2&#45;&gt;Node5</title>
<g id="a_edge6_Node000002_Node000005"><a xlink:title=" ">
<path fill="none" stroke="#63b8ff" d="M180.88,-30.91C258.4,-34.47 424.68,-42.12 505.91,-45.86"/>
<polygon fill="#63b8ff" stroke="#63b8ff" points="505.6,-49.35 515.75,-46.31 505.92,-42.35 505.6,-49.35"/>
</a>
</g>
</g>
<!-- Node4 -->
<g id="Node000004" class="node">
<title>Node4</title>
<g id="a_Node000004"><a xlink:href="command_8c.html#ae945a1521c2b6067022aafe003579548" target="_top" xlink:title=" ">
<polygon fill="white" stroke="#666666" points="481.75,-115 376.5,-115 376.5,-95 481.75,-95 481.75,-115"/>
<text text-anchor="middle" x="429.12" y="-101.5" font-family="Helvetica,sans-Serif" font-size="10.00">append_client_buffer</text>
</a>
</g>
</g>
<!-- Node3&#45;&gt;Node4 -->
<g id="edge3_Node000003_Node000004" class="edge">
<title>Node3&#45;&gt;Node4</title>
<g id="a_edge3_Node000003_Node000004"><a xlink:title=" ">
<path fill="none" stroke="#63b8ff" d="M320.51,-77.48C337.73,-81.89 357.95,-87.06 376.2,-91.72"/>
<polygon fill="#63b8ff" stroke="#63b8ff" points="375.23,-95.09 385.79,-94.18 376.97,-88.31 375.23,-95.09"/>
</a>
</g>
</g>
<!-- Node3&#45;&gt;Node5 -->
<g id="edge5_Node000003_Node000005" class="edge">
<title>Node3&#45;&gt;Node5</title>
<g id="a_edge5_Node000003_Node000005"><a xlink:title=" ">
<path fill="none" stroke="#63b8ff" d="M340.77,-62.74C390.8,-59.25 460.46,-54.41 506,-51.24"/>
<polygon fill="#63b8ff" stroke="#63b8ff" points="506.07,-54.74 515.8,-50.55 505.59,-47.76 506.07,-54.74"/>
</a>
</g>
</g>
<!-- Node4&#45;&gt;Node5 -->
<g id="edge4_Node000004_Node000005" class="edge">
<title>Node4&#45;&gt;Node5</title>
<g id="a_edge4_Node000004_Node000005"><a xlink:title=" ">
<path fill="none" stroke="#63b8ff" d="M452.49,-94.61C461.57,-90.39 472.16,-85.46 481.75,-81 494.17,-75.22 507.81,-68.86 519.77,-63.28"/>
<polygon fill="#63b8ff" stroke="#63b8ff" points="521.24,-66.45 528.83,-59.05 518.28,-60.11 521.24,-66.45"/>
</a>
</g>
</g>
</g>
</svg>
