<?xml version="1.0" encoding="UTF-8" standalone="no"?>
<!DOCTYPE svg PUBLIC "-//W3C//DTD SVG 1.1//EN"
 "http://www.w3.org/Graphics/SVG/1.1/DTD/svg11.dtd">
<!-- Generated by graphviz version 12.2.1 (20241206.2353)
 -->
<!-- Title: add_client_data Pages: 1 -->
<svg width="501pt" height="85pt"
 viewBox="0.00 0.00 501.00 85.00" xmlns="http://www.w3.org/2000/svg" xmlns:xlink="http://www.w3.org/1999/xlink">
<g id="graph0" class="graph" transform="scale(1 1) rotate(0) translate(4 81)">
<title>add_client_data</title>
<!-- Node1 -->
<g id="Node000001" class="node">
<title>Node1</title>
<g id="a_Node000001"><a xlink:title=" ">
<polygon fill="#999999" stroke="#666666" points="84.25,-20 0,-20 0,0 84.25,0 84.25,-20"/>
<text text-anchor="middle" x="42.12" y="-6.5" font-family="Helvetica,sans-Serif" font-size="10.00">add_client_data</text>
</a>
</g>
</g>
<!-- Node2 -->
<g id="Node000002" class="node">
<title>Node2</title>
<g id="a_Node000002"><a xlink:href="command_8c.html#a7ea78ee6c9551b3b281b8dc72f4e2f1f" target="_top" xlink:title=" ">
<polygon fill="white" stroke="#666666" points="244.25,-39 120.25,-39 120.25,-19 244.25,-19 244.25,-39"/>
<text text-anchor="middle" x="182.25" y="-25.5" font-family="Helvetica,sans-Serif" font-size="10.00">append_client_out_buffer</text>
</a>
</g>
</g>
<!-- Node1&#45;&gt;Node2 -->
<g id="edge1_Node000001_Node000002" class="edge">
<title>Node1&#45;&gt;Node2</title>
<g id="a_edge1_Node000001_Node000002"><a xlink:title=" ">
<path fill="none" stroke="#63b8ff" d="M84.57,-15.7C92.22,-16.75 100.4,-17.88 108.66,-19.02"/>
<polygon fill="#63b8ff" stroke="#63b8ff" points="108.04,-22.46 118.42,-20.36 108.99,-15.53 108.04,-22.46"/>
</a>
</g>
</g>
<!-- Node4 -->
<g id="Node000004" class="node">
<title>Node4</title>
<g id="a_Node000004"><a xlink:href="parser_8c.html#a3fd716b111caa8f93098f7e5070fd0bb" target="_top" xlink:title=" ">
<polygon fill="white" stroke="#666666" points="493,-39 421.5,-39 421.5,-19 493,-19 493,-39"/>
<text text-anchor="middle" x="457.25" y="-25.5" font-family="Helvetica,sans-Serif" font-size="10.00">display_error</text>
</a>
</g>
</g>
<!-- Node1&#45;&gt;Node4 -->
<g id="edge5_Node000001_Node000004" class="edge">
<title>Node1&#45;&gt;Node4</title>
<g id="a_edge5_Node000001_Node000004"><a xlink:title=" ">
<path fill="none" stroke="#63b8ff" d="M84.36,-8.92C125.04,-8.12 188.96,-7.53 244.25,-10 301.4,-12.56 366.95,-18.97 409.85,-23.64"/>
<polygon fill="#63b8ff" stroke="#63b8ff" points="409.23,-27.09 419.55,-24.71 409.99,-20.13 409.23,-27.09"/>
</a>
</g>
</g>
<!-- Node3 -->
<g id="Node000003" class="node">
<title>Node3</title>
<g id="a_Node000003"><a xlink:href="command_8c.html#ae945a1521c2b6067022aafe003579548" target="_top" xlink:title=" ">
<polygon fill="white" stroke="#666666" points="385.5,-77 280.25,-77 280.25,-57 385.5,-57 385.5,-77"/>
<text text-anchor="middle" x="332.88" y="-63.5" font-family="Helvetica,sans-Serif" font-size="10.00">append_client_buffer</text>
</a>
</g>
</g>
<!-- Node2&#45;&gt;Node3 -->
<g id="edge2_Node000002_Node000003" class="edge">
<title>Node2&#45;&gt;Node3</title>
<g id="a_edge2_Node000002_Node000003"><a xlink:title=" ">
<path fill="none" stroke="#63b8ff" d="M224.26,-39.48C241.48,-43.89 261.7,-49.06 279.95,-53.72"/>
<polygon fill="#63b8ff" stroke="#63b8ff" points="278.98,-57.09 289.54,-56.18 280.72,-50.31 278.98,-57.09"/>
</a>
</g>
</g>
<!-- Node2&#45;&gt;Node4 -->
<g id="edge4_Node000002_Node000004" class="edge">
<title>Node2&#45;&gt;Node4</title>
<g id="a_edge4_Node000002_Node000004"><a xlink:title=" ">
<path fill="none" stroke="#63b8ff" d="M244.52,-29C294.55,-29 364.21,-29 409.75,-29"/>
<polygon fill="#63b8ff" stroke="#63b8ff" points="409.55,-32.5 419.55,-29 409.55,-25.5 409.55,-32.5"/>
</a>
</g>
</g>
<!-- Node3&#45;&gt;Node4 -->
<g id="edge3_Node000003_Node000004" class="edge">
<title>Node3&#45;&gt;Node4</title>
<g id="a_edge3_Node000003_Node000004"><a xlink:title=" ">
<path fill="none" stroke="#63b8ff" d="M367.64,-56.52C381.28,-52.28 397.22,-47.33 411.78,-42.81"/>
<polygon fill="#63b8ff" stroke="#63b8ff" points="412.64,-46.21 421.15,-39.9 410.56,-39.52 412.64,-46.21"/>
</a>
</g>
</g>
</g>
</svg>
