<?xml version="1.0" encoding="UTF-8" standalone="no"?>
<!DOCTYPE svg PUBLIC "-//W3C//DTD SVG 1.1//EN"
 "http://www.w3.org/Graphics/SVG/1.1/DTD/svg11.dtd">
<!-- Generated by graphviz version 12.2.1 (20241206.2353)
 -->
<!-- Title: /home/matt/tek2/YEP/ZAPPY/zappy_server_src/client.c Pages: 1 -->
<svg width="465pt" height="108pt"
 viewBox="0.00 0.00 465.00 108.00" xmlns="http://www.w3.org/2000/svg" xmlns:xlink="http://www.w3.org/1999/xlink">
<g id="graph0" class="graph" transform="scale(1 1) rotate(0) translate(4 104)">
<title>/home/matt/tek2/YEP/ZAPPY/zappy_server_src/client.c</title>
<!-- Node1 -->
<g id="Node000001" class="node">
<title>Node1</title>
<g id="a_Node000001"><a xlink:title=" ">
<polygon fill="#999999" stroke="#666666" points="237.38,-100 123.88,-100 123.88,-56 237.38,-56 237.38,-100"/>
<text text-anchor="start" x="131.88" y="-86.5" font-family="Helvetica,sans-Serif" font-size="10.00">/home/matt/tek2/YEP</text>
<text text-anchor="start" x="131.88" y="-74.5" font-family="Helvetica,sans-Serif" font-size="10.00">/ZAPPY/zappy_server</text>
<text text-anchor="middle" x="180.62" y="-62.5" font-family="Helvetica,sans-Serif" font-size="10.00">_src/client.c</text>
</a>
</g>
</g>
<!-- Node2 -->
<g id="Node000002" class="node">
<title>Node2</title>
<g id="a_Node000002"><a xlink:title=" ">
<polygon fill="#e0e0e0" stroke="#999999" points="39.25,-20 0,-20 0,0 39.25,0 39.25,-20"/>
<text text-anchor="middle" x="19.62" y="-6.5" font-family="Helvetica,sans-Serif" font-size="10.00">poll.h</text>
</a>
</g>
</g>
<!-- Node1&#45;&gt;Node2 -->
<g id="edge1_Node000001_Node000002" class="edge">
<title>Node1&#45;&gt;Node2</title>
<g id="a_edge1_Node000001_Node000002"><a xlink:title=" ">
<path fill="none" stroke="#63b8ff" d="M128.35,-55.57C102.43,-44.95 72.04,-32.49 49.99,-23.45"/>
<polygon fill="#63b8ff" stroke="#63b8ff" points="51.57,-20.31 40.99,-19.76 48.91,-26.79 51.57,-20.31"/>
</a>
</g>
</g>
<!-- Node3 -->
<g id="Node000003" class="node">
<title>Node3</title>
<g id="a_Node000003"><a xlink:title=" ">
<polygon fill="#e0e0e0" stroke="#999999" points="104.38,-20 56.88,-20 56.88,0 104.38,0 104.38,-20"/>
<text text-anchor="middle" x="80.62" y="-6.5" font-family="Helvetica,sans-Serif" font-size="10.00">stdlib.h</text>
</a>
</g>
</g>
<!-- Node1&#45;&gt;Node3 -->
<g id="edge2_Node000001_Node000003" class="edge">
<title>Node1&#45;&gt;Node3</title>
<g id="a_edge2_Node000001_Node000003"><a xlink:title=" ">
<path fill="none" stroke="#63b8ff" d="M148.16,-55.57C133.8,-46.09 117.23,-35.16 104.09,-26.49"/>
<polygon fill="#63b8ff" stroke="#63b8ff" points="106.35,-23.79 96.08,-21.2 102.5,-29.63 106.35,-23.79"/>
</a>
</g>
</g>
<!-- Node4 -->
<g id="Node000004" class="node">
<title>Node4</title>
<g id="a_Node000004"><a xlink:title=" ">
<polygon fill="#e0e0e0" stroke="#999999" points="172.88,-20 122.38,-20 122.38,0 172.88,0 172.88,-20"/>
<text text-anchor="middle" x="147.62" y="-6.5" font-family="Helvetica,sans-Serif" font-size="10.00">unistd.h</text>
</a>
</g>
</g>
<!-- Node1&#45;&gt;Node4 -->
<g id="edge3_Node000001_Node000004" class="edge">
<title>Node1&#45;&gt;Node4</title>
<g id="a_edge3_Node000001_Node000004"><a xlink:title=" ">
<path fill="none" stroke="#63b8ff" d="M170,-55.75C165.96,-47.66 161.37,-38.48 157.4,-30.55"/>
<polygon fill="#63b8ff" stroke="#63b8ff" points="160.61,-29.15 153.01,-21.77 154.35,-32.28 160.61,-29.15"/>
</a>
</g>
</g>
<!-- Node5 -->
<g id="Node000005" class="node">
<title>Node5</title>
<g id="a_Node000005"><a xlink:title=" ">
<polygon fill="#e0e0e0" stroke="#999999" points="238.75,-20 190.5,-20 190.5,0 238.75,0 238.75,-20"/>
<text text-anchor="middle" x="214.62" y="-6.5" font-family="Helvetica,sans-Serif" font-size="10.00">string.h</text>
</a>
</g>
</g>
<!-- Node1&#45;&gt;Node5 -->
<g id="edge4_Node000001_Node000005" class="edge">
<title>Node1&#45;&gt;Node5</title>
<g id="a_edge4_Node000001_Node000005"><a xlink:title=" ">
<path fill="none" stroke="#63b8ff" d="M191.57,-55.75C195.74,-47.66 200.47,-38.48 204.55,-30.55"/>
<polygon fill="#63b8ff" stroke="#63b8ff" points="207.61,-32.26 209.08,-21.76 201.39,-29.05 207.61,-32.26"/>
</a>
</g>
</g>
<!-- Node6 -->
<g id="Node000006" class="node">
<title>Node6</title>
<g id="a_Node000006"><a xlink:title=" ">
<polygon fill="#e0e0e0" stroke="#999999" points="338.25,-20 257,-20 257,0 338.25,0 338.25,-20"/>
<text text-anchor="middle" x="297.62" y="-6.5" font-family="Helvetica,sans-Serif" font-size="10.00">include/client.h</text>
</a>
</g>
</g>
<!-- Node1&#45;&gt;Node6 -->
<g id="edge5_Node000001_Node000006" class="edge">
<title>Node1&#45;&gt;Node6</title>
<g id="a_edge5_Node000001_Node000006"><a xlink:title=" ">
<path fill="none" stroke="#63b8ff" d="M218.61,-55.57C235.74,-45.91 255.56,-34.73 271.07,-25.98"/>
<polygon fill="#63b8ff" stroke="#63b8ff" points="272.71,-29.07 279.7,-21.11 269.28,-22.97 272.71,-29.07"/>
</a>
</g>
</g>
<!-- Node7 -->
<g id="Node000007" class="node">
<title>Node7</title>
<g id="a_Node000007"><a xlink:title=" ">
<polygon fill="#e0e0e0" stroke="#999999" points="457,-20 356.25,-20 356.25,0 457,0 457,-20"/>
<text text-anchor="middle" x="406.62" y="-6.5" font-family="Helvetica,sans-Serif" font-size="10.00">include/command.h</text>
</a>
</g>
</g>
<!-- Node1&#45;&gt;Node7 -->
<g id="edge6_Node000001_Node000007" class="edge">
<title>Node1&#45;&gt;Node7</title>
<g id="a_edge6_Node000001_Node000007"><a xlink:title=" ">
<path fill="none" stroke="#63b8ff" d="M237.65,-60.35C276.59,-48.97 327.39,-34.14 363.09,-23.72"/>
<polygon fill="#63b8ff" stroke="#63b8ff" points="364.04,-27.08 372.66,-20.92 362.08,-20.36 364.04,-27.08"/>
</a>
</g>
</g>
</g>
</svg>
