<?xml version="1.0" encoding="UTF-8" standalone="no"?>
<!DOCTYPE svg PUBLIC "-//W3C//DTD SVG 1.1//EN"
 "http://www.w3.org/Graphics/SVG/1.1/DTD/svg11.dtd">
<!-- Generated by graphviz version 12.2.1 (20241206.2353)
 -->
<!-- Title: handle_client_command Pages: 1 -->
<svg width="477pt" height="28pt"
 viewBox="0.00 0.00 477.00 28.00" xmlns="http://www.w3.org/2000/svg" xmlns:xlink="http://www.w3.org/1999/xlink">
<g id="graph0" class="graph" transform="scale(1 1) rotate(0) translate(4 24)">
<title>handle_client_command</title>
<!-- Node1 -->
<g id="Node000001" class="node">
<title>Node1</title>
<g id="a_Node000001"><a xlink:title=" ">
<polygon fill="#999999" stroke="#666666" points="469,-20 348,-20 348,0 469,0 469,-20"/>
<text text-anchor="middle" x="408.5" y="-6.5" font-family="Helvetica,sans-Serif" font-size="10.00">handle_client_command</text>
</a>
</g>
</g>
<!-- Node2 -->
<g id="Node000002" class="node">
<title>Node2</title>
<g id="a_Node000002"><a xlink:href="zappy_8c.html#a546faa7b19427abaa0c156a70b4ff185" target="_top" xlink:title=" ">
<polygon fill="white" stroke="#666666" points="312,-20 176.75,-20 176.75,0 312,0 312,-20"/>
<text text-anchor="middle" x="244.38" y="-6.5" font-family="Helvetica,sans-Serif" font-size="10.00">check_for_client_command</text>
</a>
</g>
</g>
<!-- Node1&#45;&gt;Node2 -->
<g id="edge1_Node000001_Node000002" class="edge">
<title>Node1&#45;&gt;Node2</title>
<g id="a_edge1_Node000001_Node000002"><a xlink:title=" ">
<path fill="none" stroke="#63b8ff" d="M336.15,-10C328.26,-10 320.25,-10 312.41,-10"/>
<polygon fill="#63b8ff" stroke="#63b8ff" points="336.08,-13.5 346.08,-10 336.08,-6.5 336.08,-13.5"/>
</a>
</g>
</g>
<!-- Node3 -->
<g id="Node000003" class="node">
<title>Node3</title>
<g id="a_Node000003"><a xlink:href="zappy_8c.html#a9b9af6be5e3898616b325720d9f29dbc" target="_top" xlink:title=" ">
<polygon fill="white" stroke="#666666" points="140.75,-20 73,-20 73,0 140.75,0 140.75,-20"/>
<text text-anchor="middle" x="106.88" y="-6.5" font-family="Helvetica,sans-Serif" font-size="10.00">start_server</text>
</a>
</g>
</g>
<!-- Node2&#45;&gt;Node3 -->
<g id="edge2_Node000002_Node000003" class="edge">
<title>Node2&#45;&gt;Node3</title>
<g id="a_edge2_Node000002_Node000003"><a xlink:title=" ">
<path fill="none" stroke="#63b8ff" d="M164.96,-10C156.62,-10 148.5,-10 141.12,-10"/>
<polygon fill="#63b8ff" stroke="#63b8ff" points="164.91,-13.5 174.91,-10 164.91,-6.5 164.91,-13.5"/>
</a>
</g>
</g>
<!-- Node4 -->
<g id="Node000004" class="node">
<title>Node4</title>
<g id="a_Node000004"><a xlink:href="main_8c.html#a0c99d968a34e803d378692bde2e3f18f" target="_top" xlink:title=" ">
<polygon fill="white" stroke="#666666" points="37,-20 0,-20 0,0 37,0 37,-20"/>
<text text-anchor="middle" x="18.5" y="-6.5" font-family="Helvetica,sans-Serif" font-size="10.00">main</text>
</a>
</g>
</g>
<!-- Node3&#45;&gt;Node4 -->
<g id="edge3_Node000003_Node000004" class="edge">
<title>Node3&#45;&gt;Node4</title>
<g id="a_edge3_Node000003_Node000004"><a xlink:title=" ">
<path fill="none" stroke="#63b8ff" d="M61.29,-10C52.84,-10 44.47,-10 37.46,-10"/>
<polygon fill="#63b8ff" stroke="#63b8ff" points="61.21,-13.5 71.21,-10 61.21,-6.5 61.21,-13.5"/>
</a>
</g>
</g>
</g>
</svg>
