<?xml version="1.0" encoding="UTF-8" standalone="no"?>
<!DOCTYPE svg PUBLIC "-//W3C//DTD SVG 1.1//EN"
 "http://www.w3.org/Graphics/SVG/1.1/DTD/svg11.dtd">
<!-- Generated by graphviz version 12.2.1 (20241206.2353)
 -->
<!-- Title: handle_client_command Pages: 1 -->
<svg width="1152pt" height="313pt"
 viewBox="0.00 0.00 1152.25 313.00" xmlns="http://www.w3.org/2000/svg" xmlns:xlink="http://www.w3.org/1999/xlink">
<g id="graph0" class="graph" transform="scale(1 1) rotate(0) translate(4 309)">
<title>handle_client_command</title>
<!-- Node1 -->
<g id="Node000001" class="node">
<title>Node1</title>
<g id="a_Node000001"><a xlink:title=" ">
<polygon fill="#999999" stroke="#666666" points="121,-267 0,-267 0,-247 121,-247 121,-267"/>
<text text-anchor="middle" x="60.5" y="-253.5" font-family="Helvetica,sans-Serif" font-size="10.00">handle_client_command</text>
</a>
</g>
</g>
<!-- Node2 -->
<g id="Node000002" class="node">
<title>Node2</title>
<g id="a_Node000002"><a xlink:href="command_8c.html#ad5ab8f8763157c7c6779aefec5223821" target="_top" xlink:title=" ">
<polygon fill="white" stroke="#666666" points="244.25,-267 157,-267 157,-247 244.25,-247 244.25,-267"/>
<text text-anchor="middle" x="200.62" y="-253.5" font-family="Helvetica,sans-Serif" font-size="10.00">get_client_buffer</text>
</a>
</g>
</g>
<!-- Node1&#45;&gt;Node2 -->
<g id="edge1_Node000001_Node000002" class="edge">
<title>Node1&#45;&gt;Node2</title>
<g id="a_edge1_Node000001_Node000002"><a xlink:title=" ">
<path fill="none" stroke="#63b8ff" d="M121.28,-257C129.31,-257 137.52,-257 145.45,-257"/>
<polygon fill="#63b8ff" stroke="#63b8ff" points="145.3,-260.5 155.3,-257 145.3,-253.5 145.3,-260.5"/>
</a>
</g>
</g>
<!-- Node3 -->
<g id="Node000003" class="node">
<title>Node3</title>
<g id="a_Node000003"><a xlink:href="command_8c.html#ae945a1521c2b6067022aafe003579548" target="_top" xlink:title=" ">
<polygon fill="white" stroke="#666666" points="385.5,-305 280.25,-305 280.25,-285 385.5,-285 385.5,-305"/>
<text text-anchor="middle" x="332.88" y="-291.5" font-family="Helvetica,sans-Serif" font-size="10.00">append_client_buffer</text>
</a>
</g>
</g>
<!-- Node2&#45;&gt;Node3 -->
<g id="edge2_Node000002_Node000003" class="edge">
<title>Node2&#45;&gt;Node3</title>
<g id="a_edge2_Node000002_Node000003"><a xlink:title=" ">
<path fill="none" stroke="#63b8ff" d="M237.56,-267.48C252.22,-271.76 269.38,-276.77 285,-281.33"/>
<polygon fill="#63b8ff" stroke="#63b8ff" points="284.02,-284.69 294.6,-284.13 285.98,-277.97 284.02,-284.69"/>
</a>
</g>
</g>
<!-- Node4 -->
<g id="Node000004" class="node">
<title>Node4</title>
<g id="a_Node000004"><a xlink:href="parser_8c.html#a3fd716b111caa8f93098f7e5070fd0bb" target="_top" xlink:title=" ">
<polygon fill="white" stroke="#666666" points="516.62,-286 445.12,-286 445.12,-266 516.62,-266 516.62,-286"/>
<text text-anchor="middle" x="480.88" y="-272.5" font-family="Helvetica,sans-Serif" font-size="10.00">display_error</text>
</a>
</g>
</g>
<!-- Node2&#45;&gt;Node4 -->
<g id="edge4_Node000002_Node000004" class="edge">
<title>Node2&#45;&gt;Node4</title>
<g id="a_edge4_Node000002_Node000004"><a xlink:title=" ">
<path fill="none" stroke="#63b8ff" d="M244.49,-259.93C295.65,-263.42 380.88,-269.24 433.53,-272.84"/>
<polygon fill="#63b8ff" stroke="#63b8ff" points="433.17,-276.32 443.38,-273.51 433.64,-269.33 433.17,-276.32"/>
</a>
</g>
</g>
<!-- Node5 -->
<g id="Node000005" class="node">
<title>Node5</title>
<g id="a_Node000005"><a xlink:href="handle__commands_8c.html#a375d7edcc6568dc2e11d1b7e2cff7ba3" target="_top" xlink:title=" ">
<polygon fill="white" stroke="#666666" points="382.12,-229 283.62,-229 283.62,-209 382.12,-209 382.12,-229"/>
<text text-anchor="middle" x="332.88" y="-215.5" font-family="Helvetica,sans-Serif" font-size="10.00">execute_command</text>
</a>
</g>
</g>
<!-- Node2&#45;&gt;Node5 -->
<g id="edge5_Node000002_Node000005" class="edge">
<title>Node2&#45;&gt;Node5</title>
<g id="a_edge5_Node000002_Node000005"><a xlink:title=" ">
<path fill="none" stroke="#63b8ff" d="M237.56,-246.52C252.22,-242.24 269.38,-237.23 285,-232.67"/>
<polygon fill="#63b8ff" stroke="#63b8ff" points="285.98,-236.03 294.6,-229.87 284.02,-229.31 285.98,-236.03"/>
</a>
</g>
</g>
<!-- Node3&#45;&gt;Node4 -->
<g id="edge3_Node000003_Node000004" class="edge">
<title>Node3&#45;&gt;Node4</title>
<g id="a_edge3_Node000003_Node000004"><a xlink:title=" ">
<path fill="none" stroke="#63b8ff" d="M385.76,-288.25C401.44,-286.21 418.53,-283.98 433.8,-282"/>
<polygon fill="#63b8ff" stroke="#63b8ff" points="434.1,-285.49 443.57,-280.73 433.2,-278.55 434.1,-285.49"/>
</a>
</g>
</g>
<!-- Node6 -->
<g id="Node000006" class="node">
<title>Node6</title>
<g id="a_Node000006"><a xlink:href="handle__commands_8c.html#a98cc233ffc0887c9cd54dbc4b4be1381" target="_top" xlink:title=" ">
<polygon fill="white" stroke="#666666" points="540.25,-229 421.5,-229 421.5,-209 540.25,-209 540.25,-229"/>
<text text-anchor="middle" x="480.88" y="-215.5" font-family="Helvetica,sans-Serif" font-size="10.00">process_command_line</text>
</a>
</g>
</g>
<!-- Node5&#45;&gt;Node6 -->
<g id="edge6_Node000005_Node000006" class="edge">
<title>Node5&#45;&gt;Node6</title>
<g id="a_edge6_Node000005_Node000006"><a xlink:title=" ">
<path fill="none" stroke="#63b8ff" d="M382.49,-219C391.28,-219 400.6,-219 409.85,-219"/>
<polygon fill="#63b8ff" stroke="#63b8ff" points="409.56,-222.5 419.56,-219 409.56,-215.5 409.56,-222.5"/>
</a>
</g>
</g>
<!-- Node7 -->
<g id="Node000007" class="node">
<title>Node7</title>
<g id="a_Node000007"><a xlink:href="handle__commands_8c.html#a352cb4d4bd51fa5e282ec7d919c8ab98" target="_top" xlink:title=" ">
<polygon fill="white" stroke="#666666" points="680.75,-267 576.25,-267 576.25,-247 680.75,-247 680.75,-267"/>
<text text-anchor="middle" x="628.5" y="-253.5" font-family="Helvetica,sans-Serif" font-size="10.00">free_command_args</text>
</a>
</g>
</g>
<!-- Node6&#45;&gt;Node7 -->
<g id="edge7_Node000006_Node000007" class="edge">
<title>Node6&#45;&gt;Node7</title>
<g id="a_edge7_Node000006_Node000007"><a xlink:title=" ">
<path fill="none" stroke="#63b8ff" d="M522.05,-229.48C538.85,-233.87 558.56,-239.01 576.37,-243.66"/>
<polygon fill="#63b8ff" stroke="#63b8ff" points="575.43,-247.03 585.99,-246.17 577.2,-240.26 575.43,-247.03"/>
</a>
</g>
</g>
<!-- Node8 -->
<g id="Node000008" class="node">
<title>Node8</title>
<g id="a_Node000008"><a xlink:href="handle__commands_8c.html#a03295c32c7b9f27e43b9af93c3d0fa21" target="_top" xlink:title=" ">
<polygon fill="white" stroke="#666666" points="672.5,-229 584.5,-229 584.5,-209 672.5,-209 672.5,-229"/>
<text text-anchor="middle" x="628.5" y="-215.5" font-family="Helvetica,sans-Serif" font-size="10.00">parse_command</text>
</a>
</g>
</g>
<!-- Node6&#45;&gt;Node8 -->
<g id="edge8_Node000006_Node000008" class="edge">
<title>Node6&#45;&gt;Node8</title>
<g id="a_edge8_Node000006_Node000008"><a xlink:title=" ">
<path fill="none" stroke="#63b8ff" d="M540.69,-219C551.24,-219 562.2,-219 572.64,-219"/>
<polygon fill="#63b8ff" stroke="#63b8ff" points="572.63,-222.5 582.63,-219 572.63,-215.5 572.63,-222.5"/>
</a>
</g>
</g>
<!-- Node12 -->
<g id="Node000012" class="node">
<title>Node12</title>
<g id="a_Node000012"><a xlink:href="process__command_8c.html#ab89f4829cb4a8daff7b88c8c7147c836" target="_top" xlink:title=" ">
<polygon fill="white" stroke="#666666" points="677.75,-134 579.25,-134 579.25,-114 677.75,-114 677.75,-134"/>
<text text-anchor="middle" x="628.5" y="-120.5" font-family="Helvetica,sans-Serif" font-size="10.00">process_command</text>
</a>
</g>
</g>
<!-- Node6&#45;&gt;Node12 -->
<g id="edge12_Node000006_Node000012" class="edge">
<title>Node6&#45;&gt;Node12</title>
<g id="a_edge12_Node000006_Node000012"><a xlink:title=" ">
<path fill="none" stroke="#63b8ff" d="M497.74,-208.65C522.9,-192.23 572.2,-160.07 602.26,-140.46"/>
<polygon fill="#63b8ff" stroke="#63b8ff" points="603.93,-143.56 610.39,-135.16 600.1,-137.69 603.93,-143.56"/>
</a>
</g>
</g>
<!-- Node9 -->
<g id="Node000009" class="node">
<title>Node9</title>
<g id="a_Node000009"><a xlink:href="handle__commands_8c.html#a34c78653d61ed2d1f44d247e98b3f7eb" target="_top" xlink:title=" ">
<polygon fill="white" stroke="#666666" points="826.12,-286 725.38,-286 725.38,-266 826.12,-266 826.12,-286"/>
<text text-anchor="middle" x="775.75" y="-272.5" font-family="Helvetica,sans-Serif" font-size="10.00">allocate_args_array</text>
</a>
</g>
</g>
<!-- Node8&#45;&gt;Node9 -->
<g id="edge9_Node000008_Node000009" class="edge">
<title>Node8&#45;&gt;Node9</title>
<g id="a_edge9_Node000008_Node000009"><a xlink:title=" ">
<path fill="none" stroke="#63b8ff" d="M659.58,-229.4C666.6,-232.04 673.99,-234.98 680.75,-238 697.27,-245.38 700.09,-249.94 716.75,-257 720.75,-258.7 724.96,-260.34 729.2,-261.9"/>
<polygon fill="#63b8ff" stroke="#63b8ff" points="727.72,-265.08 738.31,-265.09 730.03,-258.48 727.72,-265.08"/>
</a>
</g>
</g>
<!-- Node10 -->
<g id="Node000010" class="node">
<title>Node10</title>
<g id="a_Node000010"><a xlink:href="handle__commands_8c.html#aa03c5d2f29891c89c666b5c1ecb84c04" target="_top" xlink:title=" ">
<polygon fill="white" stroke="#666666" points="813,-248 738.5,-248 738.5,-228 813,-228 813,-248"/>
<text text-anchor="middle" x="775.75" y="-234.5" font-family="Helvetica,sans-Serif" font-size="10.00">count_tokens</text>
</a>
</g>
</g>
<!-- Node8&#45;&gt;Node10 -->
<g id="edge10_Node000008_Node000010" class="edge">
<title>Node8&#45;&gt;Node10</title>
<g id="a_edge10_Node000008_Node000010"><a xlink:title=" ">
<path fill="none" stroke="#63b8ff" d="M672.69,-224.65C689.84,-226.89 709.62,-229.48 727.18,-231.78"/>
<polygon fill="#63b8ff" stroke="#63b8ff" points="726.48,-235.22 736.85,-233.04 727.39,-228.27 726.48,-235.22"/>
</a>
</g>
</g>
<!-- Node11 -->
<g id="Node000011" class="node">
<title>Node11</title>
<g id="a_Node000011"><a xlink:href="handle__commands_8c.html#a3eee1a837bff9d2627a44999f62bb963" target="_top" xlink:title=" ">
<polygon fill="white" stroke="#666666" points="814.12,-210 737.38,-210 737.38,-190 814.12,-190 814.12,-210"/>
<text text-anchor="middle" x="775.75" y="-196.5" font-family="Helvetica,sans-Serif" font-size="10.00">fill_args_array</text>
</a>
</g>
</g>
<!-- Node8&#45;&gt;Node11 -->
<g id="edge11_Node000008_Node000011" class="edge">
<title>Node8&#45;&gt;Node11</title>
<g id="a_edge11_Node000008_Node000011"><a xlink:title=" ">
<path fill="none" stroke="#63b8ff" d="M672.69,-213.35C689.42,-211.16 708.67,-208.64 725.91,-206.39"/>
<polygon fill="#63b8ff" stroke="#63b8ff" points="725.94,-209.91 735.4,-205.15 725.03,-202.97 725.94,-209.91"/>
</a>
</g>
</g>
<!-- Node13 -->
<g id="Node000013" class="node">
<title>Node13</title>
<g id="a_Node000013"><a xlink:href="process__command_8c.html#a3799614584819f5c158ddd57cb07f72a" target="_top" xlink:title=" ">
<polygon fill="white" stroke="#666666" points="815.25,-172 736.25,-172 736.25,-152 815.25,-152 815.25,-172"/>
<text text-anchor="middle" x="775.75" y="-158.5" font-family="Helvetica,sans-Serif" font-size="10.00">check_graphic</text>
</a>
</g>
</g>
<!-- Node12&#45;&gt;Node13 -->
<g id="edge13_Node000012_Node000013" class="edge">
<title>Node12&#45;&gt;Node13</title>
<g id="a_edge13_Node000012_Node000013"><a xlink:title=" ">
<path fill="none" stroke="#63b8ff" d="M669.57,-134.48C686.68,-138.96 706.83,-144.23 724.88,-148.95"/>
<polygon fill="#63b8ff" stroke="#63b8ff" points="723.78,-152.28 734.34,-151.43 725.56,-145.51 723.78,-152.28"/>
</a>
</g>
</g>
<!-- Node14 -->
<g id="Node000014" class="node">
<title>Node14</title>
<g id="a_Node000014"><a xlink:href="exec__command_8c.html#afbebbfaa69aaadda4d61c30a35b9dc40" target="_top" xlink:title=" ">
<polygon fill="white" stroke="#666666" points="818.25,-134 733.25,-134 733.25,-114 818.25,-114 818.25,-134"/>
<text text-anchor="middle" x="775.75" y="-120.5" font-family="Helvetica,sans-Serif" font-size="10.00">exec_command</text>
</a>
</g>
</g>
<!-- Node12&#45;&gt;Node14 -->
<g id="edge14_Node000012_Node000014" class="edge">
<title>Node12&#45;&gt;Node14</title>
<g id="a_edge14_Node000012_Node000014"><a xlink:title=" ">
<path fill="none" stroke="#63b8ff" d="M677.87,-124C691.93,-124 707.37,-124 721.71,-124"/>
<polygon fill="#63b8ff" stroke="#63b8ff" points="721.41,-127.5 731.41,-124 721.41,-120.5 721.41,-127.5"/>
</a>
</g>
</g>
<!-- Node18 -->
<g id="Node000018" class="node">
<title>Node18</title>
<g id="a_Node000018"><a xlink:href="process__command_8c.html#a898fc3c3e6561eeb6f612098db5db51b" target="_top" xlink:title=" ">
<polygon fill="white" stroke="#666666" points="810,-96 741.5,-96 741.5,-76 810,-76 810,-96"/>
<text text-anchor="middle" x="775.75" y="-82.5" font-family="Helvetica,sans-Serif" font-size="10.00">is_in_teams</text>
</a>
</g>
</g>
<!-- Node12&#45;&gt;Node18 -->
<g id="edge18_Node000012_Node000018" class="edge">
<title>Node12&#45;&gt;Node18</title>
<g id="a_edge18_Node000012_Node000018"><a xlink:title=" ">
<path fill="none" stroke="#63b8ff" d="M669.57,-113.52C688.39,-108.59 710.87,-102.71 730.22,-97.65"/>
<polygon fill="#63b8ff" stroke="#63b8ff" points="730.94,-101.08 739.73,-95.16 729.17,-94.31 730.94,-101.08"/>
</a>
</g>
</g>
<!-- Node19 -->
<g id="Node000019" class="node">
<title>Node19</title>
<g id="a_Node000019"><a xlink:href="process__command_8c.html#a8cff9e7b414335547030008d046149ea" target="_top" xlink:title=" ">
<polygon fill="white" stroke="#666666" points="834.75,-58 716.75,-58 716.75,-38 834.75,-38 834.75,-58"/>
<text text-anchor="middle" x="775.75" y="-44.5" font-family="Helvetica,sans-Serif" font-size="10.00">new_connection_player</text>
</a>
</g>
</g>
<!-- Node12&#45;&gt;Node19 -->
<g id="edge19_Node000012_Node000019" class="edge">
<title>Node12&#45;&gt;Node19</title>
<g id="a_edge19_Node000012_Node000019"><a xlink:title=" ">
<path fill="none" stroke="#63b8ff" d="M643.04,-113.53C659.64,-101.08 689.02,-80.31 716.75,-67 720.2,-65.34 723.83,-63.78 727.52,-62.31"/>
<polygon fill="#63b8ff" stroke="#63b8ff" points="728.4,-65.71 736.56,-58.96 725.96,-59.15 728.4,-65.71"/>
</a>
</g>
</g>
<!-- Node15 -->
<g id="Node000015" class="node">
<title>Node15</title>
<g id="a_Node000015"><a xlink:href="exec__command_8c.html#ad90274df54695f20fc2a27f100a9631d" target="_top" xlink:title=" ">
<polygon fill="white" stroke="#666666" points="971.12,-172 891.38,-172 891.38,-152 971.12,-152 971.12,-172"/>
<text text-anchor="middle" x="931.25" y="-158.5" font-family="Helvetica,sans-Serif" font-size="10.00">add_command</text>
</a>
</g>
</g>
<!-- Node14&#45;&gt;Node15 -->
<g id="edge15_Node000014_Node000015" class="edge">
<title>Node14&#45;&gt;Node15</title>
<g id="a_edge15_Node000014_Node000015"><a xlink:title=" ">
<path fill="none" stroke="#63b8ff" d="M818.69,-134.38C837.63,-139.07 860.15,-144.65 879.98,-149.56"/>
<polygon fill="#63b8ff" stroke="#63b8ff" points="878.98,-152.91 889.52,-151.92 880.66,-146.12 878.98,-152.91"/>
</a>
</g>
</g>
<!-- Node16 -->
<g id="Node000016" class="node">
<title>Node16</title>
<g id="a_Node000016"><a xlink:href="process__command_8c.html#a2b111d6371b98a5cac5128eaedeeb78c" target="_top" xlink:title=" ">
<polygon fill="white" stroke="#666666" points="968.5,-134 894,-134 894,-114 968.5,-114 968.5,-134"/>
<text text-anchor="middle" x="931.25" y="-120.5" font-family="Helvetica,sans-Serif" font-size="10.00">realloc_strcat</text>
</a>
</g>
</g>
<!-- Node14&#45;&gt;Node16 -->
<g id="edge16_Node000014_Node000016" class="edge">
<title>Node14&#45;&gt;Node16</title>
<g id="a_edge16_Node000014_Node000016"><a xlink:title=" ">
<path fill="none" stroke="#63b8ff" d="M818.69,-124C838.38,-124 861.93,-124 882.31,-124"/>
<polygon fill="#63b8ff" stroke="#63b8ff" points="882.07,-127.5 892.07,-124 882.07,-120.5 882.07,-127.5"/>
</a>
</g>
</g>
<!-- Node17 -->
<g id="Node000017" class="node">
<title>Node17</title>
<g id="a_Node000017"><a xlink:href="exec__command_8c.html#a281a6f6738826e3f19f602813a1efa24" target="_top" xlink:title=" ">
<polygon fill="white" stroke="#666666" points="960.62,-96 901.88,-96 901.88,-76 960.62,-76 960.62,-96"/>
<text text-anchor="middle" x="931.25" y="-82.5" font-family="Helvetica,sans-Serif" font-size="10.00">set_upper</text>
</a>
</g>
</g>
<!-- Node14&#45;&gt;Node17 -->
<g id="edge17_Node000014_Node000017" class="edge">
<title>Node14&#45;&gt;Node17</title>
<g id="a_edge17_Node000014_Node000017"><a xlink:title=" ">
<path fill="none" stroke="#63b8ff" d="M818.69,-113.62C841.07,-108.08 868.45,-101.3 890.49,-95.84"/>
<polygon fill="#63b8ff" stroke="#63b8ff" points="891.13,-99.29 900,-93.49 889.45,-92.49 891.13,-99.29"/>
</a>
</g>
</g>
<!-- Node20 -->
<g id="Node000020" class="node">
<title>Node20</title>
<g id="a_Node000020"><a xlink:href="process__command_8c.html#a8a3b8c540ccb4af605b27bb69c92e02a" target="_top" xlink:title=" ">
<polygon fill="white" stroke="#666666" points="962.12,-58 900.38,-58 900.38,-38 962.12,-38 962.12,-58"/>
<text text-anchor="middle" x="931.25" y="-44.5" font-family="Helvetica,sans-Serif" font-size="10.00">return_egg</text>
</a>
</g>
</g>
<!-- Node19&#45;&gt;Node20 -->
<g id="edge20_Node000019_Node000020" class="edge">
<title>Node19&#45;&gt;Node20</title>
<g id="a_edge20_Node000019_Node000020"><a xlink:title=" ">
<path fill="none" stroke="#63b8ff" d="M835.22,-48C853.08,-48 872.35,-48 888.83,-48"/>
<polygon fill="#63b8ff" stroke="#63b8ff" points="888.77,-51.5 898.77,-48 888.77,-44.5 888.77,-51.5"/>
</a>
</g>
</g>
<!-- Node21 -->
<g id="Node000021" class="node">
<title>Node21</title>
<g id="a_Node000021"><a xlink:href="process__command_8c.html#a1f8760aac256de83bf45d6fe94c62cf2" target="_top" xlink:title=" ">
<polygon fill="white" stroke="#666666" points="991.75,-20 870.75,-20 870.75,0 991.75,0 991.75,-20"/>
<text text-anchor="middle" x="931.25" y="-6.5" font-family="Helvetica,sans-Serif" font-size="10.00">send_datas_new_player</text>
</a>
</g>
</g>
<!-- Node19&#45;&gt;Node21 -->
<g id="edge21_Node000019_Node000021" class="edge">
<title>Node19&#45;&gt;Node21</title>
<g id="a_edge21_Node000019_Node000021"><a xlink:title=" ">
<path fill="none" stroke="#63b8ff" d="M819.1,-37.52C836.97,-33.09 857.97,-27.89 876.88,-23.21"/>
<polygon fill="#63b8ff" stroke="#63b8ff" points="877.7,-26.61 886.57,-20.81 876.02,-19.82 877.7,-26.61"/>
</a>
</g>
</g>
<!-- Node22 -->
<g id="Node000022" class="node">
<title>Node22</title>
<g id="a_Node000022"><a xlink:href="process__command_8c.html#a08624952cec00b3168e63e05f4203f97" target="_top" xlink:title=" ">
<polygon fill="white" stroke="#666666" points="1144.25,-20 1027.75,-20 1027.75,0 1144.25,0 1144.25,-20"/>
<text text-anchor="middle" x="1086" y="-6.5" font-family="Helvetica,sans-Serif" font-size="10.00">send_data_to_graphics</text>
</a>
</g>
</g>
<!-- Node21&#45;&gt;Node22 -->
<g id="edge22_Node000021_Node000022" class="edge">
<title>Node21&#45;&gt;Node22</title>
<g id="a_edge22_Node000021_Node000022"><a xlink:title=" ">
<path fill="none" stroke="#63b8ff" d="M992.18,-10C1000.14,-10 1008.34,-10 1016.42,-10"/>
<polygon fill="#63b8ff" stroke="#63b8ff" points="1016.22,-13.5 1026.22,-10 1016.22,-6.5 1016.22,-13.5"/>
</a>
</g>
</g>
</g>
</svg>
