<?xml version="1.0" encoding="UTF-8" standalone="no"?>
<!DOCTYPE svg PUBLIC "-//W3C//DTD SVG 1.1//EN"
 "http://www.w3.org/Graphics/SVG/1.1/DTD/svg11.dtd">
<!-- Generated by graphviz version 12.2.1 (20241206.2353)
 -->
<!-- Title: /home/matt/tek2/YEP/ZAPPY/zappy_server_src/command.c Pages: 1 -->
<svg width="540pt" height="108pt"
 viewBox="0.00 0.00 539.88 108.00" xmlns="http://www.w3.org/2000/svg" xmlns:xlink="http://www.w3.org/1999/xlink">
<g id="graph0" class="graph" transform="scale(1 1) rotate(0) translate(4 104)">
<title>/home/matt/tek2/YEP/ZAPPY/zappy_server_src/command.c</title>
<!-- Node1 -->
<g id="Node000001" class="node">
<title>Node1</title>
<g id="a_Node000001"><a xlink:title=" ">
<polygon fill="#999999" stroke="#666666" points="282,-100 168.5,-100 168.5,-56 282,-56 282,-100"/>
<text text-anchor="start" x="176.5" y="-86.5" font-family="Helvetica,sans-Serif" font-size="10.00">/home/matt/tek2/YEP</text>
<text text-anchor="start" x="176.5" y="-74.5" font-family="Helvetica,sans-Serif" font-size="10.00">/ZAPPY/zappy_server</text>
<text text-anchor="middle" x="225.25" y="-62.5" font-family="Helvetica,sans-Serif" font-size="10.00">_src/command.c</text>
</a>
</g>
</g>
<!-- Node2 -->
<g id="Node000002" class="node">
<title>Node2</title>
<g id="a_Node000002"><a xlink:title=" ">
<polygon fill="#e0e0e0" stroke="#999999" points="50.5,-20 0,-20 0,0 50.5,0 50.5,-20"/>
<text text-anchor="middle" x="25.25" y="-6.5" font-family="Helvetica,sans-Serif" font-size="10.00">unistd.h</text>
</a>
</g>
</g>
<!-- Node1&#45;&gt;Node2 -->
<g id="edge1_Node000001_Node000002" class="edge">
<title>Node1&#45;&gt;Node2</title>
<g id="a_edge1_Node000001_Node000002"><a xlink:title=" ">
<path fill="none" stroke="#63b8ff" d="M168.21,-58.18C133.91,-46.86 91.29,-32.79 61.55,-22.98"/>
<polygon fill="#63b8ff" stroke="#63b8ff" points="62.85,-19.72 52.26,-19.91 60.66,-26.37 62.85,-19.72"/>
</a>
</g>
</g>
<!-- Node3 -->
<g id="Node000003" class="node">
<title>Node3</title>
<g id="a_Node000003"><a xlink:title=" ">
<polygon fill="#e0e0e0" stroke="#999999" points="116.38,-20 68.12,-20 68.12,0 116.38,0 116.38,-20"/>
<text text-anchor="middle" x="92.25" y="-6.5" font-family="Helvetica,sans-Serif" font-size="10.00">string.h</text>
</a>
</g>
</g>
<!-- Node1&#45;&gt;Node3 -->
<g id="edge2_Node000001_Node000003" class="edge">
<title>Node1&#45;&gt;Node3</title>
<g id="a_edge2_Node000001_Node000003"><a xlink:title=" ">
<path fill="none" stroke="#63b8ff" d="M182.07,-55.57C162.22,-45.72 139.2,-34.3 121.43,-25.48"/>
<polygon fill="#63b8ff" stroke="#63b8ff" points="122.99,-22.35 112.48,-21.04 119.88,-28.62 122.99,-22.35"/>
</a>
</g>
</g>
<!-- Node4 -->
<g id="Node000004" class="node">
<title>Node4</title>
<g id="a_Node000004"><a xlink:title=" ">
<polygon fill="#e0e0e0" stroke="#999999" points="182,-20 134.5,-20 134.5,0 182,0 182,-20"/>
<text text-anchor="middle" x="158.25" y="-6.5" font-family="Helvetica,sans-Serif" font-size="10.00">stdlib.h</text>
</a>
</g>
</g>
<!-- Node1&#45;&gt;Node4 -->
<g id="edge3_Node000001_Node000004" class="edge">
<title>Node1&#45;&gt;Node4</title>
<g id="a_edge3_Node000001_Node000004"><a xlink:title=" ">
<path fill="none" stroke="#63b8ff" d="M203.68,-55.75C194.71,-46.92 184.42,-36.78 175.91,-28.4"/>
<polygon fill="#63b8ff" stroke="#63b8ff" points="178.47,-26.01 168.89,-21.48 173.56,-30.99 178.47,-26.01"/>
</a>
</g>
</g>
<!-- Node5 -->
<g id="Node000005" class="node">
<title>Node5</title>
<g id="a_Node000005"><a xlink:title=" ">
<polygon fill="#e0e0e0" stroke="#999999" points="250.88,-20 199.62,-20 199.62,0 250.88,0 250.88,-20"/>
<text text-anchor="middle" x="225.25" y="-6.5" font-family="Helvetica,sans-Serif" font-size="10.00">stdarg.h</text>
</a>
</g>
</g>
<!-- Node1&#45;&gt;Node5 -->
<g id="edge4_Node000001_Node000005" class="edge">
<title>Node1&#45;&gt;Node5</title>
<g id="a_edge4_Node000001_Node000005"><a xlink:title=" ">
<path fill="none" stroke="#63b8ff" d="M225.25,-55.75C225.25,-48.13 225.25,-39.53 225.25,-31.93"/>
<polygon fill="#63b8ff" stroke="#63b8ff" points="228.75,-31.93 225.25,-21.93 221.75,-31.93 228.75,-31.93"/>
</a>
</g>
</g>
<!-- Node6 -->
<g id="Node000006" class="node">
<title>Node6</title>
<g id="a_Node000006"><a xlink:title=" ">
<polygon fill="#e0e0e0" stroke="#999999" points="313.88,-20 268.62,-20 268.62,0 313.88,0 313.88,-20"/>
<text text-anchor="middle" x="291.25" y="-6.5" font-family="Helvetica,sans-Serif" font-size="10.00">stdio.h</text>
</a>
</g>
</g>
<!-- Node1&#45;&gt;Node6 -->
<g id="edge5_Node000001_Node000006" class="edge">
<title>Node1&#45;&gt;Node6</title>
<g id="a_edge5_Node000001_Node000006"><a xlink:title=" ">
<path fill="none" stroke="#63b8ff" d="M246.5,-55.75C255.33,-46.92 265.47,-36.78 273.85,-28.4"/>
<polygon fill="#63b8ff" stroke="#63b8ff" points="276.16,-31.04 280.76,-21.49 271.21,-26.09 276.16,-31.04"/>
</a>
</g>
</g>
<!-- Node7 -->
<g id="Node000007" class="node">
<title>Node7</title>
<g id="a_Node000007"><a xlink:title=" ">
<polygon fill="#e0e0e0" stroke="#999999" points="432.62,-20 331.88,-20 331.88,0 432.62,0 432.62,-20"/>
<text text-anchor="middle" x="382.25" y="-6.5" font-family="Helvetica,sans-Serif" font-size="10.00">include/command.h</text>
</a>
</g>
</g>
<!-- Node1&#45;&gt;Node7 -->
<g id="edge6_Node000001_Node000007" class="edge">
<title>Node1&#45;&gt;Node7</title>
<g id="a_edge6_Node000001_Node000007"><a xlink:title=" ">
<path fill="none" stroke="#63b8ff" d="M276.22,-55.57C300.32,-45.44 328.37,-33.65 349.57,-24.74"/>
<polygon fill="#63b8ff" stroke="#63b8ff" points="350.71,-28.05 358.58,-20.95 348,-21.6 350.71,-28.05"/>
</a>
</g>
</g>
<!-- Node8 -->
<g id="Node000008" class="node">
<title>Node8</title>
<g id="a_Node000008"><a xlink:title=" ">
<polygon fill="#e0e0e0" stroke="#999999" points="531.88,-20 450.62,-20 450.62,0 531.88,0 531.88,-20"/>
<text text-anchor="middle" x="491.25" y="-6.5" font-family="Helvetica,sans-Serif" font-size="10.00">include/client.h</text>
</a>
</g>
</g>
<!-- Node1&#45;&gt;Node8 -->
<g id="edge7_Node000001_Node000008" class="edge">
<title>Node1&#45;&gt;Node8</title>
<g id="a_edge7_Node000001_Node000008"><a xlink:title=" ">
<path fill="none" stroke="#63b8ff" d="M282.31,-62.84C329.88,-51.04 396.93,-34.4 442.14,-23.19"/>
<polygon fill="#63b8ff" stroke="#63b8ff" points="442.8,-26.63 451.67,-20.82 441.12,-19.83 442.8,-26.63"/>
</a>
</g>
</g>
</g>
</svg>
