<?xml version="1.0" encoding="UTF-8" standalone="no"?>
<!DOCTYPE svg PUBLIC "-//W3C//DTD SVG 1.1//EN"
 "http://www.w3.org/Graphics/SVG/1.1/DTD/svg11.dtd">
<!-- Generated by graphviz version 12.2.1 (20241206.2353)
 -->
<!-- Title: append_client_out_buffer Pages: 1 -->
<svg width="381pt" height="47pt"
 viewBox="0.00 0.00 380.75 47.00" xmlns="http://www.w3.org/2000/svg" xmlns:xlink="http://www.w3.org/1999/xlink">
<g id="graph0" class="graph" transform="scale(1 1) rotate(0) translate(4 43)">
<title>append_client_out_buffer</title>
<!-- Node1 -->
<g id="Node000001" class="node">
<title>Node1</title>
<g id="a_Node000001"><a xlink:title=" ">
<polygon fill="#999999" stroke="#666666" points="124,-20 0,-20 0,0 124,0 124,-20"/>
<text text-anchor="middle" x="62" y="-6.5" font-family="Helvetica,sans-Serif" font-size="10.00">append_client_out_buffer</text>
</a>
</g>
</g>
<!-- Node2 -->
<g id="Node000002" class="node">
<title>Node2</title>
<g id="a_Node000002"><a xlink:href="command_8c.html#ae945a1521c2b6067022aafe003579548" target="_top" xlink:title=" ">
<polygon fill="white" stroke="#666666" points="265.25,-39 160,-39 160,-19 265.25,-19 265.25,-39"/>
<text text-anchor="middle" x="212.62" y="-25.5" font-family="Helvetica,sans-Serif" font-size="10.00">append_client_buffer</text>
</a>
</g>
</g>
<!-- Node1&#45;&gt;Node2 -->
<g id="edge1_Node000001_Node000002" class="edge">
<title>Node1&#45;&gt;Node2</title>
<g id="a_edge1_Node000001_Node000002"><a xlink:title=" ">
<path fill="none" stroke="#63b8ff" d="M124.31,-17.84C132.35,-18.87 140.61,-19.92 148.68,-20.95"/>
<polygon fill="#63b8ff" stroke="#63b8ff" points="148.06,-24.4 158.42,-22.2 148.95,-17.46 148.06,-24.4"/>
</a>
</g>
</g>
<!-- Node3 -->
<g id="Node000003" class="node">
<title>Node3</title>
<g id="a_Node000003"><a xlink:href="parser_8c.html#a3fd716b111caa8f93098f7e5070fd0bb" target="_top" xlink:title=" ">
<polygon fill="white" stroke="#666666" points="372.75,-20 301.25,-20 301.25,0 372.75,0 372.75,-20"/>
<text text-anchor="middle" x="337" y="-6.5" font-family="Helvetica,sans-Serif" font-size="10.00">display_error</text>
</a>
</g>
</g>
<!-- Node1&#45;&gt;Node3 -->
<g id="edge3_Node000001_Node000003" class="edge">
<title>Node1&#45;&gt;Node3</title>
<g id="a_edge3_Node000001_Node000003"><a xlink:title=" ">
<path fill="none" stroke="#63b8ff" d="M124.27,-10C174.3,-10 243.96,-10 289.5,-10"/>
<polygon fill="#63b8ff" stroke="#63b8ff" points="289.3,-13.5 299.3,-10 289.3,-6.5 289.3,-13.5"/>
</a>
</g>
</g>
<!-- Node2&#45;&gt;Node3 -->
<g id="edge2_Node000002_Node000003" class="edge">
<title>Node2&#45;&gt;Node3</title>
<g id="a_edge2_Node000002_Node000003"><a xlink:title=" ">
<path fill="none" stroke="#63b8ff" d="M265.52,-20.94C273.58,-19.69 281.85,-18.41 289.77,-17.18"/>
<polygon fill="#63b8ff" stroke="#63b8ff" points="290.2,-20.65 299.55,-15.66 289.13,-13.74 290.2,-20.65"/>
</a>
</g>
</g>
</g>
</svg>
