<?xml version="1.0" encoding="UTF-8" standalone="no"?>
<!DOCTYPE svg PUBLIC "-//W3C//DTD SVG 1.1//EN"
 "http://www.w3.org/Graphics/SVG/1.1/DTD/svg11.dtd">
<!-- Generated by graphviz version 12.2.1 (20241206.2353)
 -->
<!-- Title: append_client_out_buffer Pages: 1 -->
<svg width="672pt" height="28pt"
 viewBox="0.00 0.00 671.75 28.00" xmlns="http://www.w3.org/2000/svg" xmlns:xlink="http://www.w3.org/1999/xlink">
<g id="graph0" class="graph" transform="scale(1 1) rotate(0) translate(4 24)">
<title>append_client_out_buffer</title>
<!-- Node1 -->
<g id="Node000001" class="node">
<title>Node1</title>
<g id="a_Node000001"><a xlink:title=" ">
<polygon fill="#999999" stroke="#666666" points="663.75,-20 539.75,-20 539.75,0 663.75,0 663.75,-20"/>
<text text-anchor="middle" x="601.75" y="-6.5" font-family="Helvetica,sans-Serif" font-size="10.00">append_client_out_buffer</text>
</a>
</g>
</g>
<!-- Node2 -->
<g id="Node000002" class="node">
<title>Node2</title>
<g id="a_Node000002"><a xlink:href="client_8c.html#a143835100e57a86e1106918450df6887" target="_top" xlink:title=" ">
<polygon fill="white" stroke="#666666" points="503.75,-20 419.5,-20 419.5,0 503.75,0 503.75,-20"/>
<text text-anchor="middle" x="461.62" y="-6.5" font-family="Helvetica,sans-Serif" font-size="10.00">add_client_data</text>
</a>
</g>
</g>
<!-- Node1&#45;&gt;Node2 -->
<g id="edge1_Node000001_Node000002" class="edge">
<title>Node1&#45;&gt;Node2</title>
<g id="a_edge1_Node000001_Node000002"><a xlink:title=" ">
<path fill="none" stroke="#63b8ff" d="M528.1,-10C519.84,-10 511.65,-10 504.01,-10"/>
<polygon fill="#63b8ff" stroke="#63b8ff" points="527.85,-13.5 537.85,-10 527.85,-6.5 527.85,-13.5"/>
</a>
</g>
</g>
<!-- Node3 -->
<g id="Node000003" class="node">
<title>Node3</title>
<g id="a_Node000003"><a xlink:href="client_8c.html#ae130c56fc8c99be8b6393fe8098f59a9" target="_top" xlink:title=" ">
<polygon fill="white" stroke="#666666" points="383.5,-20 323.25,-20 323.25,0 383.5,0 383.5,-20"/>
<text text-anchor="middle" x="353.38" y="-6.5" font-family="Helvetica,sans-Serif" font-size="10.00">add_client</text>
</a>
</g>
</g>
<!-- Node2&#45;&gt;Node3 -->
<g id="edge2_Node000002_Node000003" class="edge">
<title>Node2&#45;&gt;Node3</title>
<g id="a_edge2_Node000002_Node000003"><a xlink:title=" ">
<path fill="none" stroke="#63b8ff" d="M407.76,-10C399.58,-10 391.39,-10 383.97,-10"/>
<polygon fill="#63b8ff" stroke="#63b8ff" points="407.73,-13.5 417.73,-10 407.73,-6.5 407.73,-13.5"/>
</a>
</g>
</g>
<!-- Node4 -->
<g id="Node000004" class="node">
<title>Node4</title>
<g id="a_Node000004"><a xlink:href="zappy_8c.html#a6ffb860722d91e8898827740a227b495" target="_top" xlink:title=" ">
<polygon fill="white" stroke="#666666" points="287.25,-20 176.75,-20 176.75,0 287.25,0 287.25,-20"/>
<text text-anchor="middle" x="232" y="-6.5" font-family="Helvetica,sans-Serif" font-size="10.00">check_for_new_client</text>
</a>
</g>
</g>
<!-- Node3&#45;&gt;Node4 -->
<g id="edge3_Node000003_Node000004" class="edge">
<title>Node3&#45;&gt;Node4</title>
<g id="a_edge3_Node000003_Node000004"><a xlink:title=" ">
<path fill="none" stroke="#63b8ff" d="M311.49,-10C303.7,-10 295.43,-10 287.3,-10"/>
<polygon fill="#63b8ff" stroke="#63b8ff" points="311.35,-13.5 321.35,-10 311.35,-6.5 311.35,-13.5"/>
</a>
</g>
</g>
<!-- Node5 -->
<g id="Node000005" class="node">
<title>Node5</title>
<g id="a_Node000005"><a xlink:href="zappy_8c.html#a9b9af6be5e3898616b325720d9f29dbc" target="_top" xlink:title=" ">
<polygon fill="white" stroke="#666666" points="140.75,-20 73,-20 73,0 140.75,0 140.75,-20"/>
<text text-anchor="middle" x="106.88" y="-6.5" font-family="Helvetica,sans-Serif" font-size="10.00">start_server</text>
</a>
</g>
</g>
<!-- Node4&#45;&gt;Node5 -->
<g id="edge4_Node000004_Node000005" class="edge">
<title>Node4&#45;&gt;Node5</title>
<g id="a_edge4_Node000004_Node000005"><a xlink:title=" ">
<path fill="none" stroke="#63b8ff" d="M165.03,-10C156.79,-10 148.66,-10 141.23,-10"/>
<polygon fill="#63b8ff" stroke="#63b8ff" points="164.77,-13.5 174.77,-10 164.76,-6.5 164.77,-13.5"/>
</a>
</g>
</g>
<!-- Node6 -->
<g id="Node000006" class="node">
<title>Node6</title>
<g id="a_Node000006"><a xlink:href="main_8c.html#a0c99d968a34e803d378692bde2e3f18f" target="_top" xlink:title=" ">
<polygon fill="white" stroke="#666666" points="37,-20 0,-20 0,0 37,0 37,-20"/>
<text text-anchor="middle" x="18.5" y="-6.5" font-family="Helvetica,sans-Serif" font-size="10.00">main</text>
</a>
</g>
</g>
<!-- Node5&#45;&gt;Node6 -->
<g id="edge5_Node000005_Node000006" class="edge">
<title>Node5&#45;&gt;Node6</title>
<g id="a_edge5_Node000005_Node000006"><a xlink:title=" ">
<path fill="none" stroke="#63b8ff" d="M61.29,-10C52.84,-10 44.47,-10 37.46,-10"/>
<polygon fill="#63b8ff" stroke="#63b8ff" points="61.21,-13.5 71.21,-10 61.21,-6.5 61.21,-13.5"/>
</a>
</g>
</g>
</g>
</svg>
