<?xml version="1.0" encoding="UTF-8" standalone="no"?>
<!DOCTYPE svg PUBLIC "-//W3C//DTD SVG 1.1//EN"
 "http://www.w3.org/Graphics/SVG/1.1/DTD/svg11.dtd">
<!-- Generated by graphviz version 12.2.1 (20241206.2353)
 -->
<!-- Title: get_client_buffer Pages: 1 -->
<svg width="995pt" height="313pt"
 viewBox="0.00 0.00 995.25 313.00" xmlns="http://www.w3.org/2000/svg" xmlns:xlink="http://www.w3.org/1999/xlink">
<g id="graph0" class="graph" transform="scale(1 1) rotate(0) translate(4 309)">
<title>get_client_buffer</title>
<!-- Node1 -->
<g id="Node000001" class="node">
<title>Node1</title>
<g id="a_Node000001"><a xlink:title=" ">
<polygon fill="#999999" stroke="#666666" points="87.25,-267 0,-267 0,-247 87.25,-247 87.25,-267"/>
<text text-anchor="middle" x="43.62" y="-253.5" font-family="Helvetica,sans-Serif" font-size="10.00">get_client_buffer</text>
</a>
</g>
</g>
<!-- Node2 -->
<g id="Node000002" class="node">
<title>Node2</title>
<g id="a_Node000002"><a xlink:href="command_8c.html#ae945a1521c2b6067022aafe003579548" target="_top" xlink:title=" ">
<polygon fill="white" stroke="#666666" points="228.5,-305 123.25,-305 123.25,-285 228.5,-285 228.5,-305"/>
<text text-anchor="middle" x="175.88" y="-291.5" font-family="Helvetica,sans-Serif" font-size="10.00">append_client_buffer</text>
</a>
</g>
</g>
<!-- Node1&#45;&gt;Node2 -->
<g id="edge1_Node000001_Node000002" class="edge">
<title>Node1&#45;&gt;Node2</title>
<g id="a_edge1_Node000001_Node000002"><a xlink:title=" ">
<path fill="none" stroke="#63b8ff" d="M80.56,-267.48C95.22,-271.76 112.38,-276.77 128,-281.33"/>
<polygon fill="#63b8ff" stroke="#63b8ff" points="127.02,-284.69 137.6,-284.13 128.98,-277.97 127.02,-284.69"/>
</a>
</g>
</g>
<!-- Node3 -->
<g id="Node000003" class="node">
<title>Node3</title>
<g id="a_Node000003"><a xlink:href="parser_8c.html#a3fd716b111caa8f93098f7e5070fd0bb" target="_top" xlink:title=" ">
<polygon fill="white" stroke="#666666" points="359.62,-286 288.12,-286 288.12,-266 359.62,-266 359.62,-286"/>
<text text-anchor="middle" x="323.88" y="-272.5" font-family="Helvetica,sans-Serif" font-size="10.00">display_error</text>
</a>
</g>
</g>
<!-- Node1&#45;&gt;Node3 -->
<g id="edge3_Node000001_Node000003" class="edge">
<title>Node1&#45;&gt;Node3</title>
<g id="a_edge3_Node000001_Node000003"><a xlink:title=" ">
<path fill="none" stroke="#63b8ff" d="M87.49,-259.93C138.65,-263.42 223.88,-269.24 276.53,-272.84"/>
<polygon fill="#63b8ff" stroke="#63b8ff" points="276.17,-276.32 286.38,-273.51 276.64,-269.33 276.17,-276.32"/>
</a>
</g>
</g>
<!-- Node4 -->
<g id="Node000004" class="node">
<title>Node4</title>
<g id="a_Node000004"><a xlink:href="handle__commands_8c.html#a375d7edcc6568dc2e11d1b7e2cff7ba3" target="_top" xlink:title=" ">
<polygon fill="white" stroke="#666666" points="225.12,-229 126.62,-229 126.62,-209 225.12,-209 225.12,-229"/>
<text text-anchor="middle" x="175.88" y="-215.5" font-family="Helvetica,sans-Serif" font-size="10.00">execute_command</text>
</a>
</g>
</g>
<!-- Node1&#45;&gt;Node4 -->
<g id="edge4_Node000001_Node000004" class="edge">
<title>Node1&#45;&gt;Node4</title>
<g id="a_edge4_Node000001_Node000004"><a xlink:title=" ">
<path fill="none" stroke="#63b8ff" d="M80.56,-246.52C95.22,-242.24 112.38,-237.23 128,-232.67"/>
<polygon fill="#63b8ff" stroke="#63b8ff" points="128.98,-236.03 137.6,-229.87 127.02,-229.31 128.98,-236.03"/>
</a>
</g>
</g>
<!-- Node2&#45;&gt;Node3 -->
<g id="edge2_Node000002_Node000003" class="edge">
<title>Node2&#45;&gt;Node3</title>
<g id="a_edge2_Node000002_Node000003"><a xlink:title=" ">
<path fill="none" stroke="#63b8ff" d="M228.76,-288.25C244.44,-286.21 261.53,-283.98 276.8,-282"/>
<polygon fill="#63b8ff" stroke="#63b8ff" points="277.1,-285.49 286.57,-280.73 276.2,-278.55 277.1,-285.49"/>
</a>
</g>
</g>
<!-- Node5 -->
<g id="Node000005" class="node">
<title>Node5</title>
<g id="a_Node000005"><a xlink:href="handle__commands_8c.html#a98cc233ffc0887c9cd54dbc4b4be1381" target="_top" xlink:title=" ">
<polygon fill="white" stroke="#666666" points="383.25,-229 264.5,-229 264.5,-209 383.25,-209 383.25,-229"/>
<text text-anchor="middle" x="323.88" y="-215.5" font-family="Helvetica,sans-Serif" font-size="10.00">process_command_line</text>
</a>
</g>
</g>
<!-- Node4&#45;&gt;Node5 -->
<g id="edge5_Node000004_Node000005" class="edge">
<title>Node4&#45;&gt;Node5</title>
<g id="a_edge5_Node000004_Node000005"><a xlink:title=" ">
<path fill="none" stroke="#63b8ff" d="M225.49,-219C234.28,-219 243.6,-219 252.85,-219"/>
<polygon fill="#63b8ff" stroke="#63b8ff" points="252.56,-222.5 262.56,-219 252.56,-215.5 252.56,-222.5"/>
</a>
</g>
</g>
<!-- Node6 -->
<g id="Node000006" class="node">
<title>Node6</title>
<g id="a_Node000006"><a xlink:href="handle__commands_8c.html#a352cb4d4bd51fa5e282ec7d919c8ab98" target="_top" xlink:title=" ">
<polygon fill="white" stroke="#666666" points="523.75,-267 419.25,-267 419.25,-247 523.75,-247 523.75,-267"/>
<text text-anchor="middle" x="471.5" y="-253.5" font-family="Helvetica,sans-Serif" font-size="10.00">free_command_args</text>
</a>
</g>
</g>
<!-- Node5&#45;&gt;Node6 -->
<g id="edge6_Node000005_Node000006" class="edge">
<title>Node5&#45;&gt;Node6</title>
<g id="a_edge6_Node000005_Node000006"><a xlink:title=" ">
<path fill="none" stroke="#63b8ff" d="M365.05,-229.48C381.85,-233.87 401.56,-239.01 419.37,-243.66"/>
<polygon fill="#63b8ff" stroke="#63b8ff" points="418.43,-247.03 428.99,-246.17 420.2,-240.26 418.43,-247.03"/>
</a>
</g>
</g>
<!-- Node7 -->
<g id="Node000007" class="node">
<title>Node7</title>
<g id="a_Node000007"><a xlink:href="handle__commands_8c.html#a03295c32c7b9f27e43b9af93c3d0fa21" target="_top" xlink:title=" ">
<polygon fill="white" stroke="#666666" points="515.5,-229 427.5,-229 427.5,-209 515.5,-209 515.5,-229"/>
<text text-anchor="middle" x="471.5" y="-215.5" font-family="Helvetica,sans-Serif" font-size="10.00">parse_command</text>
</a>
</g>
</g>
<!-- Node5&#45;&gt;Node7 -->
<g id="edge7_Node000005_Node000007" class="edge">
<title>Node5&#45;&gt;Node7</title>
<g id="a_edge7_Node000005_Node000007"><a xlink:title=" ">
<path fill="none" stroke="#63b8ff" d="M383.69,-219C394.24,-219 405.2,-219 415.64,-219"/>
<polygon fill="#63b8ff" stroke="#63b8ff" points="415.63,-222.5 425.63,-219 415.63,-215.5 415.63,-222.5"/>
</a>
</g>
</g>
<!-- Node11 -->
<g id="Node000011" class="node">
<title>Node11</title>
<g id="a_Node000011"><a xlink:href="process__command_8c.html#ab89f4829cb4a8daff7b88c8c7147c836" target="_top" xlink:title=" ">
<polygon fill="white" stroke="#666666" points="520.75,-134 422.25,-134 422.25,-114 520.75,-114 520.75,-134"/>
<text text-anchor="middle" x="471.5" y="-120.5" font-family="Helvetica,sans-Serif" font-size="10.00">process_command</text>
</a>
</g>
</g>
<!-- Node5&#45;&gt;Node11 -->
<g id="edge11_Node000005_Node000011" class="edge">
<title>Node5&#45;&gt;Node11</title>
<g id="a_edge11_Node000005_Node000011"><a xlink:title=" ">
<path fill="none" stroke="#63b8ff" d="M340.74,-208.65C365.9,-192.23 415.2,-160.07 445.26,-140.46"/>
<polygon fill="#63b8ff" stroke="#63b8ff" points="446.93,-143.56 453.39,-135.16 443.1,-137.69 446.93,-143.56"/>
</a>
</g>
</g>
<!-- Node8 -->
<g id="Node000008" class="node">
<title>Node8</title>
<g id="a_Node000008"><a xlink:href="handle__commands_8c.html#a34c78653d61ed2d1f44d247e98b3f7eb" target="_top" xlink:title=" ">
<polygon fill="white" stroke="#666666" points="669.12,-286 568.38,-286 568.38,-266 669.12,-266 669.12,-286"/>
<text text-anchor="middle" x="618.75" y="-272.5" font-family="Helvetica,sans-Serif" font-size="10.00">allocate_args_array</text>
</a>
</g>
</g>
<!-- Node7&#45;&gt;Node8 -->
<g id="edge8_Node000007_Node000008" class="edge">
<title>Node7&#45;&gt;Node8</title>
<g id="a_edge8_Node000007_Node000008"><a xlink:title=" ">
<path fill="none" stroke="#63b8ff" d="M502.58,-229.4C509.6,-232.04 516.99,-234.98 523.75,-238 540.27,-245.38 543.09,-249.94 559.75,-257 563.75,-258.7 567.96,-260.34 572.2,-261.9"/>
<polygon fill="#63b8ff" stroke="#63b8ff" points="570.72,-265.08 581.31,-265.09 573.03,-258.48 570.72,-265.08"/>
</a>
</g>
</g>
<!-- Node9 -->
<g id="Node000009" class="node">
<title>Node9</title>
<g id="a_Node000009"><a xlink:href="handle__commands_8c.html#aa03c5d2f29891c89c666b5c1ecb84c04" target="_top" xlink:title=" ">
<polygon fill="white" stroke="#666666" points="656,-248 581.5,-248 581.5,-228 656,-228 656,-248"/>
<text text-anchor="middle" x="618.75" y="-234.5" font-family="Helvetica,sans-Serif" font-size="10.00">count_tokens</text>
</a>
</g>
</g>
<!-- Node7&#45;&gt;Node9 -->
<g id="edge9_Node000007_Node000009" class="edge">
<title>Node7&#45;&gt;Node9</title>
<g id="a_edge9_Node000007_Node000009"><a xlink:title=" ">
<path fill="none" stroke="#63b8ff" d="M515.69,-224.65C532.84,-226.89 552.62,-229.48 570.18,-231.78"/>
<polygon fill="#63b8ff" stroke="#63b8ff" points="569.48,-235.22 579.85,-233.04 570.39,-228.27 569.48,-235.22"/>
</a>
</g>
</g>
<!-- Node10 -->
<g id="Node000010" class="node">
<title>Node10</title>
<g id="a_Node000010"><a xlink:href="handle__commands_8c.html#a3eee1a837bff9d2627a44999f62bb963" target="_top" xlink:title=" ">
<polygon fill="white" stroke="#666666" points="657.12,-210 580.38,-210 580.38,-190 657.12,-190 657.12,-210"/>
<text text-anchor="middle" x="618.75" y="-196.5" font-family="Helvetica,sans-Serif" font-size="10.00">fill_args_array</text>
</a>
</g>
</g>
<!-- Node7&#45;&gt;Node10 -->
<g id="edge10_Node000007_Node000010" class="edge">
<title>Node7&#45;&gt;Node10</title>
<g id="a_edge10_Node000007_Node000010"><a xlink:title=" ">
<path fill="none" stroke="#63b8ff" d="M515.69,-213.35C532.42,-211.16 551.67,-208.64 568.91,-206.39"/>
<polygon fill="#63b8ff" stroke="#63b8ff" points="568.94,-209.91 578.4,-205.15 568.03,-202.97 568.94,-209.91"/>
</a>
</g>
</g>
<!-- Node12 -->
<g id="Node000012" class="node">
<title>Node12</title>
<g id="a_Node000012"><a xlink:href="process__command_8c.html#a3799614584819f5c158ddd57cb07f72a" target="_top" xlink:title=" ">
<polygon fill="white" stroke="#666666" points="658.25,-172 579.25,-172 579.25,-152 658.25,-152 658.25,-172"/>
<text text-anchor="middle" x="618.75" y="-158.5" font-family="Helvetica,sans-Serif" font-size="10.00">check_graphic</text>
</a>
</g>
</g>
<!-- Node11&#45;&gt;Node12 -->
<g id="edge12_Node000011_Node000012" class="edge">
<title>Node11&#45;&gt;Node12</title>
<g id="a_edge12_Node000011_Node000012"><a xlink:title=" ">
<path fill="none" stroke="#63b8ff" d="M512.57,-134.48C529.68,-138.96 549.83,-144.23 567.88,-148.95"/>
<polygon fill="#63b8ff" stroke="#63b8ff" points="566.78,-152.28 577.34,-151.43 568.56,-145.51 566.78,-152.28"/>
</a>
</g>
</g>
<!-- Node13 -->
<g id="Node000013" class="node">
<title>Node13</title>
<g id="a_Node000013"><a xlink:href="exec__command_8c.html#afbebbfaa69aaadda4d61c30a35b9dc40" target="_top" xlink:title=" ">
<polygon fill="white" stroke="#666666" points="661.25,-134 576.25,-134 576.25,-114 661.25,-114 661.25,-134"/>
<text text-anchor="middle" x="618.75" y="-120.5" font-family="Helvetica,sans-Serif" font-size="10.00">exec_command</text>
</a>
</g>
</g>
<!-- Node11&#45;&gt;Node13 -->
<g id="edge13_Node000011_Node000013" class="edge">
<title>Node11&#45;&gt;Node13</title>
<g id="a_edge13_Node000011_Node000013"><a xlink:title=" ">
<path fill="none" stroke="#63b8ff" d="M520.87,-124C534.93,-124 550.37,-124 564.71,-124"/>
<polygon fill="#63b8ff" stroke="#63b8ff" points="564.41,-127.5 574.41,-124 564.41,-120.5 564.41,-127.5"/>
</a>
</g>
</g>
<!-- Node17 -->
<g id="Node000017" class="node">
<title>Node17</title>
<g id="a_Node000017"><a xlink:href="process__command_8c.html#a898fc3c3e6561eeb6f612098db5db51b" target="_top" xlink:title=" ">
<polygon fill="white" stroke="#666666" points="653,-96 584.5,-96 584.5,-76 653,-76 653,-96"/>
<text text-anchor="middle" x="618.75" y="-82.5" font-family="Helvetica,sans-Serif" font-size="10.00">is_in_teams</text>
</a>
</g>
</g>
<!-- Node11&#45;&gt;Node17 -->
<g id="edge17_Node000011_Node000017" class="edge">
<title>Node11&#45;&gt;Node17</title>
<g id="a_edge17_Node000011_Node000017"><a xlink:title=" ">
<path fill="none" stroke="#63b8ff" d="M512.57,-113.52C531.39,-108.59 553.87,-102.71 573.22,-97.65"/>
<polygon fill="#63b8ff" stroke="#63b8ff" points="573.94,-101.08 582.73,-95.16 572.17,-94.31 573.94,-101.08"/>
</a>
</g>
</g>
<!-- Node18 -->
<g id="Node000018" class="node">
<title>Node18</title>
<g id="a_Node000018"><a xlink:href="process__command_8c.html#a8cff9e7b414335547030008d046149ea" target="_top" xlink:title=" ">
<polygon fill="white" stroke="#666666" points="677.75,-58 559.75,-58 559.75,-38 677.75,-38 677.75,-58"/>
<text text-anchor="middle" x="618.75" y="-44.5" font-family="Helvetica,sans-Serif" font-size="10.00">new_connection_player</text>
</a>
</g>
</g>
<!-- Node11&#45;&gt;Node18 -->
<g id="edge18_Node000011_Node000018" class="edge">
<title>Node11&#45;&gt;Node18</title>
<g id="a_edge18_Node000011_Node000018"><a xlink:title=" ">
<path fill="none" stroke="#63b8ff" d="M486.04,-113.53C502.64,-101.08 532.02,-80.31 559.75,-67 563.2,-65.34 566.83,-63.78 570.52,-62.31"/>
<polygon fill="#63b8ff" stroke="#63b8ff" points="571.4,-65.71 579.56,-58.96 568.96,-59.15 571.4,-65.71"/>
</a>
</g>
</g>
<!-- Node14 -->
<g id="Node000014" class="node">
<title>Node14</title>
<g id="a_Node000014"><a xlink:href="exec__command_8c.html#ad90274df54695f20fc2a27f100a9631d" target="_top" xlink:title=" ">
<polygon fill="white" stroke="#666666" points="814.12,-172 734.38,-172 734.38,-152 814.12,-152 814.12,-172"/>
<text text-anchor="middle" x="774.25" y="-158.5" font-family="Helvetica,sans-Serif" font-size="10.00">add_command</text>
</a>
</g>
</g>
<!-- Node13&#45;&gt;Node14 -->
<g id="edge14_Node000013_Node000014" class="edge">
<title>Node13&#45;&gt;Node14</title>
<g id="a_edge14_Node000013_Node000014"><a xlink:title=" ">
<path fill="none" stroke="#63b8ff" d="M661.69,-134.38C680.63,-139.07 703.15,-144.65 722.98,-149.56"/>
<polygon fill="#63b8ff" stroke="#63b8ff" points="721.98,-152.91 732.52,-151.92 723.66,-146.12 721.98,-152.91"/>
</a>
</g>
</g>
<!-- Node15 -->
<g id="Node000015" class="node">
<title>Node15</title>
<g id="a_Node000015"><a xlink:href="process__command_8c.html#a2b111d6371b98a5cac5128eaedeeb78c" target="_top" xlink:title=" ">
<polygon fill="white" stroke="#666666" points="811.5,-134 737,-134 737,-114 811.5,-114 811.5,-134"/>
<text text-anchor="middle" x="774.25" y="-120.5" font-family="Helvetica,sans-Serif" font-size="10.00">realloc_strcat</text>
</a>
</g>
</g>
<!-- Node13&#45;&gt;Node15 -->
<g id="edge15_Node000013_Node000015" class="edge">
<title>Node13&#45;&gt;Node15</title>
<g id="a_edge15_Node000013_Node000015"><a xlink:title=" ">
<path fill="none" stroke="#63b8ff" d="M661.69,-124C681.38,-124 704.93,-124 725.31,-124"/>
<polygon fill="#63b8ff" stroke="#63b8ff" points="725.07,-127.5 735.07,-124 725.07,-120.5 725.07,-127.5"/>
</a>
</g>
</g>
<!-- Node16 -->
<g id="Node000016" class="node">
<title>Node16</title>
<g id="a_Node000016"><a xlink:href="exec__command_8c.html#a281a6f6738826e3f19f602813a1efa24" target="_top" xlink:title=" ">
<polygon fill="white" stroke="#666666" points="803.62,-96 744.88,-96 744.88,-76 803.62,-76 803.62,-96"/>
<text text-anchor="middle" x="774.25" y="-82.5" font-family="Helvetica,sans-Serif" font-size="10.00">set_upper</text>
</a>
</g>
</g>
<!-- Node13&#45;&gt;Node16 -->
<g id="edge16_Node000013_Node000016" class="edge">
<title>Node13&#45;&gt;Node16</title>
<g id="a_edge16_Node000013_Node000016"><a xlink:title=" ">
<path fill="none" stroke="#63b8ff" d="M661.69,-113.62C684.07,-108.08 711.45,-101.3 733.49,-95.84"/>
<polygon fill="#63b8ff" stroke="#63b8ff" points="734.13,-99.29 743,-93.49 732.45,-92.49 734.13,-99.29"/>
</a>
</g>
</g>
<!-- Node19 -->
<g id="Node000019" class="node">
<title>Node19</title>
<g id="a_Node000019"><a xlink:href="process__command_8c.html#a8a3b8c540ccb4af605b27bb69c92e02a" target="_top" xlink:title=" ">
<polygon fill="white" stroke="#666666" points="805.12,-58 743.38,-58 743.38,-38 805.12,-38 805.12,-58"/>
<text text-anchor="middle" x="774.25" y="-44.5" font-family="Helvetica,sans-Serif" font-size="10.00">return_egg</text>
</a>
</g>
</g>
<!-- Node18&#45;&gt;Node19 -->
<g id="edge19_Node000018_Node000019" class="edge">
<title>Node18&#45;&gt;Node19</title>
<g id="a_edge19_Node000018_Node000019"><a xlink:title=" ">
<path fill="none" stroke="#63b8ff" d="M678.22,-48C696.08,-48 715.35,-48 731.83,-48"/>
<polygon fill="#63b8ff" stroke="#63b8ff" points="731.77,-51.5 741.77,-48 731.77,-44.5 731.77,-51.5"/>
</a>
</g>
</g>
<!-- Node20 -->
<g id="Node000020" class="node">
<title>Node20</title>
<g id="a_Node000020"><a xlink:href="process__command_8c.html#a1f8760aac256de83bf45d6fe94c62cf2" target="_top" xlink:title=" ">
<polygon fill="white" stroke="#666666" points="834.75,-20 713.75,-20 713.75,0 834.75,0 834.75,-20"/>
<text text-anchor="middle" x="774.25" y="-6.5" font-family="Helvetica,sans-Serif" font-size="10.00">send_datas_new_player</text>
</a>
</g>
</g>
<!-- Node18&#45;&gt;Node20 -->
<g id="edge20_Node000018_Node000020" class="edge">
<title>Node18&#45;&gt;Node20</title>
<g id="a_edge20_Node000018_Node000020"><a xlink:title=" ">
<path fill="none" stroke="#63b8ff" d="M662.1,-37.52C679.97,-33.09 700.97,-27.89 719.88,-23.21"/>
<polygon fill="#63b8ff" stroke="#63b8ff" points="720.7,-26.61 729.57,-20.81 719.02,-19.82 720.7,-26.61"/>
</a>
</g>
</g>
<!-- Node21 -->
<g id="Node000021" class="node">
<title>Node21</title>
<g id="a_Node000021"><a xlink:href="process__command_8c.html#a08624952cec00b3168e63e05f4203f97" target="_top" xlink:title=" ">
<polygon fill="white" stroke="#666666" points="987.25,-20 870.75,-20 870.75,0 987.25,0 987.25,-20"/>
<text text-anchor="middle" x="929" y="-6.5" font-family="Helvetica,sans-Serif" font-size="10.00">send_data_to_graphics</text>
</a>
</g>
</g>
<!-- Node20&#45;&gt;Node21 -->
<g id="edge21_Node000020_Node000021" class="edge">
<title>Node20&#45;&gt;Node21</title>
<g id="a_edge21_Node000020_Node000021"><a xlink:title=" ">
<path fill="none" stroke="#63b8ff" d="M835.18,-10C843.14,-10 851.34,-10 859.42,-10"/>
<polygon fill="#63b8ff" stroke="#63b8ff" points="859.22,-13.5 869.22,-10 859.22,-6.5 859.22,-13.5"/>
</a>
</g>
</g>
</g>
</svg>
