<?xml version="1.0" encoding="UTF-8" standalone="no"?>
<!DOCTYPE svg PUBLIC "-//W3C//DTD SVG 1.1//EN"
 "http://www.w3.org/Graphics/SVG/1.1/DTD/svg11.dtd">
<!-- Generated by graphviz version 12.2.1 (20241206.2353)
 -->
<!-- Title: append_client_buffer Pages: 1 -->
<!--zoomable 66 -->

<svg id="main" version="1.1" xmlns="http://www.w3.org/2000/svg" xmlns:xlink="http://www.w3.org/1999/xlink" xml:space="preserve" onload="init(evt)">

<style type="text/css"><![CDATA[
.node, .edge {opacity: 0.7;}
.node.selected, .edge.selected {opacity: 1;}
.edge:hover path { stroke: red; }
.edge:hover polygon { stroke: red; fill: red; }
]]></style>

<defs>
  <circle id="rim" cx="0" cy="0" r="7"/>
  <circle id="rim2" cx="0" cy="0" r="3.5"/>
  <g id="zoomPlus">
    <use xlink:href="#rim" fill="#404040"><set attributeName="fill" to="#808080" begin="zoomplus.mouseover" end="zoomplus.mouseout"/></use>
    <path d="M-4,0h8M0,-4v8" fill="none" stroke="white" stroke-width="1.5" pointer-events="none"/>
  </g>
  <g id="zoomMin">
    <use xlink:href="#rim" fill="#404040"><set attributeName="fill" to="#808080" begin="zoomminus.mouseover" end="zoomminus.mouseout"/></use>
    <path d="M-4,0h8" fill="none" stroke="white" stroke-width="1.5" pointer-events="none"/>
  </g>
  <g id="arrowUp" transform="translate(30 24)">
    <use xlink:href="#rim"/>
    <path pointer-events="none" fill="none" stroke="white" stroke-width="1.5" d="M0,-3.0v7 M-2.5,-0.5L0,-3.0L2.5,-0.5"/>
  </g>
  <g id="arrowRight" transform="rotate(90) translate(36 -43)">
    <use xlink:href="#rim"/>
    <path pointer-events="none" fill="none" stroke="white" stroke-width="1.5" d="M0,-3.0v7 M-2.5,-0.5L0,-3.0L2.5,-0.5"/>
  </g>
  <g id="arrowDown" transform="rotate(180) translate(-30 -48)">
    <use xlink:href="#rim"/>
    <path pointer-events="none" fill="none" stroke="white" stroke-width="1.5" d="M0,-3.0v7 M-2.5,-0.5L0,-3.0L2.5,-0.5"/>
  </g>
  <g id="arrowLeft" transform="rotate(270) translate(-36 17)">
    <use xlink:href="#rim"/>
    <path pointer-events="none" fill="none" stroke="white" stroke-width="1.5" d="M0,-3.0v7 M-2.5,-0.5L0,-3.0L2.5,-0.5"/>
  </g>
  <g id="resetDef">
    <use xlink:href="#rim2" fill="#404040"><set attributeName="fill" to="#808080" begin="reset.mouseover" end="reset.mouseout"/></use>
  </g>
</defs>
<script type="application/ecmascript">
var viewWidth = 875;
var viewHeight = 66;
var sectionId = 'dynsection-2';
</script>
<script type="application/ecmascript" xlink:href="svg.min.js"/>
<svg id="graph" class="graph">
<g id="viewport">
<title>append_client_buffer</title>
<!-- Node1 -->
<g id="Node000001" class="node">
<title>Node1</title>
<g id="a_Node000001"><a xlink:title=" ">
<polygon fill="#999999" stroke="#666666" points="866.5,-39 761.25,-39 761.25,-19 866.5,-19 866.5,-39"/>
<text text-anchor="middle" x="813.88" y="-25.5" font-family="Helvetica,sans-Serif" font-size="10.00">append_client_buffer</text>
</a>
</g>
</g>
<!-- Node2 -->
<g id="Node000002" class="node">
<title>Node2</title>
<g id="a_Node000002"><a xlink:href="command_8c.html#a7ea78ee6c9551b3b281b8dc72f4e2f1f" target="_top" xlink:title=" ">
<polygon fill="white" stroke="#666666" points="725.25,-58 601.25,-58 601.25,-38 725.25,-38 725.25,-58"/>
<text text-anchor="middle" x="663.25" y="-44.5" font-family="Helvetica,sans-Serif" font-size="10.00">append_client_out_buffer</text>
</a>
</g>
</g>
<!-- Node1&#45;&gt;Node2 -->
<g id="edge1_Node000001_Node000002" class="edge">
<title>Node1&#45;&gt;Node2</title>
<g id="a_edge1_Node000001_Node000002"><a xlink:title=" ">
<path fill="none" stroke="#63b8ff" d="M749.48,-37.1C741.58,-38.11 733.51,-39.15 725.64,-40.15"/>
<polygon fill="#63b8ff" stroke="#63b8ff" points="749.92,-40.58 759.39,-35.84 749.03,-33.63 749.92,-40.58"/>
</a>
</g>
</g>
<!-- Node8 -->
<g id="Node000008" class="node">
<title>Node8</title>
<g id="a_Node000008"><a xlink:href="command_8c.html#ad5ab8f8763157c7c6779aefec5223821" target="_top" xlink:title=" ">
<polygon fill="white" stroke="#666666" points="706.88,-20 619.62,-20 619.62,0 706.88,0 706.88,-20"/>
<text text-anchor="middle" x="663.25" y="-6.5" font-family="Helvetica,sans-Serif" font-size="10.00">get_client_buffer</text>
</a>
</g>
</g>
<!-- Node1&#45;&gt;Node8 -->
<g id="edge7_Node000001_Node000008" class="edge">
<title>Node1&#45;&gt;Node8</title>
<g id="a_edge7_Node000001_Node000008"><a xlink:title=" ">
<path fill="none" stroke="#63b8ff" d="M749.57,-20.91C735.24,-19.08 720.36,-17.17 707.11,-15.48"/>
<polygon fill="#63b8ff" stroke="#63b8ff" points="749.03,-24.37 759.39,-22.16 749.92,-17.42 749.03,-24.37"/>
</a>
</g>
</g>
<!-- Node3 -->
<g id="Node000003" class="node">
<title>Node3</title>
<g id="a_Node000003"><a xlink:href="client_8c.html#a143835100e57a86e1106918450df6887" target="_top" xlink:title=" ">
<polygon fill="white" stroke="#666666" points="546.88,-58 462.62,-58 462.62,-38 546.88,-38 546.88,-58"/>
<text text-anchor="middle" x="504.75" y="-44.5" font-family="Helvetica,sans-Serif" font-size="10.00">add_client_data</text>
</a>
</g>
</g>
<!-- Node2&#45;&gt;Node3 -->
<g id="edge2_Node000002_Node000003" class="edge">
<title>Node2&#45;&gt;Node3</title>
<g id="a_edge2_Node000002_Node000003"><a xlink:title=" ">
<path fill="none" stroke="#63b8ff" d="M589.34,-48C574.88,-48 560.17,-48 547.21,-48"/>
<polygon fill="#63b8ff" stroke="#63b8ff" points="589.33,-51.5 599.33,-48 589.33,-44.5 589.33,-51.5"/>
</a>
</g>
</g>
<!-- Node4 -->
<g id="Node000004" class="node">
<title>Node4</title>
<g id="a_Node000004"><a xlink:href="client_8c.html#ae130c56fc8c99be8b6393fe8098f59a9" target="_top" xlink:title=" ">
<polygon fill="white" stroke="#666666" points="408.25,-58 348,-58 348,-38 408.25,-38 408.25,-58"/>
<text text-anchor="middle" x="378.12" y="-44.5" font-family="Helvetica,sans-Serif" font-size="10.00">add_client</text>
</a>
</g>
</g>
<!-- Node3&#45;&gt;Node4 -->
<g id="edge3_Node000003_Node000004" class="edge">
<title>Node3&#45;&gt;Node4</title>
<g id="a_edge3_Node000003_Node000004"><a xlink:title=" ">
<path fill="none" stroke="#63b8ff" d="M450.87,-48C436.41,-48 421.26,-48 408.63,-48"/>
<polygon fill="#63b8ff" stroke="#63b8ff" points="450.74,-51.5 460.74,-48 450.74,-44.5 450.74,-51.5"/>
</a>
</g>
</g>
<!-- Node5 -->
<g id="Node000005" class="node">
<title>Node5</title>
<g id="a_Node000005"><a xlink:href="zappy_8c.html#a6ffb860722d91e8898827740a227b495" target="_top" xlink:title=" ">
<polygon fill="white" stroke="#666666" points="299.62,-58 189.12,-58 189.12,-38 299.62,-38 299.62,-58"/>
<text text-anchor="middle" x="244.38" y="-44.5" font-family="Helvetica,sans-Serif" font-size="10.00">check_for_new_client</text>
</a>
</g>
</g>
<!-- Node4&#45;&gt;Node5 -->
<g id="edge4_Node000004_Node000005" class="edge">
<title>Node4&#45;&gt;Node5</title>
<g id="a_edge4_Node000004_Node000005"><a xlink:title=" ">
<path fill="none" stroke="#63b8ff" d="M336.14,-48C324.7,-48 312.09,-48 300,-48"/>
<polygon fill="#63b8ff" stroke="#63b8ff" points="336.04,-51.5 346.04,-48 336.04,-44.5 336.04,-51.5"/>
</a>
</g>
</g>
<!-- Node6 -->
<g id="Node000006" class="node">
<title>Node6</title>
<g id="a_Node000006"><a xlink:href="zappy_8c.html#a9b9af6be5e3898616b325720d9f29dbc" target="_top" xlink:title=" ">
<polygon fill="white" stroke="#666666" points="140.75,-39 73,-39 73,-19 140.75,-19 140.75,-39"/>
<text text-anchor="middle" x="106.88" y="-25.5" font-family="Helvetica,sans-Serif" font-size="10.00">start_server</text>
</a>
</g>
</g>
<!-- Node5&#45;&gt;Node6 -->
<g id="edge5_Node000005_Node000006" class="edge">
<title>Node5&#45;&gt;Node6</title>
<g id="a_edge5_Node000005_Node000006"><a xlink:title=" ">
<path fill="none" stroke="#63b8ff" d="M177.56,-38.77C164.85,-36.99 152.06,-35.2 140.96,-33.64"/>
<polygon fill="#63b8ff" stroke="#63b8ff" points="176.76,-42.19 187.15,-40.12 177.74,-35.26 176.76,-42.19"/>
</a>
</g>
</g>
<!-- Node7 -->
<g id="Node000007" class="node">
<title>Node7</title>
<g id="a_Node000007"><a xlink:href="main_8c.html#a0c99d968a34e803d378692bde2e3f18f" target="_top" xlink:title=" ">
<polygon fill="white" stroke="#666666" points="37,-39 0,-39 0,-19 37,-19 37,-39"/>
<text text-anchor="middle" x="18.5" y="-25.5" font-family="Helvetica,sans-Serif" font-size="10.00">main</text>
</a>
</g>
</g>
<!-- Node6&#45;&gt;Node7 -->
<g id="edge6_Node000006_Node000007" class="edge">
<title>Node6&#45;&gt;Node7</title>
<g id="a_edge6_Node000006_Node000007"><a xlink:title=" ">
<path fill="none" stroke="#63b8ff" d="M61.29,-29C52.84,-29 44.47,-29 37.46,-29"/>
<polygon fill="#63b8ff" stroke="#63b8ff" points="61.21,-32.5 71.21,-29 61.21,-25.5 61.21,-32.5"/>
</a>
</g>
</g>
<!-- Node9 -->
<g id="Node000009" class="node">
<title>Node9</title>
<g id="a_Node000009"><a xlink:href="command_8c.html#a89c794fd58c4d9f580afb6ecd5e91dc4" target="_top" xlink:title=" ">
<polygon fill="white" stroke="#666666" points="565.25,-20 444.25,-20 444.25,0 565.25,0 565.25,-20"/>
<text text-anchor="middle" x="504.75" y="-6.5" font-family="Helvetica,sans-Serif" font-size="10.00">handle_client_command</text>
</a>
</g>
</g>
<!-- Node8&#45;&gt;Node9 -->
<g id="edge8_Node000008_Node000009" class="edge">
<title>Node8&#45;&gt;Node9</title>
<g id="a_edge8_Node000008_Node000009"><a xlink:title=" ">
<path fill="none" stroke="#63b8ff" d="M608.21,-10C594.42,-10 579.53,-10 565.47,-10"/>
<polygon fill="#63b8ff" stroke="#63b8ff" points="607.97,-13.5 617.97,-10 607.97,-6.5 607.97,-13.5"/>
</a>
</g>
</g>
<!-- Node10 -->
<g id="Node000010" class="node">
<title>Node10</title>
<g id="a_Node000010"><a xlink:href="zappy_8c.html#a546faa7b19427abaa0c156a70b4ff185" target="_top" xlink:title=" ">
<polygon fill="white" stroke="#666666" points="312,-20 176.75,-20 176.75,0 312,0 312,-20"/>
<text text-anchor="middle" x="244.38" y="-6.5" font-family="Helvetica,sans-Serif" font-size="10.00">check_for_client_command</text>
</a>
</g>
</g>
<!-- Node9&#45;&gt;Node10 -->
<g id="edge9_Node000009_Node000010" class="edge">
<title>Node9&#45;&gt;Node10</title>
<g id="a_edge9_Node000009_Node000010"><a xlink:title=" ">
<path fill="none" stroke="#63b8ff" d="M432.45,-10C394.9,-10 349.12,-10 312.25,-10"/>
<polygon fill="#63b8ff" stroke="#63b8ff" points="432.31,-13.5 442.31,-10 432.31,-6.5 432.31,-13.5"/>
</a>
</g>
</g>
<!-- Node10&#45;&gt;Node6 -->
<g id="edge10_Node000010_Node000006" class="edge">
<title>Node10&#45;&gt;Node6</title>
<g id="a_edge10_Node000010_Node000006"><a xlink:title=" ">
<path fill="none" stroke="#63b8ff" d="M165.24,-20.96C156.8,-22.14 148.58,-23.29 141.12,-24.34"/>
<polygon fill="#63b8ff" stroke="#63b8ff" points="165.5,-24.45 174.92,-19.6 164.53,-17.52 165.5,-24.45"/>
</a>
</g>
</g>
</g>
</svg>

<g id="navigator" transform="translate(0 0)" fill="#404254">
  <rect fill="#f2f5e9" fill-opacity="0.5" stroke="#606060" stroke-width=".5" x="0" y="0" width="60" height="60"/>
  <use id="zoomplus" xlink:href="#zoomPlus" x="17" y="9" onmousedown="handleZoom(evt,'in')"/>
  <use id="zoomminus" xlink:href="#zoomMin" x="42" y="9" onmousedown="handleZoom(evt,'out')"/>
  <use id="reset" xlink:href="#resetDef" x="30" y="36" onmousedown="handleReset()"/>
   <use id="arrowup" xlink:href="#arrowUp" x="0" y="0" onmousedown="handlePan(0,-1)"/>
  <use id="arrowright" xlink:href="#arrowRight" x="0" y="0" onmousedown="handlePan(1,0)"/>
  <use id="arrowdown" xlink:href="#arrowDown" x="0" y="0" onmousedown="handlePan(0,1)"/>
  <use id="arrowleft" xlink:href="#arrowLeft" x="0" y="0" onmousedown="handlePan(-1,0)"/>
</g>
<svg viewBox="0 0 15 15" width="100%" height="30px" preserveAspectRatio="xMaxYMin meet">
 <g id="arrow_out" transform="scale(0.3 0.3)">
  <a xlink:href="command_8c_ae945a1521c2b6067022aafe003579548_icgraph_org.svg" target="_base">
   <rect id="button" ry="5" rx="5" y="6" x="6" height="38" width="38"
        fill="#f2f5e9" fill-opacity="0.5" stroke="#606060" stroke-width="1.0"/>
   <path id="arrow"
     d="M 11.500037,31.436501 C 11.940474,20.09759 22.043105,11.32322 32.158766,21.979434 L 37.068811,17.246167 C 37.068811,17.246167 37.088388,32 37.088388,32 L 22.160133,31.978069 C 22.160133,31.978069 26.997745,27.140456 26.997745,27.140456 C 18.528582,18.264221 13.291696,25.230495 11.500037,31.436501 z"
     style="fill:#404040;"/>
  </a>
 </g>
</svg>

<style type='text/css'>
<![CDATA[
[data-mouse-over-selected='false'] { opacity: 0.7; }
[data-mouse-over-selected='true']  { opacity: 1.0; }
]]>
</style>
<script type="application/ecmascript"><![CDATA[
document.addEventListener('DOMContentLoaded', (event) => {
  highlightEdges();
  highlightAdjacentNodes();
});
]]></script>
</svg>
