<?xml version="1.0" encoding="UTF-8" standalone="no"?>
<!DOCTYPE svg PUBLIC "-//W3C//DTD SVG 1.1//EN"
 "http://www.w3.org/Graphics/SVG/1.1/DTD/svg11.dtd">
<!-- Generated by graphviz version 12.2.1 (20241206.2353)
 -->
<!-- Title: exec_command Pages: 1 -->
<svg width="209pt" height="104pt"
 viewBox="0.00 0.00 208.75 104.00" xmlns="http://www.w3.org/2000/svg" xmlns:xlink="http://www.w3.org/1999/xlink">

<svg id="main" version="1.1" xmlns="http://www.w3.org/2000/svg" xmlns:xlink="http://www.w3.org/1999/xlink" xml:space="preserve">

<style type="text/css"><![CDATA[
.node, .edge {opacity: 0.7;}
.node.selected, .edge.selected {opacity: 1;}
.edge:hover path { stroke: red; }
.edge:hover polygon { stroke: red; fill: red; }
]]></style>
<script type="application/ecmascript" xlink:href="svg.min.js"/>
<svg id="graph" class="graph">
<g id="graph0" class="graph" transform="scale(1 1) rotate(0) translate(4 100)">
<title>exec_command</title>
<!-- Node1 -->
<g id="Node000001" class="node">
<title>Node1</title>
<g id="a_Node000001"><a xlink:title=" ">
<polygon fill="#999999" stroke="#666666" points="85,-58 0,-58 0,-38 85,-38 85,-58"/>
<text text-anchor="middle" x="42.5" y="-44.5" font-family="Helvetica,sans-Serif" font-size="10.00">exec_command</text>
</a>
</g>
</g>
<!-- Node2 -->
<g id="Node000002" class="node">
<title>Node2</title>
<g id="a_Node000002"><a xlink:href="exec__command_8c.html#ad90274df54695f20fc2a27f100a9631d" target="_top" xlink:title=" ">
<polygon fill="white" stroke="#666666" points="200.75,-96 121,-96 121,-76 200.75,-76 200.75,-96"/>
<text text-anchor="middle" x="160.88" y="-82.5" font-family="Helvetica,sans-Serif" font-size="10.00">add_command</text>
</a>
</g>
</g>
<!-- Node1&#45;&gt;Node2 -->
<g id="edge1_Node000001_Node000002" class="edge">
<title>Node1&#45;&gt;Node2</title>
<g id="a_edge1_Node000001_Node000002"><a xlink:title=" ">
<path fill="none" stroke="#63b8ff" d="M75.61,-58.48C88.45,-62.68 103.44,-67.57 117.18,-72.06"/>
<polygon fill="#63b8ff" stroke="#63b8ff" points="115.84,-75.3 126.43,-75.08 118.01,-68.65 115.84,-75.3"/>
</a>
</g>
</g>
<!-- Node3 -->
<g id="Node000003" class="node">
<title>Node3</title>
<g id="a_Node000003"><a xlink:href="process__command_8c.html#a2b111d6371b98a5cac5128eaedeeb78c" target="_top" xlink:title=" ">
<polygon fill="white" stroke="#666666" points="198.12,-58 123.62,-58 123.62,-38 198.12,-38 198.12,-58"/>
<text text-anchor="middle" x="160.88" y="-44.5" font-family="Helvetica,sans-Serif" font-size="10.00">realloc_strcat</text>
</a>
</g>
</g>
<!-- Node1&#45;&gt;Node3 -->
<g id="edge2_Node000001_Node000003" class="edge">
<title>Node1&#45;&gt;Node3</title>
<g id="a_edge2_Node000001_Node000003"><a xlink:title=" ">
<path fill="none" stroke="#63b8ff" d="M85.19,-48C93.89,-48 103.14,-48 112.05,-48"/>
<polygon fill="#63b8ff" stroke="#63b8ff" points="111.98,-51.5 121.98,-48 111.98,-44.5 111.98,-51.5"/>
</a>
</g>
</g>
<!-- Node4 -->
<g id="Node000004" class="node">
<title>Node4</title>
<g id="a_Node000004"><a xlink:href="exec__command_8c.html#a281a6f6738826e3f19f602813a1efa24" target="_top" xlink:title=" ">
<polygon fill="white" stroke="#666666" points="190.25,-20 131.5,-20 131.5,0 190.25,0 190.25,-20"/>
<text text-anchor="middle" x="160.88" y="-6.5" font-family="Helvetica,sans-Serif" font-size="10.00">set_upper</text>
</a>
</g>
</g>
<!-- Node1&#45;&gt;Node4 -->
<g id="edge3_Node000001_Node000004" class="edge">
<title>Node1&#45;&gt;Node4</title>
<g id="a_edge3_Node000001_Node000004"><a xlink:title=" ">
<path fill="none" stroke="#63b8ff" d="M75.61,-37.52C89.44,-33 105.75,-27.67 120.32,-22.92"/>
<polygon fill="#63b8ff" stroke="#63b8ff" points="121.19,-26.31 129.61,-19.88 119.02,-19.66 121.19,-26.31"/>
</a>
</g>
</g>
</g>
</svg>
</svg>

<style type='text/css'>
<![CDATA[
[data-mouse-over-selected='false'] { opacity: 0.7; }
[data-mouse-over-selected='true']  { opacity: 1.0; }
]]>
</style>
<script type="application/ecmascript"><![CDATA[
document.addEventListener('DOMContentLoaded', (event) => {
  highlightEdges();
  highlightAdjacentNodes();
});
]]></script>
</svg>
