<?xml version="1.0" encoding="UTF-8" standalone="no"?>
<!DOCTYPE svg PUBLIC "-//W3C//DTD SVG 1.1//EN"
 "http://www.w3.org/Graphics/SVG/1.1/DTD/svg11.dtd">
<!-- Generated by graphviz version 12.2.1 (20241206.2353)
 -->
<!-- Title: /home/matt/tek2/YEP/ZAPPY/zappy_server_src/handle_commands.c Pages: 1 -->
<svg width="335pt" height="108pt"
 viewBox="0.00 0.00 335.12 108.00" xmlns="http://www.w3.org/2000/svg" xmlns:xlink="http://www.w3.org/1999/xlink">

<svg id="main" version="1.1" xmlns="http://www.w3.org/2000/svg" xmlns:xlink="http://www.w3.org/1999/xlink" xml:space="preserve">

<style type="text/css"><![CDATA[
.node, .edge {opacity: 0.7;}
.node.selected, .edge.selected {opacity: 1;}
.edge:hover path { stroke: red; }
.edge:hover polygon { stroke: red; fill: red; }
]]></style>
<script type="application/ecmascript" xlink:href="svg.min.js"/>
<svg id="graph" class="graph">
<g id="graph0" class="graph" transform="scale(1 1) rotate(0) translate(4 104)">
<title>/home/matt/tek2/YEP/ZAPPY/zappy_server_src/handle_commands.c</title>
<!-- Node1 -->
<g id="Node000001" class="node">
<title>Node1</title>
<g id="a_Node000001"><a xlink:title=" ">
<polygon fill="#999999" stroke="#666666" points="216.5,-100 88.75,-100 88.75,-56 216.5,-56 216.5,-100"/>
<text text-anchor="start" x="96.75" y="-86.5" font-family="Helvetica,sans-Serif" font-size="10.00">/home/matt/tek2/YEP</text>
<text text-anchor="start" x="96.75" y="-74.5" font-family="Helvetica,sans-Serif" font-size="10.00">/ZAPPY/zappy_server</text>
<text text-anchor="middle" x="152.62" y="-62.5" font-family="Helvetica,sans-Serif" font-size="10.00">_src/handle_commands.c</text>
</a>
</g>
</g>
<!-- Node2 -->
<g id="Node000002" class="node">
<title>Node2</title>
<g id="a_Node000002"><a xlink:title=" ">
<polygon fill="#e0e0e0" stroke="#999999" points="45.25,-20 0,-20 0,0 45.25,0 45.25,-20"/>
<text text-anchor="middle" x="22.62" y="-6.5" font-family="Helvetica,sans-Serif" font-size="10.00">stdio.h</text>
</a>
</g>
</g>
<!-- Node1&#45;&gt;Node2 -->
<g id="edge1_Node000001_Node000002" class="edge">
<title>Node1&#45;&gt;Node2</title>
<g id="a_edge1_Node000001_Node000002"><a xlink:title=" ">
<path fill="none" stroke="#63b8ff" d="M110.42,-55.57C91.02,-45.72 68.51,-34.3 51.15,-25.48"/>
<polygon fill="#63b8ff" stroke="#63b8ff" points="52.92,-22.46 42.42,-21.05 49.75,-28.7 52.92,-22.46"/>
</a>
</g>
</g>
<!-- Node3 -->
<g id="Node000003" class="node">
<title>Node3</title>
<g id="a_Node000003"><a xlink:title=" ">
<polygon fill="#e0e0e0" stroke="#999999" points="110.38,-20 62.88,-20 62.88,0 110.38,0 110.38,-20"/>
<text text-anchor="middle" x="86.62" y="-6.5" font-family="Helvetica,sans-Serif" font-size="10.00">stdlib.h</text>
</a>
</g>
</g>
<!-- Node1&#45;&gt;Node3 -->
<g id="edge2_Node000001_Node000003" class="edge">
<title>Node1&#45;&gt;Node3</title>
<g id="a_edge2_Node000001_Node000003"><a xlink:title=" ">
<path fill="none" stroke="#63b8ff" d="M131.38,-55.75C122.54,-46.92 112.41,-36.78 104.02,-28.4"/>
<polygon fill="#63b8ff" stroke="#63b8ff" points="106.66,-26.09 97.11,-21.49 101.71,-31.04 106.66,-26.09"/>
</a>
</g>
</g>
<!-- Node4 -->
<g id="Node000004" class="node">
<title>Node4</title>
<g id="a_Node000004"><a xlink:title=" ">
<polygon fill="#e0e0e0" stroke="#999999" points="176.75,-20 128.5,-20 128.5,0 176.75,0 176.75,-20"/>
<text text-anchor="middle" x="152.62" y="-6.5" font-family="Helvetica,sans-Serif" font-size="10.00">string.h</text>
</a>
</g>
</g>
<!-- Node1&#45;&gt;Node4 -->
<g id="edge3_Node000001_Node000004" class="edge">
<title>Node1&#45;&gt;Node4</title>
<g id="a_edge3_Node000001_Node000004"><a xlink:title=" ">
<path fill="none" stroke="#63b8ff" d="M152.62,-55.75C152.62,-48.13 152.62,-39.53 152.62,-31.93"/>
<polygon fill="#63b8ff" stroke="#63b8ff" points="156.13,-31.93 152.63,-21.93 149.13,-31.93 156.13,-31.93"/>
</a>
</g>
</g>
<!-- Node5 -->
<g id="Node000005" class="node">
<title>Node5</title>
<g id="a_Node000005"><a xlink:title=" ">
<polygon fill="#e0e0e0" stroke="#999999" points="242.38,-20 194.88,-20 194.88,0 242.38,0 242.38,-20"/>
<text text-anchor="middle" x="218.62" y="-6.5" font-family="Helvetica,sans-Serif" font-size="10.00">client.h</text>
</a>
</g>
</g>
<!-- Node1&#45;&gt;Node5 -->
<g id="edge4_Node000001_Node000005" class="edge">
<title>Node1&#45;&gt;Node5</title>
<g id="a_edge4_Node000001_Node000005"><a xlink:title=" ">
<path fill="none" stroke="#63b8ff" d="M173.87,-55.75C182.71,-46.92 192.84,-36.78 201.23,-28.4"/>
<polygon fill="#63b8ff" stroke="#63b8ff" points="203.54,-31.04 208.14,-21.49 198.59,-26.09 203.54,-31.04"/>
</a>
</g>
</g>
<!-- Node6 -->
<g id="Node000006" class="node">
<title>Node6</title>
<g id="a_Node000006"><a xlink:title=" ">
<polygon fill="#e0e0e0" stroke="#999999" points="327.12,-20 260.12,-20 260.12,0 327.12,0 327.12,-20"/>
<text text-anchor="middle" x="293.62" y="-6.5" font-family="Helvetica,sans-Serif" font-size="10.00">command.h</text>
</a>
</g>
</g>
<!-- Node1&#45;&gt;Node6 -->
<g id="edge5_Node000001_Node000006" class="edge">
<title>Node1&#45;&gt;Node6</title>
<g id="a_edge5_Node000001_Node000006"><a xlink:title=" ">
<path fill="none" stroke="#63b8ff" d="M198.4,-55.57C219.65,-45.63 244.31,-34.08 263.22,-25.23"/>
<polygon fill="#63b8ff" stroke="#63b8ff" points="264.67,-28.42 272.25,-21.01 261.71,-22.08 264.67,-28.42"/>
</a>
</g>
</g>
</g>
</svg>
</svg>

<style type='text/css'>
<![CDATA[
[data-mouse-over-selected='false'] { opacity: 0.7; }
[data-mouse-over-selected='true']  { opacity: 1.0; }
]]>
</style>
<script type="application/ecmascript"><![CDATA[
document.addEventListener('DOMContentLoaded', (event) => {
  highlightEdges();
  highlightAdjacentNodes();
});
]]></script>
</svg>
