<?xml version="1.0" encoding="UTF-8" standalone="no"?>
<!DOCTYPE svg PUBLIC "-//W3C//DTD SVG 1.1//EN"
 "http://www.w3.org/Graphics/SVG/1.1/DTD/svg11.dtd">
<!-- Generated by graphviz version 12.2.1 (20241206.2353)
 -->
<!-- Title: process_command_line Pages: 1 -->
<!--zoomable 294 -->

<svg id="main" version="1.1" xmlns="http://www.w3.org/2000/svg" xmlns:xlink="http://www.w3.org/1999/xlink" xml:space="preserve" onload="init(evt)">

<style type="text/css"><![CDATA[
.node, .edge {opacity: 0.7;}
.node.selected, .edge.selected {opacity: 1;}
.edge:hover path { stroke: red; }
.edge:hover polygon { stroke: red; fill: red; }
]]></style>

<defs>
  <circle id="rim" cx="0" cy="0" r="7"/>
  <circle id="rim2" cx="0" cy="0" r="3.5"/>
  <g id="zoomPlus">
    <use xlink:href="#rim" fill="#404040"><set attributeName="fill" to="#808080" begin="zoomplus.mouseover" end="zoomplus.mouseout"/></use>
    <path d="M-4,0h8M0,-4v8" fill="none" stroke="white" stroke-width="1.5" pointer-events="none"/>
  </g>
  <g id="zoomMin">
    <use xlink:href="#rim" fill="#404040"><set attributeName="fill" to="#808080" begin="zoomminus.mouseover" end="zoomminus.mouseout"/></use>
    <path d="M-4,0h8" fill="none" stroke="white" stroke-width="1.5" pointer-events="none"/>
  </g>
  <g id="arrowUp" transform="translate(30 24)">
    <use xlink:href="#rim"/>
    <path pointer-events="none" fill="none" stroke="white" stroke-width="1.5" d="M0,-3.0v7 M-2.5,-0.5L0,-3.0L2.5,-0.5"/>
  </g>
  <g id="arrowRight" transform="rotate(90) translate(36 -43)">
    <use xlink:href="#rim"/>
    <path pointer-events="none" fill="none" stroke="white" stroke-width="1.5" d="M0,-3.0v7 M-2.5,-0.5L0,-3.0L2.5,-0.5"/>
  </g>
  <g id="arrowDown" transform="rotate(180) translate(-30 -48)">
    <use xlink:href="#rim"/>
    <path pointer-events="none" fill="none" stroke="white" stroke-width="1.5" d="M0,-3.0v7 M-2.5,-0.5L0,-3.0L2.5,-0.5"/>
  </g>
  <g id="arrowLeft" transform="rotate(270) translate(-36 17)">
    <use xlink:href="#rim"/>
    <path pointer-events="none" fill="none" stroke="white" stroke-width="1.5" d="M0,-3.0v7 M-2.5,-0.5L0,-3.0L2.5,-0.5"/>
  </g>
  <g id="resetDef">
    <use xlink:href="#rim2" fill="#404040"><set attributeName="fill" to="#808080" begin="reset.mouseover" end="reset.mouseout"/></use>
  </g>
</defs>
<script type="application/ecmascript">
var viewWidth = 731;
var viewHeight = 294;
var sectionId = 'dynsection-9';
</script>
<script type="application/ecmascript" xlink:href="svg.min.js"/>
<svg id="graph" class="graph">
<g id="viewport">
<title>process_command_line</title>
<!-- Node1 -->
<g id="Node000001" class="node">
<title>Node1</title>
<g id="a_Node000001"><a xlink:title=" ">
<polygon fill="#999999" stroke="#666666" points="118.75,-229 0,-229 0,-209 118.75,-209 118.75,-229"/>
<text text-anchor="middle" x="59.38" y="-215.5" font-family="Helvetica,sans-Serif" font-size="10.00">process_command_line</text>
</a>
</g>
</g>
<!-- Node2 -->
<g id="Node000002" class="node">
<title>Node2</title>
<g id="a_Node000002"><a xlink:href="handle__commands_8c.html#a352cb4d4bd51fa5e282ec7d919c8ab98" target="_top" xlink:title=" ">
<polygon fill="white" stroke="#666666" points="259.25,-267 154.75,-267 154.75,-247 259.25,-247 259.25,-267"/>
<text text-anchor="middle" x="207" y="-253.5" font-family="Helvetica,sans-Serif" font-size="10.00">free_command_args</text>
</a>
</g>
</g>
<!-- Node1&#45;&gt;Node2 -->
<g id="edge1_Node000001_Node000002" class="edge">
<title>Node1&#45;&gt;Node2</title>
<g id="a_edge1_Node000001_Node000002"><a xlink:title=" ">
<path fill="none" stroke="#63b8ff" d="M100.55,-229.48C117.35,-233.87 137.06,-239.01 154.87,-243.66"/>
<polygon fill="#63b8ff" stroke="#63b8ff" points="153.93,-247.03 164.49,-246.17 155.7,-240.26 153.93,-247.03"/>
</a>
</g>
</g>
<!-- Node3 -->
<g id="Node000003" class="node">
<title>Node3</title>
<g id="a_Node000003"><a xlink:href="handle__commands_8c.html#a03295c32c7b9f27e43b9af93c3d0fa21" target="_top" xlink:title=" ">
<polygon fill="white" stroke="#666666" points="251,-229 163,-229 163,-209 251,-209 251,-229"/>
<text text-anchor="middle" x="207" y="-215.5" font-family="Helvetica,sans-Serif" font-size="10.00">parse_command</text>
</a>
</g>
</g>
<!-- Node1&#45;&gt;Node3 -->
<g id="edge2_Node000001_Node000003" class="edge">
<title>Node1&#45;&gt;Node3</title>
<g id="a_edge2_Node000001_Node000003"><a xlink:title=" ">
<path fill="none" stroke="#63b8ff" d="M119.19,-219C129.74,-219 140.7,-219 151.14,-219"/>
<polygon fill="#63b8ff" stroke="#63b8ff" points="151.13,-222.5 161.13,-219 151.13,-215.5 151.13,-222.5"/>
</a>
</g>
</g>
<!-- Node7 -->
<g id="Node000007" class="node">
<title>Node7</title>
<g id="a_Node000007"><a xlink:href="process__command_8c.html#ab89f4829cb4a8daff7b88c8c7147c836" target="_top" xlink:title=" ">
<polygon fill="white" stroke="#666666" points="256.25,-134 157.75,-134 157.75,-114 256.25,-114 256.25,-134"/>
<text text-anchor="middle" x="207" y="-120.5" font-family="Helvetica,sans-Serif" font-size="10.00">process_command</text>
</a>
</g>
</g>
<!-- Node1&#45;&gt;Node7 -->
<g id="edge6_Node000001_Node000007" class="edge">
<title>Node1&#45;&gt;Node7</title>
<g id="a_edge6_Node000001_Node000007"><a xlink:title=" ">
<path fill="none" stroke="#63b8ff" d="M76.24,-208.65C101.4,-192.23 150.7,-160.07 180.76,-140.46"/>
<polygon fill="#63b8ff" stroke="#63b8ff" points="182.43,-143.56 188.89,-135.16 178.6,-137.69 182.43,-143.56"/>
</a>
</g>
</g>
<!-- Node4 -->
<g id="Node000004" class="node">
<title>Node4</title>
<g id="a_Node000004"><a xlink:href="handle__commands_8c.html#a34c78653d61ed2d1f44d247e98b3f7eb" target="_top" xlink:title=" ">
<polygon fill="white" stroke="#666666" points="404.62,-286 303.88,-286 303.88,-266 404.62,-266 404.62,-286"/>
<text text-anchor="middle" x="354.25" y="-272.5" font-family="Helvetica,sans-Serif" font-size="10.00">allocate_args_array</text>
</a>
</g>
</g>
<!-- Node3&#45;&gt;Node4 -->
<g id="edge3_Node000003_Node000004" class="edge">
<title>Node3&#45;&gt;Node4</title>
<g id="a_edge3_Node000003_Node000004"><a xlink:title=" ">
<path fill="none" stroke="#63b8ff" d="M238.08,-229.4C245.1,-232.04 252.49,-234.98 259.25,-238 275.77,-245.38 278.59,-249.94 295.25,-257 299.25,-258.7 303.46,-260.34 307.7,-261.9"/>
<polygon fill="#63b8ff" stroke="#63b8ff" points="306.22,-265.08 316.81,-265.09 308.53,-258.48 306.22,-265.08"/>
</a>
</g>
</g>
<!-- Node5 -->
<g id="Node000005" class="node">
<title>Node5</title>
<g id="a_Node000005"><a xlink:href="handle__commands_8c.html#aa03c5d2f29891c89c666b5c1ecb84c04" target="_top" xlink:title=" ">
<polygon fill="white" stroke="#666666" points="391.5,-248 317,-248 317,-228 391.5,-228 391.5,-248"/>
<text text-anchor="middle" x="354.25" y="-234.5" font-family="Helvetica,sans-Serif" font-size="10.00">count_tokens</text>
</a>
</g>
</g>
<!-- Node3&#45;&gt;Node5 -->
<g id="edge4_Node000003_Node000005" class="edge">
<title>Node3&#45;&gt;Node5</title>
<g id="a_edge4_Node000003_Node000005"><a xlink:title=" ">
<path fill="none" stroke="#63b8ff" d="M251.19,-224.65C268.34,-226.89 288.12,-229.48 305.68,-231.78"/>
<polygon fill="#63b8ff" stroke="#63b8ff" points="304.98,-235.22 315.35,-233.04 305.89,-228.27 304.98,-235.22"/>
</a>
</g>
</g>
<!-- Node6 -->
<g id="Node000006" class="node">
<title>Node6</title>
<g id="a_Node000006"><a xlink:href="handle__commands_8c.html#a3eee1a837bff9d2627a44999f62bb963" target="_top" xlink:title=" ">
<polygon fill="white" stroke="#666666" points="392.62,-210 315.88,-210 315.88,-190 392.62,-190 392.62,-210"/>
<text text-anchor="middle" x="354.25" y="-196.5" font-family="Helvetica,sans-Serif" font-size="10.00">fill_args_array</text>
</a>
</g>
</g>
<!-- Node3&#45;&gt;Node6 -->
<g id="edge5_Node000003_Node000006" class="edge">
<title>Node3&#45;&gt;Node6</title>
<g id="a_edge5_Node000003_Node000006"><a xlink:title=" ">
<path fill="none" stroke="#63b8ff" d="M251.19,-213.35C267.92,-211.16 287.17,-208.64 304.41,-206.39"/>
<polygon fill="#63b8ff" stroke="#63b8ff" points="304.44,-209.91 313.9,-205.15 303.53,-202.97 304.44,-209.91"/>
</a>
</g>
</g>
<!-- Node8 -->
<g id="Node000008" class="node">
<title>Node8</title>
<g id="a_Node000008"><a xlink:href="process__command_8c.html#a3799614584819f5c158ddd57cb07f72a" target="_top" xlink:title=" ">
<polygon fill="white" stroke="#666666" points="393.75,-172 314.75,-172 314.75,-152 393.75,-152 393.75,-172"/>
<text text-anchor="middle" x="354.25" y="-158.5" font-family="Helvetica,sans-Serif" font-size="10.00">check_graphic</text>
</a>
</g>
</g>
<!-- Node7&#45;&gt;Node8 -->
<g id="edge7_Node000007_Node000008" class="edge">
<title>Node7&#45;&gt;Node8</title>
<g id="a_edge7_Node000007_Node000008"><a xlink:title=" ">
<path fill="none" stroke="#63b8ff" d="M248.07,-134.48C265.18,-138.96 285.33,-144.23 303.38,-148.95"/>
<polygon fill="#63b8ff" stroke="#63b8ff" points="302.28,-152.28 312.84,-151.43 304.06,-145.51 302.28,-152.28"/>
</a>
</g>
</g>
<!-- Node9 -->
<g id="Node000009" class="node">
<title>Node9</title>
<g id="a_Node000009"><a xlink:href="exec__command_8c.html#afbebbfaa69aaadda4d61c30a35b9dc40" target="_top" xlink:title=" ">
<polygon fill="white" stroke="#666666" points="396.75,-134 311.75,-134 311.75,-114 396.75,-114 396.75,-134"/>
<text text-anchor="middle" x="354.25" y="-120.5" font-family="Helvetica,sans-Serif" font-size="10.00">exec_command</text>
</a>
</g>
</g>
<!-- Node7&#45;&gt;Node9 -->
<g id="edge8_Node000007_Node000009" class="edge">
<title>Node7&#45;&gt;Node9</title>
<g id="a_edge8_Node000007_Node000009"><a xlink:title=" ">
<path fill="none" stroke="#63b8ff" d="M256.37,-124C270.43,-124 285.87,-124 300.21,-124"/>
<polygon fill="#63b8ff" stroke="#63b8ff" points="299.91,-127.5 309.91,-124 299.91,-120.5 299.91,-127.5"/>
</a>
</g>
</g>
<!-- Node13 -->
<g id="Node000013" class="node">
<title>Node13</title>
<g id="a_Node000013"><a xlink:href="process__command_8c.html#a898fc3c3e6561eeb6f612098db5db51b" target="_top" xlink:title=" ">
<polygon fill="white" stroke="#666666" points="388.5,-96 320,-96 320,-76 388.5,-76 388.5,-96"/>
<text text-anchor="middle" x="354.25" y="-82.5" font-family="Helvetica,sans-Serif" font-size="10.00">is_in_teams</text>
</a>
</g>
</g>
<!-- Node7&#45;&gt;Node13 -->
<g id="edge12_Node000007_Node000013" class="edge">
<title>Node7&#45;&gt;Node13</title>
<g id="a_edge12_Node000007_Node000013"><a xlink:title=" ">
<path fill="none" stroke="#63b8ff" d="M248.07,-113.52C266.89,-108.59 289.37,-102.71 308.72,-97.65"/>
<polygon fill="#63b8ff" stroke="#63b8ff" points="309.44,-101.08 318.23,-95.16 307.67,-94.31 309.44,-101.08"/>
</a>
</g>
</g>
<!-- Node14 -->
<g id="Node000014" class="node">
<title>Node14</title>
<g id="a_Node000014"><a xlink:href="process__command_8c.html#a8cff9e7b414335547030008d046149ea" target="_top" xlink:title=" ">
<polygon fill="white" stroke="#666666" points="413.25,-58 295.25,-58 295.25,-38 413.25,-38 413.25,-58"/>
<text text-anchor="middle" x="354.25" y="-44.5" font-family="Helvetica,sans-Serif" font-size="10.00">new_connection_player</text>
</a>
</g>
</g>
<!-- Node7&#45;&gt;Node14 -->
<g id="edge13_Node000007_Node000014" class="edge">
<title>Node7&#45;&gt;Node14</title>
<g id="a_edge13_Node000007_Node000014"><a xlink:title=" ">
<path fill="none" stroke="#63b8ff" d="M221.54,-113.53C238.14,-101.08 267.52,-80.31 295.25,-67 298.7,-65.34 302.33,-63.78 306.02,-62.31"/>
<polygon fill="#63b8ff" stroke="#63b8ff" points="306.9,-65.71 315.06,-58.96 304.46,-59.15 306.9,-65.71"/>
</a>
</g>
</g>
<!-- Node10 -->
<g id="Node000010" class="node">
<title>Node10</title>
<g id="a_Node000010"><a xlink:href="exec__command_8c.html#ad90274df54695f20fc2a27f100a9631d" target="_top" xlink:title=" ">
<polygon fill="white" stroke="#666666" points="549.62,-172 469.88,-172 469.88,-152 549.62,-152 549.62,-172"/>
<text text-anchor="middle" x="509.75" y="-158.5" font-family="Helvetica,sans-Serif" font-size="10.00">add_command</text>
</a>
</g>
</g>
<!-- Node9&#45;&gt;Node10 -->
<g id="edge9_Node000009_Node000010" class="edge">
<title>Node9&#45;&gt;Node10</title>
<g id="a_edge9_Node000009_Node000010"><a xlink:title=" ">
<path fill="none" stroke="#63b8ff" d="M397.19,-134.38C416.13,-139.07 438.65,-144.65 458.48,-149.56"/>
<polygon fill="#63b8ff" stroke="#63b8ff" points="457.48,-152.91 468.02,-151.92 459.16,-146.12 457.48,-152.91"/>
</a>
</g>
</g>
<!-- Node11 -->
<g id="Node000011" class="node">
<title>Node11</title>
<g id="a_Node000011"><a xlink:href="process__command_8c.html#a2b111d6371b98a5cac5128eaedeeb78c" target="_top" xlink:title=" ">
<polygon fill="white" stroke="#666666" points="547,-134 472.5,-134 472.5,-114 547,-114 547,-134"/>
<text text-anchor="middle" x="509.75" y="-120.5" font-family="Helvetica,sans-Serif" font-size="10.00">realloc_strcat</text>
</a>
</g>
</g>
<!-- Node9&#45;&gt;Node11 -->
<g id="edge10_Node000009_Node000011" class="edge">
<title>Node9&#45;&gt;Node11</title>
<g id="a_edge10_Node000009_Node000011"><a xlink:title=" ">
<path fill="none" stroke="#63b8ff" d="M397.19,-124C416.88,-124 440.43,-124 460.81,-124"/>
<polygon fill="#63b8ff" stroke="#63b8ff" points="460.57,-127.5 470.57,-124 460.57,-120.5 460.57,-127.5"/>
</a>
</g>
</g>
<!-- Node12 -->
<g id="Node000012" class="node">
<title>Node12</title>
<g id="a_Node000012"><a xlink:href="exec__command_8c.html#a281a6f6738826e3f19f602813a1efa24" target="_top" xlink:title=" ">
<polygon fill="white" stroke="#666666" points="539.12,-96 480.38,-96 480.38,-76 539.12,-76 539.12,-96"/>
<text text-anchor="middle" x="509.75" y="-82.5" font-family="Helvetica,sans-Serif" font-size="10.00">set_upper</text>
</a>
</g>
</g>
<!-- Node9&#45;&gt;Node12 -->
<g id="edge11_Node000009_Node000012" class="edge">
<title>Node9&#45;&gt;Node12</title>
<g id="a_edge11_Node000009_Node000012"><a xlink:title=" ">
<path fill="none" stroke="#63b8ff" d="M397.19,-113.62C419.57,-108.08 446.95,-101.3 468.99,-95.84"/>
<polygon fill="#63b8ff" stroke="#63b8ff" points="469.63,-99.29 478.5,-93.49 467.95,-92.49 469.63,-99.29"/>
</a>
</g>
</g>
<!-- Node15 -->
<g id="Node000015" class="node">
<title>Node15</title>
<g id="a_Node000015"><a xlink:href="process__command_8c.html#a8a3b8c540ccb4af605b27bb69c92e02a" target="_top" xlink:title=" ">
<polygon fill="white" stroke="#666666" points="540.62,-58 478.88,-58 478.88,-38 540.62,-38 540.62,-58"/>
<text text-anchor="middle" x="509.75" y="-44.5" font-family="Helvetica,sans-Serif" font-size="10.00">return_egg</text>
</a>
</g>
</g>
<!-- Node14&#45;&gt;Node15 -->
<g id="edge14_Node000014_Node000015" class="edge">
<title>Node14&#45;&gt;Node15</title>
<g id="a_edge14_Node000014_Node000015"><a xlink:title=" ">
<path fill="none" stroke="#63b8ff" d="M413.72,-48C431.58,-48 450.85,-48 467.33,-48"/>
<polygon fill="#63b8ff" stroke="#63b8ff" points="467.27,-51.5 477.27,-48 467.27,-44.5 467.27,-51.5"/>
</a>
</g>
</g>
<!-- Node16 -->
<g id="Node000016" class="node">
<title>Node16</title>
<g id="a_Node000016"><a xlink:href="process__command_8c.html#a1f8760aac256de83bf45d6fe94c62cf2" target="_top" xlink:title=" ">
<polygon fill="white" stroke="#666666" points="570.25,-20 449.25,-20 449.25,0 570.25,0 570.25,-20"/>
<text text-anchor="middle" x="509.75" y="-6.5" font-family="Helvetica,sans-Serif" font-size="10.00">send_datas_new_player</text>
</a>
</g>
</g>
<!-- Node14&#45;&gt;Node16 -->
<g id="edge15_Node000014_Node000016" class="edge">
<title>Node14&#45;&gt;Node16</title>
<g id="a_edge15_Node000014_Node000016"><a xlink:title=" ">
<path fill="none" stroke="#63b8ff" d="M397.6,-37.52C415.47,-33.09 436.47,-27.89 455.38,-23.21"/>
<polygon fill="#63b8ff" stroke="#63b8ff" points="456.2,-26.61 465.07,-20.81 454.52,-19.82 456.2,-26.61"/>
</a>
</g>
</g>
<!-- Node17 -->
<g id="Node000017" class="node">
<title>Node17</title>
<g id="a_Node000017"><a xlink:href="process__command_8c.html#a08624952cec00b3168e63e05f4203f97" target="_top" xlink:title=" ">
<polygon fill="white" stroke="#666666" points="722.75,-20 606.25,-20 606.25,0 722.75,0 722.75,-20"/>
<text text-anchor="middle" x="664.5" y="-6.5" font-family="Helvetica,sans-Serif" font-size="10.00">send_data_to_graphics</text>
</a>
</g>
</g>
<!-- Node16&#45;&gt;Node17 -->
<g id="edge16_Node000016_Node000017" class="edge">
<title>Node16&#45;&gt;Node17</title>
<g id="a_edge16_Node000016_Node000017"><a xlink:title=" ">
<path fill="none" stroke="#63b8ff" d="M570.68,-10C578.64,-10 586.84,-10 594.92,-10"/>
<polygon fill="#63b8ff" stroke="#63b8ff" points="594.72,-13.5 604.72,-10 594.72,-6.5 594.72,-13.5"/>
</a>
</g>
</g>
</g>
</svg>

<g id="navigator" transform="translate(0 0)" fill="#404254">
  <rect fill="#f2f5e9" fill-opacity="0.5" stroke="#606060" stroke-width=".5" x="0" y="0" width="60" height="60"/>
  <use id="zoomplus" xlink:href="#zoomPlus" x="17" y="9" onmousedown="handleZoom(evt,'in')"/>
  <use id="zoomminus" xlink:href="#zoomMin" x="42" y="9" onmousedown="handleZoom(evt,'out')"/>
  <use id="reset" xlink:href="#resetDef" x="30" y="36" onmousedown="handleReset()"/>
   <use id="arrowup" xlink:href="#arrowUp" x="0" y="0" onmousedown="handlePan(0,-1)"/>
  <use id="arrowright" xlink:href="#arrowRight" x="0" y="0" onmousedown="handlePan(1,0)"/>
  <use id="arrowdown" xlink:href="#arrowDown" x="0" y="0" onmousedown="handlePan(0,1)"/>
  <use id="arrowleft" xlink:href="#arrowLeft" x="0" y="0" onmousedown="handlePan(-1,0)"/>
</g>
<svg viewBox="0 0 15 15" width="100%" height="30px" preserveAspectRatio="xMaxYMin meet">
 <g id="arrow_out" transform="scale(0.3 0.3)">
  <a xlink:href="handle__commands_8c_a98cc233ffc0887c9cd54dbc4b4be1381_cgraph_org.svg" target="_base">
   <rect id="button" ry="5" rx="5" y="6" x="6" height="38" width="38"
        fill="#f2f5e9" fill-opacity="0.5" stroke="#606060" stroke-width="1.0"/>
   <path id="arrow"
     d="M 11.500037,31.436501 C 11.940474,20.09759 22.043105,11.32322 32.158766,21.979434 L 37.068811,17.246167 C 37.068811,17.246167 37.088388,32 37.088388,32 L 22.160133,31.978069 C 22.160133,31.978069 26.997745,27.140456 26.997745,27.140456 C 18.528582,18.264221 13.291696,25.230495 11.500037,31.436501 z"
     style="fill:#404040;"/>
  </a>
 </g>
</svg>

<style type='text/css'>
<![CDATA[
[data-mouse-over-selected='false'] { opacity: 0.7; }
[data-mouse-over-selected='true']  { opacity: 1.0; }
]]>
</style>
<script type="application/ecmascript"><![CDATA[
document.addEventListener('DOMContentLoaded', (event) => {
  highlightEdges();
  highlightAdjacentNodes();
});
]]></script>
</svg>
