<?xml version="1.0" encoding="UTF-8" standalone="no"?>
<!DOCTYPE svg PUBLIC "-//W3C//DTD SVG 1.1//EN"
 "http://www.w3.org/Graphics/SVG/1.1/DTD/svg11.dtd">
<!-- Generated by graphviz version 12.2.1 (20241206.2353)
 -->
<!-- Title: parse_command Pages: 1 -->
<svg width="233pt" height="104pt"
 viewBox="0.00 0.00 232.75 104.00" xmlns="http://www.w3.org/2000/svg" xmlns:xlink="http://www.w3.org/1999/xlink">
<g id="graph0" class="graph" transform="scale(1 1) rotate(0) translate(4 100)">
<title>parse_command</title>
<!-- Node1 -->
<g id="Node000001" class="node">
<title>Node1</title>
<g id="a_Node000001"><a xlink:title=" ">
<polygon fill="#999999" stroke="#666666" points="88,-58 0,-58 0,-38 88,-38 88,-58"/>
<text text-anchor="middle" x="44" y="-44.5" font-family="Helvetica,sans-Serif" font-size="10.00">parse_command</text>
</a>
</g>
</g>
<!-- Node2 -->
<g id="Node000002" class="node">
<title>Node2</title>
<g id="a_Node000002"><a xlink:href="handle__commands_8c.html#a34c78653d61ed2d1f44d247e98b3f7eb" target="_top" xlink:title=" ">
<polygon fill="white" stroke="#666666" points="224.75,-96 124,-96 124,-76 224.75,-76 224.75,-96"/>
<text text-anchor="middle" x="174.38" y="-82.5" font-family="Helvetica,sans-Serif" font-size="10.00">allocate_args_array</text>
</a>
</g>
</g>
<!-- Node1&#45;&gt;Node2 -->
<g id="edge1_Node000001_Node000002" class="edge">
<title>Node1&#45;&gt;Node2</title>
<g id="a_edge1_Node000001_Node000002"><a xlink:title=" ">
<path fill="none" stroke="#63b8ff" d="M80.42,-58.48C94.87,-62.76 111.78,-67.77 127.18,-72.33"/>
<polygon fill="#63b8ff" stroke="#63b8ff" points="126.04,-75.64 136.62,-75.12 128.03,-68.93 126.04,-75.64"/>
</a>
</g>
</g>
<!-- Node3 -->
<g id="Node000003" class="node">
<title>Node3</title>
<g id="a_Node000003"><a xlink:href="handle__commands_8c.html#aa03c5d2f29891c89c666b5c1ecb84c04" target="_top" xlink:title=" ">
<polygon fill="white" stroke="#666666" points="211.62,-58 137.12,-58 137.12,-38 211.62,-38 211.62,-58"/>
<text text-anchor="middle" x="174.38" y="-44.5" font-family="Helvetica,sans-Serif" font-size="10.00">count_tokens</text>
</a>
</g>
</g>
<!-- Node1&#45;&gt;Node3 -->
<g id="edge2_Node000001_Node000003" class="edge">
<title>Node1&#45;&gt;Node3</title>
<g id="a_edge2_Node000001_Node000003"><a xlink:title=" ">
<path fill="none" stroke="#63b8ff" d="M88.46,-48C100.37,-48 113.34,-48 125.48,-48"/>
<polygon fill="#63b8ff" stroke="#63b8ff" points="125.29,-51.5 135.29,-48 125.29,-44.5 125.29,-51.5"/>
</a>
</g>
</g>
<!-- Node4 -->
<g id="Node000004" class="node">
<title>Node4</title>
<g id="a_Node000004"><a xlink:href="handle__commands_8c.html#a3eee1a837bff9d2627a44999f62bb963" target="_top" xlink:title=" ">
<polygon fill="white" stroke="#666666" points="212.75,-20 136,-20 136,0 212.75,0 212.75,-20"/>
<text text-anchor="middle" x="174.38" y="-6.5" font-family="Helvetica,sans-Serif" font-size="10.00">fill_args_array</text>
</a>
</g>
</g>
<!-- Node1&#45;&gt;Node4 -->
<g id="edge3_Node000001_Node000004" class="edge">
<title>Node1&#45;&gt;Node4</title>
<g id="a_edge3_Node000001_Node000004"><a xlink:title=" ">
<path fill="none" stroke="#63b8ff" d="M80.42,-37.52C94.87,-33.24 111.78,-28.23 127.18,-23.67"/>
<polygon fill="#63b8ff" stroke="#63b8ff" points="128.03,-27.07 136.62,-20.88 126.04,-20.36 128.03,-27.07"/>
</a>
</g>
</g>
</g>
</svg>
