<?xml version="1.0" encoding="UTF-8" standalone="no"?>
<!DOCTYPE svg PUBLIC "-//W3C//DTD SVG 1.1//EN"
 "http://www.w3.org/Graphics/SVG/1.1/DTD/svg11.dtd">
<!-- Generated by graphviz version 12.2.1 (20241206.2353)
 -->
<!-- Title: execute_command Pages: 1 -->
<!--zoomable 294 -->

<svg id="main" version="1.1" xmlns="http://www.w3.org/2000/svg" xmlns:xlink="http://www.w3.org/1999/xlink" xml:space="preserve" onload="init(evt)">

<style type="text/css"><![CDATA[
.node, .edge {opacity: 0.7;}
.node.selected, .edge.selected {opacity: 1;}
.edge:hover path { stroke: red; }
.edge:hover polygon { stroke: red; fill: red; }
]]></style>

<defs>
  <circle id="rim" cx="0" cy="0" r="7"/>
  <circle id="rim2" cx="0" cy="0" r="3.5"/>
  <g id="zoomPlus">
    <use xlink:href="#rim" fill="#404040"><set attributeName="fill" to="#808080" begin="zoomplus.mouseover" end="zoomplus.mouseout"/></use>
    <path d="M-4,0h8M0,-4v8" fill="none" stroke="white" stroke-width="1.5" pointer-events="none"/>
  </g>
  <g id="zoomMin">
    <use xlink:href="#rim" fill="#404040"><set attributeName="fill" to="#808080" begin="zoomminus.mouseover" end="zoomminus.mouseout"/></use>
    <path d="M-4,0h8" fill="none" stroke="white" stroke-width="1.5" pointer-events="none"/>
  </g>
  <g id="arrowUp" transform="translate(30 24)">
    <use xlink:href="#rim"/>
    <path pointer-events="none" fill="none" stroke="white" stroke-width="1.5" d="M0,-3.0v7 M-2.5,-0.5L0,-3.0L2.5,-0.5"/>
  </g>
  <g id="arrowRight" transform="rotate(90) translate(36 -43)">
    <use xlink:href="#rim"/>
    <path pointer-events="none" fill="none" stroke="white" stroke-width="1.5" d="M0,-3.0v7 M-2.5,-0.5L0,-3.0L2.5,-0.5"/>
  </g>
  <g id="arrowDown" transform="rotate(180) translate(-30 -48)">
    <use xlink:href="#rim"/>
    <path pointer-events="none" fill="none" stroke="white" stroke-width="1.5" d="M0,-3.0v7 M-2.5,-0.5L0,-3.0L2.5,-0.5"/>
  </g>
  <g id="arrowLeft" transform="rotate(270) translate(-36 17)">
    <use xlink:href="#rim"/>
    <path pointer-events="none" fill="none" stroke="white" stroke-width="1.5" d="M0,-3.0v7 M-2.5,-0.5L0,-3.0L2.5,-0.5"/>
  </g>
  <g id="resetDef">
    <use xlink:href="#rim2" fill="#404040"><set attributeName="fill" to="#808080" begin="reset.mouseover" end="reset.mouseout"/></use>
  </g>
</defs>
<script type="application/ecmascript">
var viewWidth = 865;
var viewHeight = 294;
var sectionId = 'dynsection-3';
</script>
<script type="application/ecmascript" xlink:href="svg.min.js"/>
<svg id="graph" class="graph">
<g id="viewport">
<title>execute_command</title>
<!-- Node1 -->
<g id="Node000001" class="node">
<title>Node1</title>
<g id="a_Node000001"><a xlink:title=" ">
<polygon fill="#999999" stroke="#666666" points="98.5,-229 0,-229 0,-209 98.5,-209 98.5,-229"/>
<text text-anchor="middle" x="49.25" y="-215.5" font-family="Helvetica,sans-Serif" font-size="10.00">execute_command</text>
</a>
</g>
</g>
<!-- Node2 -->
<g id="Node000002" class="node">
<title>Node2</title>
<g id="a_Node000002"><a xlink:href="handle__commands_8c.html#a98cc233ffc0887c9cd54dbc4b4be1381" target="_top" xlink:title=" ">
<polygon fill="white" stroke="#666666" points="253.25,-229 134.5,-229 134.5,-209 253.25,-209 253.25,-229"/>
<text text-anchor="middle" x="193.88" y="-215.5" font-family="Helvetica,sans-Serif" font-size="10.00">process_command_line</text>
</a>
</g>
</g>
<!-- Node1&#45;&gt;Node2 -->
<g id="edge1_Node000001_Node000002" class="edge">
<title>Node1&#45;&gt;Node2</title>
<g id="a_edge1_Node000001_Node000002"><a xlink:title=" ">
<path fill="none" stroke="#63b8ff" d="M98.93,-219C106.61,-219 114.68,-219 122.73,-219"/>
<polygon fill="#63b8ff" stroke="#63b8ff" points="122.54,-222.5 132.54,-219 122.54,-215.5 122.54,-222.5"/>
</a>
</g>
</g>
<!-- Node3 -->
<g id="Node000003" class="node">
<title>Node3</title>
<g id="a_Node000003"><a xlink:href="handle__commands_8c.html#a352cb4d4bd51fa5e282ec7d919c8ab98" target="_top" xlink:title=" ">
<polygon fill="white" stroke="#666666" points="393.75,-267 289.25,-267 289.25,-247 393.75,-247 393.75,-267"/>
<text text-anchor="middle" x="341.5" y="-253.5" font-family="Helvetica,sans-Serif" font-size="10.00">free_command_args</text>
</a>
</g>
</g>
<!-- Node2&#45;&gt;Node3 -->
<g id="edge2_Node000002_Node000003" class="edge">
<title>Node2&#45;&gt;Node3</title>
<g id="a_edge2_Node000002_Node000003"><a xlink:title=" ">
<path fill="none" stroke="#63b8ff" d="M235.05,-229.48C251.85,-233.87 271.56,-239.01 289.37,-243.66"/>
<polygon fill="#63b8ff" stroke="#63b8ff" points="288.43,-247.03 298.99,-246.17 290.2,-240.26 288.43,-247.03"/>
</a>
</g>
</g>
<!-- Node4 -->
<g id="Node000004" class="node">
<title>Node4</title>
<g id="a_Node000004"><a xlink:href="handle__commands_8c.html#a03295c32c7b9f27e43b9af93c3d0fa21" target="_top" xlink:title=" ">
<polygon fill="white" stroke="#666666" points="385.5,-229 297.5,-229 297.5,-209 385.5,-209 385.5,-229"/>
<text text-anchor="middle" x="341.5" y="-215.5" font-family="Helvetica,sans-Serif" font-size="10.00">parse_command</text>
</a>
</g>
</g>
<!-- Node2&#45;&gt;Node4 -->
<g id="edge3_Node000002_Node000004" class="edge">
<title>Node2&#45;&gt;Node4</title>
<g id="a_edge3_Node000002_Node000004"><a xlink:title=" ">
<path fill="none" stroke="#63b8ff" d="M253.69,-219C264.24,-219 275.2,-219 285.64,-219"/>
<polygon fill="#63b8ff" stroke="#63b8ff" points="285.63,-222.5 295.63,-219 285.63,-215.5 285.63,-222.5"/>
</a>
</g>
</g>
<!-- Node8 -->
<g id="Node000008" class="node">
<title>Node8</title>
<g id="a_Node000008"><a xlink:href="process__command_8c.html#ab89f4829cb4a8daff7b88c8c7147c836" target="_top" xlink:title=" ">
<polygon fill="white" stroke="#666666" points="390.75,-134 292.25,-134 292.25,-114 390.75,-114 390.75,-134"/>
<text text-anchor="middle" x="341.5" y="-120.5" font-family="Helvetica,sans-Serif" font-size="10.00">process_command</text>
</a>
</g>
</g>
<!-- Node2&#45;&gt;Node8 -->
<g id="edge7_Node000002_Node000008" class="edge">
<title>Node2&#45;&gt;Node8</title>
<g id="a_edge7_Node000002_Node000008"><a xlink:title=" ">
<path fill="none" stroke="#63b8ff" d="M210.74,-208.65C235.9,-192.23 285.2,-160.07 315.26,-140.46"/>
<polygon fill="#63b8ff" stroke="#63b8ff" points="316.93,-143.56 323.39,-135.16 313.1,-137.69 316.93,-143.56"/>
</a>
</g>
</g>
<!-- Node5 -->
<g id="Node000005" class="node">
<title>Node5</title>
<g id="a_Node000005"><a xlink:href="handle__commands_8c.html#a34c78653d61ed2d1f44d247e98b3f7eb" target="_top" xlink:title=" ">
<polygon fill="white" stroke="#666666" points="539.12,-286 438.38,-286 438.38,-266 539.12,-266 539.12,-286"/>
<text text-anchor="middle" x="488.75" y="-272.5" font-family="Helvetica,sans-Serif" font-size="10.00">allocate_args_array</text>
</a>
</g>
</g>
<!-- Node4&#45;&gt;Node5 -->
<g id="edge4_Node000004_Node000005" class="edge">
<title>Node4&#45;&gt;Node5</title>
<g id="a_edge4_Node000004_Node000005"><a xlink:title=" ">
<path fill="none" stroke="#63b8ff" d="M372.58,-229.4C379.6,-232.04 386.99,-234.98 393.75,-238 410.27,-245.38 413.09,-249.94 429.75,-257 433.75,-258.7 437.96,-260.34 442.2,-261.9"/>
<polygon fill="#63b8ff" stroke="#63b8ff" points="440.72,-265.08 451.31,-265.09 443.03,-258.48 440.72,-265.08"/>
</a>
</g>
</g>
<!-- Node6 -->
<g id="Node000006" class="node">
<title>Node6</title>
<g id="a_Node000006"><a xlink:href="handle__commands_8c.html#aa03c5d2f29891c89c666b5c1ecb84c04" target="_top" xlink:title=" ">
<polygon fill="white" stroke="#666666" points="526,-248 451.5,-248 451.5,-228 526,-228 526,-248"/>
<text text-anchor="middle" x="488.75" y="-234.5" font-family="Helvetica,sans-Serif" font-size="10.00">count_tokens</text>
</a>
</g>
</g>
<!-- Node4&#45;&gt;Node6 -->
<g id="edge5_Node000004_Node000006" class="edge">
<title>Node4&#45;&gt;Node6</title>
<g id="a_edge5_Node000004_Node000006"><a xlink:title=" ">
<path fill="none" stroke="#63b8ff" d="M385.69,-224.65C402.84,-226.89 422.62,-229.48 440.18,-231.78"/>
<polygon fill="#63b8ff" stroke="#63b8ff" points="439.48,-235.22 449.85,-233.04 440.39,-228.27 439.48,-235.22"/>
</a>
</g>
</g>
<!-- Node7 -->
<g id="Node000007" class="node">
<title>Node7</title>
<g id="a_Node000007"><a xlink:href="handle__commands_8c.html#a3eee1a837bff9d2627a44999f62bb963" target="_top" xlink:title=" ">
<polygon fill="white" stroke="#666666" points="527.12,-210 450.38,-210 450.38,-190 527.12,-190 527.12,-210"/>
<text text-anchor="middle" x="488.75" y="-196.5" font-family="Helvetica,sans-Serif" font-size="10.00">fill_args_array</text>
</a>
</g>
</g>
<!-- Node4&#45;&gt;Node7 -->
<g id="edge6_Node000004_Node000007" class="edge">
<title>Node4&#45;&gt;Node7</title>
<g id="a_edge6_Node000004_Node000007"><a xlink:title=" ">
<path fill="none" stroke="#63b8ff" d="M385.69,-213.35C402.42,-211.16 421.67,-208.64 438.91,-206.39"/>
<polygon fill="#63b8ff" stroke="#63b8ff" points="438.94,-209.91 448.4,-205.15 438.03,-202.97 438.94,-209.91"/>
</a>
</g>
</g>
<!-- Node9 -->
<g id="Node000009" class="node">
<title>Node9</title>
<g id="a_Node000009"><a xlink:href="process__command_8c.html#a3799614584819f5c158ddd57cb07f72a" target="_top" xlink:title=" ">
<polygon fill="white" stroke="#666666" points="528.25,-172 449.25,-172 449.25,-152 528.25,-152 528.25,-172"/>
<text text-anchor="middle" x="488.75" y="-158.5" font-family="Helvetica,sans-Serif" font-size="10.00">check_graphic</text>
</a>
</g>
</g>
<!-- Node8&#45;&gt;Node9 -->
<g id="edge8_Node000008_Node000009" class="edge">
<title>Node8&#45;&gt;Node9</title>
<g id="a_edge8_Node000008_Node000009"><a xlink:title=" ">
<path fill="none" stroke="#63b8ff" d="M382.57,-134.48C399.68,-138.96 419.83,-144.23 437.88,-148.95"/>
<polygon fill="#63b8ff" stroke="#63b8ff" points="436.78,-152.28 447.34,-151.43 438.56,-145.51 436.78,-152.28"/>
</a>
</g>
</g>
<!-- Node10 -->
<g id="Node000010" class="node">
<title>Node10</title>
<g id="a_Node000010"><a xlink:href="exec__command_8c.html#afbebbfaa69aaadda4d61c30a35b9dc40" target="_top" xlink:title=" ">
<polygon fill="white" stroke="#666666" points="531.25,-134 446.25,-134 446.25,-114 531.25,-114 531.25,-134"/>
<text text-anchor="middle" x="488.75" y="-120.5" font-family="Helvetica,sans-Serif" font-size="10.00">exec_command</text>
</a>
</g>
</g>
<!-- Node8&#45;&gt;Node10 -->
<g id="edge9_Node000008_Node000010" class="edge">
<title>Node8&#45;&gt;Node10</title>
<g id="a_edge9_Node000008_Node000010"><a xlink:title=" ">
<path fill="none" stroke="#63b8ff" d="M390.87,-124C404.93,-124 420.37,-124 434.71,-124"/>
<polygon fill="#63b8ff" stroke="#63b8ff" points="434.41,-127.5 444.41,-124 434.41,-120.5 434.41,-127.5"/>
</a>
</g>
</g>
<!-- Node14 -->
<g id="Node000014" class="node">
<title>Node14</title>
<g id="a_Node000014"><a xlink:href="process__command_8c.html#a898fc3c3e6561eeb6f612098db5db51b" target="_top" xlink:title=" ">
<polygon fill="white" stroke="#666666" points="523,-96 454.5,-96 454.5,-76 523,-76 523,-96"/>
<text text-anchor="middle" x="488.75" y="-82.5" font-family="Helvetica,sans-Serif" font-size="10.00">is_in_teams</text>
</a>
</g>
</g>
<!-- Node8&#45;&gt;Node14 -->
<g id="edge13_Node000008_Node000014" class="edge">
<title>Node8&#45;&gt;Node14</title>
<g id="a_edge13_Node000008_Node000014"><a xlink:title=" ">
<path fill="none" stroke="#63b8ff" d="M382.57,-113.52C401.39,-108.59 423.87,-102.71 443.22,-97.65"/>
<polygon fill="#63b8ff" stroke="#63b8ff" points="443.94,-101.08 452.73,-95.16 442.17,-94.31 443.94,-101.08"/>
</a>
</g>
</g>
<!-- Node15 -->
<g id="Node000015" class="node">
<title>Node15</title>
<g id="a_Node000015"><a xlink:href="process__command_8c.html#a8cff9e7b414335547030008d046149ea" target="_top" xlink:title=" ">
<polygon fill="white" stroke="#666666" points="547.75,-58 429.75,-58 429.75,-38 547.75,-38 547.75,-58"/>
<text text-anchor="middle" x="488.75" y="-44.5" font-family="Helvetica,sans-Serif" font-size="10.00">new_connection_player</text>
</a>
</g>
</g>
<!-- Node8&#45;&gt;Node15 -->
<g id="edge14_Node000008_Node000015" class="edge">
<title>Node8&#45;&gt;Node15</title>
<g id="a_edge14_Node000008_Node000015"><a xlink:title=" ">
<path fill="none" stroke="#63b8ff" d="M356.04,-113.53C372.64,-101.08 402.02,-80.31 429.75,-67 433.2,-65.34 436.83,-63.78 440.52,-62.31"/>
<polygon fill="#63b8ff" stroke="#63b8ff" points="441.4,-65.71 449.56,-58.96 438.96,-59.15 441.4,-65.71"/>
</a>
</g>
</g>
<!-- Node11 -->
<g id="Node000011" class="node">
<title>Node11</title>
<g id="a_Node000011"><a xlink:href="exec__command_8c.html#ad90274df54695f20fc2a27f100a9631d" target="_top" xlink:title=" ">
<polygon fill="white" stroke="#666666" points="684.12,-172 604.38,-172 604.38,-152 684.12,-152 684.12,-172"/>
<text text-anchor="middle" x="644.25" y="-158.5" font-family="Helvetica,sans-Serif" font-size="10.00">add_command</text>
</a>
</g>
</g>
<!-- Node10&#45;&gt;Node11 -->
<g id="edge10_Node000010_Node000011" class="edge">
<title>Node10&#45;&gt;Node11</title>
<g id="a_edge10_Node000010_Node000011"><a xlink:title=" ">
<path fill="none" stroke="#63b8ff" d="M531.69,-134.38C550.63,-139.07 573.15,-144.65 592.98,-149.56"/>
<polygon fill="#63b8ff" stroke="#63b8ff" points="591.98,-152.91 602.52,-151.92 593.66,-146.12 591.98,-152.91"/>
</a>
</g>
</g>
<!-- Node12 -->
<g id="Node000012" class="node">
<title>Node12</title>
<g id="a_Node000012"><a xlink:href="process__command_8c.html#a2b111d6371b98a5cac5128eaedeeb78c" target="_top" xlink:title=" ">
<polygon fill="white" stroke="#666666" points="681.5,-134 607,-134 607,-114 681.5,-114 681.5,-134"/>
<text text-anchor="middle" x="644.25" y="-120.5" font-family="Helvetica,sans-Serif" font-size="10.00">realloc_strcat</text>
</a>
</g>
</g>
<!-- Node10&#45;&gt;Node12 -->
<g id="edge11_Node000010_Node000012" class="edge">
<title>Node10&#45;&gt;Node12</title>
<g id="a_edge11_Node000010_Node000012"><a xlink:title=" ">
<path fill="none" stroke="#63b8ff" d="M531.69,-124C551.38,-124 574.93,-124 595.31,-124"/>
<polygon fill="#63b8ff" stroke="#63b8ff" points="595.07,-127.5 605.07,-124 595.07,-120.5 595.07,-127.5"/>
</a>
</g>
</g>
<!-- Node13 -->
<g id="Node000013" class="node">
<title>Node13</title>
<g id="a_Node000013"><a xlink:href="exec__command_8c.html#a281a6f6738826e3f19f602813a1efa24" target="_top" xlink:title=" ">
<polygon fill="white" stroke="#666666" points="673.62,-96 614.88,-96 614.88,-76 673.62,-76 673.62,-96"/>
<text text-anchor="middle" x="644.25" y="-82.5" font-family="Helvetica,sans-Serif" font-size="10.00">set_upper</text>
</a>
</g>
</g>
<!-- Node10&#45;&gt;Node13 -->
<g id="edge12_Node000010_Node000013" class="edge">
<title>Node10&#45;&gt;Node13</title>
<g id="a_edge12_Node000010_Node000013"><a xlink:title=" ">
<path fill="none" stroke="#63b8ff" d="M531.69,-113.62C554.07,-108.08 581.45,-101.3 603.49,-95.84"/>
<polygon fill="#63b8ff" stroke="#63b8ff" points="604.13,-99.29 613,-93.49 602.45,-92.49 604.13,-99.29"/>
</a>
</g>
</g>
<!-- Node16 -->
<g id="Node000016" class="node">
<title>Node16</title>
<g id="a_Node000016"><a xlink:href="process__command_8c.html#a8a3b8c540ccb4af605b27bb69c92e02a" target="_top" xlink:title=" ">
<polygon fill="white" stroke="#666666" points="675.12,-58 613.38,-58 613.38,-38 675.12,-38 675.12,-58"/>
<text text-anchor="middle" x="644.25" y="-44.5" font-family="Helvetica,sans-Serif" font-size="10.00">return_egg</text>
</a>
</g>
</g>
<!-- Node15&#45;&gt;Node16 -->
<g id="edge15_Node000015_Node000016" class="edge">
<title>Node15&#45;&gt;Node16</title>
<g id="a_edge15_Node000015_Node000016"><a xlink:title=" ">
<path fill="none" stroke="#63b8ff" d="M548.22,-48C566.08,-48 585.35,-48 601.83,-48"/>
<polygon fill="#63b8ff" stroke="#63b8ff" points="601.77,-51.5 611.77,-48 601.77,-44.5 601.77,-51.5"/>
</a>
</g>
</g>
<!-- Node17 -->
<g id="Node000017" class="node">
<title>Node17</title>
<g id="a_Node000017"><a xlink:href="process__command_8c.html#a1f8760aac256de83bf45d6fe94c62cf2" target="_top" xlink:title=" ">
<polygon fill="white" stroke="#666666" points="704.75,-20 583.75,-20 583.75,0 704.75,0 704.75,-20"/>
<text text-anchor="middle" x="644.25" y="-6.5" font-family="Helvetica,sans-Serif" font-size="10.00">send_datas_new_player</text>
</a>
</g>
</g>
<!-- Node15&#45;&gt;Node17 -->
<g id="edge16_Node000015_Node000017" class="edge">
<title>Node15&#45;&gt;Node17</title>
<g id="a_edge16_Node000015_Node000017"><a xlink:title=" ">
<path fill="none" stroke="#63b8ff" d="M532.1,-37.52C549.97,-33.09 570.97,-27.89 589.88,-23.21"/>
<polygon fill="#63b8ff" stroke="#63b8ff" points="590.7,-26.61 599.57,-20.81 589.02,-19.82 590.7,-26.61"/>
</a>
</g>
</g>
<!-- Node18 -->
<g id="Node000018" class="node">
<title>Node18</title>
<g id="a_Node000018"><a xlink:href="process__command_8c.html#a08624952cec00b3168e63e05f4203f97" target="_top" xlink:title=" ">
<polygon fill="white" stroke="#666666" points="857.25,-20 740.75,-20 740.75,0 857.25,0 857.25,-20"/>
<text text-anchor="middle" x="799" y="-6.5" font-family="Helvetica,sans-Serif" font-size="10.00">send_data_to_graphics</text>
</a>
</g>
</g>
<!-- Node17&#45;&gt;Node18 -->
<g id="edge17_Node000017_Node000018" class="edge">
<title>Node17&#45;&gt;Node18</title>
<g id="a_edge17_Node000017_Node000018"><a xlink:title=" ">
<path fill="none" stroke="#63b8ff" d="M705.18,-10C713.14,-10 721.34,-10 729.42,-10"/>
<polygon fill="#63b8ff" stroke="#63b8ff" points="729.22,-13.5 739.22,-10 729.22,-6.5 729.22,-13.5"/>
</a>
</g>
</g>
</g>
</svg>

<g id="navigator" transform="translate(0 0)" fill="#404254">
  <rect fill="#f2f5e9" fill-opacity="0.5" stroke="#606060" stroke-width=".5" x="0" y="0" width="60" height="60"/>
  <use id="zoomplus" xlink:href="#zoomPlus" x="17" y="9" onmousedown="handleZoom(evt,'in')"/>
  <use id="zoomminus" xlink:href="#zoomMin" x="42" y="9" onmousedown="handleZoom(evt,'out')"/>
  <use id="reset" xlink:href="#resetDef" x="30" y="36" onmousedown="handleReset()"/>
   <use id="arrowup" xlink:href="#arrowUp" x="0" y="0" onmousedown="handlePan(0,-1)"/>
  <use id="arrowright" xlink:href="#arrowRight" x="0" y="0" onmousedown="handlePan(1,0)"/>
  <use id="arrowdown" xlink:href="#arrowDown" x="0" y="0" onmousedown="handlePan(0,1)"/>
  <use id="arrowleft" xlink:href="#arrowLeft" x="0" y="0" onmousedown="handlePan(-1,0)"/>
</g>
<svg viewBox="0 0 15 15" width="100%" height="30px" preserveAspectRatio="xMaxYMin meet">
 <g id="arrow_out" transform="scale(0.3 0.3)">
  <a xlink:href="handle__commands_8c_a375d7edcc6568dc2e11d1b7e2cff7ba3_cgraph_org.svg" target="_base">
   <rect id="button" ry="5" rx="5" y="6" x="6" height="38" width="38"
        fill="#f2f5e9" fill-opacity="0.5" stroke="#606060" stroke-width="1.0"/>
   <path id="arrow"
     d="M 11.500037,31.436501 C 11.940474,20.09759 22.043105,11.32322 32.158766,21.979434 L 37.068811,17.246167 C 37.068811,17.246167 37.088388,32 37.088388,32 L 22.160133,31.978069 C 22.160133,31.978069 26.997745,27.140456 26.997745,27.140456 C 18.528582,18.264221 13.291696,25.230495 11.500037,31.436501 z"
     style="fill:#404040;"/>
  </a>
 </g>
</svg>

<style type='text/css'>
<![CDATA[
[data-mouse-over-selected='false'] { opacity: 0.7; }
[data-mouse-over-selected='true']  { opacity: 1.0; }
]]>
</style>
<script type="application/ecmascript"><![CDATA[
document.addEventListener('DOMContentLoaded', (event) => {
  highlightEdges();
  highlightAdjacentNodes();
});
]]></script>
</svg>
