<?xml version="1.0" encoding="UTF-8" standalone="no"?>
<!DOCTYPE svg PUBLIC "-//W3C//DTD SVG 1.1//EN"
 "http://www.w3.org/Graphics/SVG/1.1/DTD/svg11.dtd">
<!-- Generated by graphviz version 12.2.1 (20241206.2353)
 -->
<!-- Title: handle_down_server Pages: 1 -->
<svg width="462pt" height="180pt"
 viewBox="0.00 0.00 462.00 180.00" xmlns="http://www.w3.org/2000/svg" xmlns:xlink="http://www.w3.org/1999/xlink">

<svg id="main" version="1.1" xmlns="http://www.w3.org/2000/svg" xmlns:xlink="http://www.w3.org/1999/xlink" xml:space="preserve">

<style type="text/css"><![CDATA[
.node, .edge {opacity: 0.7;}
.node.selected, .edge.selected {opacity: 1;}
.edge:hover path { stroke: red; }
.edge:hover polygon { stroke: red; fill: red; }
]]></style>
<script type="application/ecmascript" xlink:href="svg.min.js"/>
<svg id="graph" class="graph">
<g id="graph0" class="graph" transform="scale(1 1) rotate(0) translate(4 176)">
<title>handle_down_server</title>
<!-- Node1 -->
<g id="Node000001" class="node">
<title>Node1</title>
<g id="a_Node000001"><a xlink:title=" ">
<polygon fill="#999999" stroke="#666666" points="105.25,-96 0,-96 0,-76 105.25,-76 105.25,-96"/>
<text text-anchor="middle" x="52.62" y="-82.5" font-family="Helvetica,sans-Serif" font-size="10.00">handle_down_server</text>
</a>
</g>
</g>
<!-- Node2 -->
<g id="Node000002" class="node">
<title>Node2</title>
<g id="a_Node000002"><a xlink:href="zappy_8c.html#aa03864dfebbcca5f721765dc4bcd0c0c" target="_top" xlink:title=" ">
<polygon fill="white" stroke="#666666" points="212.75,-96 141.25,-96 141.25,-76 212.75,-76 212.75,-96"/>
<text text-anchor="middle" x="177" y="-82.5" font-family="Helvetica,sans-Serif" font-size="10.00">down_server</text>
</a>
</g>
</g>
<!-- Node1&#45;&gt;Node2 -->
<g id="edge1_Node000001_Node000002" class="edge">
<title>Node1&#45;&gt;Node2</title>
<g id="a_edge1_Node000001_Node000002"><a xlink:title=" ">
<path fill="none" stroke="#63b8ff" d="M105.52,-86C113.58,-86 121.85,-86 129.77,-86"/>
<polygon fill="#63b8ff" stroke="#63b8ff" points="129.53,-89.5 139.53,-86 129.53,-82.5 129.53,-89.5"/>
</a>
</g>
</g>
<!-- Node3 -->
<g id="Node000003" class="node">
<title>Node3</title>
<g id="a_Node000003"><a xlink:href="client_8c.html#ad2e6718d9e672c9a08080dfbdb986c9f" target="_top" xlink:title=" ">
<polygon fill="white" stroke="#666666" points="338.25,-172 256.25,-172 256.25,-152 338.25,-152 338.25,-172"/>
<text text-anchor="middle" x="297.25" y="-158.5" font-family="Helvetica,sans-Serif" font-size="10.00">destroy_clients</text>
</a>
</g>
</g>
<!-- Node2&#45;&gt;Node3 -->
<g id="edge2_Node000002_Node000003" class="edge">
<title>Node2&#45;&gt;Node3</title>
<g id="a_edge2_Node000002_Node000003"><a xlink:title=" ">
<path fill="none" stroke="#63b8ff" d="M188.75,-96.39C202,-108.77 225.61,-129.46 248.75,-143 251.05,-144.34 253.46,-145.63 255.92,-146.86"/>
<polygon fill="#63b8ff" stroke="#63b8ff" points="254.28,-149.96 264.84,-150.93 257.19,-143.6 254.28,-149.96"/>
</a>
</g>
</g>
<!-- Node5 -->
<g id="Node000005" class="node">
<title>Node5</title>
<g id="a_Node000005"><a xlink:href="parser_8c.html#a0b46abee78e86769281fcee4c24dd8ee" target="_top" xlink:title=" ">
<polygon fill="white" stroke="#666666" points="337.5,-134 257,-134 257,-114 337.5,-114 337.5,-134"/>
<text text-anchor="middle" x="297.25" y="-120.5" font-family="Helvetica,sans-Serif" font-size="10.00">destroy_parser</text>
</a>
</g>
</g>
<!-- Node2&#45;&gt;Node5 -->
<g id="edge4_Node000002_Node000005" class="edge">
<title>Node2&#45;&gt;Node5</title>
<g id="a_edge4_Node000002_Node000005"><a xlink:title=" ">
<path fill="none" stroke="#63b8ff" d="M210.63,-96.48C223.68,-100.68 238.91,-105.57 252.87,-110.06"/>
<polygon fill="#63b8ff" stroke="#63b8ff" points="251.7,-113.36 262.29,-113.09 253.84,-106.7 251.7,-113.36"/>
</a>
</g>
</g>
<!-- Node6 -->
<g id="Node000006" class="node">
<title>Node6</title>
<g id="a_Node000006"><a xlink:href="parser__str_8c.html#a079c483a13d5fd30e3d4ff61a12cd703" target="_top" xlink:title=" ">
<polygon fill="white" stroke="#666666" points="345.75,-96 248.75,-96 248.75,-76 345.75,-76 345.75,-96"/>
<text text-anchor="middle" x="297.25" y="-82.5" font-family="Helvetica,sans-Serif" font-size="10.00">destroy_parser_str</text>
</a>
</g>
</g>
<!-- Node2&#45;&gt;Node6 -->
<g id="edge5_Node000002_Node000006" class="edge">
<title>Node2&#45;&gt;Node6</title>
<g id="a_edge5_Node000002_Node000006"><a xlink:title=" ">
<path fill="none" stroke="#63b8ff" d="M213.16,-86C220.65,-86 228.77,-86 236.89,-86"/>
<polygon fill="#63b8ff" stroke="#63b8ff" points="236.8,-89.5 246.8,-86 236.8,-82.5 236.8,-89.5"/>
</a>
</g>
</g>
<!-- Node7 -->
<g id="Node000007" class="node">
<title>Node7</title>
<g id="a_Node000007"><a xlink:href="server_8c.html#a1419add62a8164aa89c42e83753e5a7f" target="_top" xlink:title=" ">
<polygon fill="white" stroke="#666666" points="337.5,-58 257,-58 257,-38 337.5,-38 337.5,-58"/>
<text text-anchor="middle" x="297.25" y="-44.5" font-family="Helvetica,sans-Serif" font-size="10.00">destroy_server</text>
</a>
</g>
</g>
<!-- Node2&#45;&gt;Node7 -->
<g id="edge6_Node000002_Node000007" class="edge">
<title>Node2&#45;&gt;Node7</title>
<g id="a_edge6_Node000002_Node000007"><a xlink:title=" ">
<path fill="none" stroke="#63b8ff" d="M210.63,-75.52C223.68,-71.32 238.91,-66.43 252.87,-61.94"/>
<polygon fill="#63b8ff" stroke="#63b8ff" points="253.84,-65.3 262.29,-58.91 251.7,-58.64 253.84,-65.3"/>
</a>
</g>
</g>
<!-- Node8 -->
<g id="Node000008" class="node">
<title>Node8</title>
<g id="a_Node000008"><a xlink:href="map__creation_8c.html#ab496a562cf58d3dbd658cb496a3b1dd3" target="_top" xlink:title=" ">
<polygon fill="white" stroke="#666666" points="344.25,-20 250.25,-20 250.25,0 344.25,0 344.25,-20"/>
<text text-anchor="middle" x="297.25" y="-6.5" font-family="Helvetica,sans-Serif" font-size="10.00">free_starting_map</text>
</a>
</g>
</g>
<!-- Node2&#45;&gt;Node8 -->
<g id="edge8_Node000002_Node000008" class="edge">
<title>Node2&#45;&gt;Node8</title>
<g id="a_edge8_Node000002_Node000008"><a xlink:title=" ">
<path fill="none" stroke="#63b8ff" d="M188.75,-75.61C202,-63.23 225.61,-42.54 248.75,-29 251.05,-27.66 253.46,-26.37 255.92,-25.14"/>
<polygon fill="#63b8ff" stroke="#63b8ff" points="257.19,-28.4 264.84,-21.07 254.28,-22.04 257.19,-28.4"/>
</a>
</g>
</g>
<!-- Node4 -->
<g id="Node000004" class="node">
<title>Node4</title>
<g id="a_Node000004"><a xlink:href="parser_8c.html#a3fd716b111caa8f93098f7e5070fd0bb" target="_top" xlink:title=" ">
<polygon fill="white" stroke="#666666" points="453.62,-115 382.12,-115 382.12,-95 453.62,-95 453.62,-115"/>
<text text-anchor="middle" x="417.88" y="-101.5" font-family="Helvetica,sans-Serif" font-size="10.00">display_error</text>
</a>
</g>
</g>
<!-- Node3&#45;&gt;Node4 -->
<g id="edge3_Node000003_Node000004" class="edge">
<title>Node3&#45;&gt;Node4</title>
<g id="a_edge3_Node000003_Node000004"><a xlink:title=" ">
<path fill="none" stroke="#63b8ff" d="M325.85,-151.56C332.43,-148.9 339.39,-145.96 345.75,-143 360.27,-136.24 376.02,-127.93 389,-120.81"/>
<polygon fill="#63b8ff" stroke="#63b8ff" points="390.37,-124.05 397.41,-116.14 386.97,-117.93 390.37,-124.05"/>
</a>
</g>
</g>
<!-- Node7&#45;&gt;Node4 -->
<g id="edge7_Node000007_Node000004" class="edge">
<title>Node7&#45;&gt;Node4</title>
<g id="a_edge7_Node000007_Node000004"><a xlink:title=" ">
<path fill="none" stroke="#63b8ff" d="M325.85,-58.44C332.43,-61.1 339.39,-64.04 345.75,-67 360.27,-73.76 376.02,-82.07 389,-89.19"/>
<polygon fill="#63b8ff" stroke="#63b8ff" points="386.97,-92.07 397.41,-93.86 390.37,-85.95 386.97,-92.07"/>
</a>
</g>
</g>
<!-- Node9 -->
<g id="Node000009" class="node">
<title>Node9</title>
<g id="a_Node000009"><a xlink:href="map_8c.html#ab3665f27df0b86ccb8e8eca7f8f85821" target="_top" xlink:title=" ">
<polygon fill="white" stroke="#666666" points="454,-20 381.75,-20 381.75,0 454,0 454,-20"/>
<text text-anchor="middle" x="417.88" y="-6.5" font-family="Helvetica,sans-Serif" font-size="10.00">destroy_map</text>
</a>
</g>
</g>
<!-- Node8&#45;&gt;Node9 -->
<g id="edge9_Node000008_Node000009" class="edge">
<title>Node8&#45;&gt;Node9</title>
<g id="a_edge9_Node000008_Node000009"><a xlink:title=" ">
<path fill="none" stroke="#63b8ff" d="M344.45,-10C352.77,-10 361.44,-10 369.78,-10"/>
<polygon fill="#63b8ff" stroke="#63b8ff" points="369.76,-13.5 379.75,-10 369.75,-6.5 369.76,-13.5"/>
</a>
</g>
</g>
</g>
</svg>
</svg>

<style type='text/css'>
<![CDATA[
[data-mouse-over-selected='false'] { opacity: 0.7; }
[data-mouse-over-selected='true']  { opacity: 1.0; }
]]>
</style>
<script type="application/ecmascript"><![CDATA[
document.addEventListener('DOMContentLoaded', (event) => {
  highlightEdges();
  highlightAdjacentNodes();
});
]]></script>
</svg>
