<?xml version="1.0" encoding="UTF-8" standalone="no"?>
<!DOCTYPE svg PUBLIC "-//W3C//DTD SVG 1.1//EN"
 "http://www.w3.org/Graphics/SVG/1.1/DTD/svg11.dtd">
<!-- Generated by graphviz version 12.2.1 (20241206.2353)
 -->
<!-- Title: /home/matt/tek2/YEP/ZAPPY/zappy_server_src/main.c Pages: 1 -->
<svg width="706pt" height="108pt"
 viewBox="0.00 0.00 706.12 108.00" xmlns="http://www.w3.org/2000/svg" xmlns:xlink="http://www.w3.org/1999/xlink">
<g id="graph0" class="graph" transform="scale(1 1) rotate(0) translate(4 104)">
<title>/home/matt/tek2/YEP/ZAPPY/zappy_server_src/main.c</title>
<!-- Node1 -->
<g id="Node000001" class="node">
<title>Node1</title>
<g id="a_Node000001"><a xlink:title=" ">
<polygon fill="#999999" stroke="#666666" points="341.38,-100 227.88,-100 227.88,-56 341.38,-56 341.38,-100"/>
<text text-anchor="start" x="235.88" y="-86.5" font-family="Helvetica,sans-Serif" font-size="10.00">/home/matt/tek2/YEP</text>
<text text-anchor="start" x="235.88" y="-74.5" font-family="Helvetica,sans-Serif" font-size="10.00">/ZAPPY/zappy_server</text>
<text text-anchor="middle" x="284.62" y="-62.5" font-family="Helvetica,sans-Serif" font-size="10.00">_src/main.c</text>
</a>
</g>
</g>
<!-- Node2 -->
<g id="Node000002" class="node">
<title>Node2</title>
<g id="a_Node000002"><a xlink:title=" ">
<polygon fill="#e0e0e0" stroke="#999999" points="45.25,-20 0,-20 0,0 45.25,0 45.25,-20"/>
<text text-anchor="middle" x="22.62" y="-6.5" font-family="Helvetica,sans-Serif" font-size="10.00">stdio.h</text>
</a>
</g>
</g>
<!-- Node1&#45;&gt;Node2 -->
<g id="edge1_Node000001_Node000002" class="edge">
<title>Node1&#45;&gt;Node2</title>
<g id="a_edge1_Node000001_Node000002"><a xlink:title=" ">
<path fill="none" stroke="#63b8ff" d="M227.5,-63.59C183.21,-53.03 120.04,-37.65 56.62,-20.74"/>
<polygon fill="#63b8ff" stroke="#63b8ff" points="57.65,-17.39 47.08,-18.18 55.83,-24.15 57.65,-17.39"/>
</a>
</g>
</g>
<!-- Node3 -->
<g id="Node000003" class="node">
<title>Node3</title>
<g id="a_Node000003"><a xlink:title=" ">
<polygon fill="#e0e0e0" stroke="#999999" points="110.38,-20 62.88,-20 62.88,0 110.38,0 110.38,-20"/>
<text text-anchor="middle" x="86.62" y="-6.5" font-family="Helvetica,sans-Serif" font-size="10.00">stdlib.h</text>
</a>
</g>
</g>
<!-- Node1&#45;&gt;Node3 -->
<g id="edge2_Node000001_Node000003" class="edge">
<title>Node1&#45;&gt;Node3</title>
<g id="a_edge2_Node000001_Node000003"><a xlink:title=" ">
<path fill="none" stroke="#63b8ff" d="M227.62,-58C193.28,-46.55 150.66,-32.35 121.32,-22.57"/>
<polygon fill="#63b8ff" stroke="#63b8ff" points="122.8,-19.37 112.21,-19.53 120.59,-26.01 122.8,-19.37"/>
</a>
</g>
</g>
<!-- Node4 -->
<g id="Node000004" class="node">
<title>Node4</title>
<g id="a_Node000004"><a xlink:title=" ">
<polygon fill="#e0e0e0" stroke="#999999" points="178.5,-20 128.75,-20 128.75,0 178.5,0 178.5,-20"/>
<text text-anchor="middle" x="153.62" y="-6.5" font-family="Helvetica,sans-Serif" font-size="10.00">signal.h</text>
</a>
</g>
</g>
<!-- Node1&#45;&gt;Node4 -->
<g id="edge3_Node000001_Node000004" class="edge">
<title>Node1&#45;&gt;Node4</title>
<g id="a_edge3_Node000001_Node000004"><a xlink:title=" ">
<path fill="none" stroke="#63b8ff" d="M242.09,-55.57C222.54,-45.72 199.87,-34.3 182.37,-25.48"/>
<polygon fill="#63b8ff" stroke="#63b8ff" points="184.07,-22.42 173.57,-21.05 180.92,-28.67 184.07,-22.42"/>
</a>
</g>
</g>
<!-- Node5 -->
<g id="Node000005" class="node">
<title>Node5</title>
<g id="a_Node000005"><a xlink:title=" ">
<polygon fill="#e0e0e0" stroke="#999999" points="244.75,-20 196.5,-20 196.5,0 244.75,0 244.75,-20"/>
<text text-anchor="middle" x="220.62" y="-6.5" font-family="Helvetica,sans-Serif" font-size="10.00">string.h</text>
</a>
</g>
</g>
<!-- Node1&#45;&gt;Node5 -->
<g id="edge4_Node000001_Node000005" class="edge">
<title>Node1&#45;&gt;Node5</title>
<g id="a_edge4_Node000001_Node000005"><a xlink:title=" ">
<path fill="none" stroke="#63b8ff" d="M264.02,-55.75C255.54,-47.01 245.83,-37 237.75,-28.66"/>
<polygon fill="#63b8ff" stroke="#63b8ff" points="240.29,-26.25 230.81,-21.51 235.26,-31.12 240.29,-26.25"/>
</a>
</g>
</g>
<!-- Node6 -->
<g id="Node000006" class="node">
<title>Node6</title>
<g id="a_Node000006"><a xlink:title=" ">
<polygon fill="#e0e0e0" stroke="#999999" points="306.12,-20 263.12,-20 263.12,0 306.12,0 306.12,-20"/>
<text text-anchor="middle" x="284.62" y="-6.5" font-family="Helvetica,sans-Serif" font-size="10.00">time.h</text>
</a>
</g>
</g>
<!-- Node1&#45;&gt;Node6 -->
<g id="edge5_Node000001_Node000006" class="edge">
<title>Node1&#45;&gt;Node6</title>
<g id="a_edge5_Node000001_Node000006"><a xlink:title=" ">
<path fill="none" stroke="#63b8ff" d="M284.62,-55.75C284.62,-48.13 284.62,-39.53 284.62,-31.93"/>
<polygon fill="#63b8ff" stroke="#63b8ff" points="288.13,-31.93 284.63,-21.93 281.13,-31.93 288.13,-31.93"/>
</a>
</g>
</g>
<!-- Node7 -->
<g id="Node000007" class="node">
<title>Node7</title>
<g id="a_Node000007"><a xlink:title=" ">
<polygon fill="#e0e0e0" stroke="#999999" points="391.12,-20 324.12,-20 324.12,0 391.12,0 391.12,-20"/>
<text text-anchor="middle" x="357.62" y="-6.5" font-family="Helvetica,sans-Serif" font-size="10.00">sys/types.h</text>
</a>
</g>
</g>
<!-- Node1&#45;&gt;Node7 -->
<g id="edge6_Node000001_Node000007" class="edge">
<title>Node1&#45;&gt;Node7</title>
<g id="a_edge6_Node000001_Node000007"><a xlink:title=" ">
<path fill="none" stroke="#63b8ff" d="M308.12,-55.75C318,-46.82 329.34,-36.57 338.67,-28.13"/>
<polygon fill="#63b8ff" stroke="#63b8ff" points="341.01,-30.74 346.08,-21.43 336.32,-25.54 341.01,-30.74"/>
</a>
</g>
</g>
<!-- Node8 -->
<g id="Node000008" class="node">
<title>Node8</title>
<g id="a_Node000008"><a xlink:title=" ">
<polygon fill="#e0e0e0" stroke="#999999" points="492.38,-20 408.88,-20 408.88,0 492.38,0 492.38,-20"/>
<text text-anchor="middle" x="450.62" y="-6.5" font-family="Helvetica,sans-Serif" font-size="10.00">include/zappy.h</text>
</a>
</g>
</g>
<!-- Node1&#45;&gt;Node8 -->
<g id="edge7_Node000001_Node000008" class="edge">
<title>Node1&#45;&gt;Node8</title>
<g id="a_edge7_Node000001_Node000008"><a xlink:title=" ">
<path fill="none" stroke="#63b8ff" d="M338.52,-55.57C364.11,-45.4 393.93,-33.54 416.38,-24.62"/>
<polygon fill="#63b8ff" stroke="#63b8ff" points="417.66,-27.87 425.66,-20.92 415.08,-21.37 417.66,-27.87"/>
</a>
</g>
</g>
<!-- Node9 -->
<g id="Node000009" class="node">
<title>Node9</title>
<g id="a_Node000009"><a xlink:title=" ">
<polygon fill="#e0e0e0" stroke="#999999" points="595.12,-20 510.12,-20 510.12,0 595.12,0 595.12,-20"/>
<text text-anchor="middle" x="552.62" y="-6.5" font-family="Helvetica,sans-Serif" font-size="10.00">include/parser.h</text>
</a>
</g>
</g>
<!-- Node1&#45;&gt;Node9 -->
<g id="edge8_Node000001_Node000009" class="edge">
<title>Node1&#45;&gt;Node9</title>
<g id="a_edge8_Node000001_Node000009"><a xlink:title=" ">
<path fill="none" stroke="#63b8ff" d="M341.79,-62.92C389.69,-51.13 457.38,-34.46 503.02,-23.22"/>
<polygon fill="#63b8ff" stroke="#63b8ff" points="503.79,-26.63 512.66,-20.84 502.11,-19.84 503.79,-26.63"/>
</a>
</g>
</g>
<!-- Node10 -->
<g id="Node000010" class="node">
<title>Node10</title>
<g id="a_Node000010"><a xlink:title=" ">
<polygon fill="#e0e0e0" stroke="#999999" points="698.12,-20 613.12,-20 613.12,0 698.12,0 698.12,-20"/>
<text text-anchor="middle" x="655.62" y="-6.5" font-family="Helvetica,sans-Serif" font-size="10.00">include/server.h</text>
</a>
</g>
</g>
<!-- Node1&#45;&gt;Node10 -->
<g id="edge9_Node000001_Node000010" class="edge">
<title>Node1&#45;&gt;Node10</title>
<g id="a_edge9_Node000001_Node000010"><a xlink:title=" ">
<path fill="none" stroke="#63b8ff" d="M341.78,-66.83C412.64,-54.23 532.49,-32.91 601.78,-20.58"/>
<polygon fill="#63b8ff" stroke="#63b8ff" points="602.14,-24.07 611.37,-18.87 600.91,-17.18 602.14,-24.07"/>
</a>
</g>
</g>
</g>
</svg>
