<?xml version="1.0" encoding="UTF-8" standalone="no"?>
<!DOCTYPE svg PUBLIC "-//W3C//DTD SVG 1.1//EN"
 "http://www.w3.org/Graphics/SVG/1.1/DTD/svg11.dtd">
<!-- Generated by graphviz version 12.2.1 (20241206.2353)
 -->
<!-- Title: setup_down_server Pages: 1 -->
<!--zoomable 180 -->

<svg id="main" version="1.1" xmlns="http://www.w3.org/2000/svg" xmlns:xlink="http://www.w3.org/1999/xlink" xml:space="preserve" onload="init(evt)">

<style type="text/css"><![CDATA[
.node, .edge {opacity: 0.7;}
.node.selected, .edge.selected {opacity: 1;}
.edge:hover path { stroke: red; }
.edge:hover polygon { stroke: red; fill: red; }
]]></style>

<defs>
  <circle id="rim" cx="0" cy="0" r="7"/>
  <circle id="rim2" cx="0" cy="0" r="3.5"/>
  <g id="zoomPlus">
    <use xlink:href="#rim" fill="#404040"><set attributeName="fill" to="#808080" begin="zoomplus.mouseover" end="zoomplus.mouseout"/></use>
    <path d="M-4,0h8M0,-4v8" fill="none" stroke="white" stroke-width="1.5" pointer-events="none"/>
  </g>
  <g id="zoomMin">
    <use xlink:href="#rim" fill="#404040"><set attributeName="fill" to="#808080" begin="zoomminus.mouseover" end="zoomminus.mouseout"/></use>
    <path d="M-4,0h8" fill="none" stroke="white" stroke-width="1.5" pointer-events="none"/>
  </g>
  <g id="arrowUp" transform="translate(30 24)">
    <use xlink:href="#rim"/>
    <path pointer-events="none" fill="none" stroke="white" stroke-width="1.5" d="M0,-3.0v7 M-2.5,-0.5L0,-3.0L2.5,-0.5"/>
  </g>
  <g id="arrowRight" transform="rotate(90) translate(36 -43)">
    <use xlink:href="#rim"/>
    <path pointer-events="none" fill="none" stroke="white" stroke-width="1.5" d="M0,-3.0v7 M-2.5,-0.5L0,-3.0L2.5,-0.5"/>
  </g>
  <g id="arrowDown" transform="rotate(180) translate(-30 -48)">
    <use xlink:href="#rim"/>
    <path pointer-events="none" fill="none" stroke="white" stroke-width="1.5" d="M0,-3.0v7 M-2.5,-0.5L0,-3.0L2.5,-0.5"/>
  </g>
  <g id="arrowLeft" transform="rotate(270) translate(-36 17)">
    <use xlink:href="#rim"/>
    <path pointer-events="none" fill="none" stroke="white" stroke-width="1.5" d="M0,-3.0v7 M-2.5,-0.5L0,-3.0L2.5,-0.5"/>
  </g>
  <g id="resetDef">
    <use xlink:href="#rim2" fill="#404040"><set attributeName="fill" to="#808080" begin="reset.mouseover" end="reset.mouseout"/></use>
  </g>
</defs>
<script type="application/ecmascript">
var viewWidth = 599;
var viewHeight = 180;
var sectionId = 'dynsection-4';
</script>
<script type="application/ecmascript" xlink:href="svg.min.js"/>
<svg id="graph" class="graph">
<g id="viewport">
<title>setup_down_server</title>
<!-- Node1 -->
<g id="Node000001" class="node">
<title>Node1</title>
<g id="a_Node000001"><a xlink:title=" ">
<polygon fill="#999999" stroke="#666666" points="100.75,-96 0,-96 0,-76 100.75,-76 100.75,-96"/>
<text text-anchor="middle" x="50.38" y="-82.5" font-family="Helvetica,sans-Serif" font-size="10.00">setup_down_server</text>
</a>
</g>
</g>
<!-- Node2 -->
<g id="Node000002" class="node">
<title>Node2</title>
<g id="a_Node000002"><a xlink:href="main_8c.html#a12a702ea4c5d44f6062d6e96376e08b6" target="_top" xlink:title=" ">
<polygon fill="white" stroke="#666666" points="242,-96 136.75,-96 136.75,-76 242,-76 242,-96"/>
<text text-anchor="middle" x="189.38" y="-82.5" font-family="Helvetica,sans-Serif" font-size="10.00">handle_down_server</text>
</a>
</g>
</g>
<!-- Node1&#45;&gt;Node2 -->
<g id="edge1_Node000001_Node000002" class="edge">
<title>Node1&#45;&gt;Node2</title>
<g id="a_edge1_Node000001_Node000002"><a xlink:title=" ">
<path fill="none" stroke="#63b8ff" d="M101.22,-86C109.02,-86 117.17,-86 125.22,-86"/>
<polygon fill="#63b8ff" stroke="#63b8ff" points="124.98,-89.5 134.98,-86 124.98,-82.5 124.98,-89.5"/>
</a>
</g>
</g>
<!-- Node3 -->
<g id="Node000003" class="node">
<title>Node3</title>
<g id="a_Node000003"><a xlink:href="zappy_8c.html#aa03864dfebbcca5f721765dc4bcd0c0c" target="_top" xlink:title=" ">
<polygon fill="white" stroke="#666666" points="349.5,-96 278,-96 278,-76 349.5,-76 349.5,-96"/>
<text text-anchor="middle" x="313.75" y="-82.5" font-family="Helvetica,sans-Serif" font-size="10.00">down_server</text>
</a>
</g>
</g>
<!-- Node2&#45;&gt;Node3 -->
<g id="edge2_Node000002_Node000003" class="edge">
<title>Node2&#45;&gt;Node3</title>
<g id="a_edge2_Node000002_Node000003"><a xlink:title=" ">
<path fill="none" stroke="#63b8ff" d="M242.27,-86C250.33,-86 258.6,-86 266.52,-86"/>
<polygon fill="#63b8ff" stroke="#63b8ff" points="266.28,-89.5 276.28,-86 266.28,-82.5 266.28,-89.5"/>
</a>
</g>
</g>
<!-- Node4 -->
<g id="Node000004" class="node">
<title>Node4</title>
<g id="a_Node000004"><a xlink:href="client_8c.html#ad2e6718d9e672c9a08080dfbdb986c9f" target="_top" xlink:title=" ">
<polygon fill="white" stroke="#666666" points="475,-172 393,-172 393,-152 475,-152 475,-172"/>
<text text-anchor="middle" x="434" y="-158.5" font-family="Helvetica,sans-Serif" font-size="10.00">destroy_clients</text>
</a>
</g>
</g>
<!-- Node3&#45;&gt;Node4 -->
<g id="edge3_Node000003_Node000004" class="edge">
<title>Node3&#45;&gt;Node4</title>
<g id="a_edge3_Node000003_Node000004"><a xlink:title=" ">
<path fill="none" stroke="#63b8ff" d="M325.5,-96.39C338.75,-108.77 362.36,-129.46 385.5,-143 387.8,-144.34 390.21,-145.63 392.67,-146.86"/>
<polygon fill="#63b8ff" stroke="#63b8ff" points="391.03,-149.96 401.59,-150.93 393.94,-143.6 391.03,-149.96"/>
</a>
</g>
</g>
<!-- Node6 -->
<g id="Node000006" class="node">
<title>Node6</title>
<g id="a_Node000006"><a xlink:href="parser_8c.html#a0b46abee78e86769281fcee4c24dd8ee" target="_top" xlink:title=" ">
<polygon fill="white" stroke="#666666" points="474.25,-134 393.75,-134 393.75,-114 474.25,-114 474.25,-134"/>
<text text-anchor="middle" x="434" y="-120.5" font-family="Helvetica,sans-Serif" font-size="10.00">destroy_parser</text>
</a>
</g>
</g>
<!-- Node3&#45;&gt;Node6 -->
<g id="edge5_Node000003_Node000006" class="edge">
<title>Node3&#45;&gt;Node6</title>
<g id="a_edge5_Node000003_Node000006"><a xlink:title=" ">
<path fill="none" stroke="#63b8ff" d="M347.38,-96.48C360.43,-100.68 375.66,-105.57 389.62,-110.06"/>
<polygon fill="#63b8ff" stroke="#63b8ff" points="388.45,-113.36 399.04,-113.09 390.59,-106.7 388.45,-113.36"/>
</a>
</g>
</g>
<!-- Node7 -->
<g id="Node000007" class="node">
<title>Node7</title>
<g id="a_Node000007"><a xlink:href="parser__str_8c.html#a079c483a13d5fd30e3d4ff61a12cd703" target="_top" xlink:title=" ">
<polygon fill="white" stroke="#666666" points="482.5,-96 385.5,-96 385.5,-76 482.5,-76 482.5,-96"/>
<text text-anchor="middle" x="434" y="-82.5" font-family="Helvetica,sans-Serif" font-size="10.00">destroy_parser_str</text>
</a>
</g>
</g>
<!-- Node3&#45;&gt;Node7 -->
<g id="edge6_Node000003_Node000007" class="edge">
<title>Node3&#45;&gt;Node7</title>
<g id="a_edge6_Node000003_Node000007"><a xlink:title=" ">
<path fill="none" stroke="#63b8ff" d="M349.91,-86C357.4,-86 365.52,-86 373.64,-86"/>
<polygon fill="#63b8ff" stroke="#63b8ff" points="373.55,-89.5 383.55,-86 373.55,-82.5 373.55,-89.5"/>
</a>
</g>
</g>
<!-- Node8 -->
<g id="Node000008" class="node">
<title>Node8</title>
<g id="a_Node000008"><a xlink:href="server_8c.html#a1419add62a8164aa89c42e83753e5a7f" target="_top" xlink:title=" ">
<polygon fill="white" stroke="#666666" points="474.25,-58 393.75,-58 393.75,-38 474.25,-38 474.25,-58"/>
<text text-anchor="middle" x="434" y="-44.5" font-family="Helvetica,sans-Serif" font-size="10.00">destroy_server</text>
</a>
</g>
</g>
<!-- Node3&#45;&gt;Node8 -->
<g id="edge7_Node000003_Node000008" class="edge">
<title>Node3&#45;&gt;Node8</title>
<g id="a_edge7_Node000003_Node000008"><a xlink:title=" ">
<path fill="none" stroke="#63b8ff" d="M347.38,-75.52C360.43,-71.32 375.66,-66.43 389.62,-61.94"/>
<polygon fill="#63b8ff" stroke="#63b8ff" points="390.59,-65.3 399.04,-58.91 388.45,-58.64 390.59,-65.3"/>
</a>
</g>
</g>
<!-- Node9 -->
<g id="Node000009" class="node">
<title>Node9</title>
<g id="a_Node000009"><a xlink:href="map__creation_8c.html#ab496a562cf58d3dbd658cb496a3b1dd3" target="_top" xlink:title=" ">
<polygon fill="white" stroke="#666666" points="481,-20 387,-20 387,0 481,0 481,-20"/>
<text text-anchor="middle" x="434" y="-6.5" font-family="Helvetica,sans-Serif" font-size="10.00">free_starting_map</text>
</a>
</g>
</g>
<!-- Node3&#45;&gt;Node9 -->
<g id="edge9_Node000003_Node000009" class="edge">
<title>Node3&#45;&gt;Node9</title>
<g id="a_edge9_Node000003_Node000009"><a xlink:title=" ">
<path fill="none" stroke="#63b8ff" d="M325.5,-75.61C338.75,-63.23 362.36,-42.54 385.5,-29 387.8,-27.66 390.21,-26.37 392.67,-25.14"/>
<polygon fill="#63b8ff" stroke="#63b8ff" points="393.94,-28.4 401.59,-21.07 391.03,-22.04 393.94,-28.4"/>
</a>
</g>
</g>
<!-- Node5 -->
<g id="Node000005" class="node">
<title>Node5</title>
<g id="a_Node000005"><a xlink:href="parser_8c.html#a3fd716b111caa8f93098f7e5070fd0bb" target="_top" xlink:title=" ">
<polygon fill="white" stroke="#666666" points="590.38,-115 518.88,-115 518.88,-95 590.38,-95 590.38,-115"/>
<text text-anchor="middle" x="554.62" y="-101.5" font-family="Helvetica,sans-Serif" font-size="10.00">display_error</text>
</a>
</g>
</g>
<!-- Node4&#45;&gt;Node5 -->
<g id="edge4_Node000004_Node000005" class="edge">
<title>Node4&#45;&gt;Node5</title>
<g id="a_edge4_Node000004_Node000005"><a xlink:title=" ">
<path fill="none" stroke="#63b8ff" d="M462.6,-151.56C469.18,-148.9 476.14,-145.96 482.5,-143 497.02,-136.24 512.77,-127.93 525.75,-120.81"/>
<polygon fill="#63b8ff" stroke="#63b8ff" points="527.12,-124.05 534.16,-116.14 523.72,-117.93 527.12,-124.05"/>
</a>
</g>
</g>
<!-- Node8&#45;&gt;Node5 -->
<g id="edge8_Node000008_Node000005" class="edge">
<title>Node8&#45;&gt;Node5</title>
<g id="a_edge8_Node000008_Node000005"><a xlink:title=" ">
<path fill="none" stroke="#63b8ff" d="M462.6,-58.44C469.18,-61.1 476.14,-64.04 482.5,-67 497.02,-73.76 512.77,-82.07 525.75,-89.19"/>
<polygon fill="#63b8ff" stroke="#63b8ff" points="523.72,-92.07 534.16,-93.86 527.12,-85.95 523.72,-92.07"/>
</a>
</g>
</g>
<!-- Node10 -->
<g id="Node000010" class="node">
<title>Node10</title>
<g id="a_Node000010"><a xlink:href="map_8c.html#ab3665f27df0b86ccb8e8eca7f8f85821" target="_top" xlink:title=" ">
<polygon fill="white" stroke="#666666" points="590.75,-20 518.5,-20 518.5,0 590.75,0 590.75,-20"/>
<text text-anchor="middle" x="554.62" y="-6.5" font-family="Helvetica,sans-Serif" font-size="10.00">destroy_map</text>
</a>
</g>
</g>
<!-- Node9&#45;&gt;Node10 -->
<g id="edge10_Node000009_Node000010" class="edge">
<title>Node9&#45;&gt;Node10</title>
<g id="a_edge10_Node000009_Node000010"><a xlink:title=" ">
<path fill="none" stroke="#63b8ff" d="M481.2,-10C489.52,-10 498.19,-10 506.53,-10"/>
<polygon fill="#63b8ff" stroke="#63b8ff" points="506.51,-13.5 516.5,-10 506.5,-6.5 506.51,-13.5"/>
</a>
</g>
</g>
</g>
</svg>

<g id="navigator" transform="translate(0 0)" fill="#404254">
  <rect fill="#f2f5e9" fill-opacity="0.5" stroke="#606060" stroke-width=".5" x="0" y="0" width="60" height="60"/>
  <use id="zoomplus" xlink:href="#zoomPlus" x="17" y="9" onmousedown="handleZoom(evt,'in')"/>
  <use id="zoomminus" xlink:href="#zoomMin" x="42" y="9" onmousedown="handleZoom(evt,'out')"/>
  <use id="reset" xlink:href="#resetDef" x="30" y="36" onmousedown="handleReset()"/>
   <use id="arrowup" xlink:href="#arrowUp" x="0" y="0" onmousedown="handlePan(0,-1)"/>
  <use id="arrowright" xlink:href="#arrowRight" x="0" y="0" onmousedown="handlePan(1,0)"/>
  <use id="arrowdown" xlink:href="#arrowDown" x="0" y="0" onmousedown="handlePan(0,1)"/>
  <use id="arrowleft" xlink:href="#arrowLeft" x="0" y="0" onmousedown="handlePan(-1,0)"/>
</g>
<svg viewBox="0 0 15 15" width="100%" height="30px" preserveAspectRatio="xMaxYMin meet">
 <g id="arrow_out" transform="scale(0.3 0.3)">
  <a xlink:href="main_8c_a2e01f0ba90cd568dbee49bef85ba822a_cgraph_org.svg" target="_base">
   <rect id="button" ry="5" rx="5" y="6" x="6" height="38" width="38"
        fill="#f2f5e9" fill-opacity="0.5" stroke="#606060" stroke-width="1.0"/>
   <path id="arrow"
     d="M 11.500037,31.436501 C 11.940474,20.09759 22.043105,11.32322 32.158766,21.979434 L 37.068811,17.246167 C 37.068811,17.246167 37.088388,32 37.088388,32 L 22.160133,31.978069 C 22.160133,31.978069 26.997745,27.140456 26.997745,27.140456 C 18.528582,18.264221 13.291696,25.230495 11.500037,31.436501 z"
     style="fill:#404040;"/>
  </a>
 </g>
</svg>

<style type='text/css'>
<![CDATA[
[data-mouse-over-selected='false'] { opacity: 0.7; }
[data-mouse-over-selected='true']  { opacity: 1.0; }
]]>
</style>
<script type="application/ecmascript"><![CDATA[
document.addEventListener('DOMContentLoaded', (event) => {
  highlightEdges();
  highlightAdjacentNodes();
});
]]></script>
</svg>
