<?xml version="1.0" encoding="UTF-8" standalone="no"?>
<!DOCTYPE svg PUBLIC "-//W3C//DTD SVG 1.1//EN"
 "http://www.w3.org/Graphics/SVG/1.1/DTD/svg11.dtd">
<!-- Generated by graphviz version 12.2.1 (20241206.2353)
 -->
<!-- Title: spawn_resources Pages: 1 -->
<svg width="353pt" height="104pt"
 viewBox="0.00 0.00 353.00 104.00" xmlns="http://www.w3.org/2000/svg" xmlns:xlink="http://www.w3.org/1999/xlink">

<svg id="main" version="1.1" xmlns="http://www.w3.org/2000/svg" xmlns:xlink="http://www.w3.org/1999/xlink" xml:space="preserve">

<style type="text/css"><![CDATA[
.node, .edge {opacity: 0.7;}
.node.selected, .edge.selected {opacity: 1;}
.edge:hover path { stroke: red; }
.edge:hover polygon { stroke: red; fill: red; }
]]></style>
<script type="application/ecmascript" xlink:href="svg.min.js"/>
<svg id="graph" class="graph">
<g id="graph0" class="graph" transform="scale(1 1) rotate(0) translate(4 100)">
<title>spawn_resources</title>
<!-- Node1 -->
<g id="Node000001" class="node">
<title>Node1</title>
<g id="a_Node000001"><a xlink:title=" ">
<polygon fill="#999999" stroke="#666666" points="92.5,-58 0,-58 0,-38 92.5,-38 92.5,-58"/>
<text text-anchor="middle" x="46.25" y="-44.5" font-family="Helvetica,sans-Serif" font-size="10.00">spawn_resources</text>
</a>
</g>
</g>
<!-- Node2 -->
<g id="Node000002" class="node">
<title>Node2</title>
<g id="a_Node000002"><a xlink:href="map_8c.html#a543026bded5864e3c71ab1971a1fb052" target="_top" xlink:title=" ">
<polygon fill="white" stroke="#666666" points="230,-96 128.5,-96 128.5,-76 230,-76 230,-96"/>
<text text-anchor="middle" x="179.25" y="-82.5" font-family="Helvetica,sans-Serif" font-size="10.00">get_total_resources</text>
</a>
</g>
</g>
<!-- Node1&#45;&gt;Node2 -->
<g id="edge1_Node000001_Node000002" class="edge">
<title>Node1&#45;&gt;Node2</title>
<g id="a_edge1_Node000001_Node000002"><a xlink:title=" ">
<path fill="none" stroke="#63b8ff" d="M83.39,-58.48C98.28,-62.8 115.73,-67.86 131.57,-72.46"/>
<polygon fill="#63b8ff" stroke="#63b8ff" points="130.19,-75.7 140.77,-75.13 132.14,-68.98 130.19,-75.7"/>
</a>
</g>
</g>
<!-- Node3 -->
<g id="Node000003" class="node">
<title>Node3</title>
<g id="a_Node000003"><a xlink:href="map_8c.html#a84c18178418c93d4e7ea42c163b94159" target="_top" xlink:title=" ">
<polygon fill="white" stroke="#666666" points="221.75,-58 136.75,-58 136.75,-38 221.75,-38 221.75,-58"/>
<text text-anchor="middle" x="179.25" y="-44.5" font-family="Helvetica,sans-Serif" font-size="10.00">init_coord_array</text>
</a>
</g>
</g>
<!-- Node1&#45;&gt;Node3 -->
<g id="edge2_Node000001_Node000003" class="edge">
<title>Node1&#45;&gt;Node3</title>
<g id="a_edge2_Node000001_Node000003"><a xlink:title=" ">
<path fill="none" stroke="#63b8ff" d="M92.7,-48C103.12,-48 114.29,-48 125,-48"/>
<polygon fill="#63b8ff" stroke="#63b8ff" points="124.88,-51.5 134.88,-48 124.88,-44.5 124.88,-51.5"/>
</a>
</g>
</g>
<!-- Node6 -->
<g id="Node000006" class="node">
<title>Node6</title>
<g id="a_Node000006"><a xlink:href="map_8c.html#a3c9410d7cd1cddb5d9147866ff011f0d" target="_top" xlink:title=" ">
<polygon fill="white" stroke="#666666" points="220.25,-20 138.25,-20 138.25,0 220.25,0 220.25,-20"/>
<text text-anchor="middle" x="179.25" y="-6.5" font-family="Helvetica,sans-Serif" font-size="10.00">place_resource</text>
</a>
</g>
</g>
<!-- Node1&#45;&gt;Node6 -->
<g id="edge5_Node000001_Node000006" class="edge">
<title>Node1&#45;&gt;Node6</title>
<g id="a_edge5_Node000001_Node000006"><a xlink:title=" ">
<path fill="none" stroke="#63b8ff" d="M83.39,-37.52C98.28,-33.2 115.73,-28.14 131.57,-23.54"/>
<polygon fill="#63b8ff" stroke="#63b8ff" points="132.14,-27.02 140.77,-20.87 130.19,-20.3 132.14,-27.02"/>
</a>
</g>
</g>
<!-- Node4 -->
<g id="Node000004" class="node">
<title>Node4</title>
<g id="a_Node000004"><a xlink:href="parser_8c.html#a3fd716b111caa8f93098f7e5070fd0bb" target="_top" xlink:title=" ">
<polygon fill="white" stroke="#666666" points="341.25,-77 269.75,-77 269.75,-57 341.25,-57 341.25,-77"/>
<text text-anchor="middle" x="305.5" y="-63.5" font-family="Helvetica,sans-Serif" font-size="10.00">display_error</text>
</a>
</g>
</g>
<!-- Node3&#45;&gt;Node4 -->
<g id="edge3_Node000003_Node000004" class="edge">
<title>Node3&#45;&gt;Node4</title>
<g id="a_edge3_Node000003_Node000004"><a xlink:title=" ">
<path fill="none" stroke="#63b8ff" d="M221.97,-54.38C233.62,-56.16 246.34,-58.11 258.23,-59.92"/>
<polygon fill="#63b8ff" stroke="#63b8ff" points="257.41,-63.34 267.82,-61.39 258.46,-56.42 257.41,-63.34"/>
</a>
</g>
</g>
<!-- Node5 -->
<g id="Node000005" class="node">
<title>Node5</title>
<g id="a_Node000005"><a xlink:href="map_8c.html#a7375bc6cbc0d9178ba6a262131d67f31" target="_top" xlink:title=" ">
<polygon fill="white" stroke="#666666" points="345,-39 266,-39 266,-19 345,-19 345,-39"/>
<text text-anchor="middle" x="305.5" y="-25.5" font-family="Helvetica,sans-Serif" font-size="10.00">shuffle_coords</text>
</a>
</g>
</g>
<!-- Node3&#45;&gt;Node5 -->
<g id="edge4_Node000003_Node000005" class="edge">
<title>Node3&#45;&gt;Node5</title>
<g id="a_edge4_Node000003_Node000005"><a xlink:title=" ">
<path fill="none" stroke="#63b8ff" d="M221.97,-41.62C232.32,-40.04 243.53,-38.32 254.25,-36.68"/>
<polygon fill="#63b8ff" stroke="#63b8ff" points="254.77,-40.15 264.12,-35.17 253.71,-33.23 254.77,-40.15"/>
</a>
</g>
</g>
</g>
</svg>
</svg>

<style type='text/css'>
<![CDATA[
[data-mouse-over-selected='false'] { opacity: 0.7; }
[data-mouse-over-selected='true']  { opacity: 1.0; }
]]>
</style>
<script type="application/ecmascript"><![CDATA[
document.addEventListener('DOMContentLoaded', (event) => {
  highlightEdges();
  highlightAdjacentNodes();
});
]]></script>
</svg>
