<?xml version="1.0" encoding="UTF-8" standalone="no"?>
<!DOCTYPE svg PUBLIC "-//W3C//DTD SVG 1.1//EN"
 "http://www.w3.org/Graphics/SVG/1.1/DTD/svg11.dtd">
<!-- Generated by graphviz version 12.2.1 (20241206.2353)
 -->
<!-- Title: init_starting_map Pages: 1 -->
<!--zoomable 142 -->

<svg id="main" version="1.1" xmlns="http://www.w3.org/2000/svg" xmlns:xlink="http://www.w3.org/1999/xlink" xml:space="preserve" onload="init(evt)">

<style type="text/css"><![CDATA[
.node, .edge {opacity: 0.7;}
.node.selected, .edge.selected {opacity: 1;}
.edge:hover path { stroke: red; }
.edge:hover polygon { stroke: red; fill: red; }
]]></style>

<defs>
  <circle id="rim" cx="0" cy="0" r="7"/>
  <circle id="rim2" cx="0" cy="0" r="3.5"/>
  <g id="zoomPlus">
    <use xlink:href="#rim" fill="#404040"><set attributeName="fill" to="#808080" begin="zoomplus.mouseover" end="zoomplus.mouseout"/></use>
    <path d="M-4,0h8M0,-4v8" fill="none" stroke="white" stroke-width="1.5" pointer-events="none"/>
  </g>
  <g id="zoomMin">
    <use xlink:href="#rim" fill="#404040"><set attributeName="fill" to="#808080" begin="zoomminus.mouseover" end="zoomminus.mouseout"/></use>
    <path d="M-4,0h8" fill="none" stroke="white" stroke-width="1.5" pointer-events="none"/>
  </g>
  <g id="arrowUp" transform="translate(30 24)">
    <use xlink:href="#rim"/>
    <path pointer-events="none" fill="none" stroke="white" stroke-width="1.5" d="M0,-3.0v7 M-2.5,-0.5L0,-3.0L2.5,-0.5"/>
  </g>
  <g id="arrowRight" transform="rotate(90) translate(36 -43)">
    <use xlink:href="#rim"/>
    <path pointer-events="none" fill="none" stroke="white" stroke-width="1.5" d="M0,-3.0v7 M-2.5,-0.5L0,-3.0L2.5,-0.5"/>
  </g>
  <g id="arrowDown" transform="rotate(180) translate(-30 -48)">
    <use xlink:href="#rim"/>
    <path pointer-events="none" fill="none" stroke="white" stroke-width="1.5" d="M0,-3.0v7 M-2.5,-0.5L0,-3.0L2.5,-0.5"/>
  </g>
  <g id="arrowLeft" transform="rotate(270) translate(-36 17)">
    <use xlink:href="#rim"/>
    <path pointer-events="none" fill="none" stroke="white" stroke-width="1.5" d="M0,-3.0v7 M-2.5,-0.5L0,-3.0L2.5,-0.5"/>
  </g>
  <g id="resetDef">
    <use xlink:href="#rim2" fill="#404040"><set attributeName="fill" to="#808080" begin="reset.mouseover" end="reset.mouseout"/></use>
  </g>
</defs>
<script type="application/ecmascript">
var viewWidth = 582;
var viewHeight = 142;
var sectionId = 'dynsection-4';
</script>
<script type="application/ecmascript" xlink:href="svg.min.js"/>
<svg id="graph" class="graph">
<g id="viewport">
<title>init_starting_map</title>
<!-- Node1 -->
<g id="Node000001" class="node">
<title>Node1</title>
<g id="a_Node000001"><a xlink:title=" ">
<polygon fill="#999999" stroke="#666666" points="90.25,-115 0,-115 0,-95 90.25,-95 90.25,-115"/>
<text text-anchor="middle" x="45.12" y="-101.5" font-family="Helvetica,sans-Serif" font-size="10.00">init_starting_map</text>
</a>
</g>
</g>
<!-- Node2 -->
<g id="Node000002" class="node">
<title>Node2</title>
<g id="a_Node000002"><a xlink:href="map__creation_8c.html#a76427b20a4de583cd7c634bb5ae86390" target="_top" xlink:title=" ">
<polygon fill="white" stroke="#666666" points="186.12,-134 133.38,-134 133.38,-114 186.12,-114 186.12,-134"/>
<text text-anchor="middle" x="159.75" y="-120.5" font-family="Helvetica,sans-Serif" font-size="10.00">add_egg</text>
</a>
</g>
</g>
<!-- Node1&#45;&gt;Node2 -->
<g id="edge1_Node000001_Node000002" class="edge">
<title>Node1&#45;&gt;Node2</title>
<g id="a_edge1_Node000001_Node000002"><a xlink:title=" ">
<path fill="none" stroke="#63b8ff" d="M90.64,-112.51C100.98,-114.25 111.88,-116.09 121.85,-117.77"/>
<polygon fill="#63b8ff" stroke="#63b8ff" points="121.1,-121.2 131.55,-119.41 122.27,-114.3 121.1,-121.2"/>
</a>
</g>
</g>
<!-- Node3 -->
<g id="Node000003" class="node">
<title>Node3</title>
<g id="a_Node000003"><a xlink:href="map_8c.html#acdb03c9bf45ccd4d204290cab62f576e" target="_top" xlink:title=" ">
<polygon fill="white" stroke="#666666" points="193.25,-96 126.25,-96 126.25,-76 193.25,-76 193.25,-96"/>
<text text-anchor="middle" x="159.75" y="-82.5" font-family="Helvetica,sans-Serif" font-size="10.00">create_map</text>
</a>
</g>
</g>
<!-- Node1&#45;&gt;Node3 -->
<g id="edge2_Node000001_Node000003" class="edge">
<title>Node1&#45;&gt;Node3</title>
<g id="a_edge2_Node000001_Node000003"><a xlink:title=" ">
<path fill="none" stroke="#63b8ff" d="M90.64,-97.49C98.57,-96.15 106.83,-94.76 114.75,-93.42"/>
<polygon fill="#63b8ff" stroke="#63b8ff" points="115.25,-96.89 124.53,-91.77 114.09,-89.99 115.25,-96.89"/>
</a>
</g>
</g>
<!-- Node4 -->
<g id="Node000004" class="node">
<title>Node4</title>
<g id="a_Node000004"><a xlink:href="parser_8c.html#a3fd716b111caa8f93098f7e5070fd0bb" target="_top" xlink:title=" ">
<polygon fill="white" stroke="#666666" points="570.5,-115 499,-115 499,-95 570.5,-95 570.5,-115"/>
<text text-anchor="middle" x="534.75" y="-101.5" font-family="Helvetica,sans-Serif" font-size="10.00">display_error</text>
</a>
</g>
</g>
<!-- Node3&#45;&gt;Node4 -->
<g id="edge3_Node000003_Node000004" class="edge">
<title>Node3&#45;&gt;Node4</title>
<g id="a_edge3_Node000003_Node000004"><a xlink:title=" ">
<path fill="none" stroke="#63b8ff" d="M191.41,-96.41C203.11,-99.87 216.65,-103.29 229.25,-105 320.1,-117.37 427.61,-112.98 487.51,-108.86"/>
<polygon fill="#63b8ff" stroke="#63b8ff" points="487.61,-112.36 497.33,-108.15 487.1,-105.38 487.61,-112.36"/>
</a>
</g>
</g>
<!-- Node5 -->
<g id="Node000005" class="node">
<title>Node5</title>
<g id="a_Node000005"><a xlink:href="map_8c.html#a321fca2e8fee3fbf4d167c5549d3124c" target="_top" xlink:title=" ">
<polygon fill="white" stroke="#666666" points="300,-96 251,-96 251,-76 300,-76 300,-96"/>
<text text-anchor="middle" x="275.5" y="-82.5" font-family="Helvetica,sans-Serif" font-size="10.00">init_cell</text>
</a>
</g>
</g>
<!-- Node3&#45;&gt;Node5 -->
<g id="edge4_Node000003_Node000005" class="edge">
<title>Node3&#45;&gt;Node5</title>
<g id="a_edge4_Node000003_Node000005"><a xlink:title=" ">
<path fill="none" stroke="#63b8ff" d="M193.65,-86C208.04,-86 224.94,-86 239.56,-86"/>
<polygon fill="#63b8ff" stroke="#63b8ff" points="239.19,-89.5 249.19,-86 239.19,-82.5 239.19,-89.5"/>
</a>
</g>
</g>
<!-- Node6 -->
<g id="Node000006" class="node">
<title>Node6</title>
<g id="a_Node000006"><a xlink:href="map_8c.html#a0ed27c247f73f4a46ebce944c3366a69" target="_top" xlink:title=" ">
<polygon fill="white" stroke="#666666" points="321.75,-58 229.25,-58 229.25,-38 321.75,-38 321.75,-58"/>
<text text-anchor="middle" x="275.5" y="-44.5" font-family="Helvetica,sans-Serif" font-size="10.00">spawn_resources</text>
</a>
</g>
</g>
<!-- Node3&#45;&gt;Node6 -->
<g id="edge5_Node000003_Node000006" class="edge">
<title>Node3&#45;&gt;Node6</title>
<g id="a_edge5_Node000003_Node000006"><a xlink:title=" ">
<path fill="none" stroke="#63b8ff" d="M192.13,-75.52C204.57,-71.36 219.05,-66.52 232.37,-62.07"/>
<polygon fill="#63b8ff" stroke="#63b8ff" points="233.41,-65.42 241.78,-58.93 231.19,-58.78 233.41,-65.42"/>
</a>
</g>
</g>
<!-- Node7 -->
<g id="Node000007" class="node">
<title>Node7</title>
<g id="a_Node000007"><a xlink:href="map_8c.html#a543026bded5864e3c71ab1971a1fb052" target="_top" xlink:title=" ">
<polygon fill="white" stroke="#666666" points="459.25,-96 357.75,-96 357.75,-76 459.25,-76 459.25,-96"/>
<text text-anchor="middle" x="408.5" y="-82.5" font-family="Helvetica,sans-Serif" font-size="10.00">get_total_resources</text>
</a>
</g>
</g>
<!-- Node6&#45;&gt;Node7 -->
<g id="edge6_Node000006_Node000007" class="edge">
<title>Node6&#45;&gt;Node7</title>
<g id="a_edge6_Node000006_Node000007"><a xlink:title=" ">
<path fill="none" stroke="#63b8ff" d="M312.64,-58.48C327.53,-62.8 344.98,-67.86 360.82,-72.46"/>
<polygon fill="#63b8ff" stroke="#63b8ff" points="359.44,-75.7 370.02,-75.13 361.39,-68.98 359.44,-75.7"/>
</a>
</g>
</g>
<!-- Node8 -->
<g id="Node000008" class="node">
<title>Node8</title>
<g id="a_Node000008"><a xlink:href="map_8c.html#a84c18178418c93d4e7ea42c163b94159" target="_top" xlink:title=" ">
<polygon fill="white" stroke="#666666" points="451,-58 366,-58 366,-38 451,-38 451,-58"/>
<text text-anchor="middle" x="408.5" y="-44.5" font-family="Helvetica,sans-Serif" font-size="10.00">init_coord_array</text>
</a>
</g>
</g>
<!-- Node6&#45;&gt;Node8 -->
<g id="edge7_Node000006_Node000008" class="edge">
<title>Node6&#45;&gt;Node8</title>
<g id="a_edge7_Node000006_Node000008"><a xlink:title=" ">
<path fill="none" stroke="#63b8ff" d="M321.95,-48C332.37,-48 343.54,-48 354.25,-48"/>
<polygon fill="#63b8ff" stroke="#63b8ff" points="354.13,-51.5 364.13,-48 354.13,-44.5 354.13,-51.5"/>
</a>
</g>
</g>
<!-- Node10 -->
<g id="Node000010" class="node">
<title>Node10</title>
<g id="a_Node000010"><a xlink:href="map_8c.html#a3c9410d7cd1cddb5d9147866ff011f0d" target="_top" xlink:title=" ">
<polygon fill="white" stroke="#666666" points="449.5,-20 367.5,-20 367.5,0 449.5,0 449.5,-20"/>
<text text-anchor="middle" x="408.5" y="-6.5" font-family="Helvetica,sans-Serif" font-size="10.00">place_resource</text>
</a>
</g>
</g>
<!-- Node6&#45;&gt;Node10 -->
<g id="edge10_Node000006_Node000010" class="edge">
<title>Node6&#45;&gt;Node10</title>
<g id="a_edge10_Node000006_Node000010"><a xlink:title=" ">
<path fill="none" stroke="#63b8ff" d="M312.64,-37.52C327.53,-33.2 344.98,-28.14 360.82,-23.54"/>
<polygon fill="#63b8ff" stroke="#63b8ff" points="361.39,-27.02 370.02,-20.87 359.44,-20.3 361.39,-27.02"/>
</a>
</g>
</g>
<!-- Node8&#45;&gt;Node4 -->
<g id="edge8_Node000008_Node000004" class="edge">
<title>Node8&#45;&gt;Node4</title>
<g id="a_edge8_Node000008_Node000004"><a xlink:title=" ">
<path fill="none" stroke="#63b8ff" d="M438.39,-58.43C445.28,-61.09 452.58,-64.03 459.25,-67 474.58,-73.81 491.25,-82.22 504.93,-89.39"/>
<polygon fill="#63b8ff" stroke="#63b8ff" points="502.92,-92.29 513.39,-93.88 506.19,-86.1 502.92,-92.29"/>
</a>
</g>
</g>
<!-- Node9 -->
<g id="Node000009" class="node">
<title>Node9</title>
<g id="a_Node000009"><a xlink:href="map_8c.html#a7375bc6cbc0d9178ba6a262131d67f31" target="_top" xlink:title=" ">
<polygon fill="white" stroke="#666666" points="574.25,-58 495.25,-58 495.25,-38 574.25,-38 574.25,-58"/>
<text text-anchor="middle" x="534.75" y="-44.5" font-family="Helvetica,sans-Serif" font-size="10.00">shuffle_coords</text>
</a>
</g>
</g>
<!-- Node8&#45;&gt;Node9 -->
<g id="edge9_Node000008_Node000009" class="edge">
<title>Node8&#45;&gt;Node9</title>
<g id="a_edge9_Node000008_Node000009"><a xlink:title=" ">
<path fill="none" stroke="#63b8ff" d="M451.22,-48C461.57,-48 472.78,-48 483.5,-48"/>
<polygon fill="#63b8ff" stroke="#63b8ff" points="483.35,-51.5 493.35,-48 483.35,-44.5 483.35,-51.5"/>
</a>
</g>
</g>
</g>
</svg>

<g id="navigator" transform="translate(0 0)" fill="#404254">
  <rect fill="#f2f5e9" fill-opacity="0.5" stroke="#606060" stroke-width=".5" x="0" y="0" width="60" height="60"/>
  <use id="zoomplus" xlink:href="#zoomPlus" x="17" y="9" onmousedown="handleZoom(evt,'in')"/>
  <use id="zoomminus" xlink:href="#zoomMin" x="42" y="9" onmousedown="handleZoom(evt,'out')"/>
  <use id="reset" xlink:href="#resetDef" x="30" y="36" onmousedown="handleReset()"/>
   <use id="arrowup" xlink:href="#arrowUp" x="0" y="0" onmousedown="handlePan(0,-1)"/>
  <use id="arrowright" xlink:href="#arrowRight" x="0" y="0" onmousedown="handlePan(1,0)"/>
  <use id="arrowdown" xlink:href="#arrowDown" x="0" y="0" onmousedown="handlePan(0,1)"/>
  <use id="arrowleft" xlink:href="#arrowLeft" x="0" y="0" onmousedown="handlePan(-1,0)"/>
</g>
<svg viewBox="0 0 15 15" width="100%" height="30px" preserveAspectRatio="xMaxYMin meet">
 <g id="arrow_out" transform="scale(0.3 0.3)">
  <a xlink:href="map__creation_8c_a7b73cf4e94bbefdc0dae0891a2120e0f_cgraph_org.svg" target="_base">
   <rect id="button" ry="5" rx="5" y="6" x="6" height="38" width="38"
        fill="#f2f5e9" fill-opacity="0.5" stroke="#606060" stroke-width="1.0"/>
   <path id="arrow"
     d="M 11.500037,31.436501 C 11.940474,20.09759 22.043105,11.32322 32.158766,21.979434 L 37.068811,17.246167 C 37.068811,17.246167 37.088388,32 37.088388,32 L 22.160133,31.978069 C 22.160133,31.978069 26.997745,27.140456 26.997745,27.140456 C 18.528582,18.264221 13.291696,25.230495 11.500037,31.436501 z"
     style="fill:#404040;"/>
  </a>
 </g>
</svg>

<style type='text/css'>
<![CDATA[
[data-mouse-over-selected='false'] { opacity: 0.7; }
[data-mouse-over-selected='true']  { opacity: 1.0; }
]]>
</style>
<script type="application/ecmascript"><![CDATA[
document.addEventListener('DOMContentLoaded', (event) => {
  highlightEdges();
  highlightAdjacentNodes();
});
]]></script>
</svg>
