<?xml version="1.0" encoding="UTF-8" standalone="no"?>
<!DOCTYPE svg PUBLIC "-//W3C//DTD SVG 1.1//EN"
 "http://www.w3.org/Graphics/SVG/1.1/DTD/svg11.dtd">
<!-- Generated by graphviz version 12.2.1 (20241206.2353)
 -->
<!-- Title: init_starting_map Pages: 1 -->
<svg width="582pt" height="142pt"
 viewBox="0.00 0.00 582.25 142.00" xmlns="http://www.w3.org/2000/svg" xmlns:xlink="http://www.w3.org/1999/xlink">
<g id="graph0" class="graph" transform="scale(1 1) rotate(0) translate(4 138)">
<title>init_starting_map</title>
<!-- Node1 -->
<g id="Node000001" class="node">
<title>Node1</title>
<g id="a_Node000001"><a xlink:title=" ">
<polygon fill="#999999" stroke="#666666" points="90.25,-115 0,-115 0,-95 90.25,-95 90.25,-115"/>
<text text-anchor="middle" x="45.12" y="-101.5" font-family="Helvetica,sans-Serif" font-size="10.00">init_starting_map</text>
</a>
</g>
</g>
<!-- Node2 -->
<g id="Node000002" class="node">
<title>Node2</title>
<g id="a_Node000002"><a xlink:href="map__creation_8c.html#a76427b20a4de583cd7c634bb5ae86390" target="_top" xlink:title=" ">
<polygon fill="white" stroke="#666666" points="186.12,-134 133.38,-134 133.38,-114 186.12,-114 186.12,-134"/>
<text text-anchor="middle" x="159.75" y="-120.5" font-family="Helvetica,sans-Serif" font-size="10.00">add_egg</text>
</a>
</g>
</g>
<!-- Node1&#45;&gt;Node2 -->
<g id="edge1_Node000001_Node000002" class="edge">
<title>Node1&#45;&gt;Node2</title>
<g id="a_edge1_Node000001_Node000002"><a xlink:title=" ">
<path fill="none" stroke="#63b8ff" d="M90.64,-112.51C100.98,-114.25 111.88,-116.09 121.85,-117.77"/>
<polygon fill="#63b8ff" stroke="#63b8ff" points="121.1,-121.2 131.55,-119.41 122.27,-114.3 121.1,-121.2"/>
</a>
</g>
</g>
<!-- Node3 -->
<g id="Node000003" class="node">
<title>Node3</title>
<g id="a_Node000003"><a xlink:href="map_8c.html#acdb03c9bf45ccd4d204290cab62f576e" target="_top" xlink:title=" ">
<polygon fill="white" stroke="#666666" points="193.25,-96 126.25,-96 126.25,-76 193.25,-76 193.25,-96"/>
<text text-anchor="middle" x="159.75" y="-82.5" font-family="Helvetica,sans-Serif" font-size="10.00">create_map</text>
</a>
</g>
</g>
<!-- Node1&#45;&gt;Node3 -->
<g id="edge2_Node000001_Node000003" class="edge">
<title>Node1&#45;&gt;Node3</title>
<g id="a_edge2_Node000001_Node000003"><a xlink:title=" ">
<path fill="none" stroke="#63b8ff" d="M90.64,-97.49C98.57,-96.15 106.83,-94.76 114.75,-93.42"/>
<polygon fill="#63b8ff" stroke="#63b8ff" points="115.25,-96.89 124.53,-91.77 114.09,-89.99 115.25,-96.89"/>
</a>
</g>
</g>
<!-- Node4 -->
<g id="Node000004" class="node">
<title>Node4</title>
<g id="a_Node000004"><a xlink:href="parser_8c.html#a3fd716b111caa8f93098f7e5070fd0bb" target="_top" xlink:title=" ">
<polygon fill="white" stroke="#666666" points="570.5,-115 499,-115 499,-95 570.5,-95 570.5,-115"/>
<text text-anchor="middle" x="534.75" y="-101.5" font-family="Helvetica,sans-Serif" font-size="10.00">display_error</text>
</a>
</g>
</g>
<!-- Node3&#45;&gt;Node4 -->
<g id="edge3_Node000003_Node000004" class="edge">
<title>Node3&#45;&gt;Node4</title>
<g id="a_edge3_Node000003_Node000004"><a xlink:title=" ">
<path fill="none" stroke="#63b8ff" d="M191.41,-96.41C203.11,-99.87 216.65,-103.29 229.25,-105 320.1,-117.37 427.61,-112.98 487.51,-108.86"/>
<polygon fill="#63b8ff" stroke="#63b8ff" points="487.61,-112.36 497.33,-108.15 487.1,-105.38 487.61,-112.36"/>
</a>
</g>
</g>
<!-- Node5 -->
<g id="Node000005" class="node">
<title>Node5</title>
<g id="a_Node000005"><a xlink:href="map_8c.html#a321fca2e8fee3fbf4d167c5549d3124c" target="_top" xlink:title=" ">
<polygon fill="white" stroke="#666666" points="300,-96 251,-96 251,-76 300,-76 300,-96"/>
<text text-anchor="middle" x="275.5" y="-82.5" font-family="Helvetica,sans-Serif" font-size="10.00">init_cell</text>
</a>
</g>
</g>
<!-- Node3&#45;&gt;Node5 -->
<g id="edge4_Node000003_Node000005" class="edge">
<title>Node3&#45;&gt;Node5</title>
<g id="a_edge4_Node000003_Node000005"><a xlink:title=" ">
<path fill="none" stroke="#63b8ff" d="M193.65,-86C208.04,-86 224.94,-86 239.56,-86"/>
<polygon fill="#63b8ff" stroke="#63b8ff" points="239.19,-89.5 249.19,-86 239.19,-82.5 239.19,-89.5"/>
</a>
</g>
</g>
<!-- Node6 -->
<g id="Node000006" class="node">
<title>Node6</title>
<g id="a_Node000006"><a xlink:href="map_8c.html#a0ed27c247f73f4a46ebce944c3366a69" target="_top" xlink:title=" ">
<polygon fill="white" stroke="#666666" points="321.75,-58 229.25,-58 229.25,-38 321.75,-38 321.75,-58"/>
<text text-anchor="middle" x="275.5" y="-44.5" font-family="Helvetica,sans-Serif" font-size="10.00">spawn_resources</text>
</a>
</g>
</g>
<!-- Node3&#45;&gt;Node6 -->
<g id="edge5_Node000003_Node000006" class="edge">
<title>Node3&#45;&gt;Node6</title>
<g id="a_edge5_Node000003_Node000006"><a xlink:title=" ">
<path fill="none" stroke="#63b8ff" d="M192.13,-75.52C204.57,-71.36 219.05,-66.52 232.37,-62.07"/>
<polygon fill="#63b8ff" stroke="#63b8ff" points="233.41,-65.42 241.78,-58.93 231.19,-58.78 233.41,-65.42"/>
</a>
</g>
</g>
<!-- Node7 -->
<g id="Node000007" class="node">
<title>Node7</title>
<g id="a_Node000007"><a xlink:href="map_8c.html#a543026bded5864e3c71ab1971a1fb052" target="_top" xlink:title=" ">
<polygon fill="white" stroke="#666666" points="459.25,-96 357.75,-96 357.75,-76 459.25,-76 459.25,-96"/>
<text text-anchor="middle" x="408.5" y="-82.5" font-family="Helvetica,sans-Serif" font-size="10.00">get_total_resources</text>
</a>
</g>
</g>
<!-- Node6&#45;&gt;Node7 -->
<g id="edge6_Node000006_Node000007" class="edge">
<title>Node6&#45;&gt;Node7</title>
<g id="a_edge6_Node000006_Node000007"><a xlink:title=" ">
<path fill="none" stroke="#63b8ff" d="M312.64,-58.48C327.53,-62.8 344.98,-67.86 360.82,-72.46"/>
<polygon fill="#63b8ff" stroke="#63b8ff" points="359.44,-75.7 370.02,-75.13 361.39,-68.98 359.44,-75.7"/>
</a>
</g>
</g>
<!-- Node8 -->
<g id="Node000008" class="node">
<title>Node8</title>
<g id="a_Node000008"><a xlink:href="map_8c.html#a84c18178418c93d4e7ea42c163b94159" target="_top" xlink:title=" ">
<polygon fill="white" stroke="#666666" points="451,-58 366,-58 366,-38 451,-38 451,-58"/>
<text text-anchor="middle" x="408.5" y="-44.5" font-family="Helvetica,sans-Serif" font-size="10.00">init_coord_array</text>
</a>
</g>
</g>
<!-- Node6&#45;&gt;Node8 -->
<g id="edge7_Node000006_Node000008" class="edge">
<title>Node6&#45;&gt;Node8</title>
<g id="a_edge7_Node000006_Node000008"><a xlink:title=" ">
<path fill="none" stroke="#63b8ff" d="M321.95,-48C332.37,-48 343.54,-48 354.25,-48"/>
<polygon fill="#63b8ff" stroke="#63b8ff" points="354.13,-51.5 364.13,-48 354.13,-44.5 354.13,-51.5"/>
</a>
</g>
</g>
<!-- Node10 -->
<g id="Node000010" class="node">
<title>Node10</title>
<g id="a_Node000010"><a xlink:href="map_8c.html#a3c9410d7cd1cddb5d9147866ff011f0d" target="_top" xlink:title=" ">
<polygon fill="white" stroke="#666666" points="449.5,-20 367.5,-20 367.5,0 449.5,0 449.5,-20"/>
<text text-anchor="middle" x="408.5" y="-6.5" font-family="Helvetica,sans-Serif" font-size="10.00">place_resource</text>
</a>
</g>
</g>
<!-- Node6&#45;&gt;Node10 -->
<g id="edge10_Node000006_Node000010" class="edge">
<title>Node6&#45;&gt;Node10</title>
<g id="a_edge10_Node000006_Node000010"><a xlink:title=" ">
<path fill="none" stroke="#63b8ff" d="M312.64,-37.52C327.53,-33.2 344.98,-28.14 360.82,-23.54"/>
<polygon fill="#63b8ff" stroke="#63b8ff" points="361.39,-27.02 370.02,-20.87 359.44,-20.3 361.39,-27.02"/>
</a>
</g>
</g>
<!-- Node8&#45;&gt;Node4 -->
<g id="edge8_Node000008_Node000004" class="edge">
<title>Node8&#45;&gt;Node4</title>
<g id="a_edge8_Node000008_Node000004"><a xlink:title=" ">
<path fill="none" stroke="#63b8ff" d="M438.39,-58.43C445.28,-61.09 452.58,-64.03 459.25,-67 474.58,-73.81 491.25,-82.22 504.93,-89.39"/>
<polygon fill="#63b8ff" stroke="#63b8ff" points="502.92,-92.29 513.39,-93.88 506.19,-86.1 502.92,-92.29"/>
</a>
</g>
</g>
<!-- Node9 -->
<g id="Node000009" class="node">
<title>Node9</title>
<g id="a_Node000009"><a xlink:href="map_8c.html#a7375bc6cbc0d9178ba6a262131d67f31" target="_top" xlink:title=" ">
<polygon fill="white" stroke="#666666" points="574.25,-58 495.25,-58 495.25,-38 574.25,-38 574.25,-58"/>
<text text-anchor="middle" x="534.75" y="-44.5" font-family="Helvetica,sans-Serif" font-size="10.00">shuffle_coords</text>
</a>
</g>
</g>
<!-- Node8&#45;&gt;Node9 -->
<g id="edge9_Node000008_Node000009" class="edge">
<title>Node8&#45;&gt;Node9</title>
<g id="a_edge9_Node000008_Node000009"><a xlink:title=" ">
<path fill="none" stroke="#63b8ff" d="M451.22,-48C461.57,-48 472.78,-48 483.5,-48"/>
<polygon fill="#63b8ff" stroke="#63b8ff" points="483.35,-51.5 493.35,-48 483.35,-44.5 483.35,-51.5"/>
</a>
</g>
</g>
</g>
</svg>
