<?xml version="1.0" encoding="UTF-8" standalone="no"?>
<!DOCTYPE svg PUBLIC "-//W3C//DTD SVG 1.1//EN"
 "http://www.w3.org/Graphics/SVG/1.1/DTD/svg11.dtd">
<!-- Generated by graphviz version 12.2.1 (20241206.2353)
 -->
<!-- Title: create_map Pages: 1 -->
<svg width="456pt" height="123pt"
 viewBox="0.00 0.00 456.00 123.00" xmlns="http://www.w3.org/2000/svg" xmlns:xlink="http://www.w3.org/1999/xlink">
<g id="graph0" class="graph" transform="scale(1 1) rotate(0) translate(4 119)">
<title>create_map</title>
<!-- Node1 -->
<g id="Node000001" class="node">
<title>Node1</title>
<g id="a_Node000001"><a xlink:title=" ">
<polygon fill="#999999" stroke="#666666" points="67,-96 0,-96 0,-76 67,-76 67,-96"/>
<text text-anchor="middle" x="33.5" y="-82.5" font-family="Helvetica,sans-Serif" font-size="10.00">create_map</text>
</a>
</g>
</g>
<!-- Node2 -->
<g id="Node000002" class="node">
<title>Node2</title>
<g id="a_Node000002"><a xlink:href="parser_8c.html#a3fd716b111caa8f93098f7e5070fd0bb" target="_top" xlink:title=" ">
<polygon fill="white" stroke="#666666" points="444.25,-115 372.75,-115 372.75,-95 444.25,-95 444.25,-115"/>
<text text-anchor="middle" x="408.5" y="-101.5" font-family="Helvetica,sans-Serif" font-size="10.00">display_error</text>
</a>
</g>
</g>
<!-- Node1&#45;&gt;Node2 -->
<g id="edge1_Node000001_Node000002" class="edge">
<title>Node1&#45;&gt;Node2</title>
<g id="a_edge1_Node000001_Node000002"><a xlink:title=" ">
<path fill="none" stroke="#63b8ff" d="M65.16,-96.41C76.86,-99.87 90.4,-103.29 103,-105 193.85,-117.37 301.36,-112.98 361.26,-108.86"/>
<polygon fill="#63b8ff" stroke="#63b8ff" points="361.36,-112.36 371.08,-108.15 360.85,-105.38 361.36,-112.36"/>
</a>
</g>
</g>
<!-- Node3 -->
<g id="Node000003" class="node">
<title>Node3</title>
<g id="a_Node000003"><a xlink:href="map_8c.html#a321fca2e8fee3fbf4d167c5549d3124c" target="_top" xlink:title=" ">
<polygon fill="white" stroke="#666666" points="173.75,-96 124.75,-96 124.75,-76 173.75,-76 173.75,-96"/>
<text text-anchor="middle" x="149.25" y="-82.5" font-family="Helvetica,sans-Serif" font-size="10.00">init_cell</text>
</a>
</g>
</g>
<!-- Node1&#45;&gt;Node3 -->
<g id="edge2_Node000001_Node000003" class="edge">
<title>Node1&#45;&gt;Node3</title>
<g id="a_edge2_Node000001_Node000003"><a xlink:title=" ">
<path fill="none" stroke="#63b8ff" d="M67.4,-86C81.79,-86 98.69,-86 113.31,-86"/>
<polygon fill="#63b8ff" stroke="#63b8ff" points="112.94,-89.5 122.94,-86 112.94,-82.5 112.94,-89.5"/>
</a>
</g>
</g>
<!-- Node4 -->
<g id="Node000004" class="node">
<title>Node4</title>
<g id="a_Node000004"><a xlink:href="map_8c.html#a0ed27c247f73f4a46ebce944c3366a69" target="_top" xlink:title=" ">
<polygon fill="white" stroke="#666666" points="195.5,-58 103,-58 103,-38 195.5,-38 195.5,-58"/>
<text text-anchor="middle" x="149.25" y="-44.5" font-family="Helvetica,sans-Serif" font-size="10.00">spawn_resources</text>
</a>
</g>
</g>
<!-- Node1&#45;&gt;Node4 -->
<g id="edge3_Node000001_Node000004" class="edge">
<title>Node1&#45;&gt;Node4</title>
<g id="a_edge3_Node000001_Node000004"><a xlink:title=" ">
<path fill="none" stroke="#63b8ff" d="M65.88,-75.52C78.32,-71.36 92.8,-66.52 106.12,-62.07"/>
<polygon fill="#63b8ff" stroke="#63b8ff" points="107.16,-65.42 115.53,-58.93 104.94,-58.78 107.16,-65.42"/>
</a>
</g>
</g>
<!-- Node5 -->
<g id="Node000005" class="node">
<title>Node5</title>
<g id="a_Node000005"><a xlink:href="map_8c.html#a543026bded5864e3c71ab1971a1fb052" target="_top" xlink:title=" ">
<polygon fill="white" stroke="#666666" points="333,-96 231.5,-96 231.5,-76 333,-76 333,-96"/>
<text text-anchor="middle" x="282.25" y="-82.5" font-family="Helvetica,sans-Serif" font-size="10.00">get_total_resources</text>
</a>
</g>
</g>
<!-- Node4&#45;&gt;Node5 -->
<g id="edge4_Node000004_Node000005" class="edge">
<title>Node4&#45;&gt;Node5</title>
<g id="a_edge4_Node000004_Node000005"><a xlink:title=" ">
<path fill="none" stroke="#63b8ff" d="M186.39,-58.48C201.28,-62.8 218.73,-67.86 234.57,-72.46"/>
<polygon fill="#63b8ff" stroke="#63b8ff" points="233.19,-75.7 243.77,-75.13 235.14,-68.98 233.19,-75.7"/>
</a>
</g>
</g>
<!-- Node6 -->
<g id="Node000006" class="node">
<title>Node6</title>
<g id="a_Node000006"><a xlink:href="map_8c.html#a84c18178418c93d4e7ea42c163b94159" target="_top" xlink:title=" ">
<polygon fill="white" stroke="#666666" points="324.75,-58 239.75,-58 239.75,-38 324.75,-38 324.75,-58"/>
<text text-anchor="middle" x="282.25" y="-44.5" font-family="Helvetica,sans-Serif" font-size="10.00">init_coord_array</text>
</a>
</g>
</g>
<!-- Node4&#45;&gt;Node6 -->
<g id="edge5_Node000004_Node000006" class="edge">
<title>Node4&#45;&gt;Node6</title>
<g id="a_edge5_Node000004_Node000006"><a xlink:title=" ">
<path fill="none" stroke="#63b8ff" d="M195.7,-48C206.12,-48 217.29,-48 228,-48"/>
<polygon fill="#63b8ff" stroke="#63b8ff" points="227.88,-51.5 237.88,-48 227.88,-44.5 227.88,-51.5"/>
</a>
</g>
</g>
<!-- Node8 -->
<g id="Node000008" class="node">
<title>Node8</title>
<g id="a_Node000008"><a xlink:href="map_8c.html#a3c9410d7cd1cddb5d9147866ff011f0d" target="_top" xlink:title=" ">
<polygon fill="white" stroke="#666666" points="323.25,-20 241.25,-20 241.25,0 323.25,0 323.25,-20"/>
<text text-anchor="middle" x="282.25" y="-6.5" font-family="Helvetica,sans-Serif" font-size="10.00">place_resource</text>
</a>
</g>
</g>
<!-- Node4&#45;&gt;Node8 -->
<g id="edge8_Node000004_Node000008" class="edge">
<title>Node4&#45;&gt;Node8</title>
<g id="a_edge8_Node000004_Node000008"><a xlink:title=" ">
<path fill="none" stroke="#63b8ff" d="M186.39,-37.52C201.28,-33.2 218.73,-28.14 234.57,-23.54"/>
<polygon fill="#63b8ff" stroke="#63b8ff" points="235.14,-27.02 243.77,-20.87 233.19,-20.3 235.14,-27.02"/>
</a>
</g>
</g>
<!-- Node6&#45;&gt;Node2 -->
<g id="edge6_Node000006_Node000002" class="edge">
<title>Node6&#45;&gt;Node2</title>
<g id="a_edge6_Node000006_Node000002"><a xlink:title=" ">
<path fill="none" stroke="#63b8ff" d="M312.14,-58.43C319.03,-61.09 326.33,-64.03 333,-67 348.33,-73.81 365,-82.22 378.68,-89.39"/>
<polygon fill="#63b8ff" stroke="#63b8ff" points="376.67,-92.29 387.14,-93.88 379.94,-86.1 376.67,-92.29"/>
</a>
</g>
</g>
<!-- Node7 -->
<g id="Node000007" class="node">
<title>Node7</title>
<g id="a_Node000007"><a xlink:href="map_8c.html#a7375bc6cbc0d9178ba6a262131d67f31" target="_top" xlink:title=" ">
<polygon fill="white" stroke="#666666" points="448,-58 369,-58 369,-38 448,-38 448,-58"/>
<text text-anchor="middle" x="408.5" y="-44.5" font-family="Helvetica,sans-Serif" font-size="10.00">shuffle_coords</text>
</a>
</g>
</g>
<!-- Node6&#45;&gt;Node7 -->
<g id="edge7_Node000006_Node000007" class="edge">
<title>Node6&#45;&gt;Node7</title>
<g id="a_edge7_Node000006_Node000007"><a xlink:title=" ">
<path fill="none" stroke="#63b8ff" d="M324.97,-48C335.32,-48 346.53,-48 357.25,-48"/>
<polygon fill="#63b8ff" stroke="#63b8ff" points="357.1,-51.5 367.1,-48 357.1,-44.5 357.1,-51.5"/>
</a>
</g>
</g>
</g>
</svg>
