<?xml version="1.0" encoding="UTF-8" standalone="no"?>
<!DOCTYPE svg PUBLIC "-//W3C//DTD SVG 1.1//EN"
 "http://www.w3.org/Graphics/SVG/1.1/DTD/svg11.dtd">
<!-- Generated by graphviz version 12.2.1 (20241206.2353)
 -->
<!-- Title: init_coord_array Pages: 1 -->
<svg width="208pt" height="66pt"
 viewBox="0.00 0.00 208.00 66.00" xmlns="http://www.w3.org/2000/svg" xmlns:xlink="http://www.w3.org/1999/xlink">
<g id="graph0" class="graph" transform="scale(1 1) rotate(0) translate(4 62)">
<title>init_coord_array</title>
<!-- Node1 -->
<g id="Node000001" class="node">
<title>Node1</title>
<g id="a_Node000001"><a xlink:title=" ">
<polygon fill="#999999" stroke="#666666" points="85,-39 0,-39 0,-19 85,-19 85,-39"/>
<text text-anchor="middle" x="42.5" y="-25.5" font-family="Helvetica,sans-Serif" font-size="10.00">init_coord_array</text>
</a>
</g>
</g>
<!-- Node2 -->
<g id="Node000002" class="node">
<title>Node2</title>
<g id="a_Node000002"><a xlink:href="parser_8c.html#a3fd716b111caa8f93098f7e5070fd0bb" target="_top" xlink:title=" ">
<polygon fill="white" stroke="#666666" points="196.25,-58 124.75,-58 124.75,-38 196.25,-38 196.25,-58"/>
<text text-anchor="middle" x="160.5" y="-44.5" font-family="Helvetica,sans-Serif" font-size="10.00">display_error</text>
</a>
</g>
</g>
<!-- Node1&#45;&gt;Node2 -->
<g id="edge1_Node000001_Node000002" class="edge">
<title>Node1&#45;&gt;Node2</title>
<g id="a_edge1_Node000001_Node000002"><a xlink:title=" ">
<path fill="none" stroke="#63b8ff" d="M85.38,-35.86C94.41,-37.34 104.02,-38.91 113.21,-40.42"/>
<polygon fill="#63b8ff" stroke="#63b8ff" points="112.63,-43.87 123.06,-42.03 113.76,-36.96 112.63,-43.87"/>
</a>
</g>
</g>
<!-- Node3 -->
<g id="Node000003" class="node">
<title>Node3</title>
<g id="a_Node000003"><a xlink:href="map_8c.html#a7375bc6cbc0d9178ba6a262131d67f31" target="_top" xlink:title=" ">
<polygon fill="white" stroke="#666666" points="200,-20 121,-20 121,0 200,0 200,-20"/>
<text text-anchor="middle" x="160.5" y="-6.5" font-family="Helvetica,sans-Serif" font-size="10.00">shuffle_coords</text>
</a>
</g>
</g>
<!-- Node1&#45;&gt;Node3 -->
<g id="edge2_Node000001_Node000003" class="edge">
<title>Node1&#45;&gt;Node3</title>
<g id="a_edge2_Node000001_Node000003"><a xlink:title=" ">
<path fill="none" stroke="#63b8ff" d="M85.38,-22.14C93.23,-20.85 101.51,-19.5 109.58,-18.18"/>
<polygon fill="#63b8ff" stroke="#63b8ff" points="109.98,-21.66 119.28,-16.59 108.84,-14.75 109.98,-21.66"/>
</a>
</g>
</g>
</g>
</svg>
