<?xml version="1.0" encoding="UTF-8" standalone="no"?>
<!DOCTYPE svg PUBLIC "-//W3C//DTD SVG 1.1//EN"
 "http://www.w3.org/Graphics/SVG/1.1/DTD/svg11.dtd">
<!-- Generated by graphviz version 12.2.1 (20241206.2353)
 -->
<!-- Title: init_cell Pages: 1 -->
<svg width="359pt" height="28pt"
 viewBox="0.00 0.00 359.25 28.00" xmlns="http://www.w3.org/2000/svg" xmlns:xlink="http://www.w3.org/1999/xlink">
<g id="graph0" class="graph" transform="scale(1 1) rotate(0) translate(4 24)">
<title>init_cell</title>
<!-- Node1 -->
<g id="Node000001" class="node">
<title>Node1</title>
<g id="a_Node000001"><a xlink:title=" ">
<polygon fill="#999999" stroke="#666666" points="351.25,-20 302.25,-20 302.25,0 351.25,0 351.25,-20"/>
<text text-anchor="middle" x="326.75" y="-6.5" font-family="Helvetica,sans-Serif" font-size="10.00">init_cell</text>
</a>
</g>
</g>
<!-- Node2 -->
<g id="Node000002" class="node">
<title>Node2</title>
<g id="a_Node000002"><a xlink:href="map_8c.html#acdb03c9bf45ccd4d204290cab62f576e" target="_top" xlink:title=" ">
<polygon fill="white" stroke="#666666" points="266.25,-20 199.25,-20 199.25,0 266.25,0 266.25,-20"/>
<text text-anchor="middle" x="232.75" y="-6.5" font-family="Helvetica,sans-Serif" font-size="10.00">create_map</text>
</a>
</g>
</g>
<!-- Node1&#45;&gt;Node2 -->
<g id="edge1_Node000001_Node000002" class="edge">
<title>Node1&#45;&gt;Node2</title>
<g id="a_edge1_Node000001_Node000002"><a xlink:title=" ">
<path fill="none" stroke="#63b8ff" d="M290.62,-10C282.77,-10 274.48,-10 266.72,-10"/>
<polygon fill="#63b8ff" stroke="#63b8ff" points="290.54,-13.5 300.54,-10 290.54,-6.5 290.54,-13.5"/>
</a>
</g>
</g>
<!-- Node3 -->
<g id="Node000003" class="node">
<title>Node3</title>
<g id="a_Node000003"><a xlink:href="map__creation_8c.html#a7b73cf4e94bbefdc0dae0891a2120e0f" target="_top" xlink:title=" ">
<polygon fill="white" stroke="#666666" points="163.25,-20 73,-20 73,0 163.25,0 163.25,-20"/>
<text text-anchor="middle" x="118.12" y="-6.5" font-family="Helvetica,sans-Serif" font-size="10.00">init_starting_map</text>
</a>
</g>
</g>
<!-- Node2&#45;&gt;Node3 -->
<g id="edge2_Node000002_Node000003" class="edge">
<title>Node2&#45;&gt;Node3</title>
<g id="a_edge2_Node000002_Node000003"><a xlink:title=" ">
<path fill="none" stroke="#63b8ff" d="M187.61,-10C179.71,-10 171.47,-10 163.56,-10"/>
<polygon fill="#63b8ff" stroke="#63b8ff" points="187.36,-13.5 197.36,-10 187.36,-6.5 187.36,-13.5"/>
</a>
</g>
</g>
<!-- Node4 -->
<g id="Node000004" class="node">
<title>Node4</title>
<g id="a_Node000004"><a xlink:href="main_8c.html#a0c99d968a34e803d378692bde2e3f18f" target="_top" xlink:title=" ">
<polygon fill="white" stroke="#666666" points="37,-20 0,-20 0,0 37,0 37,-20"/>
<text text-anchor="middle" x="18.5" y="-6.5" font-family="Helvetica,sans-Serif" font-size="10.00">main</text>
</a>
</g>
</g>
<!-- Node3&#45;&gt;Node4 -->
<g id="edge3_Node000003_Node000004" class="edge">
<title>Node3&#45;&gt;Node4</title>
<g id="a_edge3_Node000003_Node000004"><a xlink:title=" ">
<path fill="none" stroke="#63b8ff" d="M61.19,-10C52.57,-10 44.25,-10 37.35,-10"/>
<polygon fill="#63b8ff" stroke="#63b8ff" points="61.08,-13.5 71.08,-10 61.08,-6.5 61.08,-13.5"/>
</a>
</g>
</g>
</g>
</svg>
