<?xml version="1.0" encoding="UTF-8" standalone="no"?>
<!DOCTYPE svg PUBLIC "-//W3C//DTD SVG 1.1//EN"
 "http://www.w3.org/Graphics/SVG/1.1/DTD/svg11.dtd">
<!-- Generated by graphviz version 12.2.1 (20241206.2353)
 -->
<!-- Title: destroy_map Pages: 1 -->
<svg width="669pt" height="47pt"
 viewBox="0.00 0.00 668.75 47.00" xmlns="http://www.w3.org/2000/svg" xmlns:xlink="http://www.w3.org/1999/xlink">
<g id="graph0" class="graph" transform="scale(1 1) rotate(0) translate(4 43)">
<title>destroy_map</title>
<!-- Node1 -->
<g id="Node000001" class="node">
<title>Node1</title>
<g id="a_Node000001"><a xlink:title=" ">
<polygon fill="#999999" stroke="#666666" points="660.75,-20 588.5,-20 588.5,0 660.75,0 660.75,-20"/>
<text text-anchor="middle" x="624.62" y="-6.5" font-family="Helvetica,sans-Serif" font-size="10.00">destroy_map</text>
</a>
</g>
</g>
<!-- Node2 -->
<g id="Node000002" class="node">
<title>Node2</title>
<g id="a_Node000002"><a xlink:href="map__creation_8c.html#ab496a562cf58d3dbd658cb496a3b1dd3" target="_top" xlink:title=" ">
<polygon fill="white" stroke="#666666" points="552.5,-20 458.5,-20 458.5,0 552.5,0 552.5,-20"/>
<text text-anchor="middle" x="505.5" y="-6.5" font-family="Helvetica,sans-Serif" font-size="10.00">free_starting_map</text>
</a>
</g>
</g>
<!-- Node1&#45;&gt;Node2 -->
<g id="edge1_Node000001_Node000002" class="edge">
<title>Node1&#45;&gt;Node2</title>
<g id="a_edge1_Node000001_Node000002"><a xlink:title=" ">
<path fill="none" stroke="#63b8ff" d="M576.8,-10C568.85,-10 560.6,-10 552.67,-10"/>
<polygon fill="#63b8ff" stroke="#63b8ff" points="576.65,-13.5 586.65,-10 576.65,-6.5 576.65,-13.5"/>
</a>
</g>
</g>
<!-- Node3 -->
<g id="Node000003" class="node">
<title>Node3</title>
<g id="a_Node000003"><a xlink:href="zappy_8c.html#aa03864dfebbcca5f721765dc4bcd0c0c" target="_top" xlink:title=" ">
<polygon fill="white" stroke="#666666" points="422.5,-20 351,-20 351,0 422.5,0 422.5,-20"/>
<text text-anchor="middle" x="386.75" y="-6.5" font-family="Helvetica,sans-Serif" font-size="10.00">down_server</text>
</a>
</g>
</g>
<!-- Node2&#45;&gt;Node3 -->
<g id="edge2_Node000002_Node000003" class="edge">
<title>Node2&#45;&gt;Node3</title>
<g id="a_edge2_Node000002_Node000003"><a xlink:title=" ">
<path fill="none" stroke="#63b8ff" d="M446.64,-10C438.53,-10 430.42,-10 422.91,-10"/>
<polygon fill="#63b8ff" stroke="#63b8ff" points="446.51,-13.5 456.51,-10 446.51,-6.5 446.51,-13.5"/>
</a>
</g>
</g>
<!-- Node4 -->
<g id="Node000004" class="node">
<title>Node4</title>
<g id="a_Node000004"><a xlink:href="main_8c.html#a12a702ea4c5d44f6062d6e96376e08b6" target="_top" xlink:title=" ">
<polygon fill="white" stroke="#666666" points="315,-39 209.75,-39 209.75,-19 315,-19 315,-39"/>
<text text-anchor="middle" x="262.38" y="-25.5" font-family="Helvetica,sans-Serif" font-size="10.00">handle_down_server</text>
</a>
</g>
</g>
<!-- Node3&#45;&gt;Node4 -->
<g id="edge3_Node000003_Node000004" class="edge">
<title>Node3&#45;&gt;Node4</title>
<g id="a_edge3_Node000003_Node000004"><a xlink:title=" ">
<path fill="none" stroke="#63b8ff" d="M339.45,-17.19C331.57,-18.41 323.34,-19.69 315.33,-20.93"/>
<polygon fill="#63b8ff" stroke="#63b8ff" points="339.84,-20.67 349.19,-15.68 338.77,-13.75 339.84,-20.67"/>
</a>
</g>
</g>
<!-- Node6 -->
<g id="Node000006" class="node">
<title>Node6</title>
<g id="a_Node000006"><a xlink:href="main_8c.html#a0c99d968a34e803d378692bde2e3f18f" target="_top" xlink:title=" ">
<polygon fill="white" stroke="#666666" points="37,-20 0,-20 0,0 37,0 37,-20"/>
<text text-anchor="middle" x="18.5" y="-6.5" font-family="Helvetica,sans-Serif" font-size="10.00">main</text>
</a>
</g>
</g>
<!-- Node3&#45;&gt;Node6 -->
<g id="edge6_Node000003_Node000006" class="edge">
<title>Node3&#45;&gt;Node6</title>
<g id="a_edge6_Node000003_Node000006"><a xlink:title=" ">
<path fill="none" stroke="#63b8ff" d="M339.2,-10C257.41,-10 91.43,-10 37.13,-10"/>
<polygon fill="#63b8ff" stroke="#63b8ff" points="339.12,-13.5 349.12,-10 339.12,-6.5 339.12,-13.5"/>
</a>
</g>
</g>
<!-- Node5 -->
<g id="Node000005" class="node">
<title>Node5</title>
<g id="a_Node000005"><a xlink:href="main_8c.html#a2e01f0ba90cd568dbee49bef85ba822a" target="_top" xlink:title=" ">
<polygon fill="white" stroke="#666666" points="173.75,-39 73,-39 73,-19 173.75,-19 173.75,-39"/>
<text text-anchor="middle" x="123.38" y="-25.5" font-family="Helvetica,sans-Serif" font-size="10.00">setup_down_server</text>
</a>
</g>
</g>
<!-- Node4&#45;&gt;Node5 -->
<g id="edge4_Node000004_Node000005" class="edge">
<title>Node4&#45;&gt;Node5</title>
<g id="a_edge4_Node000004_Node000005"><a xlink:title=" ">
<path fill="none" stroke="#63b8ff" d="M198.2,-29C190.08,-29 181.85,-29 173.98,-29"/>
<polygon fill="#63b8ff" stroke="#63b8ff" points="198.07,-32.5 208.07,-29 198.07,-25.5 198.07,-32.5"/>
</a>
</g>
</g>
<!-- Node5&#45;&gt;Node6 -->
<g id="edge5_Node000005_Node000006" class="edge">
<title>Node5&#45;&gt;Node6</title>
<g id="a_edge5_Node000005_Node000006"><a xlink:title=" ">
<path fill="none" stroke="#63b8ff" d="M61.44,-17.75C52.61,-16.12 44.17,-14.56 37.21,-13.27"/>
<polygon fill="#63b8ff" stroke="#63b8ff" points="60.79,-21.18 71.26,-19.56 62.06,-14.3 60.79,-21.18"/>
</a>
</g>
</g>
</g>
</svg>
