<?xml version="1.0" encoding="UTF-8" standalone="no"?>
<!DOCTYPE svg PUBLIC "-//W3C//DTD SVG 1.1//EN"
 "http://www.w3.org/Graphics/SVG/1.1/DTD/svg11.dtd">
<!-- Generated by graphviz version 12.2.1 (20241206.2353)
 -->
<!-- Title: display_error Pages: 1 -->
<svg width="1055pt" height="820pt"
 viewBox="0.00 0.00 1054.75 820.00" xmlns="http://www.w3.org/2000/svg" xmlns:xlink="http://www.w3.org/1999/xlink">
<g id="graph0" class="graph" transform="scale(1 1) rotate(0) translate(4 816)">
<title>display_error</title>
<!-- Node1 -->
<g id="Node000001" class="node">
<title>Node1</title>
<g id="a_Node000001"><a xlink:title=" ">
<polygon fill="#999999" stroke="#666666" points="1046.75,-419 975.25,-419 975.25,-399 1046.75,-399 1046.75,-419"/>
<text text-anchor="middle" x="1011" y="-405.5" font-family="Helvetica,sans-Serif" font-size="10.00">display_error</text>
</a>
</g>
</g>
<!-- Node2 -->
<g id="Node000002" class="node">
<title>Node2</title>
<g id="a_Node000002"><a xlink:href="client_8c.html#ae130c56fc8c99be8b6393fe8098f59a9" target="_top" xlink:title=" ">
<polygon fill="white" stroke="#666666" points="443.5,-723 383.25,-723 383.25,-703 443.5,-703 443.5,-723"/>
<text text-anchor="middle" x="413.38" y="-709.5" font-family="Helvetica,sans-Serif" font-size="10.00">add_client</text>
</a>
</g>
</g>
<!-- Node1&#45;&gt;Node2 -->
<g id="edge1_Node000001_Node000002" class="edge">
<title>Node1&#45;&gt;Node2</title>
<g id="a_edge1_Node000001_Node000002"><a xlink:title=" ">
<path fill="none" stroke="#63b8ff" d="M1007.81,-430.27C1001.19,-490.37 979.28,-659.35 939.25,-695 865.79,-760.41 543.35,-728.35 443.77,-716.66"/>
<polygon fill="#63b8ff" stroke="#63b8ff" points="1011.26,-431.01 1008.84,-420.7 1004.3,-430.27 1011.26,-431.01"/>
</a>
</g>
</g>
<!-- Node3 -->
<g id="Node000003" class="node">
<title>Node3</title>
<g id="a_Node000003"><a xlink:href="zappy_8c.html#a6ffb860722d91e8898827740a227b495" target="_top" xlink:title=" ">
<polygon fill="white" stroke="#666666" points="309.75,-723 199.25,-723 199.25,-703 309.75,-703 309.75,-723"/>
<text text-anchor="middle" x="254.5" y="-709.5" font-family="Helvetica,sans-Serif" font-size="10.00">check_for_new_client</text>
</a>
</g>
</g>
<!-- Node1&#45;&gt;Node3 -->
<g id="edge18_Node000001_Node000003" class="edge">
<title>Node1&#45;&gt;Node3</title>
<g id="a_edge18_Node000001_Node000003"><a xlink:title=" ">
<path fill="none" stroke="#63b8ff" d="M1008.16,-430.65C1002.23,-495.13 981.52,-683.96 939.25,-726 874.03,-790.87 828.99,-770 737,-770 737,-770 737,-770 576.5,-770 471.22,-770 349.47,-739.91 290.76,-723.45"/>
<polygon fill="#63b8ff" stroke="#63b8ff" points="1011.64,-430.97 1009.04,-420.7 1004.67,-430.35 1011.64,-430.97"/>
</a>
</g>
</g>
<!-- Node4 -->
<g id="Node000004" class="node">
<title>Node4</title>
<g id="a_Node000004"><a xlink:href="zappy_8c.html#a9b9af6be5e3898616b325720d9f29dbc" target="_top" xlink:title=" ">
<polygon fill="white" stroke="#666666" points="152,-657 84.25,-657 84.25,-637 152,-637 152,-657"/>
<text text-anchor="middle" x="118.12" y="-643.5" font-family="Helvetica,sans-Serif" font-size="10.00">start_server</text>
</a>
</g>
</g>
<!-- Node1&#45;&gt;Node4 -->
<g id="edge54_Node000001_Node000004" class="edge">
<title>Node1&#45;&gt;Node4</title>
<g id="a_edge54_Node000001_Node000004"><a xlink:title=" ">
<path fill="none" stroke="#63b8ff" d="M1008.73,-430.49C1004.18,-499.85 986.42,-716 939.25,-764 874.77,-829.61 828.99,-808 737,-808 737,-808 737,-808 412.38,-808 311.81,-808 283.44,-787 199.25,-732 167.33,-711.15 139.08,-675.08 126.33,-657.39"/>
<polygon fill="#63b8ff" stroke="#63b8ff" points="1012.2,-431.03 1009.33,-420.83 1005.21,-430.6 1012.2,-431.03"/>
</a>
</g>
</g>
<!-- Node6 -->
<g id="Node000006" class="node">
<title>Node6</title>
<g id="a_Node000006"><a xlink:href="client_8c.html#a143835100e57a86e1106918450df6887" target="_top" xlink:title=" ">
<polygon fill="white" stroke="#666666" points="619.62,-704 535.38,-704 535.38,-684 619.62,-684 619.62,-704"/>
<text text-anchor="middle" x="577.5" y="-690.5" font-family="Helvetica,sans-Serif" font-size="10.00">add_client_data</text>
</a>
</g>
</g>
<!-- Node1&#45;&gt;Node6 -->
<g id="edge5_Node000001_Node000006" class="edge">
<title>Node1&#45;&gt;Node6</title>
<g id="a_edge5_Node000001_Node000006"><a xlink:title=" ">
<path fill="none" stroke="#63b8ff" d="M1007.28,-430.5C999.68,-486.82 976.33,-636.46 939.25,-667 891.56,-706.28 704.09,-701.13 619.86,-696.64"/>
<polygon fill="#63b8ff" stroke="#63b8ff" points="1010.71,-431.28 1008.53,-420.91 1003.77,-430.37 1010.71,-431.28"/>
</a>
</g>
</g>
<!-- Node7 -->
<g id="Node000007" class="node">
<title>Node7</title>
<g id="a_Node000007"><a xlink:href="command_8c.html#ae945a1521c2b6067022aafe003579548" target="_top" xlink:title=" ">
<polygon fill="white" stroke="#666666" points="939.25,-628 834,-628 834,-608 939.25,-608 939.25,-628"/>
<text text-anchor="middle" x="886.62" y="-614.5" font-family="Helvetica,sans-Serif" font-size="10.00">append_client_buffer</text>
</a>
</g>
</g>
<!-- Node1&#45;&gt;Node7 -->
<g id="edge7_Node000001_Node000007" class="edge">
<title>Node1&#45;&gt;Node7</title>
<g id="a_edge7_Node000001_Node000007"><a xlink:title=" ">
<path fill="none" stroke="#63b8ff" d="M1007.16,-430.28C1001.12,-467.81 983.71,-546.32 939.25,-594 933.99,-599.64 927.15,-604.07 920.17,-607.5"/>
<polygon fill="#63b8ff" stroke="#63b8ff" points="1010.57,-431.12 1008.58,-420.72 1003.65,-430.1 1010.57,-431.12"/>
</a>
</g>
</g>
<!-- Node8 -->
<g id="Node000008" class="node">
<title>Node8</title>
<g id="a_Node000008"><a xlink:href="command_8c.html#a7ea78ee6c9551b3b281b8dc72f4e2f1f" target="_top" xlink:title=" ">
<polygon fill="white" stroke="#666666" points="798,-666 674,-666 674,-646 798,-646 798,-666"/>
<text text-anchor="middle" x="736" y="-652.5" font-family="Helvetica,sans-Serif" font-size="10.00">append_client_out_buffer</text>
</a>
</g>
</g>
<!-- Node1&#45;&gt;Node8 -->
<g id="edge14_Node000001_Node000008" class="edge">
<title>Node1&#45;&gt;Node8</title>
<g id="a_edge14_Node000001_Node000008"><a xlink:title=" ">
<path fill="none" stroke="#63b8ff" d="M1010.56,-430.6C1010.47,-476.79 1003.08,-585.19 939.25,-637 899.27,-669.45 839.11,-671.07 794.79,-666.46"/>
<polygon fill="#63b8ff" stroke="#63b8ff" points="1014.07,-430.79 1010.45,-420.83 1007.07,-430.87 1014.07,-430.79"/>
</a>
</g>
</g>
<!-- Node9 -->
<g id="Node000009" class="node">
<title>Node9</title>
<g id="a_Node000009"><a xlink:href="command_8c.html#ad5ab8f8763157c7c6779aefec5223821" target="_top" xlink:title=" ">
<polygon fill="white" stroke="#666666" points="779.62,-609 692.38,-609 692.38,-589 779.62,-589 779.62,-609"/>
<text text-anchor="middle" x="736" y="-595.5" font-family="Helvetica,sans-Serif" font-size="10.00">get_client_buffer</text>
</a>
</g>
</g>
<!-- Node1&#45;&gt;Node9 -->
<g id="edge37_Node000001_Node000009" class="edge">
<title>Node1&#45;&gt;Node9</title>
<g id="a_edge37_Node000001_Node000009"><a xlink:title=" ">
<path fill="none" stroke="#63b8ff" d="M1005.93,-430.37C998.6,-462.8 979.95,-524.03 939.25,-556 893.38,-592.03 824.25,-599.65 779.87,-600.4"/>
<polygon fill="#63b8ff" stroke="#63b8ff" points="1009.36,-431.1 1007.97,-420.6 1002.5,-429.67 1009.36,-431.1"/>
</a>
</g>
</g>
<!-- Node12 -->
<g id="Node000012" class="node">
<title>Node12</title>
<g id="a_Node000012"><a xlink:href="server_8c.html#ad413d984a2bab87e775126974290386f" target="_top" xlink:title=" ">
<polygon fill="white" stroke="#666666" points="920.88,-476 852.38,-476 852.38,-456 920.88,-456 920.88,-476"/>
<text text-anchor="middle" x="886.62" y="-462.5" font-family="Helvetica,sans-Serif" font-size="10.00">bind_socket</text>
</a>
</g>
</g>
<!-- Node1&#45;&gt;Node12 -->
<g id="edge15_Node000001_Node000012" class="edge">
<title>Node1&#45;&gt;Node12</title>
<g id="a_edge15_Node000001_Node000012"><a xlink:title=" ">
<path fill="none" stroke="#63b8ff" d="M982.63,-424.86C969.69,-432.06 953.9,-440.41 939.25,-447 932.54,-450.02 925.2,-452.94 918.21,-455.55"/>
<polygon fill="#63b8ff" stroke="#63b8ff" points="984.01,-428.1 991,-420.14 980.57,-422 984.01,-428.1"/>
</a>
</g>
</g>
<!-- Node13 -->
<g id="Node000013" class="node">
<title>Node13</title>
<g id="a_Node000013"><a xlink:href="server_8c.html#a23ab0f3b35622de0123b41ad360ba4d9" target="_top" xlink:title=" ">
<polygon fill="white" stroke="#666666" points="773.62,-400 698.38,-400 698.38,-380 773.62,-380 773.62,-400"/>
<text text-anchor="middle" x="736" y="-386.5" font-family="Helvetica,sans-Serif" font-size="10.00">create_server</text>
</a>
</g>
</g>
<!-- Node1&#45;&gt;Node13 -->
<g id="edge26_Node000001_Node000013" class="edge">
<title>Node1&#45;&gt;Node13</title>
<g id="a_edge26_Node000001_Node000013"><a xlink:title=" ">
<path fill="none" stroke="#63b8ff" d="M998.29,-428.93C986.17,-447.38 965.35,-473.64 939.25,-485 896.36,-503.67 877.31,-502.68 834,-485 791.23,-467.54 757.09,-421.13 743.44,-400.33"/>
<polygon fill="#63b8ff" stroke="#63b8ff" points="1001.12,-430.99 1003.45,-420.66 995.19,-427.29 1001.12,-430.99"/>
</a>
</g>
</g>
<!-- Node14 -->
<g id="Node000014" class="node">
<title>Node14</title>
<g id="a_Node000014"><a xlink:href="server_8c.html#a867bd0247d5df0c9253fb5ebe2d3e9e3" target="_top" xlink:title=" ">
<polygon fill="white" stroke="#666666" points="925,-438 848.25,-438 848.25,-418 925,-418 925,-438"/>
<text text-anchor="middle" x="886.62" y="-424.5" font-family="Helvetica,sans-Serif" font-size="10.00">config_socket</text>
</a>
</g>
</g>
<!-- Node1&#45;&gt;Node14 -->
<g id="edge19_Node000001_Node000014" class="edge">
<title>Node1&#45;&gt;Node14</title>
<g id="a_edge19_Node000001_Node000014"><a xlink:title=" ">
<path fill="none" stroke="#63b8ff" d="M963.62,-416.2C950.95,-418.17 937.38,-420.27 925.26,-422.16"/>
<polygon fill="#63b8ff" stroke="#63b8ff" points="964.09,-419.67 973.44,-414.68 963.02,-412.75 964.09,-419.67"/>
</a>
</g>
</g>
<!-- Node15 -->
<g id="Node000015" class="node">
<title>Node15</title>
<g id="a_Node000015"><a xlink:href="map_8c.html#acdb03c9bf45ccd4d204290cab62f576e" target="_top" xlink:title=" ">
<polygon fill="white" stroke="#666666" points="611,-257 544,-257 544,-237 611,-237 611,-257"/>
<text text-anchor="middle" x="577.5" y="-243.5" font-family="Helvetica,sans-Serif" font-size="10.00">create_map</text>
</a>
</g>
</g>
<!-- Node1&#45;&gt;Node15 -->
<g id="edge21_Node000001_Node000015" class="edge">
<title>Node1&#45;&gt;Node15</title>
<g id="a_edge21_Node000001_Node000015"><a xlink:title=" ">
<path fill="none" stroke="#63b8ff" d="M1003.26,-387.92C993.61,-361.47 973.18,-316.93 939.25,-295 925.5,-286.11 697.58,-260.16 611.27,-250.59"/>
<polygon fill="#63b8ff" stroke="#63b8ff" points="999.89,-388.9 1006.45,-397.22 1006.51,-386.63 999.89,-388.9"/>
</a>
</g>
</g>
<!-- Node17 -->
<g id="Node000017" class="node">
<title>Node17</title>
<g id="a_Node000017"><a xlink:href="server_8c.html#a541cadeb7343af51fcf8fc5fd8b7fd90" target="_top" xlink:title=" ">
<polygon fill="white" stroke="#666666" points="918.25,-400 855,-400 855,-380 918.25,-380 918.25,-400"/>
<text text-anchor="middle" x="886.62" y="-386.5" font-family="Helvetica,sans-Serif" font-size="10.00">create_poll</text>
</a>
</g>
</g>
<!-- Node1&#45;&gt;Node17 -->
<g id="edge24_Node000001_Node000017" class="edge">
<title>Node1&#45;&gt;Node17</title>
<g id="a_edge24_Node000001_Node000017"><a xlink:title=" ">
<path fill="none" stroke="#63b8ff" d="M963.7,-401.81C948.6,-399.47 932.22,-396.92 918.53,-394.8"/>
<polygon fill="#63b8ff" stroke="#63b8ff" points="963.02,-405.25 973.44,-403.32 964.09,-398.33 963.02,-405.25"/>
</a>
</g>
</g>
<!-- Node18 -->
<g id="Node000018" class="node">
<title>Node18</title>
<g id="a_Node000018"><a xlink:href="server_8c.html#a87a34e188b621431ddbea361489c1f00" target="_top" xlink:title=" ">
<polygon fill="white" stroke="#666666" points="925.38,-362 847.88,-362 847.88,-342 925.38,-342 925.38,-362"/>
<text text-anchor="middle" x="886.62" y="-348.5" font-family="Helvetica,sans-Serif" font-size="10.00">create_socket</text>
</a>
</g>
</g>
<!-- Node1&#45;&gt;Node18 -->
<g id="edge27_Node000001_Node000018" class="edge">
<title>Node1&#45;&gt;Node18</title>
<g id="a_edge27_Node000001_Node000018"><a xlink:title=" ">
<path fill="none" stroke="#63b8ff" d="M982.63,-393.14C969.69,-385.94 953.9,-377.59 939.25,-371 932.54,-367.98 925.2,-365.06 918.21,-362.45"/>
<polygon fill="#63b8ff" stroke="#63b8ff" points="980.57,-396 991,-397.86 984.01,-389.9 980.57,-396"/>
</a>
</g>
</g>
<!-- Node19 -->
<g id="Node000019" class="node">
<title>Node19</title>
<g id="a_Node000019"><a xlink:href="client_8c.html#ad2e6718d9e672c9a08080dfbdb986c9f" target="_top" xlink:title=" ">
<polygon fill="white" stroke="#666666" points="927.62,-210 845.62,-210 845.62,-190 927.62,-190 927.62,-210"/>
<text text-anchor="middle" x="886.62" y="-196.5" font-family="Helvetica,sans-Serif" font-size="10.00">destroy_clients</text>
</a>
</g>
</g>
<!-- Node1&#45;&gt;Node19 -->
<g id="edge29_Node000001_Node000019" class="edge">
<title>Node1&#45;&gt;Node19</title>
<g id="a_edge29_Node000001_Node000019"><a xlink:title=" ">
<path fill="none" stroke="#63b8ff" d="M1007.8,-387.33C1002.73,-348.4 986.75,-266.32 939.25,-219 935.8,-215.56 931.67,-212.74 927.28,-210.43"/>
<polygon fill="#63b8ff" stroke="#63b8ff" points="1004.33,-387.73 1008.96,-397.25 1011.28,-386.92 1004.33,-387.73"/>
</a>
</g>
</g>
<!-- Node23 -->
<g id="Node000023" class="node">
<title>Node23</title>
<g id="a_Node000023"><a xlink:href="server_8c.html#a1419add62a8164aa89c42e83753e5a7f" target="_top" xlink:title=" ">
<polygon fill="white" stroke="#666666" points="926.88,-172 846.38,-172 846.38,-152 926.88,-152 926.88,-172"/>
<text text-anchor="middle" x="886.62" y="-158.5" font-family="Helvetica,sans-Serif" font-size="10.00">destroy_server</text>
</a>
</g>
</g>
<!-- Node1&#45;&gt;Node23 -->
<g id="edge35_Node000001_Node000023" class="edge">
<title>Node1&#45;&gt;Node23</title>
<g id="a_edge35_Node000001_Node000023"><a xlink:title=" ">
<path fill="none" stroke="#63b8ff" d="M1009.39,-387.1C1006.96,-342.41 995.22,-239.95 939.25,-181 935.83,-177.4 931.67,-174.48 927.21,-172.11"/>
<polygon fill="#63b8ff" stroke="#63b8ff" points="1005.89,-387.19 1009.8,-397.04 1012.88,-386.9 1005.89,-387.19"/>
</a>
</g>
</g>
<!-- Node24 -->
<g id="Node000024" class="node">
<title>Node24</title>
<g id="a_Node000024"><a xlink:href="map_8c.html#a84c18178418c93d4e7ea42c163b94159" target="_top" xlink:title=" ">
<polygon fill="white" stroke="#666666" points="929.12,-248 844.12,-248 844.12,-228 929.12,-228 929.12,-248"/>
<text text-anchor="middle" x="886.62" y="-234.5" font-family="Helvetica,sans-Serif" font-size="10.00">init_coord_array</text>
</a>
</g>
</g>
<!-- Node1&#45;&gt;Node24 -->
<g id="edge38_Node000001_Node000024" class="edge">
<title>Node1&#45;&gt;Node24</title>
<g id="a_edge38_Node000001_Node000024"><a xlink:title=" ">
<path fill="none" stroke="#63b8ff" d="M1004.73,-387.8C995.99,-356.57 975.74,-298 939.25,-262 933.55,-256.38 926.29,-251.91 919.03,-248.43"/>
<polygon fill="#63b8ff" stroke="#63b8ff" points="1001.28,-388.44 1007.23,-397.21 1008.05,-386.65 1001.28,-388.44"/>
</a>
</g>
</g>
<!-- Node26 -->
<g id="Node000026" class="node">
<title>Node26</title>
<g id="a_Node000026"><a xlink:href="parser_8c.html#a2b866e4d5f957e7d8311b4f12cd184df" target="_top" xlink:title=" ">
<polygon fill="white" stroke="#666666" points="917.12,-134 856.12,-134 856.12,-114 917.12,-114 917.12,-134"/>
<text text-anchor="middle" x="886.62" y="-120.5" font-family="Helvetica,sans-Serif" font-size="10.00">init_parser</text>
</a>
</g>
</g>
<!-- Node1&#45;&gt;Node26 -->
<g id="edge41_Node000001_Node000026" class="edge">
<title>Node1&#45;&gt;Node26</title>
<g id="a_edge41_Node000001_Node000026"><a xlink:title=" ">
<path fill="none" stroke="#63b8ff" d="M1010.57,-387.27C1010.67,-337.49 1003.95,-213.99 939.25,-143 933.52,-136.72 925.54,-132.51 917.56,-129.69"/>
<polygon fill="#63b8ff" stroke="#63b8ff" points="1007.07,-386.96 1010.44,-397 1014.07,-387.05 1007.07,-386.96"/>
</a>
</g>
</g>
<!-- Node28 -->
<g id="Node000028" class="node">
<title>Node28</title>
<g id="a_Node000028"><a xlink:href="parser__str_8c.html#aefdbf6a699eb690dbbbac92d50a8f873" target="_top" xlink:title=" ">
<polygon fill="white" stroke="#666666" points="925.38,-58 847.88,-58 847.88,-38 925.38,-38 925.38,-58"/>
<text text-anchor="middle" x="886.62" y="-44.5" font-family="Helvetica,sans-Serif" font-size="10.00">init_parser_str</text>
</a>
</g>
</g>
<!-- Node1&#45;&gt;Node28 -->
<g id="edge44_Node000001_Node000028" class="edge">
<title>Node1&#45;&gt;Node28</title>
<g id="a_edge44_Node000001_Node000028"><a xlink:title=" ">
<path fill="none" stroke="#63b8ff" d="M1008.27,-387.68C1002.44,-320.69 981.44,-115.98 939.25,-67 935.57,-62.73 930.85,-59.42 925.75,-56.85"/>
<polygon fill="#63b8ff" stroke="#63b8ff" points="1004.76,-387.66 1009.08,-397.33 1011.73,-387.07 1004.76,-387.66"/>
</a>
</g>
</g>
<!-- Node30 -->
<g id="Node000030" class="node">
<title>Node30</title>
<g id="a_Node000030"><a xlink:href="server_8c.html#a5bd9817af61fc4a4087d8c1ac518cd34" target="_top" xlink:title=" ">
<polygon fill="white" stroke="#666666" points="923.5,-324 849.75,-324 849.75,-304 923.5,-304 923.5,-324"/>
<text text-anchor="middle" x="886.62" y="-310.5" font-family="Helvetica,sans-Serif" font-size="10.00">listen_socket</text>
</a>
</g>
</g>
<!-- Node1&#45;&gt;Node30 -->
<g id="edge47_Node000001_Node000030" class="edge">
<title>Node1&#45;&gt;Node30</title>
<g id="a_edge47_Node000001_Node000030"><a xlink:title=" ">
<path fill="none" stroke="#63b8ff" d="M996.22,-389.68C983.22,-372.69 962.34,-348.36 939.25,-333 934.24,-329.67 928.57,-326.83 922.87,-324.43"/>
<polygon fill="#63b8ff" stroke="#63b8ff" points="993.24,-391.54 1002.01,-397.49 998.86,-387.37 993.24,-391.54"/>
</a>
</g>
</g>
<!-- Node31 -->
<g id="Node000031" class="node">
<title>Node31</title>
<g id="a_Node000031"><a xlink:href="parser_8c.html#ab311db9db3f2b71db7e37322d1ff1b2b" target="_top" xlink:title=" ">
<polygon fill="white" stroke="#666666" points="922.75,-96 850.5,-96 850.5,-76 922.75,-76 922.75,-96"/>
<text text-anchor="middle" x="886.62" y="-82.5" font-family="Helvetica,sans-Serif" font-size="10.00">parse_teams</text>
</a>
</g>
</g>
<!-- Node1&#45;&gt;Node31 -->
<g id="edge49_Node000001_Node000031" class="edge">
<title>Node1&#45;&gt;Node31</title>
<g id="a_edge49_Node000001_Node000031"><a xlink:title=" ">
<path fill="none" stroke="#63b8ff" d="M1007.67,-387.65C1000.5,-325.73 977,-147.75 939.25,-105 934.89,-100.06 929.13,-96.4 923.04,-93.7"/>
<polygon fill="#63b8ff" stroke="#63b8ff" points="1004.15,-387.67 1008.74,-397.21 1011.1,-386.88 1004.15,-387.67"/>
</a>
</g>
</g>
<!-- Node32 -->
<g id="Node000032" class="node">
<title>Node32</title>
<g id="a_Node000032"><a xlink:href="client_8c.html#ad8aca4d01856a6a494b2029ed3beb1ba" target="_top" xlink:title=" ">
<polygon fill="white" stroke="#666666" points="925,-20 848.25,-20 848.25,0 925,0 925,-20"/>
<text text-anchor="middle" x="886.62" y="-6.5" font-family="Helvetica,sans-Serif" font-size="10.00">remove_client</text>
</a>
</g>
</g>
<!-- Node1&#45;&gt;Node32 -->
<g id="edge51_Node000001_Node000032" class="edge">
<title>Node1&#45;&gt;Node32</title>
<g id="a_edge51_Node000001_Node000032"><a xlink:title=" ">
<path fill="none" stroke="#63b8ff" d="M1008.75,-387.68C1004.15,-315.88 985.91,-84.27 939.25,-29 935.49,-24.55 930.59,-21.14 925.31,-18.53"/>
<polygon fill="#63b8ff" stroke="#63b8ff" points="1005.24,-387.54 1009.35,-397.3 1012.23,-387.11 1005.24,-387.54"/>
</a>
</g>
</g>
<!-- Node33 -->
<g id="Node000033" class="node">
<title>Node33</title>
<g id="a_Node000033"><a xlink:href="command_8c.html#aaeaed8798ac2263a423d9a9a2f4e3ed0" target="_top" xlink:title=" ">
<polygon fill="white" stroke="#666666" points="634.25,-562 520.75,-562 520.75,-542 634.25,-542 634.25,-562"/>
<text text-anchor="middle" x="577.5" y="-548.5" font-family="Helvetica,sans-Serif" font-size="10.00">send_client_command</text>
</a>
</g>
</g>
<!-- Node1&#45;&gt;Node33 -->
<g id="edge52_Node000001_Node000033" class="edge">
<title>Node1&#45;&gt;Node33</title>
<g id="a_edge52_Node000001_Node000033"><a xlink:title=" ">
<path fill="none" stroke="#63b8ff" d="M1001.12,-429.67C990.15,-452.49 969.18,-488.31 939.25,-506 843.72,-562.45 709.33,-563.07 634.46,-557.92"/>
<polygon fill="#63b8ff" stroke="#63b8ff" points="1004.23,-431.3 1005.2,-420.75 997.86,-428.4 1004.23,-431.3"/>
</a>
</g>
</g>
<!-- Node2&#45;&gt;Node3 -->
<g id="edge2_Node000002_Node000003" class="edge">
<title>Node2&#45;&gt;Node3</title>
<g id="a_edge2_Node000002_Node000003"><a xlink:title=" ">
<path fill="none" stroke="#63b8ff" d="M371.43,-713C352.65,-713 330.13,-713 309.96,-713"/>
<polygon fill="#63b8ff" stroke="#63b8ff" points="371.35,-716.5 381.35,-713 371.35,-709.5 371.35,-716.5"/>
</a>
</g>
</g>
<!-- Node3&#45;&gt;Node4 -->
<g id="edge3_Node000003_Node000004" class="edge">
<title>Node3&#45;&gt;Node4</title>
<g id="a_edge3_Node000003_Node000004"><a xlink:title=" ">
<path fill="none" stroke="#63b8ff" d="M222.07,-697.56C196.9,-685.2 162.3,-668.2 140.32,-657.41"/>
<polygon fill="#63b8ff" stroke="#63b8ff" points="220.33,-700.61 230.85,-701.87 223.42,-694.32 220.33,-700.61"/>
</a>
</g>
</g>
<!-- Node5 -->
<g id="Node000005" class="node">
<title>Node5</title>
<g id="a_Node000005"><a xlink:href="main_8c.html#a0c99d968a34e803d378692bde2e3f18f" target="_top" xlink:title=" ">
<polygon fill="white" stroke="#666666" points="37,-219 0,-219 0,-199 37,-199 37,-219"/>
<text text-anchor="middle" x="18.5" y="-205.5" font-family="Helvetica,sans-Serif" font-size="10.00">main</text>
</a>
</g>
</g>
<!-- Node4&#45;&gt;Node5 -->
<g id="edge4_Node000004_Node000005" class="edge">
<title>Node4&#45;&gt;Node5</title>
<g id="a_edge4_Node000004_Node000005"><a xlink:title=" ">
<path fill="none" stroke="#63b8ff" d="M112.39,-625.75C94.92,-547.39 34.5,-276.3 21.84,-219.49"/>
<polygon fill="#63b8ff" stroke="#63b8ff" points="108.89,-626.13 114.48,-635.13 115.72,-624.61 108.89,-626.13"/>
</a>
</g>
</g>
<!-- Node6&#45;&gt;Node2 -->
<g id="edge6_Node000006_Node000002" class="edge">
<title>Node6&#45;&gt;Node2</title>
<g id="a_edge6_Node000006_Node000002"><a xlink:title=" ">
<path fill="none" stroke="#63b8ff" d="M523.75,-700.18C497.24,-703.29 466.12,-706.94 443.86,-709.54"/>
<polygon fill="#63b8ff" stroke="#63b8ff" points="524.14,-703.66 533.67,-699.02 523.33,-696.71 524.14,-703.66"/>
</a>
</g>
</g>
<!-- Node7&#45;&gt;Node8 -->
<g id="edge8_Node000007_Node000008" class="edge">
<title>Node7&#45;&gt;Node8</title>
<g id="a_edge8_Node000007_Node000008"><a xlink:title=" ">
<path fill="none" stroke="#63b8ff" d="M833.55,-631.31C815.3,-635.98 795.08,-641.15 777.87,-645.55"/>
<polygon fill="#63b8ff" stroke="#63b8ff" points="834.33,-634.73 843.15,-628.86 832.6,-627.95 834.33,-634.73"/>
</a>
</g>
</g>
<!-- Node7&#45;&gt;Node9 -->
<g id="edge10_Node000007_Node000009" class="edge">
<title>Node7&#45;&gt;Node9</title>
<g id="a_edge10_Node000007_Node000009"><a xlink:title=" ">
<path fill="none" stroke="#63b8ff" d="M822.32,-609.91C807.99,-608.08 793.11,-606.17 779.86,-604.48"/>
<polygon fill="#63b8ff" stroke="#63b8ff" points="821.78,-613.37 832.14,-611.16 822.67,-606.42 821.78,-613.37"/>
</a>
</g>
</g>
<!-- Node8&#45;&gt;Node6 -->
<g id="edge9_Node000008_Node000006" class="edge">
<title>Node8&#45;&gt;Node6</title>
<g id="a_edge9_Node000008_Node000006"><a xlink:title=" ">
<path fill="none" stroke="#63b8ff" d="M680.71,-669.18C660.77,-674.02 638.54,-679.42 619.92,-683.94"/>
<polygon fill="#63b8ff" stroke="#63b8ff" points="681.46,-672.6 690.35,-666.84 679.81,-665.8 681.46,-672.6"/>
</a>
</g>
</g>
<!-- Node10 -->
<g id="Node000010" class="node">
<title>Node10</title>
<g id="a_Node000010"><a xlink:href="command_8c.html#a89c794fd58c4d9f580afb6ecd5e91dc4" target="_top" xlink:title=" ">
<polygon fill="white" stroke="#666666" points="638,-609 517,-609 517,-589 638,-589 638,-609"/>
<text text-anchor="middle" x="577.5" y="-595.5" font-family="Helvetica,sans-Serif" font-size="10.00">handle_client_command</text>
</a>
</g>
</g>
<!-- Node9&#45;&gt;Node10 -->
<g id="edge11_Node000009_Node000010" class="edge">
<title>Node9&#45;&gt;Node10</title>
<g id="a_edge11_Node000009_Node000010"><a xlink:title=" ">
<path fill="none" stroke="#63b8ff" d="M680.96,-599C667.17,-599 652.28,-599 638.22,-599"/>
<polygon fill="#63b8ff" stroke="#63b8ff" points="680.72,-602.5 690.72,-599 680.72,-595.5 680.72,-602.5"/>
</a>
</g>
</g>
<!-- Node11 -->
<g id="Node000011" class="node">
<title>Node11</title>
<g id="a_Node000011"><a xlink:href="zappy_8c.html#a546faa7b19427abaa0c156a70b4ff185" target="_top" xlink:title=" ">
<polygon fill="white" stroke="#666666" points="481,-609 345.75,-609 345.75,-589 481,-589 481,-609"/>
<text text-anchor="middle" x="413.38" y="-595.5" font-family="Helvetica,sans-Serif" font-size="10.00">check_for_client_command</text>
</a>
</g>
</g>
<!-- Node10&#45;&gt;Node11 -->
<g id="edge12_Node000010_Node000011" class="edge">
<title>Node10&#45;&gt;Node11</title>
<g id="a_edge12_Node000010_Node000011"><a xlink:title=" ">
<path fill="none" stroke="#63b8ff" d="M505.15,-599C497.26,-599 489.25,-599 481.41,-599"/>
<polygon fill="#63b8ff" stroke="#63b8ff" points="505.08,-602.5 515.08,-599 505.08,-595.5 505.08,-602.5"/>
</a>
</g>
</g>
<!-- Node11&#45;&gt;Node4 -->
<g id="edge13_Node000011_Node000004" class="edge">
<title>Node11&#45;&gt;Node4</title>
<g id="a_edge13_Node000011_Node000004"><a xlink:title=" ">
<path fill="none" stroke="#63b8ff" d="M337.13,-611.32C277.54,-621.07 197.13,-634.23 152.5,-641.54"/>
<polygon fill="#63b8ff" stroke="#63b8ff" points="337.59,-614.79 346.89,-609.72 336.45,-607.88 337.59,-614.79"/>
</a>
</g>
</g>
<!-- Node12&#45;&gt;Node13 -->
<g id="edge16_Node000012_Node000013" class="edge">
<title>Node12&#45;&gt;Node13</title>
<g id="a_edge16_Node000012_Node000013"><a xlink:title=" ">
<path fill="none" stroke="#63b8ff" d="M843.75,-451.32C840.42,-449.93 837.14,-448.48 834,-447 804.16,-432.88 771.45,-412.56 752.66,-400.38"/>
<polygon fill="#63b8ff" stroke="#63b8ff" points="842.41,-454.55 853,-454.97 844.99,-448.04 842.41,-454.55"/>
</a>
</g>
</g>
<!-- Node13&#45;&gt;Node5 -->
<g id="edge17_Node000013_Node000005" class="edge">
<title>Node13&#45;&gt;Node5</title>
<g id="a_edge17_Node000013_Node000005"><a xlink:title=" ">
<path fill="none" stroke="#63b8ff" d="M688.84,-376.52C626.95,-359.67 513.37,-333 414.38,-333 414.38,-333 414.38,-333 253.5,-333 167.93,-333 144.28,-313.34 73,-266 53.55,-253.09 36.09,-231.79 26.72,-219.21"/>
<polygon fill="#63b8ff" stroke="#63b8ff" points="687.75,-379.85 698.32,-379.14 689.62,-373.1 687.75,-379.85"/>
</a>
</g>
</g>
<!-- Node14&#45;&gt;Node13 -->
<g id="edge20_Node000014_Node000013" class="edge">
<title>Node14&#45;&gt;Node13</title>
<g id="a_edge20_Node000014_Node000013"><a xlink:title=" ">
<path fill="none" stroke="#63b8ff" d="M837.08,-415.59C816.56,-410.34 793.05,-404.33 773.98,-399.45"/>
<polygon fill="#63b8ff" stroke="#63b8ff" points="836.1,-418.95 846.65,-418.04 837.83,-412.17 836.1,-418.95"/>
</a>
</g>
</g>
<!-- Node16 -->
<g id="Node000016" class="node">
<title>Node16</title>
<g id="a_Node000016"><a xlink:href="map__creation_8c.html#a7b73cf4e94bbefdc0dae0891a2120e0f" target="_top" xlink:title=" ">
<polygon fill="white" stroke="#666666" points="163.25,-257 73,-257 73,-237 163.25,-237 163.25,-257"/>
<text text-anchor="middle" x="118.12" y="-243.5" font-family="Helvetica,sans-Serif" font-size="10.00">init_starting_map</text>
</a>
</g>
</g>
<!-- Node15&#45;&gt;Node16 -->
<g id="edge22_Node000015_Node000016" class="edge">
<title>Node15&#45;&gt;Node16</title>
<g id="a_edge22_Node000015_Node000016"><a xlink:title=" ">
<path fill="none" stroke="#63b8ff" d="M532.25,-247C444.86,-247 251.02,-247 163.51,-247"/>
<polygon fill="#63b8ff" stroke="#63b8ff" points="532.09,-250.5 542.09,-247 532.09,-243.5 532.09,-250.5"/>
</a>
</g>
</g>
<!-- Node16&#45;&gt;Node5 -->
<g id="edge23_Node000016_Node000005" class="edge">
<title>Node16&#45;&gt;Node5</title>
<g id="a_edge23_Node000016_Node000005"><a xlink:title=" ">
<path fill="none" stroke="#63b8ff" d="M79.49,-232.35C65.03,-226.72 49.18,-220.55 37.41,-215.97"/>
<polygon fill="#63b8ff" stroke="#63b8ff" points="78.19,-235.6 88.78,-235.97 80.73,-229.08 78.19,-235.6"/>
</a>
</g>
</g>
<!-- Node17&#45;&gt;Node13 -->
<g id="edge25_Node000017_Node000013" class="edge">
<title>Node17&#45;&gt;Node13</title>
<g id="a_edge25_Node000017_Node000013"><a xlink:title=" ">
<path fill="none" stroke="#63b8ff" d="M843.54,-390C821.66,-390 795.16,-390 774.07,-390"/>
<polygon fill="#63b8ff" stroke="#63b8ff" points="843.32,-393.5 853.32,-390 843.32,-386.5 843.32,-393.5"/>
</a>
</g>
</g>
<!-- Node18&#45;&gt;Node13 -->
<g id="edge28_Node000018_Node000013" class="edge">
<title>Node18&#45;&gt;Node13</title>
<g id="a_edge28_Node000018_Node000013"><a xlink:title=" ">
<path fill="none" stroke="#63b8ff" d="M836.74,-364.5C816.33,-369.72 793.01,-375.68 774.05,-380.53"/>
<polygon fill="#63b8ff" stroke="#63b8ff" points="837.45,-367.93 846.27,-362.06 835.71,-361.15 837.45,-367.93"/>
</a>
</g>
</g>
<!-- Node20 -->
<g id="Node000020" class="node">
<title>Node20</title>
<g id="a_Node000020"><a xlink:href="zappy_8c.html#aa03864dfebbcca5f721765dc4bcd0c0c" target="_top" xlink:title=" ">
<polygon fill="white" stroke="#666666" points="771.75,-191 700.25,-191 700.25,-171 771.75,-171 771.75,-191"/>
<text text-anchor="middle" x="736" y="-177.5" font-family="Helvetica,sans-Serif" font-size="10.00">down_server</text>
</a>
</g>
</g>
<!-- Node19&#45;&gt;Node20 -->
<g id="edge30_Node000019_Node000020" class="edge">
<title>Node19&#45;&gt;Node20</title>
<g id="a_edge30_Node000019_Node000020"><a xlink:title=" ">
<path fill="none" stroke="#63b8ff" d="M834.04,-193.41C813.61,-190.79 790.65,-187.86 772.19,-185.5"/>
<polygon fill="#63b8ff" stroke="#63b8ff" points="833.54,-196.87 843.9,-194.67 834.43,-189.93 833.54,-196.87"/>
</a>
</g>
</g>
<!-- Node20&#45;&gt;Node5 -->
<g id="edge34_Node000020_Node000005" class="edge">
<title>Node20&#45;&gt;Node5</title>
<g id="a_edge34_Node000020_Node000005"><a xlink:title=" ">
<path fill="none" stroke="#63b8ff" d="M688.61,-187.61C626.35,-195.88 512.27,-209 414.38,-209 414.38,-209 414.38,-209 253.5,-209 172.86,-209 76.59,-209 37.41,-209"/>
<polygon fill="#63b8ff" stroke="#63b8ff" points="689.04,-191.08 698.48,-186.27 688.1,-184.14 689.04,-191.08"/>
</a>
</g>
</g>
<!-- Node21 -->
<g id="Node000021" class="node">
<title>Node21</title>
<g id="a_Node000021"><a xlink:href="main_8c.html#a12a702ea4c5d44f6062d6e96376e08b6" target="_top" xlink:title=" ">
<polygon fill="white" stroke="#666666" points="630.12,-181 524.88,-181 524.88,-161 630.12,-161 630.12,-181"/>
<text text-anchor="middle" x="577.5" y="-167.5" font-family="Helvetica,sans-Serif" font-size="10.00">handle_down_server</text>
</a>
</g>
</g>
<!-- Node20&#45;&gt;Node21 -->
<g id="edge31_Node000020_Node000021" class="edge">
<title>Node20&#45;&gt;Node21</title>
<g id="a_edge31_Node000020_Node000021"><a xlink:title=" ">
<path fill="none" stroke="#63b8ff" d="M688.61,-178.04C670.32,-176.87 649.24,-175.52 630.44,-174.32"/>
<polygon fill="#63b8ff" stroke="#63b8ff" points="688.17,-181.51 698.37,-178.66 688.61,-174.53 688.17,-181.51"/>
</a>
</g>
</g>
<!-- Node22 -->
<g id="Node000022" class="node">
<title>Node22</title>
<g id="a_Node000022"><a xlink:href="main_8c.html#a2e01f0ba90cd568dbee49bef85ba822a" target="_top" xlink:title=" ">
<polygon fill="white" stroke="#666666" points="304.88,-181 204.12,-181 204.12,-161 304.88,-161 304.88,-181"/>
<text text-anchor="middle" x="254.5" y="-167.5" font-family="Helvetica,sans-Serif" font-size="10.00">setup_down_server</text>
</a>
</g>
</g>
<!-- Node21&#45;&gt;Node22 -->
<g id="edge32_Node000021_Node000022" class="edge">
<title>Node21&#45;&gt;Node22</title>
<g id="a_edge32_Node000021_Node000022"><a xlink:title=" ">
<path fill="none" stroke="#63b8ff" d="M513.17,-171C452.19,-171 361.19,-171 305.24,-171"/>
<polygon fill="#63b8ff" stroke="#63b8ff" points="513.06,-174.5 523.06,-171 513.06,-167.5 513.06,-174.5"/>
</a>
</g>
</g>
<!-- Node22&#45;&gt;Node5 -->
<g id="edge33_Node000022_Node000005" class="edge">
<title>Node22&#45;&gt;Node5</title>
<g id="a_edge33_Node000022_Node000005"><a xlink:title=" ">
<path fill="none" stroke="#63b8ff" d="M192.77,-177.18C157.61,-181.23 112.61,-187.22 73,-195 60.94,-197.37 47.57,-200.87 37.21,-203.78"/>
<polygon fill="#63b8ff" stroke="#63b8ff" points="192.77,-180.7 202.31,-176.1 191.98,-173.74 192.77,-180.7"/>
</a>
</g>
</g>
<!-- Node23&#45;&gt;Node20 -->
<g id="edge36_Node000023_Node000020" class="edge">
<title>Node23&#45;&gt;Node20</title>
<g id="a_edge36_Node000023_Node000020"><a xlink:title=" ">
<path fill="none" stroke="#63b8ff" d="M835.01,-168.47C814.29,-171.12 790.83,-174.12 772.05,-176.52"/>
<polygon fill="#63b8ff" stroke="#63b8ff" points="835.21,-171.97 844.69,-167.23 834.32,-165.03 835.21,-171.97"/>
</a>
</g>
</g>
<!-- Node25 -->
<g id="Node000025" class="node">
<title>Node25</title>
<g id="a_Node000025"><a xlink:href="map_8c.html#a0ed27c247f73f4a46ebce944c3366a69" target="_top" xlink:title=" ">
<polygon fill="white" stroke="#666666" points="782.25,-248 689.75,-248 689.75,-228 782.25,-228 782.25,-248"/>
<text text-anchor="middle" x="736" y="-234.5" font-family="Helvetica,sans-Serif" font-size="10.00">spawn_resources</text>
</a>
</g>
</g>
<!-- Node24&#45;&gt;Node25 -->
<g id="edge39_Node000024_Node000025" class="edge">
<title>Node24&#45;&gt;Node25</title>
<g id="a_edge39_Node000024_Node000025"><a xlink:title=" ">
<path fill="none" stroke="#63b8ff" d="M832.78,-238C816.4,-238 798.5,-238 782.65,-238"/>
<polygon fill="#63b8ff" stroke="#63b8ff" points="832.32,-241.5 842.32,-238 832.32,-234.5 832.32,-241.5"/>
</a>
</g>
</g>
<!-- Node25&#45;&gt;Node15 -->
<g id="edge40_Node000025_Node000015" class="edge">
<title>Node25&#45;&gt;Node15</title>
<g id="a_edge40_Node000025_Node000015"><a xlink:title=" ">
<path fill="none" stroke="#63b8ff" d="M677.83,-241.29C655.35,-242.58 630.36,-244.02 611.07,-245.13"/>
<polygon fill="#63b8ff" stroke="#63b8ff" points="678.02,-244.78 687.8,-240.71 677.62,-237.79 678.02,-244.78"/>
</a>
</g>
</g>
<!-- Node27 -->
<g id="Node000027" class="node">
<title>Node27</title>
<g id="a_Node000027"><a xlink:href="parser_8c.html#a3bb96cf1ed8a40d85063d34ca0c53563" target="_top" xlink:title=" ">
<polygon fill="white" stroke="#666666" points="781.5,-134 690.5,-134 690.5,-114 781.5,-114 781.5,-134"/>
<text text-anchor="middle" x="736" y="-120.5" font-family="Helvetica,sans-Serif" font-size="10.00">parse_arguments</text>
</a>
</g>
</g>
<!-- Node26&#45;&gt;Node27 -->
<g id="edge42_Node000026_Node000027" class="edge">
<title>Node26&#45;&gt;Node27</title>
<g id="a_edge42_Node000026_Node000027"><a xlink:title=" ">
<path fill="none" stroke="#63b8ff" d="M844.64,-124C825.17,-124 801.85,-124 781.91,-124"/>
<polygon fill="#63b8ff" stroke="#63b8ff" points="844.39,-127.5 854.39,-124 844.39,-120.5 844.39,-127.5"/>
</a>
</g>
</g>
<!-- Node27&#45;&gt;Node5 -->
<g id="edge43_Node000027_Node000005" class="edge">
<title>Node27&#45;&gt;Node5</title>
<g id="a_edge43_Node000027_Node000005"><a xlink:title=" ">
<path fill="none" stroke="#63b8ff" d="M678.71,-126.54C614.69,-129.2 507.03,-133 414.38,-133 414.38,-133 414.38,-133 253.5,-133 170.93,-133 149.4,-145.68 73,-177 58.98,-182.75 44.29,-191.78 33.86,-198.78"/>
<polygon fill="#63b8ff" stroke="#63b8ff" points="678.79,-130.04 688.63,-126.12 678.49,-123.04 678.79,-130.04"/>
</a>
</g>
</g>
<!-- Node29 -->
<g id="Node000029" class="node">
<title>Node29</title>
<g id="a_Node000029"><a xlink:href="parser__str_8c.html#a25ee62d02dd6b4a6a9ff0746356b8204" target="_top" xlink:title=" ">
<polygon fill="white" stroke="#666666" points="308.25,-96 200.75,-96 200.75,-76 308.25,-76 308.25,-96"/>
<text text-anchor="middle" x="254.5" y="-82.5" font-family="Helvetica,sans-Serif" font-size="10.00">parse_str_arguments</text>
</a>
</g>
</g>
<!-- Node28&#45;&gt;Node29 -->
<g id="edge45_Node000028_Node000029" class="edge">
<title>Node28&#45;&gt;Node29</title>
<g id="a_edge45_Node000028_Node000029"><a xlink:title=" ">
<path fill="none" stroke="#63b8ff" d="M836.26,-50.98C719.8,-58 428.72,-75.55 308.61,-82.8"/>
<polygon fill="#63b8ff" stroke="#63b8ff" points="836.34,-54.48 846.12,-50.38 835.92,-47.49 836.34,-54.48"/>
</a>
</g>
</g>
<!-- Node29&#45;&gt;Node5 -->
<g id="edge46_Node000029_Node000005" class="edge">
<title>Node29&#45;&gt;Node5</title>
<g id="a_edge46_Node000029_Node000005"><a xlink:title=" ">
<path fill="none" stroke="#63b8ff" d="M189.34,-84.98C152.41,-87.32 106.78,-95.51 73,-119 44.35,-138.93 28.58,-179.59 22.49,-198.67"/>
<polygon fill="#63b8ff" stroke="#63b8ff" points="189.17,-88.49 198.99,-84.5 188.83,-81.5 189.17,-88.49"/>
</a>
</g>
</g>
<!-- Node30&#45;&gt;Node13 -->
<g id="edge48_Node000030_Node000013" class="edge">
<title>Node30&#45;&gt;Node13</title>
<g id="a_edge48_Node000030_Node000013"><a xlink:title=" ">
<path fill="none" stroke="#63b8ff" d="M843.75,-328.68C840.42,-330.07 837.14,-331.52 834,-333 804.16,-347.12 771.45,-367.44 752.66,-379.62"/>
<polygon fill="#63b8ff" stroke="#63b8ff" points="844.99,-331.96 853,-325.03 842.41,-325.45 844.99,-331.96"/>
</a>
</g>
</g>
<!-- Node31&#45;&gt;Node27 -->
<g id="edge50_Node000031_Node000027" class="edge">
<title>Node31&#45;&gt;Node27</title>
<g id="a_edge50_Node000031_Node000027"><a xlink:title=" ">
<path fill="none" stroke="#63b8ff" d="M838.89,-97.95C819.3,-102.96 796.73,-108.73 777.83,-113.56"/>
<polygon fill="#63b8ff" stroke="#63b8ff" points="839.74,-101.34 848.56,-95.48 838,-94.56 839.74,-101.34"/>
</a>
</g>
</g>
<!-- Node33&#45;&gt;Node11 -->
<g id="edge53_Node000033_Node000011" class="edge">
<title>Node33&#45;&gt;Node11</title>
<g id="a_edge53_Node000033_Node000011"><a xlink:title=" ">
<path fill="none" stroke="#63b8ff" d="M529.73,-565.56C504.52,-572.87 473.89,-581.75 450.54,-588.52"/>
<polygon fill="#63b8ff" stroke="#63b8ff" points="530.44,-569 539.07,-562.85 528.49,-562.28 530.44,-569"/>
</a>
</g>
</g>
</g>
</svg>
