<?xml version="1.0" encoding="UTF-8" standalone="no"?>
<!DOCTYPE svg PUBLIC "-//W3C//DTD SVG 1.1//EN"
 "http://www.w3.org/Graphics/SVG/1.1/DTD/svg11.dtd">
<!-- Generated by graphviz version 12.2.1 (20241206.2353)
 -->
<!-- Title: parse_arguments Pages: 1 -->
<svg width="422pt" height="140pt"
 viewBox="0.00 0.00 421.50 139.96" xmlns="http://www.w3.org/2000/svg" xmlns:xlink="http://www.w3.org/1999/xlink">

<svg id="main" version="1.1" xmlns="http://www.w3.org/2000/svg" xmlns:xlink="http://www.w3.org/1999/xlink" xml:space="preserve">

<style type="text/css"><![CDATA[
.node, .edge {opacity: 0.7;}
.node.selected, .edge.selected {opacity: 1;}
.edge:hover path { stroke: red; }
.edge:hover polygon { stroke: red; fill: red; }
]]></style>
<script type="application/ecmascript" xlink:href="svg.min.js"/>
<svg id="graph" class="graph">
<g id="graph0" class="graph" transform="scale(1 1) rotate(0) translate(4 135.96)">
<title>parse_arguments</title>
<!-- Node1 -->
<g id="Node000001" class="node">
<title>Node1</title>
<g id="a_Node000001"><a xlink:title=" ">
<polygon fill="#999999" stroke="#666666" points="91,-92.68 0,-92.68 0,-72.68 91,-72.68 91,-92.68"/>
<text text-anchor="middle" x="45.5" y="-79.18" font-family="Helvetica,sans-Serif" font-size="10.00">parse_arguments</text>
</a>
</g>
</g>
<!-- Node2 -->
<g id="Node000002" class="node">
<title>Node2</title>
<g id="a_Node000002"><a xlink:href="parser_8c.html#af6e2239bd86c9c8533070687ab8cfbf4" target="_top" xlink:title=" ">
<polygon fill="white" stroke="#666666" points="413.5,-73.68 343.5,-73.68 343.5,-53.68 413.5,-53.68 413.5,-73.68"/>
<text text-anchor="middle" x="378.5" y="-60.18" font-family="Helvetica,sans-Serif" font-size="10.00">display_help</text>
</a>
</g>
</g>
<!-- Node1&#45;&gt;Node2 -->
<g id="edge1_Node000001_Node000002" class="edge">
<title>Node1&#45;&gt;Node2</title>
<g id="a_edge1_Node000001_Node000002"><a xlink:title=" ">
<path fill="none" stroke="#63b8ff" d="M69.21,-93.07C115.42,-112.7 223.16,-150.68 307.5,-120.68 329.06,-113.02 348.8,-95.55 361.78,-81.96"/>
<polygon fill="#63b8ff" stroke="#63b8ff" points="364.11,-84.6 368.26,-74.85 358.94,-79.88 364.11,-84.6"/>
</a>
</g>
</g>
<!-- Node3 -->
<g id="Node000003" class="node">
<title>Node3</title>
<g id="a_Node000003"><a xlink:href="parser_8c.html#a2b866e4d5f957e7d8311b4f12cd184df" target="_top" xlink:title=" ">
<polygon fill="white" stroke="#666666" points="193.62,-73.68 132.62,-73.68 132.62,-53.68 193.62,-53.68 193.62,-73.68"/>
<text text-anchor="middle" x="163.12" y="-60.18" font-family="Helvetica,sans-Serif" font-size="10.00">init_parser</text>
</a>
</g>
</g>
<!-- Node1&#45;&gt;Node3 -->
<g id="edge2_Node000001_Node000003" class="edge">
<title>Node1&#45;&gt;Node3</title>
<g id="a_edge2_Node000001_Node000003"><a xlink:title=" ">
<path fill="none" stroke="#63b8ff" d="M91.2,-75.34C100.96,-73.74 111.25,-72.05 120.86,-70.47"/>
<polygon fill="#63b8ff" stroke="#63b8ff" points="121.39,-73.93 130.69,-68.85 120.26,-67.02 121.39,-73.93"/>
</a>
</g>
</g>
<!-- Node5 -->
<g id="Node000005" class="node">
<title>Node5</title>
<g id="a_Node000005"><a xlink:href="parser_8c.html#a64de70f94bc6db6745d27243c3829439" target="_top" xlink:title=" ">
<polygon fill="white" stroke="#666666" points="299.25,-111.68 243.5,-111.68 243.5,-91.68 299.25,-91.68 299.25,-111.68"/>
<text text-anchor="middle" x="271.38" y="-98.18" font-family="Helvetica,sans-Serif" font-size="10.00">parse_int</text>
</a>
</g>
</g>
<!-- Node1&#45;&gt;Node5 -->
<g id="edge4_Node000001_Node000005" class="edge">
<title>Node1&#45;&gt;Node5</title>
<g id="a_edge4_Node000001_Node000005"><a xlink:title=" ">
<path fill="none" stroke="#63b8ff" d="M91.27,-86.48C132.43,-89.98 192.84,-95.1 231.89,-98.42"/>
<polygon fill="#63b8ff" stroke="#63b8ff" points="231.51,-101.9 241.77,-99.26 232.1,-94.92 231.51,-101.9"/>
</a>
</g>
</g>
<!-- Node6 -->
<g id="Node000006" class="node">
<title>Node6</title>
<g id="a_Node000006"><a xlink:href="parser_8c.html#ab311db9db3f2b71db7e37322d1ff1b2b" target="_top" xlink:title=" ">
<polygon fill="white" stroke="#666666" points="199.25,-35.68 127,-35.68 127,-15.68 199.25,-15.68 199.25,-35.68"/>
<text text-anchor="middle" x="163.12" y="-22.18" font-family="Helvetica,sans-Serif" font-size="10.00">parse_teams</text>
</a>
</g>
</g>
<!-- Node1&#45;&gt;Node6 -->
<g id="edge6_Node000001_Node000006" class="edge">
<title>Node1&#45;&gt;Node6</title>
<g id="a_edge6_Node000001_Node000006"><a xlink:title=" ">
<path fill="none" stroke="#63b8ff" d="M67.71,-72.23C85.39,-63.51 110.84,-50.97 130.86,-41.1"/>
<polygon fill="#63b8ff" stroke="#63b8ff" points="132.27,-44.3 139.69,-36.74 129.18,-38.03 132.27,-44.3"/>
</a>
</g>
</g>
<!-- Node4 -->
<g id="Node000004" class="node">
<title>Node4</title>
<g id="a_Node000004"><a xlink:href="parser_8c.html#a3fd716b111caa8f93098f7e5070fd0bb" target="_top" xlink:title=" ">
<polygon fill="white" stroke="#666666" points="307.12,-73.68 235.62,-73.68 235.62,-53.68 307.12,-53.68 307.12,-73.68"/>
<text text-anchor="middle" x="271.38" y="-60.18" font-family="Helvetica,sans-Serif" font-size="10.00">display_error</text>
</a>
</g>
</g>
<!-- Node3&#45;&gt;Node4 -->
<g id="edge3_Node000003_Node000004" class="edge">
<title>Node3&#45;&gt;Node4</title>
<g id="a_edge3_Node000003_Node000004"><a xlink:title=" ">
<path fill="none" stroke="#63b8ff" d="M194,-63.68C203.37,-63.68 213.94,-63.68 224.15,-63.68"/>
<polygon fill="#63b8ff" stroke="#63b8ff" points="223.95,-67.19 233.95,-63.68 223.95,-60.19 223.95,-67.19"/>
</a>
</g>
</g>
<!-- Node5&#45;&gt;Node2 -->
<g id="edge5_Node000005_Node000002" class="edge">
<title>Node5&#45;&gt;Node2</title>
<g id="a_edge5_Node000005_Node000002"><a xlink:title=" ">
<path fill="none" stroke="#63b8ff" d="M299.72,-91.8C311.51,-87.54 325.51,-82.48 338.37,-77.83"/>
<polygon fill="#63b8ff" stroke="#63b8ff" points="339.18,-81.26 347.4,-74.57 336.8,-74.67 339.18,-81.26"/>
</a>
</g>
</g>
<!-- Node6&#45;&gt;Node2 -->
<g id="edge10_Node000006_Node000002" class="edge">
<title>Node6&#45;&gt;Node2</title>
<g id="a_edge10_Node000006_Node000002"><a xlink:title=" ">
<path fill="none" stroke="#63b8ff" d="M190,-15.21C219.31,-4.93 268.11,7.32 307.5,-6.68 329.06,-14.35 348.8,-31.82 361.78,-45.41"/>
<polygon fill="#63b8ff" stroke="#63b8ff" points="358.94,-47.49 368.26,-52.52 364.11,-42.77 358.94,-47.49"/>
</a>
</g>
</g>
<!-- Node6&#45;&gt;Node4 -->
<g id="edge9_Node000006_Node000004" class="edge">
<title>Node6&#45;&gt;Node4</title>
<g id="a_edge9_Node000006_Node000004"><a xlink:title=" ">
<path fill="none" stroke="#63b8ff" d="M193.44,-36.17C204.94,-40.28 218.31,-45.06 230.65,-49.48"/>
<polygon fill="#63b8ff" stroke="#63b8ff" points="229.14,-52.65 239.73,-52.73 231.49,-46.06 229.14,-52.65"/>
</a>
</g>
</g>
<!-- Node7 -->
<g id="Node000007" class="node">
<title>Node7</title>
<g id="a_Node000007"><a xlink:href="parser_8c.html#a050b98c4f9faf3268814d25ffb6d29fa" target="_top" xlink:title=" ">
<polygon fill="white" stroke="#666666" points="307.5,-35.68 235.25,-35.68 235.25,-15.68 307.5,-15.68 307.5,-35.68"/>
<text text-anchor="middle" x="271.38" y="-22.18" font-family="Helvetica,sans-Serif" font-size="10.00">count_teams</text>
</a>
</g>
</g>
<!-- Node6&#45;&gt;Node7 -->
<g id="edge7_Node000006_Node000007" class="edge">
<title>Node6&#45;&gt;Node7</title>
<g id="a_edge7_Node000006_Node000007"><a xlink:title=" ">
<path fill="none" stroke="#63b8ff" d="M199.5,-25.68C207.13,-25.68 215.31,-25.68 223.3,-25.68"/>
<polygon fill="#63b8ff" stroke="#63b8ff" points="223.27,-29.19 233.27,-25.68 223.27,-22.19 223.27,-29.19"/>
</a>
</g>
</g>
<!-- Node7&#45;&gt;Node2 -->
<g id="edge8_Node000007_Node000002" class="edge">
<title>Node7&#45;&gt;Node2</title>
<g id="a_edge8_Node000007_Node000002"><a xlink:title=" ">
<path fill="none" stroke="#63b8ff" d="M301.38,-36.17C312.64,-40.24 325.72,-44.97 337.83,-49.34"/>
<polygon fill="#63b8ff" stroke="#63b8ff" points="336.57,-52.61 347.17,-52.72 338.95,-46.03 336.57,-52.61"/>
</a>
</g>
</g>
</g>
</svg>
</svg>

<style type='text/css'>
<![CDATA[
[data-mouse-over-selected='false'] { opacity: 0.7; }
[data-mouse-over-selected='true']  { opacity: 1.0; }
]]>
</style>
<script type="application/ecmascript"><![CDATA[
document.addEventListener('DOMContentLoaded', (event) => {
  highlightEdges();
  highlightAdjacentNodes();
});
]]></script>
</svg>
