<?xml version="1.0" encoding="UTF-8" standalone="no"?>
<!DOCTYPE svg PUBLIC "-//W3C//DTD SVG 1.1//EN"
 "http://www.w3.org/Graphics/SVG/1.1/DTD/svg11.dtd">
<!-- Generated by graphviz version 12.2.1 (20241206.2353)
 -->
<!-- Title: parse_teams Pages: 1 -->
<svg width="295pt" height="104pt"
 viewBox="0.00 0.00 294.50 104.00" xmlns="http://www.w3.org/2000/svg" xmlns:xlink="http://www.w3.org/1999/xlink">

<svg id="main" version="1.1" xmlns="http://www.w3.org/2000/svg" xmlns:xlink="http://www.w3.org/1999/xlink" xml:space="preserve">

<style type="text/css"><![CDATA[
.node, .edge {opacity: 0.7;}
.node.selected, .edge.selected {opacity: 1;}
.edge:hover path { stroke: red; }
.edge:hover polygon { stroke: red; fill: red; }
]]></style>
<script type="application/ecmascript" xlink:href="svg.min.js"/>
<svg id="graph" class="graph">
<g id="graph0" class="graph" transform="scale(1 1) rotate(0) translate(4 100)">
<title>parse_teams</title>
<!-- Node1 -->
<g id="Node000001" class="node">
<title>Node1</title>
<g id="a_Node000001"><a xlink:title=" ">
<polygon fill="#999999" stroke="#666666" points="72.25,-58 0,-58 0,-38 72.25,-38 72.25,-58"/>
<text text-anchor="middle" x="36.12" y="-44.5" font-family="Helvetica,sans-Serif" font-size="10.00">parse_teams</text>
</a>
</g>
</g>
<!-- Node2 -->
<g id="Node000002" class="node">
<title>Node2</title>
<g id="a_Node000002"><a xlink:href="parser_8c.html#a050b98c4f9faf3268814d25ffb6d29fa" target="_top" xlink:title=" ">
<polygon fill="white" stroke="#666666" points="180.5,-96 108.25,-96 108.25,-76 180.5,-76 180.5,-96"/>
<text text-anchor="middle" x="144.38" y="-82.5" font-family="Helvetica,sans-Serif" font-size="10.00">count_teams</text>
</a>
</g>
</g>
<!-- Node1&#45;&gt;Node2 -->
<g id="edge1_Node000001_Node000002" class="edge">
<title>Node1&#45;&gt;Node2</title>
<g id="a_edge1_Node000001_Node000002"><a xlink:title=" ">
<path fill="none" stroke="#63b8ff" d="M66.44,-58.48C77.94,-62.6 91.31,-67.38 103.65,-71.79"/>
<polygon fill="#63b8ff" stroke="#63b8ff" points="102.14,-74.97 112.73,-75.04 104.49,-68.38 102.14,-74.97"/>
</a>
</g>
</g>
<!-- Node3 -->
<g id="Node000003" class="node">
<title>Node3</title>
<g id="a_Node000003"><a xlink:href="parser_8c.html#af6e2239bd86c9c8533070687ab8cfbf4" target="_top" xlink:title=" ">
<polygon fill="white" stroke="#666666" points="286.5,-77 216.5,-77 216.5,-57 286.5,-57 286.5,-77"/>
<text text-anchor="middle" x="251.5" y="-63.5" font-family="Helvetica,sans-Serif" font-size="10.00">display_help</text>
</a>
</g>
</g>
<!-- Node1&#45;&gt;Node3 -->
<g id="edge4_Node000001_Node000003" class="edge">
<title>Node1&#45;&gt;Node3</title>
<g id="a_edge4_Node000001_Node000003"><a xlink:title=" ">
<path fill="none" stroke="#63b8ff" d="M72.36,-51.14C108.59,-54.36 165.16,-59.4 204.81,-62.93"/>
<polygon fill="#63b8ff" stroke="#63b8ff" points="204.49,-66.42 214.77,-63.82 205.12,-59.44 204.49,-66.42"/>
</a>
</g>
</g>
<!-- Node4 -->
<g id="Node000004" class="node">
<title>Node4</title>
<g id="a_Node000004"><a xlink:href="parser_8c.html#a3fd716b111caa8f93098f7e5070fd0bb" target="_top" xlink:title=" ">
<polygon fill="white" stroke="#666666" points="180.12,-20 108.62,-20 108.62,0 180.12,0 180.12,-20"/>
<text text-anchor="middle" x="144.38" y="-6.5" font-family="Helvetica,sans-Serif" font-size="10.00">display_error</text>
</a>
</g>
</g>
<!-- Node1&#45;&gt;Node4 -->
<g id="edge3_Node000001_Node000004" class="edge">
<title>Node1&#45;&gt;Node4</title>
<g id="a_edge3_Node000001_Node000004"><a xlink:title=" ">
<path fill="none" stroke="#63b8ff" d="M66.44,-37.52C77.94,-33.4 91.31,-28.62 103.65,-24.21"/>
<polygon fill="#63b8ff" stroke="#63b8ff" points="104.49,-27.62 112.73,-20.96 102.14,-21.03 104.49,-27.62"/>
</a>
</g>
</g>
<!-- Node2&#45;&gt;Node3 -->
<g id="edge2_Node000002_Node000003" class="edge">
<title>Node2&#45;&gt;Node3</title>
<g id="a_edge2_Node000002_Node000003"><a xlink:title=" ">
<path fill="none" stroke="#63b8ff" d="M180.97,-79.57C188.66,-78.18 196.89,-76.69 204.91,-75.24"/>
<polygon fill="#63b8ff" stroke="#63b8ff" points="205.31,-78.72 214.53,-73.5 204.06,-71.84 205.31,-78.72"/>
</a>
</g>
</g>
</g>
</svg>
</svg>

<style type='text/css'>
<![CDATA[
[data-mouse-over-selected='false'] { opacity: 0.7; }
[data-mouse-over-selected='true']  { opacity: 1.0; }
]]>
</style>
<script type="application/ecmascript"><![CDATA[
document.addEventListener('DOMContentLoaded', (event) => {
  highlightEdges();
  highlightAdjacentNodes();
});
]]></script>
</svg>
