<?xml version="1.0" encoding="UTF-8" standalone="no"?>
<!DOCTYPE svg PUBLIC "-//W3C//DTD SVG 1.1//EN"
 "http://www.w3.org/Graphics/SVG/1.1/DTD/svg11.dtd">
<!-- Generated by graphviz version 12.2.1 (20241206.2353)
 -->
<!-- Title: display_help Pages: 1 -->
<svg width="495pt" height="142pt"
 viewBox="0.00 0.00 494.50 142.00" xmlns="http://www.w3.org/2000/svg" xmlns:xlink="http://www.w3.org/1999/xlink">
<g id="graph0" class="graph" transform="scale(1 1) rotate(0) translate(4 138)">
<title>display_help</title>
<!-- Node1 -->
<g id="Node000001" class="node">
<title>Node1</title>
<g id="a_Node000001"><a xlink:title=" ">
<polygon fill="#999999" stroke="#666666" points="486.5,-77 416.5,-77 416.5,-57 486.5,-57 486.5,-77"/>
<text text-anchor="middle" x="451.5" y="-63.5" font-family="Helvetica,sans-Serif" font-size="10.00">display_help</text>
</a>
</g>
</g>
<!-- Node2 -->
<g id="Node000002" class="node">
<title>Node2</title>
<g id="a_Node000002"><a xlink:href="parser_8c.html#a050b98c4f9faf3268814d25ffb6d29fa" target="_top" xlink:title=" ">
<polygon fill="white" stroke="#666666" points="380.5,-134 308.25,-134 308.25,-114 380.5,-114 380.5,-134"/>
<text text-anchor="middle" x="344.38" y="-120.5" font-family="Helvetica,sans-Serif" font-size="10.00">count_teams</text>
</a>
</g>
</g>
<!-- Node1&#45;&gt;Node2 -->
<g id="edge1_Node000001_Node000002" class="edge">
<title>Node1&#45;&gt;Node2</title>
<g id="a_edge1_Node000001_Node000002"><a xlink:title=" ">
<path fill="none" stroke="#63b8ff" d="M421.18,-82.9C403.07,-92.72 380.35,-105.03 364.53,-113.61"/>
<polygon fill="#63b8ff" stroke="#63b8ff" points="422.77,-86.02 429.89,-78.18 419.43,-79.87 422.77,-86.02"/>
</a>
</g>
</g>
<!-- Node3 -->
<g id="Node000003" class="node">
<title>Node3</title>
<g id="a_Node000003"><a xlink:href="parser_8c.html#ab311db9db3f2b71db7e37322d1ff1b2b" target="_top" xlink:title=" ">
<polygon fill="white" stroke="#666666" points="272.25,-96 200,-96 200,-76 272.25,-76 272.25,-96"/>
<text text-anchor="middle" x="236.12" y="-82.5" font-family="Helvetica,sans-Serif" font-size="10.00">parse_teams</text>
</a>
</g>
</g>
<!-- Node1&#45;&gt;Node3 -->
<g id="edge8_Node000001_Node000003" class="edge">
<title>Node1&#45;&gt;Node3</title>
<g id="a_edge8_Node000001_Node000003"><a xlink:title=" ">
<path fill="none" stroke="#63b8ff" d="M404.79,-71.07C365.28,-74.59 308.98,-79.6 272.75,-82.83"/>
<polygon fill="#63b8ff" stroke="#63b8ff" points="405.06,-74.56 414.71,-70.19 404.44,-67.59 405.06,-74.56"/>
</a>
</g>
</g>
<!-- Node4 -->
<g id="Node000004" class="node">
<title>Node4</title>
<g id="a_Node000004"><a xlink:href="parser_8c.html#a3bb96cf1ed8a40d85063d34ca0c53563" target="_top" xlink:title=" ">
<polygon fill="white" stroke="#666666" points="164,-58 73,-58 73,-38 164,-38 164,-58"/>
<text text-anchor="middle" x="118.5" y="-44.5" font-family="Helvetica,sans-Serif" font-size="10.00">parse_arguments</text>
</a>
</g>
</g>
<!-- Node1&#45;&gt;Node4 -->
<g id="edge5_Node000001_Node000004" class="edge">
<title>Node1&#45;&gt;Node4</title>
<g id="a_edge5_Node000001_Node000004"><a xlink:title=" ">
<path fill="none" stroke="#63b8ff" d="M404.78,-64.38C341.36,-60.74 227.38,-54.19 164.4,-50.58"/>
<polygon fill="#63b8ff" stroke="#63b8ff" points="404.32,-67.85 414.5,-64.93 404.72,-60.87 404.32,-67.85"/>
</a>
</g>
</g>
<!-- Node6 -->
<g id="Node000006" class="node">
<title>Node6</title>
<g id="a_Node000006"><a xlink:href="parser_8c.html#a64de70f94bc6db6745d27243c3829439" target="_top" xlink:title=" ">
<polygon fill="white" stroke="#666666" points="264,-20 208.25,-20 208.25,0 264,0 264,-20"/>
<text text-anchor="middle" x="236.12" y="-6.5" font-family="Helvetica,sans-Serif" font-size="10.00">parse_int</text>
</a>
</g>
</g>
<!-- Node1&#45;&gt;Node6 -->
<g id="edge6_Node000001_Node000006" class="edge">
<title>Node1&#45;&gt;Node6</title>
<g id="a_edge6_Node000001_Node000006"><a xlink:title=" ">
<path fill="none" stroke="#63b8ff" d="M421.87,-51.32C409.47,-45.1 394.58,-38.41 380.5,-34 341.12,-21.68 293.56,-15.31 264.33,-12.31"/>
<polygon fill="#63b8ff" stroke="#63b8ff" points="420.22,-54.4 430.71,-55.89 423.43,-48.19 420.22,-54.4"/>
</a>
</g>
</g>
<!-- Node2&#45;&gt;Node3 -->
<g id="edge2_Node000002_Node000003" class="edge">
<title>Node2&#45;&gt;Node3</title>
<g id="a_edge2_Node000002_Node000003"><a xlink:title=" ">
<path fill="none" stroke="#63b8ff" d="M303.55,-109.76C291.2,-105.34 277.83,-100.56 266.34,-96.45"/>
<polygon fill="#63b8ff" stroke="#63b8ff" points="302.04,-112.93 312.64,-113.01 304.4,-106.34 302.04,-112.93"/>
</a>
</g>
</g>
<!-- Node3&#45;&gt;Node4 -->
<g id="edge3_Node000003_Node000004" class="edge">
<title>Node3&#45;&gt;Node4</title>
<g id="a_edge3_Node000003_Node000004"><a xlink:title=" ">
<path fill="none" stroke="#63b8ff" d="M192.6,-72.02C178.94,-67.53 164.05,-62.64 151.3,-58.45"/>
<polygon fill="#63b8ff" stroke="#63b8ff" points="191.19,-75.25 201.79,-75.04 193.38,-68.6 191.19,-75.25"/>
</a>
</g>
</g>
<!-- Node5 -->
<g id="Node000005" class="node">
<title>Node5</title>
<g id="a_Node000005"><a xlink:href="main_8c.html#a0c99d968a34e803d378692bde2e3f18f" target="_top" xlink:title=" ">
<polygon fill="white" stroke="#666666" points="37,-58 0,-58 0,-38 37,-38 37,-58"/>
<text text-anchor="middle" x="18.5" y="-44.5" font-family="Helvetica,sans-Serif" font-size="10.00">main</text>
</a>
</g>
</g>
<!-- Node4&#45;&gt;Node5 -->
<g id="edge4_Node000004_Node000005" class="edge">
<title>Node4&#45;&gt;Node5</title>
<g id="a_edge4_Node000004_Node000005"><a xlink:title=" ">
<path fill="none" stroke="#63b8ff" d="M61.1,-48C52.49,-48 44.19,-48 37.3,-48"/>
<polygon fill="#63b8ff" stroke="#63b8ff" points="61,-51.5 71,-48 61,-44.5 61,-51.5"/>
</a>
</g>
</g>
<!-- Node6&#45;&gt;Node4 -->
<g id="edge7_Node000006_Node000004" class="edge">
<title>Node6&#45;&gt;Node4</title>
<g id="a_edge7_Node000006_Node000004"><a xlink:title=" ">
<path fill="none" stroke="#63b8ff" d="M197.15,-22.48C182.33,-27.35 165.53,-32.87 151.36,-37.53"/>
<polygon fill="#63b8ff" stroke="#63b8ff" points="198.17,-25.83 206.58,-19.38 195.99,-19.18 198.17,-25.83"/>
</a>
</g>
</g>
</g>
</svg>
