<?xml version="1.0" encoding="UTF-8" standalone="no"?>
<!DOCTYPE svg PUBLIC "-//W3C//DTD SVG 1.1//EN"
 "http://www.w3.org/Graphics/SVG/1.1/DTD/svg11.dtd">
<!-- Generated by graphviz version 12.2.1 (20241206.2353)
 -->
<!-- Title: process_command Pages: 1 -->
<svg width="570pt" height="180pt"
 viewBox="0.00 0.00 570.00 180.00" xmlns="http://www.w3.org/2000/svg" xmlns:xlink="http://www.w3.org/1999/xlink">
<g id="graph0" class="graph" transform="scale(1 1) rotate(0) translate(4 176)">
<title>process_command</title>
<!-- Node1 -->
<g id="Node000001" class="node">
<title>Node1</title>
<g id="a_Node000001"><a xlink:title=" ">
<polygon fill="#999999" stroke="#666666" points="98.5,-115 0,-115 0,-95 98.5,-95 98.5,-115"/>
<text text-anchor="middle" x="49.25" y="-101.5" font-family="Helvetica,sans-Serif" font-size="10.00">process_command</text>
</a>
</g>
</g>
<!-- Node2 -->
<g id="Node000002" class="node">
<title>Node2</title>
<g id="a_Node000002"><a xlink:href="process__command_8c.html#a3799614584819f5c158ddd57cb07f72a" target="_top" xlink:title=" ">
<polygon fill="white" stroke="#666666" points="233,-172 154,-172 154,-152 233,-152 233,-172"/>
<text text-anchor="middle" x="193.5" y="-158.5" font-family="Helvetica,sans-Serif" font-size="10.00">check_graphic</text>
</a>
</g>
</g>
<!-- Node1&#45;&gt;Node2 -->
<g id="edge1_Node000001_Node000002" class="edge">
<title>Node1&#45;&gt;Node2</title>
<g id="a_edge1_Node000001_Node000002"><a xlink:title=" ">
<path fill="none" stroke="#63b8ff" d="M71.8,-115.49C88.66,-123.51 112.81,-134.58 134.5,-143 138.83,-144.68 143.39,-146.35 147.95,-147.95"/>
<polygon fill="#63b8ff" stroke="#63b8ff" points="146.52,-151.16 157.11,-151.07 148.78,-144.53 146.52,-151.16"/>
</a>
</g>
</g>
<!-- Node3 -->
<g id="Node000003" class="node">
<title>Node3</title>
<g id="a_Node000003"><a xlink:href="exec__command_8c.html#afbebbfaa69aaadda4d61c30a35b9dc40" target="_top" xlink:title=" ">
<polygon fill="white" stroke="#666666" points="236,-134 151,-134 151,-114 236,-114 236,-134"/>
<text text-anchor="middle" x="193.5" y="-120.5" font-family="Helvetica,sans-Serif" font-size="10.00">exec_command</text>
</a>
</g>
</g>
<!-- Node1&#45;&gt;Node3 -->
<g id="edge2_Node000001_Node000003" class="edge">
<title>Node1&#45;&gt;Node3</title>
<g id="a_edge2_Node000001_Node000003"><a xlink:title=" ">
<path fill="none" stroke="#63b8ff" d="M98.81,-111.49C111.88,-113.23 126.09,-115.13 139.39,-116.91"/>
<polygon fill="#63b8ff" stroke="#63b8ff" points="138.93,-120.38 149.3,-118.23 139.86,-113.44 138.93,-120.38"/>
</a>
</g>
</g>
<!-- Node7 -->
<g id="Node000007" class="node">
<title>Node7</title>
<g id="a_Node000007"><a xlink:href="process__command_8c.html#a898fc3c3e6561eeb6f612098db5db51b" target="_top" xlink:title=" ">
<polygon fill="white" stroke="#666666" points="227.75,-96 159.25,-96 159.25,-76 227.75,-76 227.75,-96"/>
<text text-anchor="middle" x="193.5" y="-82.5" font-family="Helvetica,sans-Serif" font-size="10.00">is_in_teams</text>
</a>
</g>
</g>
<!-- Node1&#45;&gt;Node7 -->
<g id="edge6_Node000001_Node000007" class="edge">
<title>Node1&#45;&gt;Node7</title>
<g id="a_edge6_Node000001_Node000007"><a xlink:title=" ">
<path fill="none" stroke="#63b8ff" d="M98.81,-98.51C114.74,-96.39 132.36,-94.03 147.98,-91.95"/>
<polygon fill="#63b8ff" stroke="#63b8ff" points="147.99,-95.48 157.44,-90.68 147.07,-88.54 147.99,-95.48"/>
</a>
</g>
</g>
<!-- Node8 -->
<g id="Node000008" class="node">
<title>Node8</title>
<g id="a_Node000008"><a xlink:href="process__command_8c.html#a8cff9e7b414335547030008d046149ea" target="_top" xlink:title=" ">
<polygon fill="white" stroke="#666666" points="252.5,-58 134.5,-58 134.5,-38 252.5,-38 252.5,-58"/>
<text text-anchor="middle" x="193.5" y="-44.5" font-family="Helvetica,sans-Serif" font-size="10.00">new_connection_player</text>
</a>
</g>
</g>
<!-- Node1&#45;&gt;Node8 -->
<g id="edge7_Node000001_Node000008" class="edge">
<title>Node1&#45;&gt;Node8</title>
<g id="a_edge7_Node000001_Node000008"><a xlink:title=" ">
<path fill="none" stroke="#63b8ff" d="M71.8,-94.51C88.66,-86.49 112.81,-75.42 134.5,-67 138.83,-65.32 143.39,-63.65 147.95,-62.05"/>
<polygon fill="#63b8ff" stroke="#63b8ff" points="148.78,-65.47 157.11,-58.93 146.52,-58.84 148.78,-65.47"/>
</a>
</g>
</g>
<!-- Node4 -->
<g id="Node000004" class="node">
<title>Node4</title>
<g id="a_Node000004"><a xlink:href="exec__command_8c.html#ad90274df54695f20fc2a27f100a9631d" target="_top" xlink:title=" ">
<polygon fill="white" stroke="#666666" points="388.88,-172 309.12,-172 309.12,-152 388.88,-152 388.88,-172"/>
<text text-anchor="middle" x="349" y="-158.5" font-family="Helvetica,sans-Serif" font-size="10.00">add_command</text>
</a>
</g>
</g>
<!-- Node3&#45;&gt;Node4 -->
<g id="edge3_Node000003_Node000004" class="edge">
<title>Node3&#45;&gt;Node4</title>
<g id="a_edge3_Node000003_Node000004"><a xlink:title=" ">
<path fill="none" stroke="#63b8ff" d="M236.44,-134.38C255.38,-139.07 277.9,-144.65 297.73,-149.56"/>
<polygon fill="#63b8ff" stroke="#63b8ff" points="296.73,-152.91 307.27,-151.92 298.41,-146.12 296.73,-152.91"/>
</a>
</g>
</g>
<!-- Node5 -->
<g id="Node000005" class="node">
<title>Node5</title>
<g id="a_Node000005"><a xlink:href="process__command_8c.html#a2b111d6371b98a5cac5128eaedeeb78c" target="_top" xlink:title=" ">
<polygon fill="white" stroke="#666666" points="386.25,-134 311.75,-134 311.75,-114 386.25,-114 386.25,-134"/>
<text text-anchor="middle" x="349" y="-120.5" font-family="Helvetica,sans-Serif" font-size="10.00">realloc_strcat</text>
</a>
</g>
</g>
<!-- Node3&#45;&gt;Node5 -->
<g id="edge4_Node000003_Node000005" class="edge">
<title>Node3&#45;&gt;Node5</title>
<g id="a_edge4_Node000003_Node000005"><a xlink:title=" ">
<path fill="none" stroke="#63b8ff" d="M236.44,-124C256.13,-124 279.68,-124 300.06,-124"/>
<polygon fill="#63b8ff" stroke="#63b8ff" points="299.82,-127.5 309.82,-124 299.82,-120.5 299.82,-127.5"/>
</a>
</g>
</g>
<!-- Node6 -->
<g id="Node000006" class="node">
<title>Node6</title>
<g id="a_Node000006"><a xlink:href="exec__command_8c.html#a281a6f6738826e3f19f602813a1efa24" target="_top" xlink:title=" ">
<polygon fill="white" stroke="#666666" points="378.38,-96 319.62,-96 319.62,-76 378.38,-76 378.38,-96"/>
<text text-anchor="middle" x="349" y="-82.5" font-family="Helvetica,sans-Serif" font-size="10.00">set_upper</text>
</a>
</g>
</g>
<!-- Node3&#45;&gt;Node6 -->
<g id="edge5_Node000003_Node000006" class="edge">
<title>Node3&#45;&gt;Node6</title>
<g id="a_edge5_Node000003_Node000006"><a xlink:title=" ">
<path fill="none" stroke="#63b8ff" d="M236.44,-113.62C258.82,-108.08 286.2,-101.3 308.24,-95.84"/>
<polygon fill="#63b8ff" stroke="#63b8ff" points="308.88,-99.29 317.75,-93.49 307.2,-92.49 308.88,-99.29"/>
</a>
</g>
</g>
<!-- Node9 -->
<g id="Node000009" class="node">
<title>Node9</title>
<g id="a_Node000009"><a xlink:href="process__command_8c.html#a8a3b8c540ccb4af605b27bb69c92e02a" target="_top" xlink:title=" ">
<polygon fill="white" stroke="#666666" points="379.88,-58 318.12,-58 318.12,-38 379.88,-38 379.88,-58"/>
<text text-anchor="middle" x="349" y="-44.5" font-family="Helvetica,sans-Serif" font-size="10.00">return_egg</text>
</a>
</g>
</g>
<!-- Node8&#45;&gt;Node9 -->
<g id="edge8_Node000008_Node000009" class="edge">
<title>Node8&#45;&gt;Node9</title>
<g id="a_edge8_Node000008_Node000009"><a xlink:title=" ">
<path fill="none" stroke="#63b8ff" d="M252.97,-48C270.83,-48 290.1,-48 306.58,-48"/>
<polygon fill="#63b8ff" stroke="#63b8ff" points="306.52,-51.5 316.52,-48 306.52,-44.5 306.52,-51.5"/>
</a>
</g>
</g>
<!-- Node10 -->
<g id="Node000010" class="node">
<title>Node10</title>
<g id="a_Node000010"><a xlink:href="process__command_8c.html#a1f8760aac256de83bf45d6fe94c62cf2" target="_top" xlink:title=" ">
<polygon fill="white" stroke="#666666" points="409.5,-20 288.5,-20 288.5,0 409.5,0 409.5,-20"/>
<text text-anchor="middle" x="349" y="-6.5" font-family="Helvetica,sans-Serif" font-size="10.00">send_datas_new_player</text>
</a>
</g>
</g>
<!-- Node8&#45;&gt;Node10 -->
<g id="edge9_Node000008_Node000010" class="edge">
<title>Node8&#45;&gt;Node10</title>
<g id="a_edge9_Node000008_Node000010"><a xlink:title=" ">
<path fill="none" stroke="#63b8ff" d="M236.85,-37.52C254.72,-33.09 275.72,-27.89 294.63,-23.21"/>
<polygon fill="#63b8ff" stroke="#63b8ff" points="295.45,-26.61 304.32,-20.81 293.77,-19.82 295.45,-26.61"/>
</a>
</g>
</g>
<!-- Node11 -->
<g id="Node000011" class="node">
<title>Node11</title>
<g id="a_Node000011"><a xlink:href="process__command_8c.html#a08624952cec00b3168e63e05f4203f97" target="_top" xlink:title=" ">
<polygon fill="white" stroke="#666666" points="562,-20 445.5,-20 445.5,0 562,0 562,-20"/>
<text text-anchor="middle" x="503.75" y="-6.5" font-family="Helvetica,sans-Serif" font-size="10.00">send_data_to_graphics</text>
</a>
</g>
</g>
<!-- Node10&#45;&gt;Node11 -->
<g id="edge10_Node000010_Node000011" class="edge">
<title>Node10&#45;&gt;Node11</title>
<g id="a_edge10_Node000010_Node000011"><a xlink:title=" ">
<path fill="none" stroke="#63b8ff" d="M409.93,-10C417.89,-10 426.09,-10 434.17,-10"/>
<polygon fill="#63b8ff" stroke="#63b8ff" points="433.97,-13.5 443.97,-10 433.97,-6.5 433.97,-13.5"/>
</a>
</g>
</g>
</g>
</svg>
