<?xml version="1.0" encoding="UTF-8" standalone="no"?>
<!DOCTYPE svg PUBLIC "-//W3C//DTD SVG 1.1//EN"
 "http://www.w3.org/Graphics/SVG/1.1/DTD/svg11.dtd">
<!-- Generated by graphviz version 12.2.1 (20241206.2353)
 -->
<!-- Title: realloc_strcat Pages: 1 -->
<svg width="1256pt" height="28pt"
 viewBox="0.00 0.00 1255.50 28.00" xmlns="http://www.w3.org/2000/svg" xmlns:xlink="http://www.w3.org/1999/xlink">
<g id="graph0" class="graph" transform="scale(1 1) rotate(0) translate(4 24)">
<title>realloc_strcat</title>
<!-- Node1 -->
<g id="Node000001" class="node">
<title>Node1</title>
<g id="a_Node000001"><a xlink:title=" ">
<polygon fill="#999999" stroke="#666666" points="1247.5,-20 1173,-20 1173,0 1247.5,0 1247.5,-20"/>
<text text-anchor="middle" x="1210.25" y="-6.5" font-family="Helvetica,sans-Serif" font-size="10.00">realloc_strcat</text>
</a>
</g>
</g>
<!-- Node2 -->
<g id="Node000002" class="node">
<title>Node2</title>
<g id="a_Node000002"><a xlink:href="exec__command_8c.html#afbebbfaa69aaadda4d61c30a35b9dc40" target="_top" xlink:title=" ">
<polygon fill="white" stroke="#666666" points="1137,-20 1052,-20 1052,0 1137,0 1137,-20"/>
<text text-anchor="middle" x="1094.5" y="-6.5" font-family="Helvetica,sans-Serif" font-size="10.00">exec_command</text>
</a>
</g>
</g>
<!-- Node1&#45;&gt;Node2 -->
<g id="edge1_Node000001_Node000002" class="edge">
<title>Node1&#45;&gt;Node2</title>
<g id="a_edge1_Node000001_Node000002"><a xlink:title=" ">
<path fill="none" stroke="#63b8ff" d="M1161.19,-10C1153.21,-10 1144.99,-10 1137.19,-10"/>
<polygon fill="#63b8ff" stroke="#63b8ff" points="1161.12,-13.5 1171.12,-10 1161.12,-6.5 1161.12,-13.5"/>
</a>
</g>
</g>
<!-- Node3 -->
<g id="Node000003" class="node">
<title>Node3</title>
<g id="a_Node000003"><a xlink:href="process__command_8c.html#ab89f4829cb4a8daff7b88c8c7147c836" target="_top" xlink:title=" ">
<polygon fill="white" stroke="#666666" points="1016,-20 917.5,-20 917.5,0 1016,0 1016,-20"/>
<text text-anchor="middle" x="966.75" y="-6.5" font-family="Helvetica,sans-Serif" font-size="10.00">process_command</text>
</a>
</g>
</g>
<!-- Node2&#45;&gt;Node3 -->
<g id="edge2_Node000002_Node000003" class="edge">
<title>Node2&#45;&gt;Node3</title>
<g id="a_edge2_Node000002_Node000003"><a xlink:title=" ">
<path fill="none" stroke="#63b8ff" d="M1040.25,-10C1032.33,-10 1024.22,-10 1016.4,-10"/>
<polygon fill="#63b8ff" stroke="#63b8ff" points="1040.11,-13.5 1050.11,-10 1040.11,-6.5 1040.11,-13.5"/>
</a>
</g>
</g>
<!-- Node4 -->
<g id="Node000004" class="node">
<title>Node4</title>
<g id="a_Node000004"><a xlink:href="handle__commands_8c.html#a98cc233ffc0887c9cd54dbc4b4be1381" target="_top" xlink:title=" ">
<polygon fill="white" stroke="#666666" points="881.5,-20 762.75,-20 762.75,0 881.5,0 881.5,-20"/>
<text text-anchor="middle" x="822.12" y="-6.5" font-family="Helvetica,sans-Serif" font-size="10.00">process_command_line</text>
</a>
</g>
</g>
<!-- Node3&#45;&gt;Node4 -->
<g id="edge3_Node000003_Node000004" class="edge">
<title>Node3&#45;&gt;Node4</title>
<g id="a_edge3_Node000003_Node000004"><a xlink:title=" ">
<path fill="none" stroke="#63b8ff" d="M905.72,-10C897.85,-10 889.79,-10 881.94,-10"/>
<polygon fill="#63b8ff" stroke="#63b8ff" points="905.55,-13.5 915.55,-10 905.55,-6.5 905.55,-13.5"/>
</a>
</g>
</g>
<!-- Node5 -->
<g id="Node000005" class="node">
<title>Node5</title>
<g id="a_Node000005"><a xlink:href="handle__commands_8c.html#a375d7edcc6568dc2e11d1b7e2cff7ba3" target="_top" xlink:title=" ">
<polygon fill="white" stroke="#666666" points="726.75,-20 628.25,-20 628.25,0 726.75,0 726.75,-20"/>
<text text-anchor="middle" x="677.5" y="-6.5" font-family="Helvetica,sans-Serif" font-size="10.00">execute_command</text>
</a>
</g>
</g>
<!-- Node4&#45;&gt;Node5 -->
<g id="edge4_Node000004_Node000005" class="edge">
<title>Node4&#45;&gt;Node5</title>
<g id="a_edge4_Node000004_Node000005"><a xlink:title=" ">
<path fill="none" stroke="#63b8ff" d="M750.98,-10C742.95,-10 734.89,-10 727.22,-10"/>
<polygon fill="#63b8ff" stroke="#63b8ff" points="750.78,-13.5 760.78,-10 750.78,-6.5 750.78,-13.5"/>
</a>
</g>
</g>
<!-- Node6 -->
<g id="Node000006" class="node">
<title>Node6</title>
<g id="a_Node000006"><a xlink:href="command_8c.html#ad5ab8f8763157c7c6779aefec5223821" target="_top" xlink:title=" ">
<polygon fill="white" stroke="#666666" points="592.25,-20 505,-20 505,0 592.25,0 592.25,-20"/>
<text text-anchor="middle" x="548.62" y="-6.5" font-family="Helvetica,sans-Serif" font-size="10.00">get_client_buffer</text>
</a>
</g>
</g>
<!-- Node5&#45;&gt;Node6 -->
<g id="edge5_Node000005_Node000006" class="edge">
<title>Node5&#45;&gt;Node6</title>
<g id="a_edge5_Node000005_Node000006"><a xlink:title=" ">
<path fill="none" stroke="#63b8ff" d="M616.5,-10C608.43,-10 600.29,-10 592.59,-10"/>
<polygon fill="#63b8ff" stroke="#63b8ff" points="616.3,-13.5 626.3,-10 616.3,-6.5 616.3,-13.5"/>
</a>
</g>
</g>
<!-- Node7 -->
<g id="Node000007" class="node">
<title>Node7</title>
<g id="a_Node000007"><a xlink:href="command_8c.html#a89c794fd58c4d9f580afb6ecd5e91dc4" target="_top" xlink:title=" ">
<polygon fill="white" stroke="#666666" points="469,-20 348,-20 348,0 469,0 469,-20"/>
<text text-anchor="middle" x="408.5" y="-6.5" font-family="Helvetica,sans-Serif" font-size="10.00">handle_client_command</text>
</a>
</g>
</g>
<!-- Node6&#45;&gt;Node7 -->
<g id="edge6_Node000006_Node000007" class="edge">
<title>Node6&#45;&gt;Node7</title>
<g id="a_edge6_Node000006_Node000007"><a xlink:title=" ">
<path fill="none" stroke="#63b8ff" d="M493.39,-10C485.52,-10 477.38,-10 469.41,-10"/>
<polygon fill="#63b8ff" stroke="#63b8ff" points="493.17,-13.5 503.16,-10 493.16,-6.5 493.17,-13.5"/>
</a>
</g>
</g>
<!-- Node8 -->
<g id="Node000008" class="node">
<title>Node8</title>
<g id="a_Node000008"><a xlink:href="zappy_8c.html#a546faa7b19427abaa0c156a70b4ff185" target="_top" xlink:title=" ">
<polygon fill="white" stroke="#666666" points="312,-20 176.75,-20 176.75,0 312,0 312,-20"/>
<text text-anchor="middle" x="244.38" y="-6.5" font-family="Helvetica,sans-Serif" font-size="10.00">check_for_client_command</text>
</a>
</g>
</g>
<!-- Node7&#45;&gt;Node8 -->
<g id="edge7_Node000007_Node000008" class="edge">
<title>Node7&#45;&gt;Node8</title>
<g id="a_edge7_Node000007_Node000008"><a xlink:title=" ">
<path fill="none" stroke="#63b8ff" d="M336.15,-10C328.26,-10 320.25,-10 312.41,-10"/>
<polygon fill="#63b8ff" stroke="#63b8ff" points="336.08,-13.5 346.08,-10 336.08,-6.5 336.08,-13.5"/>
</a>
</g>
</g>
<!-- Node9 -->
<g id="Node000009" class="node">
<title>Node9</title>
<g id="a_Node000009"><a xlink:href="zappy_8c.html#a9b9af6be5e3898616b325720d9f29dbc" target="_top" xlink:title=" ">
<polygon fill="white" stroke="#666666" points="140.75,-20 73,-20 73,0 140.75,0 140.75,-20"/>
<text text-anchor="middle" x="106.88" y="-6.5" font-family="Helvetica,sans-Serif" font-size="10.00">start_server</text>
</a>
</g>
</g>
<!-- Node8&#45;&gt;Node9 -->
<g id="edge8_Node000008_Node000009" class="edge">
<title>Node8&#45;&gt;Node9</title>
<g id="a_edge8_Node000008_Node000009"><a xlink:title=" ">
<path fill="none" stroke="#63b8ff" d="M164.96,-10C156.62,-10 148.5,-10 141.12,-10"/>
<polygon fill="#63b8ff" stroke="#63b8ff" points="164.91,-13.5 174.91,-10 164.91,-6.5 164.91,-13.5"/>
</a>
</g>
</g>
<!-- Node10 -->
<g id="Node000010" class="node">
<title>Node10</title>
<g id="a_Node000010"><a xlink:href="main_8c.html#a0c99d968a34e803d378692bde2e3f18f" target="_top" xlink:title=" ">
<polygon fill="white" stroke="#666666" points="37,-20 0,-20 0,0 37,0 37,-20"/>
<text text-anchor="middle" x="18.5" y="-6.5" font-family="Helvetica,sans-Serif" font-size="10.00">main</text>
</a>
</g>
</g>
<!-- Node9&#45;&gt;Node10 -->
<g id="edge9_Node000009_Node000010" class="edge">
<title>Node9&#45;&gt;Node10</title>
<g id="a_edge9_Node000009_Node000010"><a xlink:title=" ">
<path fill="none" stroke="#63b8ff" d="M61.29,-10C52.84,-10 44.47,-10 37.46,-10"/>
<polygon fill="#63b8ff" stroke="#63b8ff" points="61.21,-13.5 71.21,-10 61.21,-6.5 61.21,-13.5"/>
</a>
</g>
</g>
</g>
</svg>
