<?xml version="1.0" encoding="UTF-8" standalone="no"?>
<!DOCTYPE svg PUBLIC "-//W3C//DTD SVG 1.1//EN"
 "http://www.w3.org/Graphics/SVG/1.1/DTD/svg11.dtd">
<!-- Generated by graphviz version 12.2.1 (20241206.2353)
 -->
<!-- Title: create_server Pages: 1 -->
<svg width="304pt" height="218pt"
 viewBox="0.00 0.00 304.25 218.00" xmlns="http://www.w3.org/2000/svg" xmlns:xlink="http://www.w3.org/1999/xlink">
<g id="graph0" class="graph" transform="scale(1 1) rotate(0) translate(4 214)">
<title>create_server</title>
<!-- Node1 -->
<g id="Node000001" class="node">
<title>Node1</title>
<g id="a_Node000001"><a xlink:title=" ">
<polygon fill="#999999" stroke="#666666" points="75.25,-115 0,-115 0,-95 75.25,-95 75.25,-115"/>
<text text-anchor="middle" x="37.62" y="-101.5" font-family="Helvetica,sans-Serif" font-size="10.00">create_server</text>
</a>
</g>
</g>
<!-- Node2 -->
<g id="Node000002" class="node">
<title>Node2</title>
<g id="a_Node000002"><a xlink:href="server_8c.html#ad413d984a2bab87e775126974290386f" target="_top" xlink:title=" ">
<polygon fill="white" stroke="#666666" points="184.25,-210 115.75,-210 115.75,-190 184.25,-190 184.25,-210"/>
<text text-anchor="middle" x="150" y="-196.5" font-family="Helvetica,sans-Serif" font-size="10.00">bind_socket</text>
</a>
</g>
</g>
<!-- Node1&#45;&gt;Node2 -->
<g id="edge1_Node000001_Node000002" class="edge">
<title>Node1&#45;&gt;Node2</title>
<g id="a_edge1_Node000001_Node000002"><a xlink:title=" ">
<path fill="none" stroke="#63b8ff" d="M47.89,-115.33C61.15,-129.79 86.65,-156.5 111.25,-176 114.55,-178.61 118.14,-181.2 121.76,-183.64"/>
<polygon fill="#63b8ff" stroke="#63b8ff" points="119.62,-186.43 129.92,-188.91 123.42,-180.55 119.62,-186.43"/>
</a>
</g>
</g>
<!-- Node3 -->
<g id="Node000003" class="node">
<title>Node3</title>
<g id="a_Node000003"><a xlink:href="parser_8c.html#a3fd716b111caa8f93098f7e5070fd0bb" target="_top" xlink:title=" ">
<polygon fill="white" stroke="#666666" points="296.25,-115 224.75,-115 224.75,-95 296.25,-95 296.25,-115"/>
<text text-anchor="middle" x="260.5" y="-101.5" font-family="Helvetica,sans-Serif" font-size="10.00">display_error</text>
</a>
</g>
</g>
<!-- Node1&#45;&gt;Node3 -->
<g id="edge9_Node000001_Node000003" class="edge">
<title>Node1&#45;&gt;Node3</title>
<g id="a_edge9_Node000001_Node000003"><a xlink:title=" ">
<path fill="none" stroke="#63b8ff" d="M53.34,-115.44C67.44,-124.75 89.69,-137.7 111.25,-143 144.7,-151.22 155.35,-151.4 188.75,-143 205.39,-138.81 222.39,-129.87 235.55,-121.71"/>
<polygon fill="#63b8ff" stroke="#63b8ff" points="237.45,-124.64 243.93,-116.26 233.64,-118.77 237.45,-124.64"/>
</a>
</g>
</g>
<!-- Node4 -->
<g id="Node000004" class="node">
<title>Node4</title>
<g id="a_Node000004"><a xlink:href="server_8c.html#a867bd0247d5df0c9253fb5ebe2d3e9e3" target="_top" xlink:title=" ">
<polygon fill="white" stroke="#666666" points="188.38,-134 111.62,-134 111.62,-114 188.38,-114 188.38,-134"/>
<text text-anchor="middle" x="150" y="-120.5" font-family="Helvetica,sans-Serif" font-size="10.00">config_socket</text>
</a>
</g>
</g>
<!-- Node1&#45;&gt;Node4 -->
<g id="edge3_Node000001_Node000004" class="edge">
<title>Node1&#45;&gt;Node4</title>
<g id="a_edge3_Node000001_Node000004"><a xlink:title=" ">
<path fill="none" stroke="#63b8ff" d="M75.69,-111.38C83.61,-112.74 92.09,-114.2 100.37,-115.63"/>
<polygon fill="#63b8ff" stroke="#63b8ff" points="99.53,-119.04 109.98,-117.28 100.72,-112.14 99.53,-119.04"/>
</a>
</g>
</g>
<!-- Node5 -->
<g id="Node000005" class="node">
<title>Node5</title>
<g id="a_Node000005"><a xlink:href="server_8c.html#a541cadeb7343af51fcf8fc5fd8b7fd90" target="_top" xlink:title=" ">
<polygon fill="white" stroke="#666666" points="181.62,-96 118.38,-96 118.38,-76 181.62,-76 181.62,-96"/>
<text text-anchor="middle" x="150" y="-82.5" font-family="Helvetica,sans-Serif" font-size="10.00">create_poll</text>
</a>
</g>
</g>
<!-- Node1&#45;&gt;Node5 -->
<g id="edge5_Node000001_Node000005" class="edge">
<title>Node1&#45;&gt;Node5</title>
<g id="a_edge5_Node000001_Node000005"><a xlink:title=" ">
<path fill="none" stroke="#63b8ff" d="M75.69,-98.62C85.7,-96.9 96.6,-95.02 106.87,-93.25"/>
<polygon fill="#63b8ff" stroke="#63b8ff" points="107.35,-96.72 116.61,-91.57 106.16,-89.82 107.35,-96.72"/>
</a>
</g>
</g>
<!-- Node6 -->
<g id="Node000006" class="node">
<title>Node6</title>
<g id="a_Node000006"><a xlink:href="server_8c.html#a87a34e188b621431ddbea361489c1f00" target="_top" xlink:title=" ">
<polygon fill="white" stroke="#666666" points="188.75,-58 111.25,-58 111.25,-38 188.75,-38 188.75,-58"/>
<text text-anchor="middle" x="150" y="-44.5" font-family="Helvetica,sans-Serif" font-size="10.00">create_socket</text>
</a>
</g>
</g>
<!-- Node1&#45;&gt;Node6 -->
<g id="edge7_Node000001_Node000006" class="edge">
<title>Node1&#45;&gt;Node6</title>
<g id="a_edge7_Node000001_Node000006"><a xlink:title=" ">
<path fill="none" stroke="#63b8ff" d="M58.31,-94.59C72.89,-86.91 93.27,-76.23 111.25,-67 113.48,-65.86 115.78,-64.68 118.1,-63.5"/>
<polygon fill="#63b8ff" stroke="#63b8ff" points="119.51,-66.71 126.85,-59.08 116.35,-60.47 119.51,-66.71"/>
</a>
</g>
</g>
<!-- Node7 -->
<g id="Node000007" class="node">
<title>Node7</title>
<g id="a_Node000007"><a xlink:href="server_8c.html#a5bd9817af61fc4a4087d8c1ac518cd34" target="_top" xlink:title=" ">
<polygon fill="white" stroke="#666666" points="186.88,-20 113.12,-20 113.12,0 186.88,0 186.88,-20"/>
<text text-anchor="middle" x="150" y="-6.5" font-family="Helvetica,sans-Serif" font-size="10.00">listen_socket</text>
</a>
</g>
</g>
<!-- Node1&#45;&gt;Node7 -->
<g id="edge10_Node000001_Node000007" class="edge">
<title>Node1&#45;&gt;Node7</title>
<g id="a_edge10_Node000001_Node000007"><a xlink:title=" ">
<path fill="none" stroke="#63b8ff" d="M46.63,-94.57C59.11,-78.84 84.55,-48.76 111.25,-29 112.58,-28.02 113.96,-27.06 115.39,-26.13"/>
<polygon fill="#63b8ff" stroke="#63b8ff" points="116.93,-29.29 123.8,-21.23 113.4,-23.24 116.93,-29.29"/>
</a>
</g>
</g>
<!-- Node2&#45;&gt;Node3 -->
<g id="edge2_Node000002_Node000003" class="edge">
<title>Node2&#45;&gt;Node3</title>
<g id="a_edge2_Node000002_Node000003"><a xlink:title=" ">
<path fill="none" stroke="#63b8ff" d="M169.22,-189.54C175.61,-185.59 182.7,-180.86 188.75,-176 208.75,-159.94 229.17,-138.83 242.9,-123.82"/>
<polygon fill="#63b8ff" stroke="#63b8ff" points="245.42,-126.25 249.51,-116.48 240.22,-121.57 245.42,-126.25"/>
</a>
</g>
</g>
<!-- Node4&#45;&gt;Node3 -->
<g id="edge4_Node000004_Node000003" class="edge">
<title>Node4&#45;&gt;Node3</title>
<g id="a_edge4_Node000004_Node000003"><a xlink:title=" ">
<path fill="none" stroke="#63b8ff" d="M188.64,-117.41C196.55,-116.02 204.97,-114.55 213.15,-113.12"/>
<polygon fill="#63b8ff" stroke="#63b8ff" points="213.74,-116.57 222.98,-111.39 212.53,-109.67 213.74,-116.57"/>
</a>
</g>
</g>
<!-- Node5&#45;&gt;Node3 -->
<g id="edge6_Node000005_Node000003" class="edge">
<title>Node5&#45;&gt;Node3</title>
<g id="a_edge6_Node000005_Node000003"><a xlink:title=" ">
<path fill="none" stroke="#63b8ff" d="M182.09,-91.44C191.84,-93.15 202.82,-95.07 213.38,-96.92"/>
<polygon fill="#63b8ff" stroke="#63b8ff" points="212.64,-100.35 223.1,-98.63 213.85,-93.45 212.64,-100.35"/>
</a>
</g>
</g>
<!-- Node6&#45;&gt;Node3 -->
<g id="edge8_Node000006_Node000003" class="edge">
<title>Node6&#45;&gt;Node3</title>
<g id="a_edge8_Node000006_Node000003"><a xlink:title=" ">
<path fill="none" stroke="#63b8ff" d="M171.82,-58.35C177.34,-61.13 183.28,-64.16 188.75,-67 202.47,-74.14 217.59,-82.22 230.31,-89.1"/>
<polygon fill="#63b8ff" stroke="#63b8ff" points="228.56,-92.13 239.02,-93.82 231.9,-85.98 228.56,-92.13"/>
</a>
</g>
</g>
<!-- Node7&#45;&gt;Node3 -->
<g id="edge11_Node000007_Node000003" class="edge">
<title>Node7&#45;&gt;Node3</title>
<g id="a_edge11_Node000007_Node000003"><a xlink:title=" ">
<path fill="none" stroke="#63b8ff" d="M174.92,-20.42C179.69,-22.94 184.52,-25.83 188.75,-29 210.69,-45.46 231.54,-69.2 244.85,-85.75"/>
<polygon fill="#63b8ff" stroke="#63b8ff" points="241.9,-87.66 250.83,-93.37 247.4,-83.34 241.9,-87.66"/>
</a>
</g>
</g>
</g>
</svg>
