<?xml version="1.0" encoding="UTF-8" standalone="no"?>
<!DOCTYPE svg PUBLIC "-//W3C//DTD SVG 1.1//EN"
 "http://www.w3.org/Graphics/SVG/1.1/DTD/svg11.dtd">
<!-- Generated by graphviz version 12.2.1 (20241206.2353)
 -->
<!-- Title: check_for_new_client Pages: 1 -->
<svg width="744pt" height="170pt"
 viewBox="0.00 0.00 743.75 170.00" xmlns="http://www.w3.org/2000/svg" xmlns:xlink="http://www.w3.org/1999/xlink">
<g id="graph0" class="graph" transform="scale(1 1) rotate(0) translate(4 166)">
<title>check_for_new_client</title>
<!-- Node1 -->
<g id="Node000001" class="node">
<title>Node1</title>
<g id="a_Node000001"><a xlink:title=" ">
<polygon fill="#999999" stroke="#666666" points="110.5,-29 0,-29 0,-9 110.5,-9 110.5,-29"/>
<text text-anchor="middle" x="55.25" y="-15.5" font-family="Helvetica,sans-Serif" font-size="10.00">check_for_new_client</text>
</a>
</g>
</g>
<!-- Node2 -->
<g id="Node000002" class="node">
<title>Node2</title>
<g id="a_Node000002"><a xlink:href="client_8c.html#ae130c56fc8c99be8b6393fe8098f59a9" target="_top" xlink:title=" ">
<polygon fill="white" stroke="#666666" points="206.75,-48 146.5,-48 146.5,-28 206.75,-28 206.75,-48"/>
<text text-anchor="middle" x="176.62" y="-34.5" font-family="Helvetica,sans-Serif" font-size="10.00">add_client</text>
</a>
</g>
</g>
<!-- Node1&#45;&gt;Node2 -->
<g id="edge1_Node000001_Node000002" class="edge">
<title>Node1&#45;&gt;Node2</title>
<g id="a_edge1_Node000001_Node000002"><a xlink:title=" ">
<path fill="none" stroke="#63b8ff" d="M110.7,-27.67C118.78,-28.95 127,-30.26 134.74,-31.49"/>
<polygon fill="#63b8ff" stroke="#63b8ff" points="134.13,-34.94 144.56,-33.06 135.24,-28.03 134.13,-34.94"/>
</a>
</g>
</g>
<!-- Node6 -->
<g id="Node000006" class="node">
<title>Node6</title>
<g id="a_Node000006"><a xlink:href="parser_8c.html#a3fd716b111caa8f93098f7e5070fd0bb" target="_top" xlink:title=" ">
<polygon fill="white" stroke="#666666" points="735.75,-86 664.25,-86 664.25,-66 735.75,-66 735.75,-86"/>
<text text-anchor="middle" x="700" y="-72.5" font-family="Helvetica,sans-Serif" font-size="10.00">display_error</text>
</a>
</g>
</g>
<!-- Node1&#45;&gt;Node6 -->
<g id="edge9_Node000001_Node000006" class="edge">
<title>Node1&#45;&gt;Node6</title>
<g id="a_edge9_Node000001_Node000006"><a xlink:title=" ">
<path fill="none" stroke="#63b8ff" d="M110.88,-11.87C156.92,-6.48 224.59,0 283.88,0 283.88,0 283.88,0 426,0 516.07,0 616.92,-38.86 667.08,-61.01"/>
<polygon fill="#63b8ff" stroke="#63b8ff" points="665.34,-64.07 675.9,-64.97 668.21,-57.68 665.34,-64.07"/>
</a>
</g>
</g>
<!-- Node3 -->
<g id="Node000003" class="node">
<title>Node3</title>
<g id="a_Node000003"><a xlink:href="client_8c.html#a143835100e57a86e1106918450df6887" target="_top" xlink:title=" ">
<polygon fill="white" stroke="#666666" points="327,-86 242.75,-86 242.75,-66 327,-66 327,-86"/>
<text text-anchor="middle" x="284.88" y="-72.5" font-family="Helvetica,sans-Serif" font-size="10.00">add_client_data</text>
</a>
</g>
</g>
<!-- Node2&#45;&gt;Node3 -->
<g id="edge2_Node000002_Node000003" class="edge">
<title>Node2&#45;&gt;Node3</title>
<g id="a_edge2_Node000002_Node000003"><a xlink:title=" ">
<path fill="none" stroke="#63b8ff" d="M206.94,-48.48C218.44,-52.6 231.81,-57.38 244.15,-61.79"/>
<polygon fill="#63b8ff" stroke="#63b8ff" points="242.64,-64.97 253.23,-65.04 244.99,-58.38 242.64,-64.97"/>
</a>
</g>
</g>
<!-- Node2&#45;&gt;Node6 -->
<g id="edge8_Node000002_Node000006" class="edge">
<title>Node2&#45;&gt;Node6</title>
<g id="a_edge8_Node000002_Node000006"><a xlink:title=" ">
<path fill="none" stroke="#63b8ff" d="M207.15,-40.15C293.73,-46.46 547.49,-64.96 652.59,-72.62"/>
<polygon fill="#63b8ff" stroke="#63b8ff" points="652.02,-76.09 662.25,-73.32 652.53,-69.1 652.02,-76.09"/>
</a>
</g>
</g>
<!-- Node4 -->
<g id="Node000004" class="node">
<title>Node4</title>
<g id="a_Node000004"><a xlink:href="command_8c.html#a7ea78ee6c9551b3b281b8dc72f4e2f1f" target="_top" xlink:title=" ">
<polygon fill="white" stroke="#666666" points="487,-124 363,-124 363,-104 487,-104 487,-124"/>
<text text-anchor="middle" x="425" y="-110.5" font-family="Helvetica,sans-Serif" font-size="10.00">append_client_out_buffer</text>
</a>
</g>
</g>
<!-- Node3&#45;&gt;Node4 -->
<g id="edge3_Node000003_Node000004" class="edge">
<title>Node3&#45;&gt;Node4</title>
<g id="a_edge3_Node000003_Node000004"><a xlink:title=" ">
<path fill="none" stroke="#63b8ff" d="M323.98,-86.48C339.84,-90.85 358.43,-95.96 375.26,-100.59"/>
<polygon fill="#63b8ff" stroke="#63b8ff" points="373.99,-103.87 384.56,-103.15 375.84,-97.12 373.99,-103.87"/>
</a>
</g>
</g>
<!-- Node3&#45;&gt;Node6 -->
<g id="edge7_Node000003_Node000006" class="edge">
<title>Node3&#45;&gt;Node6</title>
<g id="a_edge7_Node000003_Node000006"><a xlink:title=" ">
<path fill="none" stroke="#63b8ff" d="M327.38,-76C404.9,-76 571.18,-76 652.41,-76"/>
<polygon fill="#63b8ff" stroke="#63b8ff" points="652.25,-79.5 662.25,-76 652.25,-72.5 652.25,-79.5"/>
</a>
</g>
</g>
<!-- Node5 -->
<g id="Node000005" class="node">
<title>Node5</title>
<g id="a_Node000005"><a xlink:href="command_8c.html#ae945a1521c2b6067022aafe003579548" target="_top" xlink:title=" ">
<polygon fill="white" stroke="#666666" points="628.25,-162 523,-162 523,-142 628.25,-142 628.25,-162"/>
<text text-anchor="middle" x="575.62" y="-148.5" font-family="Helvetica,sans-Serif" font-size="10.00">append_client_buffer</text>
</a>
</g>
</g>
<!-- Node4&#45;&gt;Node5 -->
<g id="edge4_Node000004_Node000005" class="edge">
<title>Node4&#45;&gt;Node5</title>
<g id="a_edge4_Node000004_Node000005"><a xlink:title=" ">
<path fill="none" stroke="#63b8ff" d="M467.01,-124.48C484.23,-128.89 504.45,-134.06 522.7,-138.72"/>
<polygon fill="#63b8ff" stroke="#63b8ff" points="521.73,-142.09 532.29,-141.18 523.47,-135.31 521.73,-142.09"/>
</a>
</g>
</g>
<!-- Node4&#45;&gt;Node6 -->
<g id="edge6_Node000004_Node000006" class="edge">
<title>Node4&#45;&gt;Node6</title>
<g id="a_edge6_Node000004_Node000006"><a xlink:title=" ">
<path fill="none" stroke="#63b8ff" d="M487.24,-107.98C527.43,-103.72 581.1,-97.45 628.25,-90 636.15,-88.75 644.52,-87.25 652.62,-85.71"/>
<polygon fill="#63b8ff" stroke="#63b8ff" points="653.2,-89.16 662.34,-83.81 651.86,-82.29 653.2,-89.16"/>
</a>
</g>
</g>
<!-- Node5&#45;&gt;Node6 -->
<g id="edge5_Node000005_Node000006" class="edge">
<title>Node5&#45;&gt;Node6</title>
<g id="a_edge5_Node000005_Node000006"><a xlink:title=" ">
<path fill="none" stroke="#63b8ff" d="M601.56,-141.62C610.2,-137.7 619.83,-132.98 628.25,-128 645.73,-117.65 664.18,-103.99 677.86,-93.26"/>
<polygon fill="#63b8ff" stroke="#63b8ff" points="679.67,-96.3 685.31,-87.33 675.3,-90.82 679.67,-96.3"/>
</a>
</g>
</g>
</g>
</svg>
