<?xml version="1.0" encoding="UTF-8" standalone="no"?>
<!DOCTYPE svg PUBLIC "-//W3C//DTD SVG 1.1//EN"
 "http://www.w3.org/Graphics/SVG/1.1/DTD/svg11.dtd">
<!-- Generated by graphviz version 12.2.1 (20241206.2353)
 -->
<!-- Title: start_server Pages: 1 -->
<svg width="1611pt" height="455pt"
 viewBox="0.00 0.00 1610.50 455.00" xmlns="http://www.w3.org/2000/svg" xmlns:xlink="http://www.w3.org/1999/xlink">
<g id="graph0" class="graph" transform="scale(1 1) rotate(0) translate(4 451)">
<title>start_server</title>
<!-- Node1 -->
<g id="Node000001" class="node">
<title>Node1</title>
<g id="a_Node000001"><a xlink:title=" ">
<polygon fill="#999999" stroke="#666666" points="67.75,-400 0,-400 0,-380 67.75,-380 67.75,-400"/>
<text text-anchor="middle" x="33.88" y="-386.5" font-family="Helvetica,sans-Serif" font-size="10.00">start_server</text>
</a>
</g>
</g>
<!-- Node2 -->
<g id="Node000002" class="node">
<title>Node2</title>
<g id="a_Node000002"><a xlink:href="zappy_8c.html#a546faa7b19427abaa0c156a70b4ff185" target="_top" xlink:title=" ">
<polygon fill="white" stroke="#666666" points="385.5,-229 250.25,-229 250.25,-209 385.5,-209 385.5,-229"/>
<text text-anchor="middle" x="317.88" y="-215.5" font-family="Helvetica,sans-Serif" font-size="10.00">check_for_client_command</text>
</a>
</g>
</g>
<!-- Node1&#45;&gt;Node2 -->
<g id="edge1_Node000001_Node000002" class="edge">
<title>Node1&#45;&gt;Node2</title>
<g id="a_edge1_Node000001_Node000002"><a xlink:title=" ">
<path fill="none" stroke="#63b8ff" d="M52.09,-379.56C99.6,-350.75 232.8,-269.98 290.1,-235.23"/>
<polygon fill="#63b8ff" stroke="#63b8ff" points="291.85,-238.27 298.59,-230.09 288.22,-232.28 291.85,-238.27"/>
</a>
</g>
</g>
<!-- Node6 -->
<g id="Node000006" class="node">
<title>Node6</title>
<g id="a_Node000006"><a xlink:href="parser_8c.html#a3fd716b111caa8f93098f7e5070fd0bb" target="_top" xlink:title=" ">
<polygon fill="white" stroke="#666666" points="974.88,-324 903.38,-324 903.38,-304 974.88,-304 974.88,-324"/>
<text text-anchor="middle" x="939.12" y="-310.5" font-family="Helvetica,sans-Serif" font-size="10.00">display_error</text>
</a>
</g>
</g>
<!-- Node1&#45;&gt;Node6 -->
<g id="edge36_Node000001_Node000006" class="edge">
<title>Node1&#45;&gt;Node6</title>
<g id="a_edge36_Node000001_Node000006"><a xlink:title=" ">
<path fill="none" stroke="#63b8ff" d="M65.76,-400.45C117.2,-416.91 223.97,-447 316.88,-447 316.88,-447 316.88,-447 641.5,-447 734.65,-447 761.04,-434.86 843.75,-392 873.75,-376.45 902.89,-350.13 920.66,-332.42"/>
<polygon fill="#63b8ff" stroke="#63b8ff" points="922.87,-335.17 927.37,-325.58 917.87,-330.27 922.87,-335.17"/>
</a>
</g>
</g>
<!-- Node26 -->
<g id="Node000026" class="node">
<title>Node26</title>
<g id="a_Node000026"><a xlink:href="zappy_8c.html#a6ffb860722d91e8898827740a227b495" target="_top" xlink:title=" ">
<polygon fill="white" stroke="#666666" points="214.25,-400 103.75,-400 103.75,-380 214.25,-380 214.25,-400"/>
<text text-anchor="middle" x="159" y="-386.5" font-family="Helvetica,sans-Serif" font-size="10.00">check_for_new_client</text>
</a>
</g>
</g>
<!-- Node1&#45;&gt;Node26 -->
<g id="edge27_Node000001_Node000026" class="edge">
<title>Node1&#45;&gt;Node26</title>
<g id="a_edge27_Node000001_Node000026"><a xlink:title=" ">
<path fill="none" stroke="#63b8ff" d="M68.19,-390C75.64,-390 83.78,-390 92.03,-390"/>
<polygon fill="#63b8ff" stroke="#63b8ff" points="91.78,-393.5 101.78,-390 91.78,-386.5 91.78,-393.5"/>
</a>
</g>
</g>
<!-- Node3 -->
<g id="Node000003" class="node">
<title>Node3</title>
<g id="a_Node000003"><a xlink:href="command_8c.html#a89c794fd58c4d9f580afb6ecd5e91dc4" target="_top" xlink:title=" ">
<polygon fill="white" stroke="#666666" points="542.5,-229 421.5,-229 421.5,-209 542.5,-209 542.5,-229"/>
<text text-anchor="middle" x="482" y="-215.5" font-family="Helvetica,sans-Serif" font-size="10.00">handle_client_command</text>
</a>
</g>
</g>
<!-- Node2&#45;&gt;Node3 -->
<g id="edge2_Node000002_Node000003" class="edge">
<title>Node2&#45;&gt;Node3</title>
<g id="a_edge2_Node000002_Node000003"><a xlink:title=" ">
<path fill="none" stroke="#63b8ff" d="M385.75,-219C393.61,-219 401.64,-219 409.55,-219"/>
<polygon fill="#63b8ff" stroke="#63b8ff" points="409.51,-222.5 419.51,-219 409.51,-215.5 409.51,-222.5"/>
</a>
</g>
</g>
<!-- Node25 -->
<g id="Node000025" class="node">
<title>Node25</title>
<g id="a_Node000025"><a xlink:href="command_8c.html#aaeaed8798ac2263a423d9a9a2f4e3ed0" target="_top" xlink:title=" ">
<polygon fill="white" stroke="#666666" points="697.25,-163 583.75,-163 583.75,-143 697.25,-143 697.25,-163"/>
<text text-anchor="middle" x="640.5" y="-149.5" font-family="Helvetica,sans-Serif" font-size="10.00">send_client_command</text>
</a>
</g>
</g>
<!-- Node2&#45;&gt;Node25 -->
<g id="edge25_Node000002_Node000025" class="edge">
<title>Node2&#45;&gt;Node25</title>
<g id="a_edge25_Node000002_Node000025"><a xlink:title=" ">
<path fill="none" stroke="#63b8ff" d="M369.68,-208.54C426.11,-196.92 517.23,-178.17 577.74,-165.71"/>
<polygon fill="#63b8ff" stroke="#63b8ff" points="578.1,-169.21 587.19,-163.77 576.69,-162.36 578.1,-169.21"/>
</a>
</g>
</g>
<!-- Node4 -->
<g id="Node000004" class="node">
<title>Node4</title>
<g id="a_Node000004"><a xlink:href="command_8c.html#ad5ab8f8763157c7c6779aefec5223821" target="_top" xlink:title=" ">
<polygon fill="white" stroke="#666666" points="684.12,-229 596.88,-229 596.88,-209 684.12,-209 684.12,-229"/>
<text text-anchor="middle" x="640.5" y="-215.5" font-family="Helvetica,sans-Serif" font-size="10.00">get_client_buffer</text>
</a>
</g>
</g>
<!-- Node3&#45;&gt;Node4 -->
<g id="edge3_Node000003_Node000004" class="edge">
<title>Node3&#45;&gt;Node4</title>
<g id="a_edge3_Node000003_Node000004"><a xlink:title=" ">
<path fill="none" stroke="#63b8ff" d="M542.61,-219C556.65,-219 571.54,-219 585.32,-219"/>
<polygon fill="#63b8ff" stroke="#63b8ff" points="585.08,-222.5 595.08,-219 585.08,-215.5 585.08,-222.5"/>
</a>
</g>
</g>
<!-- Node5 -->
<g id="Node000005" class="node">
<title>Node5</title>
<g id="a_Node000005"><a xlink:href="command_8c.html#ae945a1521c2b6067022aafe003579548" target="_top" xlink:title=" ">
<polygon fill="white" stroke="#666666" points="843.75,-267 738.5,-267 738.5,-247 843.75,-247 843.75,-267"/>
<text text-anchor="middle" x="791.12" y="-253.5" font-family="Helvetica,sans-Serif" font-size="10.00">append_client_buffer</text>
</a>
</g>
</g>
<!-- Node4&#45;&gt;Node5 -->
<g id="edge4_Node000004_Node000005" class="edge">
<title>Node4&#45;&gt;Node5</title>
<g id="a_edge4_Node000004_Node000005"><a xlink:title=" ">
<path fill="none" stroke="#63b8ff" d="M682.51,-229.48C699.73,-233.89 719.95,-239.06 738.2,-243.72"/>
<polygon fill="#63b8ff" stroke="#63b8ff" points="737.23,-247.09 747.79,-246.18 738.97,-240.31 737.23,-247.09"/>
</a>
</g>
</g>
<!-- Node4&#45;&gt;Node6 -->
<g id="edge6_Node000004_Node000006" class="edge">
<title>Node4&#45;&gt;Node6</title>
<g id="a_edge6_Node000004_Node000006"><a xlink:title=" ">
<path fill="none" stroke="#63b8ff" d="M684.23,-216.03C726.36,-214.68 791.8,-216.9 843.75,-238 875.07,-250.72 904.26,-277.42 921.65,-295.53"/>
<polygon fill="#63b8ff" stroke="#63b8ff" points="918.79,-297.6 928.16,-302.53 923.91,-292.83 918.79,-297.6"/>
</a>
</g>
</g>
<!-- Node7 -->
<g id="Node000007" class="node">
<title>Node7</title>
<g id="a_Node000007"><a xlink:href="handle__commands_8c.html#a375d7edcc6568dc2e11d1b7e2cff7ba3" target="_top" xlink:title=" ">
<polygon fill="white" stroke="#666666" points="840.38,-191 741.88,-191 741.88,-171 840.38,-171 840.38,-191"/>
<text text-anchor="middle" x="791.12" y="-177.5" font-family="Helvetica,sans-Serif" font-size="10.00">execute_command</text>
</a>
</g>
</g>
<!-- Node4&#45;&gt;Node7 -->
<g id="edge7_Node000004_Node000007" class="edge">
<title>Node4&#45;&gt;Node7</title>
<g id="a_edge7_Node000004_Node000007"><a xlink:title=" ">
<path fill="none" stroke="#63b8ff" d="M682.51,-208.52C699.73,-204.11 719.95,-198.94 738.2,-194.28"/>
<polygon fill="#63b8ff" stroke="#63b8ff" points="738.97,-197.69 747.79,-191.82 737.23,-190.91 738.97,-197.69"/>
</a>
</g>
</g>
<!-- Node5&#45;&gt;Node6 -->
<g id="edge5_Node000005_Node000006" class="edge">
<title>Node5&#45;&gt;Node6</title>
<g id="a_edge5_Node000005_Node000006"><a xlink:title=" ">
<path fill="none" stroke="#63b8ff" d="M818.9,-267.45C841.95,-276.45 875.45,-289.53 901.07,-299.53"/>
<polygon fill="#63b8ff" stroke="#63b8ff" points="899.52,-302.68 910.11,-303.06 902.06,-296.16 899.52,-302.68"/>
</a>
</g>
</g>
<!-- Node8 -->
<g id="Node000008" class="node">
<title>Node8</title>
<g id="a_Node000008"><a xlink:href="handle__commands_8c.html#a98cc233ffc0887c9cd54dbc4b4be1381" target="_top" xlink:title=" ">
<polygon fill="white" stroke="#666666" points="998.5,-191 879.75,-191 879.75,-171 998.5,-171 998.5,-191"/>
<text text-anchor="middle" x="939.12" y="-177.5" font-family="Helvetica,sans-Serif" font-size="10.00">process_command_line</text>
</a>
</g>
</g>
<!-- Node7&#45;&gt;Node8 -->
<g id="edge8_Node000007_Node000008" class="edge">
<title>Node7&#45;&gt;Node8</title>
<g id="a_edge8_Node000007_Node000008"><a xlink:title=" ">
<path fill="none" stroke="#63b8ff" d="M840.74,-181C849.53,-181 858.85,-181 868.1,-181"/>
<polygon fill="#63b8ff" stroke="#63b8ff" points="867.81,-184.5 877.81,-181 867.81,-177.5 867.81,-184.5"/>
</a>
</g>
</g>
<!-- Node9 -->
<g id="Node000009" class="node">
<title>Node9</title>
<g id="a_Node000009"><a xlink:href="handle__commands_8c.html#a352cb4d4bd51fa5e282ec7d919c8ab98" target="_top" xlink:title=" ">
<polygon fill="white" stroke="#666666" points="1139,-229 1034.5,-229 1034.5,-209 1139,-209 1139,-229"/>
<text text-anchor="middle" x="1086.75" y="-215.5" font-family="Helvetica,sans-Serif" font-size="10.00">free_command_args</text>
</a>
</g>
</g>
<!-- Node8&#45;&gt;Node9 -->
<g id="edge9_Node000008_Node000009" class="edge">
<title>Node8&#45;&gt;Node9</title>
<g id="a_edge9_Node000008_Node000009"><a xlink:title=" ">
<path fill="none" stroke="#63b8ff" d="M980.3,-191.48C997.1,-195.87 1016.81,-201.01 1034.62,-205.66"/>
<polygon fill="#63b8ff" stroke="#63b8ff" points="1033.68,-209.03 1044.24,-208.17 1035.45,-202.26 1033.68,-209.03"/>
</a>
</g>
</g>
<!-- Node10 -->
<g id="Node000010" class="node">
<title>Node10</title>
<g id="a_Node000010"><a xlink:href="handle__commands_8c.html#a03295c32c7b9f27e43b9af93c3d0fa21" target="_top" xlink:title=" ">
<polygon fill="white" stroke="#666666" points="1130.75,-191 1042.75,-191 1042.75,-171 1130.75,-171 1130.75,-191"/>
<text text-anchor="middle" x="1086.75" y="-177.5" font-family="Helvetica,sans-Serif" font-size="10.00">parse_command</text>
</a>
</g>
</g>
<!-- Node8&#45;&gt;Node10 -->
<g id="edge10_Node000008_Node000010" class="edge">
<title>Node8&#45;&gt;Node10</title>
<g id="a_edge10_Node000008_Node000010"><a xlink:title=" ">
<path fill="none" stroke="#63b8ff" d="M998.94,-181C1009.49,-181 1020.45,-181 1030.89,-181"/>
<polygon fill="#63b8ff" stroke="#63b8ff" points="1030.88,-184.5 1040.88,-181 1030.88,-177.5 1030.88,-184.5"/>
</a>
</g>
</g>
<!-- Node14 -->
<g id="Node000014" class="node">
<title>Node14</title>
<g id="a_Node000014"><a xlink:href="process__command_8c.html#ab89f4829cb4a8daff7b88c8c7147c836" target="_top" xlink:title=" ">
<polygon fill="white" stroke="#666666" points="1136,-96 1037.5,-96 1037.5,-76 1136,-76 1136,-96"/>
<text text-anchor="middle" x="1086.75" y="-82.5" font-family="Helvetica,sans-Serif" font-size="10.00">process_command</text>
</a>
</g>
</g>
<!-- Node8&#45;&gt;Node14 -->
<g id="edge14_Node000008_Node000014" class="edge">
<title>Node8&#45;&gt;Node14</title>
<g id="a_edge14_Node000008_Node000014"><a xlink:title=" ">
<path fill="none" stroke="#63b8ff" d="M955.99,-170.65C981.15,-154.23 1030.45,-122.07 1060.51,-102.46"/>
<polygon fill="#63b8ff" stroke="#63b8ff" points="1062.18,-105.56 1068.64,-97.16 1058.35,-99.69 1062.18,-105.56"/>
</a>
</g>
</g>
<!-- Node11 -->
<g id="Node000011" class="node">
<title>Node11</title>
<g id="a_Node000011"><a xlink:href="handle__commands_8c.html#a34c78653d61ed2d1f44d247e98b3f7eb" target="_top" xlink:title=" ">
<polygon fill="white" stroke="#666666" points="1284.38,-210 1183.62,-210 1183.62,-190 1284.38,-190 1284.38,-210"/>
<text text-anchor="middle" x="1234" y="-196.5" font-family="Helvetica,sans-Serif" font-size="10.00">allocate_args_array</text>
</a>
</g>
</g>
<!-- Node10&#45;&gt;Node11 -->
<g id="edge11_Node000010_Node000011" class="edge">
<title>Node10&#45;&gt;Node11</title>
<g id="a_edge11_Node000010_Node000011"><a xlink:title=" ">
<path fill="none" stroke="#63b8ff" d="M1130.94,-186.65C1143.81,-188.33 1158.16,-190.21 1171.95,-192.01"/>
<polygon fill="#63b8ff" stroke="#63b8ff" points="1171.48,-195.48 1181.84,-193.31 1172.38,-188.54 1171.48,-195.48"/>
</a>
</g>
</g>
<!-- Node12 -->
<g id="Node000012" class="node">
<title>Node12</title>
<g id="a_Node000012"><a xlink:href="handle__commands_8c.html#aa03c5d2f29891c89c666b5c1ecb84c04" target="_top" xlink:title=" ">
<polygon fill="white" stroke="#666666" points="1271.25,-172 1196.75,-172 1196.75,-152 1271.25,-152 1271.25,-172"/>
<text text-anchor="middle" x="1234" y="-158.5" font-family="Helvetica,sans-Serif" font-size="10.00">count_tokens</text>
</a>
</g>
</g>
<!-- Node10&#45;&gt;Node12 -->
<g id="edge12_Node000010_Node000012" class="edge">
<title>Node10&#45;&gt;Node12</title>
<g id="a_edge12_Node000010_Node000012"><a xlink:title=" ">
<path fill="none" stroke="#63b8ff" d="M1130.94,-175.35C1148.09,-173.11 1167.87,-170.52 1185.43,-168.22"/>
<polygon fill="#63b8ff" stroke="#63b8ff" points="1185.64,-171.73 1195.1,-166.96 1184.73,-164.78 1185.64,-171.73"/>
</a>
</g>
</g>
<!-- Node13 -->
<g id="Node000013" class="node">
<title>Node13</title>
<g id="a_Node000013"><a xlink:href="handle__commands_8c.html#a3eee1a837bff9d2627a44999f62bb963" target="_top" xlink:title=" ">
<polygon fill="white" stroke="#666666" points="1272.38,-248 1195.62,-248 1195.62,-228 1272.38,-228 1272.38,-248"/>
<text text-anchor="middle" x="1234" y="-234.5" font-family="Helvetica,sans-Serif" font-size="10.00">fill_args_array</text>
</a>
</g>
</g>
<!-- Node10&#45;&gt;Node13 -->
<g id="edge13_Node000010_Node000013" class="edge">
<title>Node10&#45;&gt;Node13</title>
<g id="a_edge13_Node000010_Node000013"><a xlink:title=" ">
<path fill="none" stroke="#63b8ff" d="M1117.83,-191.4C1124.85,-194.04 1132.24,-196.98 1139,-200 1155.52,-207.38 1158.34,-211.94 1175,-219 1179,-220.7 1183.21,-222.34 1187.45,-223.9"/>
<polygon fill="#63b8ff" stroke="#63b8ff" points="1185.97,-227.08 1196.56,-227.09 1188.28,-220.48 1185.97,-227.08"/>
</a>
</g>
</g>
<!-- Node15 -->
<g id="Node000015" class="node">
<title>Node15</title>
<g id="a_Node000015"><a xlink:href="process__command_8c.html#a3799614584819f5c158ddd57cb07f72a" target="_top" xlink:title=" ">
<polygon fill="white" stroke="#666666" points="1273.5,-20 1194.5,-20 1194.5,0 1273.5,0 1273.5,-20"/>
<text text-anchor="middle" x="1234" y="-6.5" font-family="Helvetica,sans-Serif" font-size="10.00">check_graphic</text>
</a>
</g>
</g>
<!-- Node14&#45;&gt;Node15 -->
<g id="edge15_Node000014_Node000015" class="edge">
<title>Node14&#45;&gt;Node15</title>
<g id="a_edge15_Node000014_Node000015"><a xlink:title=" ">
<path fill="none" stroke="#63b8ff" d="M1101.29,-75.53C1117.89,-63.08 1147.27,-42.31 1175,-29 1178.45,-27.34 1182.08,-25.78 1185.77,-24.31"/>
<polygon fill="#63b8ff" stroke="#63b8ff" points="1186.65,-27.71 1194.81,-20.96 1184.21,-21.15 1186.65,-27.71"/>
</a>
</g>
</g>
<!-- Node16 -->
<g id="Node000016" class="node">
<title>Node16</title>
<g id="a_Node000016"><a xlink:href="exec__command_8c.html#afbebbfaa69aaadda4d61c30a35b9dc40" target="_top" xlink:title=" ">
<polygon fill="white" stroke="#666666" points="1276.5,-134 1191.5,-134 1191.5,-114 1276.5,-114 1276.5,-134"/>
<text text-anchor="middle" x="1234" y="-120.5" font-family="Helvetica,sans-Serif" font-size="10.00">exec_command</text>
</a>
</g>
</g>
<!-- Node14&#45;&gt;Node16 -->
<g id="edge16_Node000014_Node000016" class="edge">
<title>Node14&#45;&gt;Node16</title>
<g id="a_edge16_Node000014_Node000016"><a xlink:title=" ">
<path fill="none" stroke="#63b8ff" d="M1127.82,-96.48C1144.57,-100.87 1164.23,-106.01 1182,-110.66"/>
<polygon fill="#63b8ff" stroke="#63b8ff" points="1181.03,-114.02 1191.59,-113.17 1182.8,-107.25 1181.03,-114.02"/>
</a>
</g>
</g>
<!-- Node20 -->
<g id="Node000020" class="node">
<title>Node20</title>
<g id="a_Node000020"><a xlink:href="process__command_8c.html#a898fc3c3e6561eeb6f612098db5db51b" target="_top" xlink:title=" ">
<polygon fill="white" stroke="#666666" points="1268.25,-96 1199.75,-96 1199.75,-76 1268.25,-76 1268.25,-96"/>
<text text-anchor="middle" x="1234" y="-82.5" font-family="Helvetica,sans-Serif" font-size="10.00">is_in_teams</text>
</a>
</g>
</g>
<!-- Node14&#45;&gt;Node20 -->
<g id="edge20_Node000014_Node000020" class="edge">
<title>Node14&#45;&gt;Node20</title>
<g id="a_edge20_Node000014_Node000020"><a xlink:title=" ">
<path fill="none" stroke="#63b8ff" d="M1136.12,-86C1153.01,-86 1171.89,-86 1188.46,-86"/>
<polygon fill="#63b8ff" stroke="#63b8ff" points="1188,-89.5 1198,-86 1188,-82.5 1188,-89.5"/>
</a>
</g>
</g>
<!-- Node21 -->
<g id="Node000021" class="node">
<title>Node21</title>
<g id="a_Node000021"><a xlink:href="process__command_8c.html#a8cff9e7b414335547030008d046149ea" target="_top" xlink:title=" ">
<polygon fill="white" stroke="#666666" points="1293,-58 1175,-58 1175,-38 1293,-38 1293,-58"/>
<text text-anchor="middle" x="1234" y="-44.5" font-family="Helvetica,sans-Serif" font-size="10.00">new_connection_player</text>
</a>
</g>
</g>
<!-- Node14&#45;&gt;Node21 -->
<g id="edge21_Node000014_Node000021" class="edge">
<title>Node14&#45;&gt;Node21</title>
<g id="a_edge21_Node000014_Node000021"><a xlink:title=" ">
<path fill="none" stroke="#63b8ff" d="M1127.82,-75.52C1144.57,-71.13 1164.23,-65.99 1182,-61.34"/>
<polygon fill="#63b8ff" stroke="#63b8ff" points="1182.8,-64.75 1191.59,-58.83 1181.03,-57.98 1182.8,-64.75"/>
</a>
</g>
</g>
<!-- Node17 -->
<g id="Node000017" class="node">
<title>Node17</title>
<g id="a_Node000017"><a xlink:href="exec__command_8c.html#ad90274df54695f20fc2a27f100a9631d" target="_top" xlink:title=" ">
<polygon fill="white" stroke="#666666" points="1429.38,-96 1349.62,-96 1349.62,-76 1429.38,-76 1429.38,-96"/>
<text text-anchor="middle" x="1389.5" y="-82.5" font-family="Helvetica,sans-Serif" font-size="10.00">add_command</text>
</a>
</g>
</g>
<!-- Node16&#45;&gt;Node17 -->
<g id="edge17_Node000016_Node000017" class="edge">
<title>Node16&#45;&gt;Node17</title>
<g id="a_edge17_Node000016_Node000017"><a xlink:title=" ">
<path fill="none" stroke="#63b8ff" d="M1276.94,-113.62C1295.88,-108.93 1318.4,-103.35 1338.23,-98.44"/>
<polygon fill="#63b8ff" stroke="#63b8ff" points="1338.91,-101.88 1347.77,-96.08 1337.23,-95.09 1338.91,-101.88"/>
</a>
</g>
</g>
<!-- Node18 -->
<g id="Node000018" class="node">
<title>Node18</title>
<g id="a_Node000018"><a xlink:href="process__command_8c.html#a2b111d6371b98a5cac5128eaedeeb78c" target="_top" xlink:title=" ">
<polygon fill="white" stroke="#666666" points="1426.75,-172 1352.25,-172 1352.25,-152 1426.75,-152 1426.75,-172"/>
<text text-anchor="middle" x="1389.5" y="-158.5" font-family="Helvetica,sans-Serif" font-size="10.00">realloc_strcat</text>
</a>
</g>
</g>
<!-- Node16&#45;&gt;Node18 -->
<g id="edge18_Node000016_Node000018" class="edge">
<title>Node16&#45;&gt;Node18</title>
<g id="a_edge18_Node000016_Node000018"><a xlink:title=" ">
<path fill="none" stroke="#63b8ff" d="M1276.94,-134.38C1296.72,-139.28 1320.4,-145.14 1340.85,-150.2"/>
<polygon fill="#63b8ff" stroke="#63b8ff" points="1339.81,-153.55 1350.36,-152.56 1341.5,-146.76 1339.81,-153.55"/>
</a>
</g>
</g>
<!-- Node19 -->
<g id="Node000019" class="node">
<title>Node19</title>
<g id="a_Node000019"><a xlink:href="exec__command_8c.html#a281a6f6738826e3f19f602813a1efa24" target="_top" xlink:title=" ">
<polygon fill="white" stroke="#666666" points="1418.88,-134 1360.12,-134 1360.12,-114 1418.88,-114 1418.88,-134"/>
<text text-anchor="middle" x="1389.5" y="-120.5" font-family="Helvetica,sans-Serif" font-size="10.00">set_upper</text>
</a>
</g>
</g>
<!-- Node16&#45;&gt;Node19 -->
<g id="edge19_Node000016_Node000019" class="edge">
<title>Node16&#45;&gt;Node19</title>
<g id="a_edge19_Node000016_Node000019"><a xlink:title=" ">
<path fill="none" stroke="#63b8ff" d="M1276.94,-124C1299.22,-124 1326.45,-124 1348.43,-124"/>
<polygon fill="#63b8ff" stroke="#63b8ff" points="1348.2,-127.5 1358.2,-124 1348.2,-120.5 1348.2,-127.5"/>
</a>
</g>
</g>
<!-- Node22 -->
<g id="Node000022" class="node">
<title>Node22</title>
<g id="a_Node000022"><a xlink:href="process__command_8c.html#a8a3b8c540ccb4af605b27bb69c92e02a" target="_top" xlink:title=" ">
<polygon fill="white" stroke="#666666" points="1420.38,-20 1358.62,-20 1358.62,0 1420.38,0 1420.38,-20"/>
<text text-anchor="middle" x="1389.5" y="-6.5" font-family="Helvetica,sans-Serif" font-size="10.00">return_egg</text>
</a>
</g>
</g>
<!-- Node21&#45;&gt;Node22 -->
<g id="edge22_Node000021_Node000022" class="edge">
<title>Node21&#45;&gt;Node22</title>
<g id="a_edge22_Node000021_Node000022"><a xlink:title=" ">
<path fill="none" stroke="#63b8ff" d="M1277.35,-37.52C1299.17,-32.12 1325.65,-25.56 1347.3,-20.2"/>
<polygon fill="#63b8ff" stroke="#63b8ff" points="1348.11,-23.6 1356.98,-17.8 1346.43,-16.81 1348.11,-23.6"/>
</a>
</g>
</g>
<!-- Node23 -->
<g id="Node000023" class="node">
<title>Node23</title>
<g id="a_Node000023"><a xlink:href="process__command_8c.html#a1f8760aac256de83bf45d6fe94c62cf2" target="_top" xlink:title=" ">
<polygon fill="white" stroke="#666666" points="1450,-58 1329,-58 1329,-38 1450,-38 1450,-58"/>
<text text-anchor="middle" x="1389.5" y="-44.5" font-family="Helvetica,sans-Serif" font-size="10.00">send_datas_new_player</text>
</a>
</g>
</g>
<!-- Node21&#45;&gt;Node23 -->
<g id="edge23_Node000021_Node000023" class="edge">
<title>Node21&#45;&gt;Node23</title>
<g id="a_edge23_Node000021_Node000023"><a xlink:title=" ">
<path fill="none" stroke="#63b8ff" d="M1293.47,-48C1301.3,-48 1309.4,-48 1317.42,-48"/>
<polygon fill="#63b8ff" stroke="#63b8ff" points="1317.15,-51.5 1327.15,-48 1317.15,-44.5 1317.15,-51.5"/>
</a>
</g>
</g>
<!-- Node24 -->
<g id="Node000024" class="node">
<title>Node24</title>
<g id="a_Node000024"><a xlink:href="process__command_8c.html#a08624952cec00b3168e63e05f4203f97" target="_top" xlink:title=" ">
<polygon fill="white" stroke="#666666" points="1602.5,-58 1486,-58 1486,-38 1602.5,-38 1602.5,-58"/>
<text text-anchor="middle" x="1544.25" y="-44.5" font-family="Helvetica,sans-Serif" font-size="10.00">send_data_to_graphics</text>
</a>
</g>
</g>
<!-- Node23&#45;&gt;Node24 -->
<g id="edge24_Node000023_Node000024" class="edge">
<title>Node23&#45;&gt;Node24</title>
<g id="a_edge24_Node000023_Node000024"><a xlink:title=" ">
<path fill="none" stroke="#63b8ff" d="M1450.43,-48C1458.39,-48 1466.59,-48 1474.67,-48"/>
<polygon fill="#63b8ff" stroke="#63b8ff" points="1474.47,-51.5 1484.47,-48 1474.47,-44.5 1474.47,-51.5"/>
</a>
</g>
</g>
<!-- Node25&#45;&gt;Node6 -->
<g id="edge26_Node000025_Node000006" class="edge">
<title>Node25&#45;&gt;Node6</title>
<g id="a_edge26_Node000025_Node000006"><a xlink:title=" ">
<path fill="none" stroke="#63b8ff" d="M694.28,-142.53C737.46,-136.83 798.56,-135.53 843.75,-162 869.61,-177.14 910.1,-255.81 928.48,-293.64"/>
<polygon fill="#63b8ff" stroke="#63b8ff" points="925.1,-294.69 932.58,-302.18 931.41,-291.65 925.1,-294.69"/>
</a>
</g>
</g>
<!-- Node26&#45;&gt;Node6 -->
<g id="edge35_Node000026_Node000006" class="edge">
<title>Node26&#45;&gt;Node6</title>
<g id="a_edge35_Node000026_Node000006"><a xlink:title=" ">
<path fill="none" stroke="#63b8ff" d="M214.47,-395.19C278.28,-400.82 387.21,-409 481,-409 481,-409 481,-409 641.5,-409 744.23,-409 857.85,-356.68 909.62,-329.69"/>
<polygon fill="#63b8ff" stroke="#63b8ff" points="911.17,-332.83 918.36,-325.06 907.89,-326.65 911.17,-332.83"/>
</a>
</g>
</g>
<!-- Node27 -->
<g id="Node000027" class="node">
<title>Node27</title>
<g id="a_Node000027"><a xlink:href="client_8c.html#ae130c56fc8c99be8b6393fe8098f59a9" target="_top" xlink:title=" ">
<polygon fill="white" stroke="#666666" points="348,-362 287.75,-362 287.75,-342 348,-342 348,-362"/>
<text text-anchor="middle" x="317.88" y="-348.5" font-family="Helvetica,sans-Serif" font-size="10.00">add_client</text>
</a>
</g>
</g>
<!-- Node26&#45;&gt;Node27 -->
<g id="edge28_Node000026_Node000027" class="edge">
<title>Node26&#45;&gt;Node27</title>
<g id="a_edge28_Node000026_Node000027"><a xlink:title=" ">
<path fill="none" stroke="#63b8ff" d="M203.28,-379.52C226.14,-373.98 254.02,-367.22 276.44,-361.79"/>
<polygon fill="#63b8ff" stroke="#63b8ff" points="277.25,-365.2 286.14,-359.44 275.6,-358.4 277.25,-365.2"/>
</a>
</g>
</g>
<!-- Node27&#45;&gt;Node6 -->
<g id="edge34_Node000027_Node000006" class="edge">
<title>Node27&#45;&gt;Node6</title>
<g id="a_edge34_Node000027_Node000006"><a xlink:title=" ">
<path fill="none" stroke="#63b8ff" d="M348.43,-346.02C368.89,-342.01 396.78,-336.78 421.5,-333 490.98,-322.37 508.34,-318.23 578.5,-314 690.88,-307.22 823.37,-309.99 891.88,-312.22"/>
<polygon fill="#63b8ff" stroke="#63b8ff" points="891.49,-315.71 901.6,-312.55 891.73,-308.72 891.49,-315.71"/>
</a>
</g>
</g>
<!-- Node28 -->
<g id="Node000028" class="node">
<title>Node28</title>
<g id="a_Node000028"><a xlink:href="client_8c.html#a143835100e57a86e1106918450df6887" target="_top" xlink:title=" ">
<polygon fill="white" stroke="#666666" points="524.12,-362 439.88,-362 439.88,-342 524.12,-342 524.12,-362"/>
<text text-anchor="middle" x="482" y="-348.5" font-family="Helvetica,sans-Serif" font-size="10.00">add_client_data</text>
</a>
</g>
</g>
<!-- Node27&#45;&gt;Node28 -->
<g id="edge29_Node000027_Node000028" class="edge">
<title>Node27&#45;&gt;Node28</title>
<g id="a_edge29_Node000027_Node000028"><a xlink:title=" ">
<path fill="none" stroke="#63b8ff" d="M348.23,-352C370.49,-352 401.67,-352 428.22,-352"/>
<polygon fill="#63b8ff" stroke="#63b8ff" points="428.15,-355.5 438.15,-352 428.15,-348.5 428.15,-355.5"/>
</a>
</g>
</g>
<!-- Node28&#45;&gt;Node6 -->
<g id="edge33_Node000028_Node000006" class="edge">
<title>Node28&#45;&gt;Node6</title>
<g id="a_edge33_Node000028_Node000006"><a xlink:title=" ">
<path fill="none" stroke="#63b8ff" d="M524.49,-353.77C591.98,-355.87 729.5,-356.9 843.75,-337 859.66,-334.23 876.87,-330.31 892.19,-326.5"/>
<polygon fill="#63b8ff" stroke="#63b8ff" points="892.66,-329.99 901.49,-324.13 890.93,-323.2 892.66,-329.99"/>
</a>
</g>
</g>
<!-- Node29 -->
<g id="Node000029" class="node">
<title>Node29</title>
<g id="a_Node000029"><a xlink:href="command_8c.html#a7ea78ee6c9551b3b281b8dc72f4e2f1f" target="_top" xlink:title=" ">
<polygon fill="white" stroke="#666666" points="702.5,-343 578.5,-343 578.5,-323 702.5,-323 702.5,-343"/>
<text text-anchor="middle" x="640.5" y="-329.5" font-family="Helvetica,sans-Serif" font-size="10.00">append_client_out_buffer</text>
</a>
</g>
</g>
<!-- Node28&#45;&gt;Node29 -->
<g id="edge30_Node000028_Node000029" class="edge">
<title>Node28&#45;&gt;Node29</title>
<g id="a_edge30_Node000028_Node000029"><a xlink:title=" ">
<path fill="none" stroke="#63b8ff" d="M524.53,-346.96C537.59,-345.37 552.42,-343.57 566.98,-341.8"/>
<polygon fill="#63b8ff" stroke="#63b8ff" points="567.02,-345.33 576.52,-340.65 566.17,-338.38 567.02,-345.33"/>
</a>
</g>
</g>
<!-- Node29&#45;&gt;Node5 -->
<g id="edge31_Node000029_Node000005" class="edge">
<title>Node29&#45;&gt;Node5</title>
<g id="a_edge31_Node000029_Node000005"><a xlink:title=" ">
<path fill="none" stroke="#63b8ff" d="M661.85,-322.59C687.2,-309.63 730.72,-287.37 759.95,-272.43"/>
<polygon fill="#63b8ff" stroke="#63b8ff" points="761.36,-275.64 768.67,-267.97 758.17,-269.41 761.36,-275.64"/>
</a>
</g>
</g>
<!-- Node29&#45;&gt;Node6 -->
<g id="edge32_Node000029_Node000006" class="edge">
<title>Node29&#45;&gt;Node6</title>
<g id="a_edge32_Node000029_Node000006"><a xlink:title=" ">
<path fill="none" stroke="#63b8ff" d="M702.96,-329.06C759.16,-325.46 841.06,-320.22 891.89,-316.96"/>
<polygon fill="#63b8ff" stroke="#63b8ff" points="891.91,-320.47 901.66,-316.34 891.46,-313.48 891.91,-320.47"/>
</a>
</g>
</g>
</g>
</svg>
