<?xml version="1.0" encoding="UTF-8" standalone="no"?>
<!DOCTYPE svg PUBLIC "-//W3C//DTD SVG 1.1//EN"
 "http://www.w3.org/Graphics/SVG/1.1/DTD/svg11.dtd">
<!-- Generated by graphviz version 12.2.1 (20241206.2353)
 -->
<!-- Title: /home/matt/tek2/YEP/ZAPPY/zappy_gui_src/main.cpp Pages: 1 -->
<svg width="1042pt" height="108pt"
 viewBox="0.00 0.00 1042.00 108.00" xmlns="http://www.w3.org/2000/svg" xmlns:xlink="http://www.w3.org/1999/xlink">
<g id="graph0" class="graph" transform="scale(1 1) rotate(0) translate(4 104)">
<title>/home/matt/tek2/YEP/ZAPPY/zappy_gui_src/main.cpp</title>
<!-- Node1 -->
<g id="Node000001" class="node">
<title>Node1</title>
<g id="a_Node000001"><a xlink:title=" ">
<polygon fill="#999999" stroke="#666666" points="339.12,-100 221.12,-100 221.12,-56 339.12,-56 339.12,-100"/>
<text text-anchor="start" x="229.12" y="-86.5" font-family="Helvetica,sans-Serif" font-size="10.00">/home/matt/tek2/YEP</text>
<text text-anchor="start" x="229.12" y="-74.5" font-family="Helvetica,sans-Serif" font-size="10.00">/ZAPPY/zappy_gui_src</text>
<text text-anchor="middle" x="280.12" y="-62.5" font-family="Helvetica,sans-Serif" font-size="10.00">/main.cpp</text>
</a>
</g>
</g>
<!-- Node2 -->
<g id="Node000002" class="node">
<title>Node2</title>
<g id="a_Node000002"><a xlink:title=" ">
<polygon fill="#e0e0e0" stroke="#999999" points="48.25,-20 0,-20 0,0 48.25,0 48.25,-20"/>
<text text-anchor="middle" x="24.12" y="-6.5" font-family="Helvetica,sans-Serif" font-size="10.00">string.h</text>
</a>
</g>
</g>
<!-- Node1&#45;&gt;Node2 -->
<g id="edge1_Node000001_Node000002" class="edge">
<title>Node1&#45;&gt;Node2</title>
<g id="a_edge1_Node000001_Node000002"><a xlink:title=" ">
<path fill="none" stroke="#63b8ff" d="M220.9,-62.14C178.47,-51.42 119.68,-36.46 59.48,-20.59"/>
<polygon fill="#63b8ff" stroke="#63b8ff" points="60.65,-17.28 50.08,-18.11 58.86,-24.05 60.65,-17.28"/>
</a>
</g>
</g>
<!-- Node3 -->
<g id="Node000003" class="node">
<title>Node3</title>
<g id="a_Node000003"><a xlink:title=" ">
<polygon fill="#e0e0e0" stroke="#999999" points="109.62,-20 66.62,-20 66.62,0 109.62,0 109.62,-20"/>
<text text-anchor="middle" x="88.12" y="-6.5" font-family="Helvetica,sans-Serif" font-size="10.00">thread</text>
</a>
</g>
</g>
<!-- Node1&#45;&gt;Node3 -->
<g id="edge2_Node000001_Node000003" class="edge">
<title>Node1&#45;&gt;Node3</title>
<g id="a_edge2_Node000001_Node000003"><a xlink:title=" ">
<path fill="none" stroke="#63b8ff" d="M220.69,-56.57C187.59,-45.19 147.66,-31.47 120.33,-22.07"/>
<polygon fill="#63b8ff" stroke="#63b8ff" points="121.83,-18.89 111.24,-18.95 119.56,-25.51 121.83,-18.89"/>
</a>
</g>
</g>
<!-- Node4 -->
<g id="Node000004" class="node">
<title>Node4</title>
<g id="a_Node000004"><a xlink:title=" ">
<polygon fill="#e0e0e0" stroke="#999999" points="170.25,-20 128,-20 128,0 170.25,0 170.25,-20"/>
<text text-anchor="middle" x="149.12" y="-6.5" font-family="Helvetica,sans-Serif" font-size="10.00">cstdio</text>
</a>
</g>
</g>
<!-- Node1&#45;&gt;Node4 -->
<g id="edge3_Node000001_Node000004" class="edge">
<title>Node1&#45;&gt;Node4</title>
<g id="a_edge3_Node000001_Node000004"><a xlink:title=" ">
<path fill="none" stroke="#63b8ff" d="M237.59,-55.57C218.04,-45.72 195.37,-34.3 177.87,-25.48"/>
<polygon fill="#63b8ff" stroke="#63b8ff" points="179.57,-22.42 169.07,-21.05 176.42,-28.67 179.57,-22.42"/>
</a>
</g>
</g>
<!-- Node5 -->
<g id="Node000005" class="node">
<title>Node5</title>
<g id="a_Node000005"><a xlink:title=" ">
<polygon fill="#e0e0e0" stroke="#999999" points="241.88,-20 188.38,-20 188.38,0 241.88,0 241.88,-20"/>
<text text-anchor="middle" x="215.12" y="-6.5" font-family="Helvetica,sans-Serif" font-size="10.00">iostream</text>
</a>
</g>
</g>
<!-- Node1&#45;&gt;Node5 -->
<g id="edge4_Node000001_Node000005" class="edge">
<title>Node1&#45;&gt;Node5</title>
<g id="a_edge4_Node000001_Node000005"><a xlink:title=" ">
<path fill="none" stroke="#63b8ff" d="M259.2,-55.75C250.5,-46.92 240.52,-36.78 232.26,-28.4"/>
<polygon fill="#63b8ff" stroke="#63b8ff" points="234.97,-26.17 225.46,-21.5 229.99,-31.08 234.97,-26.17"/>
</a>
</g>
</g>
<!-- Node6 -->
<g id="Node000006" class="node">
<title>Node6</title>
<g id="a_Node000006"><a xlink:title=" ">
<polygon fill="#e0e0e0" stroke="#999999" points="300.12,-20 260.12,-20 260.12,0 300.12,0 300.12,-20"/>
<text text-anchor="middle" x="280.12" y="-6.5" font-family="Helvetica,sans-Serif" font-size="10.00">string</text>
</a>
</g>
</g>
<!-- Node1&#45;&gt;Node6 -->
<g id="edge5_Node000001_Node000006" class="edge">
<title>Node1&#45;&gt;Node6</title>
<g id="a_edge5_Node000001_Node000006"><a xlink:title=" ">
<path fill="none" stroke="#63b8ff" d="M280.12,-55.75C280.12,-48.13 280.12,-39.53 280.12,-31.93"/>
<polygon fill="#63b8ff" stroke="#63b8ff" points="283.63,-31.93 280.13,-21.93 276.63,-31.93 283.63,-31.93"/>
</a>
</g>
</g>
<!-- Node7 -->
<g id="Node000007" class="node">
<title>Node7</title>
<g id="a_Node000007"><a xlink:title=" ">
<polygon fill="#e0e0e0" stroke="#999999" points="472.5,-20 317.75,-20 317.75,0 472.5,0 472.5,-20"/>
<text text-anchor="middle" x="395.12" y="-6.5" font-family="Helvetica,sans-Serif" font-size="10.00">DataManager/DataManager.hpp</text>
</a>
</g>
</g>
<!-- Node1&#45;&gt;Node7 -->
<g id="edge6_Node000001_Node000007" class="edge">
<title>Node1&#45;&gt;Node7</title>
<g id="a_edge6_Node000001_Node000007"><a xlink:title=" ">
<path fill="none" stroke="#63b8ff" d="M317.46,-55.57C334.3,-45.91 353.78,-34.73 369.02,-25.98"/>
<polygon fill="#63b8ff" stroke="#63b8ff" points="370.56,-29.13 377.49,-21.12 367.08,-23.06 370.56,-29.13"/>
</a>
</g>
</g>
<!-- Node8 -->
<g id="Node000008" class="node">
<title>Node8</title>
<g id="a_Node000008"><a xlink:title=" ">
<polygon fill="#e0e0e0" stroke="#999999" points="671.62,-20 490.62,-20 490.62,0 671.62,0 671.62,-20"/>
<text text-anchor="middle" x="581.12" y="-6.5" font-family="Helvetica,sans-Serif" font-size="10.00">DataManager/GameDataManager.hpp</text>
</a>
</g>
</g>
<!-- Node1&#45;&gt;Node8 -->
<g id="edge7_Node000001_Node000008" class="edge">
<title>Node1&#45;&gt;Node8</title>
<g id="a_edge7_Node000001_Node000008"><a xlink:title=" ">
<path fill="none" stroke="#63b8ff" d="M339.59,-63.96C394.02,-52.03 473.9,-34.51 526.68,-22.94"/>
<polygon fill="#63b8ff" stroke="#63b8ff" points="527.35,-26.37 536.37,-20.81 525.85,-19.54 527.35,-26.37"/>
</a>
</g>
</g>
<!-- Node9 -->
<g id="Node000009" class="node">
<title>Node9</title>
<g id="a_Node000009"><a xlink:title=" ">
<polygon fill="#e0e0e0" stroke="#999999" points="822.62,-20 689.62,-20 689.62,0 822.62,0 822.62,-20"/>
<text text-anchor="middle" x="756.12" y="-6.5" font-family="Helvetica,sans-Serif" font-size="10.00">include/GuiConnection.hpp</text>
</a>
</g>
</g>
<!-- Node1&#45;&gt;Node9 -->
<g id="edge8_Node000001_Node000009" class="edge">
<title>Node1&#45;&gt;Node9</title>
<g id="a_edge8_Node000001_Node000009"><a xlink:title=" ">
<path fill="none" stroke="#63b8ff" d="M339.45,-68.77C424.94,-56.92 582.93,-35.01 677.89,-21.85"/>
<polygon fill="#63b8ff" stroke="#63b8ff" points="678.22,-25.34 687.65,-20.49 677.26,-18.4 678.22,-25.34"/>
</a>
</g>
</g>
<!-- Node10 -->
<g id="Node000010" class="node">
<title>Node10</title>
<g id="a_Node000010"><a xlink:title=" ">
<polygon fill="#e0e0e0" stroke="#999999" points="1034,-20 840.25,-20 840.25,0 1034,0 1034,-20"/>
<text text-anchor="middle" x="937.12" y="-6.5" font-family="Helvetica,sans-Serif" font-size="10.00">Exceptions/DataManagerExceptions.hpp</text>
</a>
</g>
</g>
<!-- Node1&#45;&gt;Node10 -->
<g id="edge9_Node000001_Node000010" class="edge">
<title>Node1&#45;&gt;Node10</title>
<g id="a_edge9_Node000001_Node000010"><a xlink:title=" ">
<path fill="none" stroke="#63b8ff" d="M339.59,-71.03C450.92,-59.84 692.13,-35.61 831.65,-21.6"/>
<polygon fill="#63b8ff" stroke="#63b8ff" points="831.65,-25.11 841.25,-20.63 830.95,-18.15 831.65,-25.11"/>
</a>
</g>
</g>
</g>
</svg>
