<?xml version="1.0" encoding="UTF-8" standalone="no"?>
<!DOCTYPE svg PUBLIC "-//W3C//DTD SVG 1.1//EN"
 "http://www.w3.org/Graphics/SVG/1.1/DTD/svg11.dtd">
<!-- Generated by graphviz version 12.2.1 (20241206.2353)
 -->
<!-- Title: check_for_client_command Pages: 1 -->
<!--zoomable 256 -->

<svg id="main" version="1.1" xmlns="http://www.w3.org/2000/svg" xmlns:xlink="http://www.w3.org/1999/xlink" xml:space="preserve" onload="init(evt)">

<style type="text/css"><![CDATA[
.node, .edge {opacity: 0.7;}
.node.selected, .edge.selected {opacity: 1;}
.edge:hover path { stroke: red; }
.edge:hover polygon { stroke: red; fill: red; }
]]></style>

<defs>
  <circle id="rim" cx="0" cy="0" r="7"/>
  <circle id="rim2" cx="0" cy="0" r="3.5"/>
  <g id="zoomPlus">
    <use xlink:href="#rim" fill="#404040"><set attributeName="fill" to="#808080" begin="zoomplus.mouseover" end="zoomplus.mouseout"/></use>
    <path d="M-4,0h8M0,-4v8" fill="none" stroke="white" stroke-width="1.5" pointer-events="none"/>
  </g>
  <g id="zoomMin">
    <use xlink:href="#rim" fill="#404040"><set attributeName="fill" to="#808080" begin="zoomminus.mouseover" end="zoomminus.mouseout"/></use>
    <path d="M-4,0h8" fill="none" stroke="white" stroke-width="1.5" pointer-events="none"/>
  </g>
  <g id="arrowUp" transform="translate(30 24)">
    <use xlink:href="#rim"/>
    <path pointer-events="none" fill="none" stroke="white" stroke-width="1.5" d="M0,-3.0v7 M-2.5,-0.5L0,-3.0L2.5,-0.5"/>
  </g>
  <g id="arrowRight" transform="rotate(90) translate(36 -43)">
    <use xlink:href="#rim"/>
    <path pointer-events="none" fill="none" stroke="white" stroke-width="1.5" d="M0,-3.0v7 M-2.5,-0.5L0,-3.0L2.5,-0.5"/>
  </g>
  <g id="arrowDown" transform="rotate(180) translate(-30 -48)">
    <use xlink:href="#rim"/>
    <path pointer-events="none" fill="none" stroke="white" stroke-width="1.5" d="M0,-3.0v7 M-2.5,-0.5L0,-3.0L2.5,-0.5"/>
  </g>
  <g id="arrowLeft" transform="rotate(270) translate(-36 17)">
    <use xlink:href="#rim"/>
    <path pointer-events="none" fill="none" stroke="white" stroke-width="1.5" d="M0,-3.0v7 M-2.5,-0.5L0,-3.0L2.5,-0.5"/>
  </g>
  <g id="resetDef">
    <use xlink:href="#rim2" fill="#404040"><set attributeName="fill" to="#808080" begin="reset.mouseover" end="reset.mouseout"/></use>
  </g>
</defs>
<script type="application/ecmascript">
var viewWidth = 1350;
var viewHeight = 256;
var sectionId = 'dynsection-1';
</script>
<script type="application/ecmascript" xlink:href="svg.min.js"/>
<svg id="graph" class="graph">
<g id="viewport">
<title>check_for_client_command</title>
<!-- Node1 -->
<g id="Node000001" class="node">
<title>Node1</title>
<g id="a_Node000001"><a xlink:title=" ">
<polygon fill="#999999" stroke="#666666" points="135.25,-124 0,-124 0,-104 135.25,-104 135.25,-124"/>
<text text-anchor="middle" x="67.62" y="-110.5" font-family="Helvetica,sans-Serif" font-size="10.00">check_for_client_command</text>
</a>
</g>
</g>
<!-- Node2 -->
<g id="Node000002" class="node">
<title>Node2</title>
<g id="a_Node000002"><a xlink:href="command_8c.html#a89c794fd58c4d9f580afb6ecd5e91dc4" target="_top" xlink:title=" ">
<polygon fill="white" stroke="#666666" points="292.25,-148 171.25,-148 171.25,-128 292.25,-128 292.25,-148"/>
<text text-anchor="middle" x="231.75" y="-134.5" font-family="Helvetica,sans-Serif" font-size="10.00">handle_client_command</text>
</a>
</g>
</g>
<!-- Node1&#45;&gt;Node2 -->
<g id="edge1_Node000001_Node000002" class="edge">
<title>Node1&#45;&gt;Node2</title>
<g id="a_edge1_Node000001_Node000002"><a xlink:title=" ">
<path fill="none" stroke="#63b8ff" d="M135.5,-123.9C143.45,-125.08 151.58,-126.28 159.58,-127.46"/>
<polygon fill="#63b8ff" stroke="#63b8ff" points="158.87,-130.9 169.28,-128.9 159.9,-123.97 158.87,-130.9"/>
</a>
</g>
</g>
<!-- Node24 -->
<g id="Node000024" class="node">
<title>Node24</title>
<g id="a_Node000024"><a xlink:href="command_8c.html#aaeaed8798ac2263a423d9a9a2f4e3ed0" target="_top" xlink:title=" ">
<polygon fill="white" stroke="#666666" points="441.75,-96 328.25,-96 328.25,-76 441.75,-76 441.75,-96"/>
<text text-anchor="middle" x="385" y="-82.5" font-family="Helvetica,sans-Serif" font-size="10.00">send_client_command</text>
</a>
</g>
</g>
<!-- Node1&#45;&gt;Node24 -->
<g id="edge24_Node000001_Node000024" class="edge">
<title>Node1&#45;&gt;Node24</title>
<g id="a_edge24_Node000001_Node000024"><a xlink:title=" ">
<path fill="none" stroke="#63b8ff" d="M135.51,-108.06C188.74,-103.34 262.91,-96.75 316.34,-92.01"/>
<polygon fill="#63b8ff" stroke="#63b8ff" points="316.59,-95.5 326.25,-91.13 315.98,-88.53 316.59,-95.5"/>
</a>
</g>
</g>
<!-- Node3 -->
<g id="Node000003" class="node">
<title>Node3</title>
<g id="a_Node000003"><a xlink:href="command_8c.html#ad5ab8f8763157c7c6779aefec5223821" target="_top" xlink:title=" ">
<polygon fill="white" stroke="#666666" points="428.62,-150 341.38,-150 341.38,-130 428.62,-130 428.62,-150"/>
<text text-anchor="middle" x="385" y="-136.5" font-family="Helvetica,sans-Serif" font-size="10.00">get_client_buffer</text>
</a>
</g>
</g>
<!-- Node2&#45;&gt;Node3 -->
<g id="edge2_Node000002_Node000003" class="edge">
<title>Node2&#45;&gt;Node3</title>
<g id="a_edge2_Node000002_Node000003"><a xlink:title=" ">
<path fill="none" stroke="#63b8ff" d="M292.53,-138.79C304.79,-138.95 317.64,-139.12 329.7,-139.28"/>
<polygon fill="#63b8ff" stroke="#63b8ff" points="329.42,-142.78 339.46,-139.41 329.51,-135.78 329.42,-142.78"/>
</a>
</g>
</g>
<!-- Node4 -->
<g id="Node000004" class="node">
<title>Node4</title>
<g id="a_Node000004"><a xlink:href="command_8c.html#ae945a1521c2b6067022aafe003579548" target="_top" xlink:title=" ">
<polygon fill="white" stroke="#666666" points="583,-153 477.75,-153 477.75,-133 583,-133 583,-153"/>
<text text-anchor="middle" x="530.38" y="-139.5" font-family="Helvetica,sans-Serif" font-size="10.00">append_client_buffer</text>
</a>
</g>
</g>
<!-- Node3&#45;&gt;Node4 -->
<g id="edge3_Node000003_Node000004" class="edge">
<title>Node3&#45;&gt;Node4</title>
<g id="a_edge3_Node000003_Node000004"><a xlink:title=" ">
<path fill="none" stroke="#63b8ff" d="M429.02,-140.9C440.64,-141.14 453.46,-141.41 465.95,-141.67"/>
<polygon fill="#63b8ff" stroke="#63b8ff" points="465.69,-145.17 475.76,-141.88 465.83,-138.17 465.69,-145.17"/>
</a>
</g>
</g>
<!-- Node5 -->
<g id="Node000005" class="node">
<title>Node5</title>
<g id="a_Node000005"><a xlink:href="parser_8c.html#a3fd716b111caa8f93098f7e5070fd0bb" target="_top" xlink:title=" ">
<polygon fill="white" stroke="#666666" points="714.12,-115 642.62,-115 642.62,-95 714.12,-95 714.12,-115"/>
<text text-anchor="middle" x="678.38" y="-101.5" font-family="Helvetica,sans-Serif" font-size="10.00">display_error</text>
</a>
</g>
</g>
<!-- Node3&#45;&gt;Node5 -->
<g id="edge5_Node000003_Node000005" class="edge">
<title>Node3&#45;&gt;Node5</title>
<g id="a_edge5_Node000003_Node000005"><a xlink:title=" ">
<path fill="none" stroke="#63b8ff" d="M428.84,-131.82C444.22,-129.07 461.73,-126.16 477.75,-124 530.04,-116.96 590.37,-111.6 630.9,-108.39"/>
<polygon fill="#63b8ff" stroke="#63b8ff" points="631.09,-111.89 640.79,-107.63 630.55,-104.91 631.09,-111.89"/>
</a>
</g>
</g>
<!-- Node6 -->
<g id="Node000006" class="node">
<title>Node6</title>
<g id="a_Node000006"><a xlink:href="handle__commands_8c.html#a375d7edcc6568dc2e11d1b7e2cff7ba3" target="_top" xlink:title=" ">
<polygon fill="white" stroke="#666666" points="579.62,-191 481.12,-191 481.12,-171 579.62,-171 579.62,-191"/>
<text text-anchor="middle" x="530.38" y="-177.5" font-family="Helvetica,sans-Serif" font-size="10.00">execute_command</text>
</a>
</g>
</g>
<!-- Node3&#45;&gt;Node6 -->
<g id="edge6_Node000003_Node000006" class="edge">
<title>Node3&#45;&gt;Node6</title>
<g id="a_edge6_Node000003_Node000006"><a xlink:title=" ">
<path fill="none" stroke="#63b8ff" d="M422.55,-150.45C440.58,-155.61 462.56,-161.89 481.87,-167.42"/>
<polygon fill="#63b8ff" stroke="#63b8ff" points="480.86,-170.77 491.44,-170.15 482.78,-164.04 480.86,-170.77"/>
</a>
</g>
</g>
<!-- Node4&#45;&gt;Node5 -->
<g id="edge4_Node000004_Node000005" class="edge">
<title>Node4&#45;&gt;Node5</title>
<g id="a_edge4_Node000004_Node000005"><a xlink:title=" ">
<path fill="none" stroke="#63b8ff" d="M571.66,-132.52C590.14,-127.7 612.16,-121.97 631.3,-116.99"/>
<polygon fill="#63b8ff" stroke="#63b8ff" points="631.93,-120.44 640.73,-114.54 630.17,-113.67 631.93,-120.44"/>
</a>
</g>
</g>
<!-- Node7 -->
<g id="Node000007" class="node">
<title>Node7</title>
<g id="a_Node000007"><a xlink:href="handle__commands_8c.html#a98cc233ffc0887c9cd54dbc4b4be1381" target="_top" xlink:title=" ">
<polygon fill="white" stroke="#666666" points="737.75,-191 619,-191 619,-171 737.75,-171 737.75,-191"/>
<text text-anchor="middle" x="678.38" y="-177.5" font-family="Helvetica,sans-Serif" font-size="10.00">process_command_line</text>
</a>
</g>
</g>
<!-- Node6&#45;&gt;Node7 -->
<g id="edge7_Node000006_Node000007" class="edge">
<title>Node6&#45;&gt;Node7</title>
<g id="a_edge7_Node000006_Node000007"><a xlink:title=" ">
<path fill="none" stroke="#63b8ff" d="M579.99,-181C588.78,-181 598.1,-181 607.35,-181"/>
<polygon fill="#63b8ff" stroke="#63b8ff" points="607.06,-184.5 617.06,-181 607.06,-177.5 607.06,-184.5"/>
</a>
</g>
</g>
<!-- Node8 -->
<g id="Node000008" class="node">
<title>Node8</title>
<g id="a_Node000008"><a xlink:href="handle__commands_8c.html#a352cb4d4bd51fa5e282ec7d919c8ab98" target="_top" xlink:title=" ">
<polygon fill="white" stroke="#666666" points="878.25,-229 773.75,-229 773.75,-209 878.25,-209 878.25,-229"/>
<text text-anchor="middle" x="826" y="-215.5" font-family="Helvetica,sans-Serif" font-size="10.00">free_command_args</text>
</a>
</g>
</g>
<!-- Node7&#45;&gt;Node8 -->
<g id="edge8_Node000007_Node000008" class="edge">
<title>Node7&#45;&gt;Node8</title>
<g id="a_edge8_Node000007_Node000008"><a xlink:title=" ">
<path fill="none" stroke="#63b8ff" d="M719.55,-191.48C736.35,-195.87 756.06,-201.01 773.87,-205.66"/>
<polygon fill="#63b8ff" stroke="#63b8ff" points="772.93,-209.03 783.49,-208.17 774.7,-202.26 772.93,-209.03"/>
</a>
</g>
</g>
<!-- Node9 -->
<g id="Node000009" class="node">
<title>Node9</title>
<g id="a_Node000009"><a xlink:href="handle__commands_8c.html#a03295c32c7b9f27e43b9af93c3d0fa21" target="_top" xlink:title=" ">
<polygon fill="white" stroke="#666666" points="870,-191 782,-191 782,-171 870,-171 870,-191"/>
<text text-anchor="middle" x="826" y="-177.5" font-family="Helvetica,sans-Serif" font-size="10.00">parse_command</text>
</a>
</g>
</g>
<!-- Node7&#45;&gt;Node9 -->
<g id="edge9_Node000007_Node000009" class="edge">
<title>Node7&#45;&gt;Node9</title>
<g id="a_edge9_Node000007_Node000009"><a xlink:title=" ">
<path fill="none" stroke="#63b8ff" d="M738.19,-181C748.74,-181 759.7,-181 770.14,-181"/>
<polygon fill="#63b8ff" stroke="#63b8ff" points="770.13,-184.5 780.13,-181 770.13,-177.5 770.13,-184.5"/>
</a>
</g>
</g>
<!-- Node13 -->
<g id="Node000013" class="node">
<title>Node13</title>
<g id="a_Node000013"><a xlink:href="process__command_8c.html#ab89f4829cb4a8daff7b88c8c7147c836" target="_top" xlink:title=" ">
<polygon fill="white" stroke="#666666" points="875.25,-96 776.75,-96 776.75,-76 875.25,-76 875.25,-96"/>
<text text-anchor="middle" x="826" y="-82.5" font-family="Helvetica,sans-Serif" font-size="10.00">process_command</text>
</a>
</g>
</g>
<!-- Node7&#45;&gt;Node13 -->
<g id="edge13_Node000007_Node000013" class="edge">
<title>Node7&#45;&gt;Node13</title>
<g id="a_edge13_Node000007_Node000013"><a xlink:title=" ">
<path fill="none" stroke="#63b8ff" d="M695.24,-170.65C720.4,-154.23 769.7,-122.07 799.76,-102.46"/>
<polygon fill="#63b8ff" stroke="#63b8ff" points="801.43,-105.56 807.89,-97.16 797.6,-99.69 801.43,-105.56"/>
</a>
</g>
</g>
<!-- Node10 -->
<g id="Node000010" class="node">
<title>Node10</title>
<g id="a_Node000010"><a xlink:href="handle__commands_8c.html#a34c78653d61ed2d1f44d247e98b3f7eb" target="_top" xlink:title=" ">
<polygon fill="white" stroke="#666666" points="1023.62,-210 922.88,-210 922.88,-190 1023.62,-190 1023.62,-210"/>
<text text-anchor="middle" x="973.25" y="-196.5" font-family="Helvetica,sans-Serif" font-size="10.00">allocate_args_array</text>
</a>
</g>
</g>
<!-- Node9&#45;&gt;Node10 -->
<g id="edge10_Node000009_Node000010" class="edge">
<title>Node9&#45;&gt;Node10</title>
<g id="a_edge10_Node000009_Node000010"><a xlink:title=" ">
<path fill="none" stroke="#63b8ff" d="M870.19,-186.65C883.06,-188.33 897.41,-190.21 911.2,-192.01"/>
<polygon fill="#63b8ff" stroke="#63b8ff" points="910.73,-195.48 921.09,-193.31 911.63,-188.54 910.73,-195.48"/>
</a>
</g>
</g>
<!-- Node11 -->
<g id="Node000011" class="node">
<title>Node11</title>
<g id="a_Node000011"><a xlink:href="handle__commands_8c.html#aa03c5d2f29891c89c666b5c1ecb84c04" target="_top" xlink:title=" ">
<polygon fill="white" stroke="#666666" points="1010.5,-172 936,-172 936,-152 1010.5,-152 1010.5,-172"/>
<text text-anchor="middle" x="973.25" y="-158.5" font-family="Helvetica,sans-Serif" font-size="10.00">count_tokens</text>
</a>
</g>
</g>
<!-- Node9&#45;&gt;Node11 -->
<g id="edge11_Node000009_Node000011" class="edge">
<title>Node9&#45;&gt;Node11</title>
<g id="a_edge11_Node000009_Node000011"><a xlink:title=" ">
<path fill="none" stroke="#63b8ff" d="M870.19,-175.35C887.34,-173.11 907.12,-170.52 924.68,-168.22"/>
<polygon fill="#63b8ff" stroke="#63b8ff" points="924.89,-171.73 934.35,-166.96 923.98,-164.78 924.89,-171.73"/>
</a>
</g>
</g>
<!-- Node12 -->
<g id="Node000012" class="node">
<title>Node12</title>
<g id="a_Node000012"><a xlink:href="handle__commands_8c.html#a3eee1a837bff9d2627a44999f62bb963" target="_top" xlink:title=" ">
<polygon fill="white" stroke="#666666" points="1011.62,-248 934.88,-248 934.88,-228 1011.62,-228 1011.62,-248"/>
<text text-anchor="middle" x="973.25" y="-234.5" font-family="Helvetica,sans-Serif" font-size="10.00">fill_args_array</text>
</a>
</g>
</g>
<!-- Node9&#45;&gt;Node12 -->
<g id="edge12_Node000009_Node000012" class="edge">
<title>Node9&#45;&gt;Node12</title>
<g id="a_edge12_Node000009_Node000012"><a xlink:title=" ">
<path fill="none" stroke="#63b8ff" d="M857.08,-191.4C864.1,-194.04 871.49,-196.98 878.25,-200 894.77,-207.38 897.59,-211.94 914.25,-219 918.25,-220.7 922.46,-222.34 926.7,-223.9"/>
<polygon fill="#63b8ff" stroke="#63b8ff" points="925.22,-227.08 935.81,-227.09 927.53,-220.48 925.22,-227.08"/>
</a>
</g>
</g>
<!-- Node14 -->
<g id="Node000014" class="node">
<title>Node14</title>
<g id="a_Node000014"><a xlink:href="process__command_8c.html#a3799614584819f5c158ddd57cb07f72a" target="_top" xlink:title=" ">
<polygon fill="white" stroke="#666666" points="1012.75,-20 933.75,-20 933.75,0 1012.75,0 1012.75,-20"/>
<text text-anchor="middle" x="973.25" y="-6.5" font-family="Helvetica,sans-Serif" font-size="10.00">check_graphic</text>
</a>
</g>
</g>
<!-- Node13&#45;&gt;Node14 -->
<g id="edge14_Node000013_Node000014" class="edge">
<title>Node13&#45;&gt;Node14</title>
<g id="a_edge14_Node000013_Node000014"><a xlink:title=" ">
<path fill="none" stroke="#63b8ff" d="M840.54,-75.53C857.14,-63.08 886.52,-42.31 914.25,-29 917.7,-27.34 921.33,-25.78 925.02,-24.31"/>
<polygon fill="#63b8ff" stroke="#63b8ff" points="925.9,-27.71 934.06,-20.96 923.46,-21.15 925.9,-27.71"/>
</a>
</g>
</g>
<!-- Node15 -->
<g id="Node000015" class="node">
<title>Node15</title>
<g id="a_Node000015"><a xlink:href="exec__command_8c.html#afbebbfaa69aaadda4d61c30a35b9dc40" target="_top" xlink:title=" ">
<polygon fill="white" stroke="#666666" points="1015.75,-134 930.75,-134 930.75,-114 1015.75,-114 1015.75,-134"/>
<text text-anchor="middle" x="973.25" y="-120.5" font-family="Helvetica,sans-Serif" font-size="10.00">exec_command</text>
</a>
</g>
</g>
<!-- Node13&#45;&gt;Node15 -->
<g id="edge15_Node000013_Node000015" class="edge">
<title>Node13&#45;&gt;Node15</title>
<g id="a_edge15_Node000013_Node000015"><a xlink:title=" ">
<path fill="none" stroke="#63b8ff" d="M867.07,-96.48C883.82,-100.87 903.48,-106.01 921.25,-110.66"/>
<polygon fill="#63b8ff" stroke="#63b8ff" points="920.28,-114.02 930.84,-113.17 922.05,-107.25 920.28,-114.02"/>
</a>
</g>
</g>
<!-- Node19 -->
<g id="Node000019" class="node">
<title>Node19</title>
<g id="a_Node000019"><a xlink:href="process__command_8c.html#a898fc3c3e6561eeb6f612098db5db51b" target="_top" xlink:title=" ">
<polygon fill="white" stroke="#666666" points="1007.5,-96 939,-96 939,-76 1007.5,-76 1007.5,-96"/>
<text text-anchor="middle" x="973.25" y="-82.5" font-family="Helvetica,sans-Serif" font-size="10.00">is_in_teams</text>
</a>
</g>
</g>
<!-- Node13&#45;&gt;Node19 -->
<g id="edge19_Node000013_Node000019" class="edge">
<title>Node13&#45;&gt;Node19</title>
<g id="a_edge19_Node000013_Node000019"><a xlink:title=" ">
<path fill="none" stroke="#63b8ff" d="M875.37,-86C892.26,-86 911.14,-86 927.71,-86"/>
<polygon fill="#63b8ff" stroke="#63b8ff" points="927.25,-89.5 937.25,-86 927.25,-82.5 927.25,-89.5"/>
</a>
</g>
</g>
<!-- Node20 -->
<g id="Node000020" class="node">
<title>Node20</title>
<g id="a_Node000020"><a xlink:href="process__command_8c.html#a8cff9e7b414335547030008d046149ea" target="_top" xlink:title=" ">
<polygon fill="white" stroke="#666666" points="1032.25,-58 914.25,-58 914.25,-38 1032.25,-38 1032.25,-58"/>
<text text-anchor="middle" x="973.25" y="-44.5" font-family="Helvetica,sans-Serif" font-size="10.00">new_connection_player</text>
</a>
</g>
</g>
<!-- Node13&#45;&gt;Node20 -->
<g id="edge20_Node000013_Node000020" class="edge">
<title>Node13&#45;&gt;Node20</title>
<g id="a_edge20_Node000013_Node000020"><a xlink:title=" ">
<path fill="none" stroke="#63b8ff" d="M867.07,-75.52C883.82,-71.13 903.48,-65.99 921.25,-61.34"/>
<polygon fill="#63b8ff" stroke="#63b8ff" points="922.05,-64.75 930.84,-58.83 920.28,-57.98 922.05,-64.75"/>
</a>
</g>
</g>
<!-- Node16 -->
<g id="Node000016" class="node">
<title>Node16</title>
<g id="a_Node000016"><a xlink:href="exec__command_8c.html#ad90274df54695f20fc2a27f100a9631d" target="_top" xlink:title=" ">
<polygon fill="white" stroke="#666666" points="1168.62,-96 1088.88,-96 1088.88,-76 1168.62,-76 1168.62,-96"/>
<text text-anchor="middle" x="1128.75" y="-82.5" font-family="Helvetica,sans-Serif" font-size="10.00">add_command</text>
</a>
</g>
</g>
<!-- Node15&#45;&gt;Node16 -->
<g id="edge16_Node000015_Node000016" class="edge">
<title>Node15&#45;&gt;Node16</title>
<g id="a_edge16_Node000015_Node000016"><a xlink:title=" ">
<path fill="none" stroke="#63b8ff" d="M1016.19,-113.62C1035.13,-108.93 1057.65,-103.35 1077.48,-98.44"/>
<polygon fill="#63b8ff" stroke="#63b8ff" points="1078.16,-101.88 1087.02,-96.08 1076.48,-95.09 1078.16,-101.88"/>
</a>
</g>
</g>
<!-- Node17 -->
<g id="Node000017" class="node">
<title>Node17</title>
<g id="a_Node000017"><a xlink:href="process__command_8c.html#a2b111d6371b98a5cac5128eaedeeb78c" target="_top" xlink:title=" ">
<polygon fill="white" stroke="#666666" points="1166,-172 1091.5,-172 1091.5,-152 1166,-152 1166,-172"/>
<text text-anchor="middle" x="1128.75" y="-158.5" font-family="Helvetica,sans-Serif" font-size="10.00">realloc_strcat</text>
</a>
</g>
</g>
<!-- Node15&#45;&gt;Node17 -->
<g id="edge17_Node000015_Node000017" class="edge">
<title>Node15&#45;&gt;Node17</title>
<g id="a_edge17_Node000015_Node000017"><a xlink:title=" ">
<path fill="none" stroke="#63b8ff" d="M1016.19,-134.38C1035.97,-139.28 1059.65,-145.14 1080.1,-150.2"/>
<polygon fill="#63b8ff" stroke="#63b8ff" points="1079.06,-153.55 1089.61,-152.56 1080.75,-146.76 1079.06,-153.55"/>
</a>
</g>
</g>
<!-- Node18 -->
<g id="Node000018" class="node">
<title>Node18</title>
<g id="a_Node000018"><a xlink:href="exec__command_8c.html#a281a6f6738826e3f19f602813a1efa24" target="_top" xlink:title=" ">
<polygon fill="white" stroke="#666666" points="1158.12,-134 1099.38,-134 1099.38,-114 1158.12,-114 1158.12,-134"/>
<text text-anchor="middle" x="1128.75" y="-120.5" font-family="Helvetica,sans-Serif" font-size="10.00">set_upper</text>
</a>
</g>
</g>
<!-- Node15&#45;&gt;Node18 -->
<g id="edge18_Node000015_Node000018" class="edge">
<title>Node15&#45;&gt;Node18</title>
<g id="a_edge18_Node000015_Node000018"><a xlink:title=" ">
<path fill="none" stroke="#63b8ff" d="M1016.19,-124C1038.47,-124 1065.7,-124 1087.68,-124"/>
<polygon fill="#63b8ff" stroke="#63b8ff" points="1087.45,-127.5 1097.45,-124 1087.45,-120.5 1087.45,-127.5"/>
</a>
</g>
</g>
<!-- Node21 -->
<g id="Node000021" class="node">
<title>Node21</title>
<g id="a_Node000021"><a xlink:href="process__command_8c.html#a8a3b8c540ccb4af605b27bb69c92e02a" target="_top" xlink:title=" ">
<polygon fill="white" stroke="#666666" points="1159.62,-20 1097.88,-20 1097.88,0 1159.62,0 1159.62,-20"/>
<text text-anchor="middle" x="1128.75" y="-6.5" font-family="Helvetica,sans-Serif" font-size="10.00">return_egg</text>
</a>
</g>
</g>
<!-- Node20&#45;&gt;Node21 -->
<g id="edge21_Node000020_Node000021" class="edge">
<title>Node20&#45;&gt;Node21</title>
<g id="a_edge21_Node000020_Node000021"><a xlink:title=" ">
<path fill="none" stroke="#63b8ff" d="M1016.6,-37.52C1038.42,-32.12 1064.9,-25.56 1086.55,-20.2"/>
<polygon fill="#63b8ff" stroke="#63b8ff" points="1087.36,-23.6 1096.23,-17.8 1085.68,-16.81 1087.36,-23.6"/>
</a>
</g>
</g>
<!-- Node22 -->
<g id="Node000022" class="node">
<title>Node22</title>
<g id="a_Node000022"><a xlink:href="process__command_8c.html#a1f8760aac256de83bf45d6fe94c62cf2" target="_top" xlink:title=" ">
<polygon fill="white" stroke="#666666" points="1189.25,-58 1068.25,-58 1068.25,-38 1189.25,-38 1189.25,-58"/>
<text text-anchor="middle" x="1128.75" y="-44.5" font-family="Helvetica,sans-Serif" font-size="10.00">send_datas_new_player</text>
</a>
</g>
</g>
<!-- Node20&#45;&gt;Node22 -->
<g id="edge22_Node000020_Node000022" class="edge">
<title>Node20&#45;&gt;Node22</title>
<g id="a_edge22_Node000020_Node000022"><a xlink:title=" ">
<path fill="none" stroke="#63b8ff" d="M1032.72,-48C1040.55,-48 1048.65,-48 1056.67,-48"/>
<polygon fill="#63b8ff" stroke="#63b8ff" points="1056.4,-51.5 1066.4,-48 1056.4,-44.5 1056.4,-51.5"/>
</a>
</g>
</g>
<!-- Node23 -->
<g id="Node000023" class="node">
<title>Node23</title>
<g id="a_Node000023"><a xlink:href="process__command_8c.html#a08624952cec00b3168e63e05f4203f97" target="_top" xlink:title=" ">
<polygon fill="white" stroke="#666666" points="1341.75,-58 1225.25,-58 1225.25,-38 1341.75,-38 1341.75,-58"/>
<text text-anchor="middle" x="1283.5" y="-44.5" font-family="Helvetica,sans-Serif" font-size="10.00">send_data_to_graphics</text>
</a>
</g>
</g>
<!-- Node22&#45;&gt;Node23 -->
<g id="edge23_Node000022_Node000023" class="edge">
<title>Node22&#45;&gt;Node23</title>
<g id="a_edge23_Node000022_Node000023"><a xlink:title=" ">
<path fill="none" stroke="#63b8ff" d="M1189.68,-48C1197.64,-48 1205.84,-48 1213.92,-48"/>
<polygon fill="#63b8ff" stroke="#63b8ff" points="1213.72,-51.5 1223.72,-48 1213.72,-44.5 1213.72,-51.5"/>
</a>
</g>
</g>
<!-- Node24&#45;&gt;Node5 -->
<g id="edge25_Node000024_Node000005" class="edge">
<title>Node24&#45;&gt;Node5</title>
<g id="a_edge25_Node000024_Node000005"><a xlink:title=" ">
<path fill="none" stroke="#63b8ff" d="M442.15,-85.61C481.61,-85.78 535.62,-86.9 583,-91 598.78,-92.37 615.94,-94.66 631.25,-97.01"/>
<polygon fill="#63b8ff" stroke="#63b8ff" points="630.62,-100.45 641.04,-98.56 631.71,-93.54 630.62,-100.45"/>
</a>
</g>
</g>
</g>
</svg>

<g id="navigator" transform="translate(0 0)" fill="#404254">
  <rect fill="#f2f5e9" fill-opacity="0.5" stroke="#606060" stroke-width=".5" x="0" y="0" width="60" height="60"/>
  <use id="zoomplus" xlink:href="#zoomPlus" x="17" y="9" onmousedown="handleZoom(evt,'in')"/>
  <use id="zoomminus" xlink:href="#zoomMin" x="42" y="9" onmousedown="handleZoom(evt,'out')"/>
  <use id="reset" xlink:href="#resetDef" x="30" y="36" onmousedown="handleReset()"/>
   <use id="arrowup" xlink:href="#arrowUp" x="0" y="0" onmousedown="handlePan(0,-1)"/>
  <use id="arrowright" xlink:href="#arrowRight" x="0" y="0" onmousedown="handlePan(1,0)"/>
  <use id="arrowdown" xlink:href="#arrowDown" x="0" y="0" onmousedown="handlePan(0,1)"/>
  <use id="arrowleft" xlink:href="#arrowLeft" x="0" y="0" onmousedown="handlePan(-1,0)"/>
</g>
<svg viewBox="0 0 15 15" width="100%" height="30px" preserveAspectRatio="xMaxYMin meet">
 <g id="arrow_out" transform="scale(0.3 0.3)">
  <a xlink:href="zappy_8c_a546faa7b19427abaa0c156a70b4ff185_cgraph_org.svg" target="_base">
   <rect id="button" ry="5" rx="5" y="6" x="6" height="38" width="38"
        fill="#f2f5e9" fill-opacity="0.5" stroke="#606060" stroke-width="1.0"/>
   <path id="arrow"
     d="M 11.500037,31.436501 C 11.940474,20.09759 22.043105,11.32322 32.158766,21.979434 L 37.068811,17.246167 C 37.068811,17.246167 37.088388,32 37.088388,32 L 22.160133,31.978069 C 22.160133,31.978069 26.997745,27.140456 26.997745,27.140456 C 18.528582,18.264221 13.291696,25.230495 11.500037,31.436501 z"
     style="fill:#404040;"/>
  </a>
 </g>
</svg>

<style type='text/css'>
<![CDATA[
[data-mouse-over-selected='false'] { opacity: 0.7; }
[data-mouse-over-selected='true']  { opacity: 1.0; }
]]>
</style>
<script type="application/ecmascript"><![CDATA[
document.addEventListener('DOMContentLoaded', (event) => {
  highlightEdges();
  highlightAdjacentNodes();
});
]]></script>
</svg>
