<?xml version="1.0" encoding="UTF-8" standalone="no"?>
<!DOCTYPE svg PUBLIC "-//W3C//DTD SVG 1.1//EN"
 "http://www.w3.org/Graphics/SVG/1.1/DTD/svg11.dtd">
<!-- Generated by graphviz version 12.2.1 (20241206.2353)
 -->
<!-- Title: /home/matt/tek2/YEP/ZAPPY/zappy_ai_src/main.cpp Pages: 1 -->
<svg width="838pt" height="108pt"
 viewBox="0.00 0.00 838.00 108.00" xmlns="http://www.w3.org/2000/svg" xmlns:xlink="http://www.w3.org/1999/xlink">
<g id="graph0" class="graph" transform="scale(1 1) rotate(0) translate(4 104)">
<title>/home/matt/tek2/YEP/ZAPPY/zappy_ai_src/main.cpp</title>
<!-- Node1 -->
<g id="Node000001" class="node">
<title>Node1</title>
<g id="a_Node000001"><a xlink:title=" ">
<polygon fill="#999999" stroke="#666666" points="303.5,-100 190.75,-100 190.75,-56 303.5,-56 303.5,-100"/>
<text text-anchor="start" x="198.75" y="-86.5" font-family="Helvetica,sans-Serif" font-size="10.00">/home/matt/tek2/YEP</text>
<text text-anchor="start" x="198.75" y="-74.5" font-family="Helvetica,sans-Serif" font-size="10.00">/ZAPPY/zappy_ai_src</text>
<text text-anchor="middle" x="247.12" y="-62.5" font-family="Helvetica,sans-Serif" font-size="10.00">/main.cpp</text>
</a>
</g>
</g>
<!-- Node2 -->
<g id="Node000002" class="node">
<title>Node2</title>
<g id="a_Node000002"><a xlink:title=" ">
<polygon fill="#e0e0e0" stroke="#999999" points="48.25,-20 0,-20 0,0 48.25,0 48.25,-20"/>
<text text-anchor="middle" x="24.12" y="-6.5" font-family="Helvetica,sans-Serif" font-size="10.00">string.h</text>
</a>
</g>
</g>
<!-- Node1&#45;&gt;Node2 -->
<g id="edge1_Node000001_Node000002" class="edge">
<title>Node1&#45;&gt;Node2</title>
<g id="a_edge1_Node000001_Node000002"><a xlink:title=" ">
<path fill="none" stroke="#63b8ff" d="M190.28,-60.17C148.94,-47.94 94.29,-31.77 59.17,-21.37"/>
<polygon fill="#63b8ff" stroke="#63b8ff" points="60.52,-18.12 49.94,-18.64 58.54,-24.83 60.52,-18.12"/>
</a>
</g>
</g>
<!-- Node3 -->
<g id="Node000003" class="node">
<title>Node3</title>
<g id="a_Node000003"><a xlink:title=" ">
<polygon fill="#e0e0e0" stroke="#999999" points="109.62,-20 66.62,-20 66.62,0 109.62,0 109.62,-20"/>
<text text-anchor="middle" x="88.12" y="-6.5" font-family="Helvetica,sans-Serif" font-size="10.00">thread</text>
</a>
</g>
</g>
<!-- Node1&#45;&gt;Node3 -->
<g id="edge2_Node000001_Node000003" class="edge">
<title>Node1&#45;&gt;Node3</title>
<g id="a_edge2_Node000001_Node000003"><a xlink:title=" ">
<path fill="none" stroke="#63b8ff" d="M195.5,-55.57C170.79,-45.31 141.97,-33.35 120.41,-24.4"/>
<polygon fill="#63b8ff" stroke="#63b8ff" points="121.83,-21.2 111.26,-20.6 119.15,-27.67 121.83,-21.2"/>
</a>
</g>
</g>
<!-- Node4 -->
<g id="Node000004" class="node">
<title>Node4</title>
<g id="a_Node000004"><a xlink:title=" ">
<polygon fill="#e0e0e0" stroke="#999999" points="170.25,-20 128,-20 128,0 170.25,0 170.25,-20"/>
<text text-anchor="middle" x="149.12" y="-6.5" font-family="Helvetica,sans-Serif" font-size="10.00">cstdio</text>
</a>
</g>
</g>
<!-- Node1&#45;&gt;Node4 -->
<g id="edge3_Node000001_Node000004" class="edge">
<title>Node1&#45;&gt;Node4</title>
<g id="a_edge3_Node000001_Node000004"><a xlink:title=" ">
<path fill="none" stroke="#63b8ff" d="M215.31,-55.57C201.37,-46.19 185.31,-35.37 172.5,-26.75"/>
<polygon fill="#63b8ff" stroke="#63b8ff" points="174.54,-23.89 164.29,-21.21 170.63,-29.7 174.54,-23.89"/>
</a>
</g>
</g>
<!-- Node5 -->
<g id="Node000005" class="node">
<title>Node5</title>
<g id="a_Node000005"><a xlink:title=" ">
<polygon fill="#e0e0e0" stroke="#999999" points="241.88,-20 188.38,-20 188.38,0 241.88,0 241.88,-20"/>
<text text-anchor="middle" x="215.12" y="-6.5" font-family="Helvetica,sans-Serif" font-size="10.00">iostream</text>
</a>
</g>
</g>
<!-- Node1&#45;&gt;Node5 -->
<g id="edge4_Node000001_Node000005" class="edge">
<title>Node1&#45;&gt;Node5</title>
<g id="a_edge4_Node000001_Node000005"><a xlink:title=" ">
<path fill="none" stroke="#63b8ff" d="M236.82,-55.75C232.9,-47.66 228.45,-38.48 224.6,-30.55"/>
<polygon fill="#63b8ff" stroke="#63b8ff" points="227.86,-29.25 220.35,-21.78 221.57,-32.31 227.86,-29.25"/>
</a>
</g>
</g>
<!-- Node6 -->
<g id="Node000006" class="node">
<title>Node6</title>
<g id="a_Node000006"><a xlink:title=" ">
<polygon fill="#e0e0e0" stroke="#999999" points="300.12,-20 260.12,-20 260.12,0 300.12,0 300.12,-20"/>
<text text-anchor="middle" x="280.12" y="-6.5" font-family="Helvetica,sans-Serif" font-size="10.00">string</text>
</a>
</g>
</g>
<!-- Node1&#45;&gt;Node6 -->
<g id="edge5_Node000001_Node000006" class="edge">
<title>Node1&#45;&gt;Node6</title>
<g id="a_edge5_Node000001_Node000006"><a xlink:title=" ">
<path fill="none" stroke="#63b8ff" d="M257.75,-55.75C261.79,-47.66 266.38,-38.48 270.35,-30.55"/>
<polygon fill="#63b8ff" stroke="#63b8ff" points="273.4,-32.28 274.74,-21.77 267.14,-29.15 273.4,-32.28"/>
</a>
</g>
</g>
<!-- Node7 -->
<g id="Node000007" class="node">
<title>Node7</title>
<g id="a_Node000007"><a xlink:title=" ">
<polygon fill="#e0e0e0" stroke="#999999" points="472.5,-20 317.75,-20 317.75,0 472.5,0 472.5,-20"/>
<text text-anchor="middle" x="395.12" y="-6.5" font-family="Helvetica,sans-Serif" font-size="10.00">DataManager/DataManager.hpp</text>
</a>
</g>
</g>
<!-- Node1&#45;&gt;Node7 -->
<g id="edge6_Node000001_Node000007" class="edge">
<title>Node1&#45;&gt;Node7</title>
<g id="a_edge6_Node000001_Node000007"><a xlink:title=" ">
<path fill="none" stroke="#63b8ff" d="M295.18,-55.57C317.68,-45.54 343.85,-33.87 363.77,-24.98"/>
<polygon fill="#63b8ff" stroke="#63b8ff" points="365.03,-28.25 372.74,-20.98 362.18,-21.86 365.03,-28.25"/>
</a>
</g>
</g>
<!-- Node8 -->
<g id="Node000008" class="node">
<title>Node8</title>
<g id="a_Node000008"><a xlink:title=" ">
<polygon fill="#e0e0e0" stroke="#999999" points="618,-20 490.25,-20 490.25,0 618,0 618,-20"/>
<text text-anchor="middle" x="554.12" y="-6.5" font-family="Helvetica,sans-Serif" font-size="10.00">include/AIConnection.hpp</text>
</a>
</g>
</g>
<!-- Node1&#45;&gt;Node8 -->
<g id="edge7_Node000001_Node000008" class="edge">
<title>Node1&#45;&gt;Node8</title>
<g id="a_edge7_Node000001_Node000008"><a xlink:title=" ">
<path fill="none" stroke="#63b8ff" d="M303.79,-64.82C359.55,-52.83 444.12,-34.65 499.25,-22.8"/>
<polygon fill="#63b8ff" stroke="#63b8ff" points="499.68,-26.28 508.73,-20.76 498.21,-19.44 499.68,-26.28"/>
</a>
</g>
</g>
<!-- Node9 -->
<g id="Node000009" class="node">
<title>Node9</title>
<g id="a_Node000009"><a xlink:title=" ">
<polygon fill="#e0e0e0" stroke="#999999" points="830,-20 636.25,-20 636.25,0 830,0 830,-20"/>
<text text-anchor="middle" x="733.12" y="-6.5" font-family="Helvetica,sans-Serif" font-size="10.00">Exceptions/DataManagerExceptions.hpp</text>
</a>
</g>
</g>
<!-- Node1&#45;&gt;Node9 -->
<g id="edge8_Node000001_Node000009" class="edge">
<title>Node1&#45;&gt;Node9</title>
<g id="a_edge8_Node000001_Node000009"><a xlink:title=" ">
<path fill="none" stroke="#63b8ff" d="M303.83,-69.3C389.81,-57.62 553.58,-35.38 652.1,-22"/>
<polygon fill="#63b8ff" stroke="#63b8ff" points="652.55,-25.47 661.99,-20.66 651.61,-18.54 652.55,-25.47"/>
</a>
</g>
</g>
</g>
</svg>
