<?xml version="1.0" encoding="UTF-8" standalone="no"?>
<!DOCTYPE svg PUBLIC "-//W3C//DTD SVG 1.1//EN"
 "http://www.w3.org/Graphics/SVG/1.1/DTD/svg11.dtd">
<!-- Generated by graphviz version 12.2.1 (20241206.2353)
 -->
<!-- Title: /home/matt/tek2/YEP/ZAPPY/zappy_server_src/zappy.c Pages: 1 -->
<svg width="654pt" height="108pt"
 viewBox="0.00 0.00 654.00 108.00" xmlns="http://www.w3.org/2000/svg" xmlns:xlink="http://www.w3.org/1999/xlink">
<g id="graph0" class="graph" transform="scale(1 1) rotate(0) translate(4 104)">
<title>/home/matt/tek2/YEP/ZAPPY/zappy_server_src/zappy.c</title>
<!-- Node1 -->
<g id="Node000001" class="node">
<title>Node1</title>
<g id="a_Node000001"><a xlink:title=" ">
<polygon fill="#999999" stroke="#666666" points="310.38,-100 196.88,-100 196.88,-56 310.38,-56 310.38,-100"/>
<text text-anchor="start" x="204.88" y="-86.5" font-family="Helvetica,sans-Serif" font-size="10.00">/home/matt/tek2/YEP</text>
<text text-anchor="start" x="204.88" y="-74.5" font-family="Helvetica,sans-Serif" font-size="10.00">/ZAPPY/zappy_server</text>
<text text-anchor="middle" x="253.62" y="-62.5" font-family="Helvetica,sans-Serif" font-size="10.00">_src/zappy.c</text>
</a>
</g>
</g>
<!-- Node2 -->
<g id="Node000002" class="node">
<title>Node2</title>
<g id="a_Node000002"><a xlink:title=" ">
<polygon fill="#e0e0e0" stroke="#999999" points="45.25,-20 0,-20 0,0 45.25,0 45.25,-20"/>
<text text-anchor="middle" x="22.62" y="-6.5" font-family="Helvetica,sans-Serif" font-size="10.00">stdio.h</text>
</a>
</g>
</g>
<!-- Node1&#45;&gt;Node2 -->
<g id="edge1_Node000001_Node000002" class="edge">
<title>Node1&#45;&gt;Node2</title>
<g id="a_edge1_Node000001_Node000002"><a xlink:title=" ">
<path fill="none" stroke="#63b8ff" d="M196.71,-60.86C159.25,-50.22 108.86,-35.87 56.49,-20.82"/>
<polygon fill="#63b8ff" stroke="#63b8ff" points="57.68,-17.52 47.1,-18.12 55.74,-24.24 57.68,-17.52"/>
</a>
</g>
</g>
<!-- Node3 -->
<g id="Node000003" class="node">
<title>Node3</title>
<g id="a_Node000003"><a xlink:title=" ">
<polygon fill="#e0e0e0" stroke="#999999" points="110.38,-20 62.88,-20 62.88,0 110.38,0 110.38,-20"/>
<text text-anchor="middle" x="86.62" y="-6.5" font-family="Helvetica,sans-Serif" font-size="10.00">stdlib.h</text>
</a>
</g>
</g>
<!-- Node1&#45;&gt;Node3 -->
<g id="edge2_Node000001_Node000003" class="edge">
<title>Node1&#45;&gt;Node3</title>
<g id="a_edge2_Node000001_Node000003"><a xlink:title=" ">
<path fill="none" stroke="#63b8ff" d="M199.4,-55.57C173.54,-45.35 143.39,-33.43 120.77,-24.49"/>
<polygon fill="#63b8ff" stroke="#63b8ff" points="122.32,-21.34 111.73,-20.92 119.74,-27.85 122.32,-21.34"/>
</a>
</g>
</g>
<!-- Node4 -->
<g id="Node000004" class="node">
<title>Node4</title>
<g id="a_Node000004"><a xlink:title=" ">
<polygon fill="#e0e0e0" stroke="#999999" points="178.5,-20 128.75,-20 128.75,0 178.5,0 178.5,-20"/>
<text text-anchor="middle" x="153.62" y="-6.5" font-family="Helvetica,sans-Serif" font-size="10.00">signal.h</text>
</a>
</g>
</g>
<!-- Node1&#45;&gt;Node4 -->
<g id="edge3_Node000001_Node000004" class="edge">
<title>Node1&#45;&gt;Node4</title>
<g id="a_edge3_Node000001_Node000004"><a xlink:title=" ">
<path fill="none" stroke="#63b8ff" d="M221.16,-55.57C206.8,-46.09 190.23,-35.16 177.09,-26.49"/>
<polygon fill="#63b8ff" stroke="#63b8ff" points="179.35,-23.79 169.08,-21.2 175.5,-29.63 179.35,-23.79"/>
</a>
</g>
</g>
<!-- Node5 -->
<g id="Node000005" class="node">
<title>Node5</title>
<g id="a_Node000005"><a xlink:title=" ">
<polygon fill="#e0e0e0" stroke="#999999" points="236.25,-20 197,-20 197,0 236.25,0 236.25,-20"/>
<text text-anchor="middle" x="216.62" y="-6.5" font-family="Helvetica,sans-Serif" font-size="10.00">poll.h</text>
</a>
</g>
</g>
<!-- Node1&#45;&gt;Node5 -->
<g id="edge4_Node000001_Node000005" class="edge">
<title>Node1&#45;&gt;Node5</title>
<g id="a_edge4_Node000001_Node000005"><a xlink:title=" ">
<path fill="none" stroke="#63b8ff" d="M241.71,-55.75C237.12,-47.57 231.91,-38.27 227.43,-30.28"/>
<polygon fill="#63b8ff" stroke="#63b8ff" points="230.59,-28.75 222.65,-21.74 224.48,-32.17 230.59,-28.75"/>
</a>
</g>
</g>
<!-- Node6 -->
<g id="Node000006" class="node">
<title>Node6</title>
<g id="a_Node000006"><a xlink:title=" ">
<polygon fill="#e0e0e0" stroke="#999999" points="326.75,-20 254.5,-20 254.5,0 326.75,0 326.75,-20"/>
<text text-anchor="middle" x="290.62" y="-6.5" font-family="Helvetica,sans-Serif" font-size="10.00">sys/socket.h</text>
</a>
</g>
</g>
<!-- Node1&#45;&gt;Node6 -->
<g id="edge5_Node000001_Node000006" class="edge">
<title>Node1&#45;&gt;Node6</title>
<g id="a_edge5_Node000001_Node000006"><a xlink:title=" ">
<path fill="none" stroke="#63b8ff" d="M265.54,-55.75C270.13,-47.57 275.34,-38.27 279.82,-30.28"/>
<polygon fill="#63b8ff" stroke="#63b8ff" points="282.77,-32.17 284.6,-21.74 276.66,-28.75 282.77,-32.17"/>
</a>
</g>
</g>
<!-- Node7 -->
<g id="Node000007" class="node">
<title>Node7</title>
<g id="a_Node000007"><a xlink:title=" ">
<polygon fill="#e0e0e0" stroke="#999999" points="428.38,-20 344.88,-20 344.88,0 428.38,0 428.38,-20"/>
<text text-anchor="middle" x="386.62" y="-6.5" font-family="Helvetica,sans-Serif" font-size="10.00">include/zappy.h</text>
</a>
</g>
</g>
<!-- Node1&#45;&gt;Node7 -->
<g id="edge6_Node000001_Node000007" class="edge">
<title>Node1&#45;&gt;Node7</title>
<g id="a_edge6_Node000001_Node000007"><a xlink:title=" ">
<path fill="none" stroke="#63b8ff" d="M296.81,-55.57C316.66,-45.72 339.68,-34.3 357.44,-25.48"/>
<polygon fill="#63b8ff" stroke="#63b8ff" points="358.99,-28.62 366.4,-21.04 355.88,-22.35 358.99,-28.62"/>
</a>
</g>
</g>
<!-- Node8 -->
<g id="Node000008" class="node">
<title>Node8</title>
<g id="a_Node000008"><a xlink:title=" ">
<polygon fill="#e0e0e0" stroke="#999999" points="527.25,-20 446,-20 446,0 527.25,0 527.25,-20"/>
<text text-anchor="middle" x="486.62" y="-6.5" font-family="Helvetica,sans-Serif" font-size="10.00">include/client.h</text>
</a>
</g>
</g>
<!-- Node1&#45;&gt;Node8 -->
<g id="edge7_Node000001_Node000008" class="edge">
<title>Node1&#45;&gt;Node8</title>
<g id="a_edge7_Node000001_Node000008"><a xlink:title=" ">
<path fill="none" stroke="#63b8ff" d="M310.62,-60.85C351.16,-49.37 404.83,-34.17 442.2,-23.58"/>
<polygon fill="#63b8ff" stroke="#63b8ff" points="443.12,-26.96 451.79,-20.87 441.21,-20.23 443.12,-26.96"/>
</a>
</g>
</g>
<!-- Node9 -->
<g id="Node000009" class="node">
<title>Node9</title>
<g id="a_Node000009"><a xlink:title=" ">
<polygon fill="#e0e0e0" stroke="#999999" points="646,-20 545.25,-20 545.25,0 646,0 646,-20"/>
<text text-anchor="middle" x="595.62" y="-6.5" font-family="Helvetica,sans-Serif" font-size="10.00">include/command.h</text>
</a>
</g>
</g>
<!-- Node1&#45;&gt;Node9 -->
<g id="edge8_Node000001_Node000009" class="edge">
<title>Node1&#45;&gt;Node9</title>
<g id="a_edge8_Node000001_Node000009"><a xlink:title=" ">
<path fill="none" stroke="#63b8ff" d="M310.87,-65.95C373.11,-53.94 472.17,-34.83 535.51,-22.6"/>
<polygon fill="#63b8ff" stroke="#63b8ff" points="535.88,-26.09 545.04,-20.76 534.56,-19.22 535.88,-26.09"/>
</a>
</g>
</g>
</g>
</svg>
