<?xml version="1.0" encoding="UTF-8" standalone="no"?>
<!DOCTYPE svg PUBLIC "-//W3C//DTD SVG 1.1//EN"
 "http://www.w3.org/Graphics/SVG/1.1/DTD/svg11.dtd">
<!-- Generated by graphviz version 12.2.1 (20241206.2353)
 -->
<!-- Title: down_server Pages: 1 -->
<svg width="321pt" height="180pt"
 viewBox="0.00 0.00 320.75 180.00" xmlns="http://www.w3.org/2000/svg" xmlns:xlink="http://www.w3.org/1999/xlink">

<svg id="main" version="1.1" xmlns="http://www.w3.org/2000/svg" xmlns:xlink="http://www.w3.org/1999/xlink" xml:space="preserve">

<style type="text/css"><![CDATA[
.node, .edge {opacity: 0.7;}
.node.selected, .edge.selected {opacity: 1;}
.edge:hover path { stroke: red; }
.edge:hover polygon { stroke: red; fill: red; }
]]></style>
<script type="application/ecmascript" xlink:href="svg.min.js"/>
<svg id="graph" class="graph">
<g id="graph0" class="graph" transform="scale(1 1) rotate(0) translate(4 176)">
<title>down_server</title>
<!-- Node1 -->
<g id="Node000001" class="node">
<title>Node1</title>
<g id="a_Node000001"><a xlink:title=" ">
<polygon fill="#999999" stroke="#666666" points="71.5,-96 0,-96 0,-76 71.5,-76 71.5,-96"/>
<text text-anchor="middle" x="35.75" y="-82.5" font-family="Helvetica,sans-Serif" font-size="10.00">down_server</text>
</a>
</g>
</g>
<!-- Node2 -->
<g id="Node000002" class="node">
<title>Node2</title>
<g id="a_Node000002"><a xlink:href="client_8c.html#ad2e6718d9e672c9a08080dfbdb986c9f" target="_top" xlink:title=" ">
<polygon fill="white" stroke="#666666" points="197,-172 115,-172 115,-152 197,-152 197,-172"/>
<text text-anchor="middle" x="156" y="-158.5" font-family="Helvetica,sans-Serif" font-size="10.00">destroy_clients</text>
</a>
</g>
</g>
<!-- Node1&#45;&gt;Node2 -->
<g id="edge1_Node000001_Node000002" class="edge">
<title>Node1&#45;&gt;Node2</title>
<g id="a_edge1_Node000001_Node000002"><a xlink:title=" ">
<path fill="none" stroke="#63b8ff" d="M47.5,-96.39C60.75,-108.77 84.36,-129.46 107.5,-143 109.8,-144.34 112.21,-145.63 114.67,-146.86"/>
<polygon fill="#63b8ff" stroke="#63b8ff" points="113.03,-149.96 123.59,-150.93 115.94,-143.6 113.03,-149.96"/>
</a>
</g>
</g>
<!-- Node4 -->
<g id="Node000004" class="node">
<title>Node4</title>
<g id="a_Node000004"><a xlink:href="parser_8c.html#a0b46abee78e86769281fcee4c24dd8ee" target="_top" xlink:title=" ">
<polygon fill="white" stroke="#666666" points="196.25,-134 115.75,-134 115.75,-114 196.25,-114 196.25,-134"/>
<text text-anchor="middle" x="156" y="-120.5" font-family="Helvetica,sans-Serif" font-size="10.00">destroy_parser</text>
</a>
</g>
</g>
<!-- Node1&#45;&gt;Node4 -->
<g id="edge3_Node000001_Node000004" class="edge">
<title>Node1&#45;&gt;Node4</title>
<g id="a_edge3_Node000001_Node000004"><a xlink:title=" ">
<path fill="none" stroke="#63b8ff" d="M69.38,-96.48C82.43,-100.68 97.66,-105.57 111.62,-110.06"/>
<polygon fill="#63b8ff" stroke="#63b8ff" points="110.45,-113.36 121.04,-113.09 112.59,-106.7 110.45,-113.36"/>
</a>
</g>
</g>
<!-- Node5 -->
<g id="Node000005" class="node">
<title>Node5</title>
<g id="a_Node000005"><a xlink:href="parser__str_8c.html#a079c483a13d5fd30e3d4ff61a12cd703" target="_top" xlink:title=" ">
<polygon fill="white" stroke="#666666" points="204.5,-96 107.5,-96 107.5,-76 204.5,-76 204.5,-96"/>
<text text-anchor="middle" x="156" y="-82.5" font-family="Helvetica,sans-Serif" font-size="10.00">destroy_parser_str</text>
</a>
</g>
</g>
<!-- Node1&#45;&gt;Node5 -->
<g id="edge4_Node000001_Node000005" class="edge">
<title>Node1&#45;&gt;Node5</title>
<g id="a_edge4_Node000001_Node000005"><a xlink:title=" ">
<path fill="none" stroke="#63b8ff" d="M71.91,-86C79.4,-86 87.52,-86 95.64,-86"/>
<polygon fill="#63b8ff" stroke="#63b8ff" points="95.55,-89.5 105.55,-86 95.55,-82.5 95.55,-89.5"/>
</a>
</g>
</g>
<!-- Node6 -->
<g id="Node000006" class="node">
<title>Node6</title>
<g id="a_Node000006"><a xlink:href="server_8c.html#a1419add62a8164aa89c42e83753e5a7f" target="_top" xlink:title=" ">
<polygon fill="white" stroke="#666666" points="196.25,-58 115.75,-58 115.75,-38 196.25,-38 196.25,-58"/>
<text text-anchor="middle" x="156" y="-44.5" font-family="Helvetica,sans-Serif" font-size="10.00">destroy_server</text>
</a>
</g>
</g>
<!-- Node1&#45;&gt;Node6 -->
<g id="edge5_Node000001_Node000006" class="edge">
<title>Node1&#45;&gt;Node6</title>
<g id="a_edge5_Node000001_Node000006"><a xlink:title=" ">
<path fill="none" stroke="#63b8ff" d="M69.38,-75.52C82.43,-71.32 97.66,-66.43 111.62,-61.94"/>
<polygon fill="#63b8ff" stroke="#63b8ff" points="112.59,-65.3 121.04,-58.91 110.45,-58.64 112.59,-65.3"/>
</a>
</g>
</g>
<!-- Node7 -->
<g id="Node000007" class="node">
<title>Node7</title>
<g id="a_Node000007"><a xlink:href="map__creation_8c.html#ab496a562cf58d3dbd658cb496a3b1dd3" target="_top" xlink:title=" ">
<polygon fill="white" stroke="#666666" points="203,-20 109,-20 109,0 203,0 203,-20"/>
<text text-anchor="middle" x="156" y="-6.5" font-family="Helvetica,sans-Serif" font-size="10.00">free_starting_map</text>
</a>
</g>
</g>
<!-- Node1&#45;&gt;Node7 -->
<g id="edge7_Node000001_Node000007" class="edge">
<title>Node1&#45;&gt;Node7</title>
<g id="a_edge7_Node000001_Node000007"><a xlink:title=" ">
<path fill="none" stroke="#63b8ff" d="M47.5,-75.61C60.75,-63.23 84.36,-42.54 107.5,-29 109.8,-27.66 112.21,-26.37 114.67,-25.14"/>
<polygon fill="#63b8ff" stroke="#63b8ff" points="115.94,-28.4 123.59,-21.07 113.03,-22.04 115.94,-28.4"/>
</a>
</g>
</g>
<!-- Node3 -->
<g id="Node000003" class="node">
<title>Node3</title>
<g id="a_Node000003"><a xlink:href="parser_8c.html#a3fd716b111caa8f93098f7e5070fd0bb" target="_top" xlink:title=" ">
<polygon fill="white" stroke="#666666" points="312.38,-115 240.88,-115 240.88,-95 312.38,-95 312.38,-115"/>
<text text-anchor="middle" x="276.62" y="-101.5" font-family="Helvetica,sans-Serif" font-size="10.00">display_error</text>
</a>
</g>
</g>
<!-- Node2&#45;&gt;Node3 -->
<g id="edge2_Node000002_Node000003" class="edge">
<title>Node2&#45;&gt;Node3</title>
<g id="a_edge2_Node000002_Node000003"><a xlink:title=" ">
<path fill="none" stroke="#63b8ff" d="M184.6,-151.56C191.18,-148.9 198.14,-145.96 204.5,-143 219.02,-136.24 234.77,-127.93 247.75,-120.81"/>
<polygon fill="#63b8ff" stroke="#63b8ff" points="249.12,-124.05 256.16,-116.14 245.72,-117.93 249.12,-124.05"/>
</a>
</g>
</g>
<!-- Node6&#45;&gt;Node3 -->
<g id="edge6_Node000006_Node000003" class="edge">
<title>Node6&#45;&gt;Node3</title>
<g id="a_edge6_Node000006_Node000003"><a xlink:title=" ">
<path fill="none" stroke="#63b8ff" d="M184.6,-58.44C191.18,-61.1 198.14,-64.04 204.5,-67 219.02,-73.76 234.77,-82.07 247.75,-89.19"/>
<polygon fill="#63b8ff" stroke="#63b8ff" points="245.72,-92.07 256.16,-93.86 249.12,-85.95 245.72,-92.07"/>
</a>
</g>
</g>
<!-- Node8 -->
<g id="Node000008" class="node">
<title>Node8</title>
<g id="a_Node000008"><a xlink:href="map_8c.html#ab3665f27df0b86ccb8e8eca7f8f85821" target="_top" xlink:title=" ">
<polygon fill="white" stroke="#666666" points="312.75,-20 240.5,-20 240.5,0 312.75,0 312.75,-20"/>
<text text-anchor="middle" x="276.62" y="-6.5" font-family="Helvetica,sans-Serif" font-size="10.00">destroy_map</text>
</a>
</g>
</g>
<!-- Node7&#45;&gt;Node8 -->
<g id="edge8_Node000007_Node000008" class="edge">
<title>Node7&#45;&gt;Node8</title>
<g id="a_edge8_Node000007_Node000008"><a xlink:title=" ">
<path fill="none" stroke="#63b8ff" d="M203.2,-10C211.52,-10 220.19,-10 228.53,-10"/>
<polygon fill="#63b8ff" stroke="#63b8ff" points="228.51,-13.5 238.5,-10 228.5,-6.5 228.51,-13.5"/>
</a>
</g>
</g>
</g>
</svg>
</svg>

<style type='text/css'>
<![CDATA[
[data-mouse-over-selected='false'] { opacity: 0.7; }
[data-mouse-over-selected='true']  { opacity: 1.0; }
]]>
</style>
<script type="application/ecmascript"><![CDATA[
document.addEventListener('DOMContentLoaded', (event) => {
  highlightEdges();
  highlightAdjacentNodes();
});
]]></script>
</svg>
