# Blender 4.4.3
# www.blender.org
o Cylinder
v 0.000000 -0.453923 -1.000000
v 0.000000 4.582614 -1.000000
v 0.382683 -0.453923 -0.923880
v 0.382683 4.582614 -0.923880
v 0.707107 -0.453923 -0.707107
v 0.707107 4.582614 -0.707107
v 0.923880 -0.453923 -0.382683
v 0.923880 4.582614 -0.382683
v 1.000000 -0.453923 0.000000
v 1.000000 4.582614 0.000000
v 0.923880 -0.453923 0.382683
v 0.923880 4.582614 0.382683
v 0.707107 -0.453923 0.707107
v 0.707107 4.582614 0.707107
v 0.382683 -0.453923 0.923880
v 0.382683 4.582614 0.923880
v 0.000000 -0.453923 1.000000
v 0.000000 4.582614 1.000000
v -0.382683 -0.453923 0.923880
v -0.382683 4.582614 0.923880
v -0.707107 -0.453923 0.707107
v -0.707107 4.582614 0.707107
v -0.923880 -0.453923 0.382683
v -0.923880 4.582614 0.382683
v -1.000000 -0.453923 0.000000
v -1.000000 4.582614 0.000000
v -0.923880 -0.453923 -0.382683
v -0.923880 4.582614 -0.382683
v -0.707107 -0.453923 -0.707107
v -0.707107 4.582614 -0.707107
v -0.382683 -0.453923 -0.923880
v -0.382683 4.582614 -0.923880
v 0.000000 3.054767 -1.000000
v 0.382683 3.054767 -0.923880
v 0.707107 3.054767 -0.707107
v 0.923880 3.054767 -0.382683
v 1.000000 3.054767 0.000000
v 0.923880 3.054767 0.382683
v 0.707107 3.054767 0.707107
v 0.382683 3.054767 0.923880
v 0.000000 3.054767 1.000000
v -0.382683 3.054767 0.923880
v -0.707107 3.054767 0.707107
v -0.923880 3.054767 0.382683
v -1.000000 3.054767 0.000000
v -0.923880 3.054767 -0.382683
v -0.707107 3.054767 -0.707107
v -0.382683 3.054767 -0.923880
v 0.000000 4.510499 -0.433840
v 0.000000 4.809793 -0.433840
v 0.166023 4.510499 -0.400816
v 0.166023 4.809793 -0.400816
v 0.306771 4.510499 -0.306771
v 0.306771 4.809793 -0.306771
v 0.400816 4.510499 -0.166023
v 0.400816 4.809793 -0.166023
v 0.433840 4.510499 0.000000
v 0.433840 4.809793 0.000000
v 0.400816 4.510499 0.166023
v 0.400816 4.809793 0.166023
v 0.306771 4.510499 0.306771
v 0.306771 4.809793 0.306771
v 0.166023 4.510499 0.400816
v 0.166023 4.809793 0.400816
v 0.000000 4.510499 0.433840
v 0.000000 4.809793 0.433840
v -0.166023 4.510499 0.400816
v -0.166023 4.809793 0.400816
v -0.306771 4.510499 0.306771
v -0.306771 4.809793 0.306771
v -0.400816 4.510499 0.166023
v -0.400816 4.809793 0.166023
v -0.433840 4.510499 0.000000
v -0.433840 4.809793 0.000000
v -0.400816 4.510499 -0.166023
v -0.400816 4.809793 -0.166023
v -0.306771 4.510499 -0.306771
v -0.306771 4.809793 -0.306771
v -0.166023 4.510499 -0.400816
v -0.166023 4.809793 -0.400816
v 0.611289 0.017667 0.509840
v 0.611289 0.239907 0.509840
v 0.611289 0.017667 -0.509840
v 0.611289 0.239907 -0.509840
v 1.144002 0.017667 0.509840
v 1.144002 0.239907 0.509840
v 1.144002 0.017667 -0.509840
v 1.144002 0.239907 -0.509840
v 0.611289 3.807054 0.509840
v 0.611289 4.029294 0.509840
v 0.611289 3.807054 -0.509840
v 0.611289 4.029294 -0.509840
v 1.144002 3.807054 0.509840
v 1.144002 4.029294 0.509840
v 1.144002 3.807054 -0.509840
v 1.144002 4.029294 -0.509840
v 0.611289 3.408334 -0.111120
v 0.611289 3.408334 0.111120
v 0.611289 4.428014 -0.111120
v 0.611289 4.428014 0.111120
v 1.144002 3.408334 -0.111120
v 1.144002 3.408334 0.111120
v 1.144002 4.428014 -0.111120
v 1.144002 4.428014 0.111120
vn 0.1951 -0.0000 -0.9808
vn 0.5556 -0.0000 -0.8315
vn 0.8315 -0.0000 -0.5556
vn 0.9808 -0.0000 -0.1951
vn 0.9808 -0.0000 0.1951
vn 0.8315 -0.0000 0.5556
vn 0.5556 -0.0000 0.8315
vn 0.1951 -0.0000 0.9808
vn -0.1951 -0.0000 0.9808
vn -0.5556 -0.0000 0.8315
vn -0.8315 -0.0000 0.5556
vn -0.9808 -0.0000 0.1951
vn -0.9808 -0.0000 -0.1951
vn -0.8315 -0.0000 -0.5556
vn -0.0000 1.0000 -0.0000
vn -0.5556 -0.0000 -0.8315
vn -0.1951 -0.0000 -0.9808
vn -0.0000 -1.0000 -0.0000
vn -1.0000 -0.0000 -0.0000
vn -0.0000 -0.0000 -1.0000
vn 1.0000 -0.0000 -0.0000
vn -0.0000 -0.0000 1.0000
vt 0.526842 0.119774
vt 0.526842 0.000000
vt 0.602390 0.000000
vt 0.602390 0.119774
vt 0.666436 0.000000
vt 0.666436 0.119774
vt 0.387247 0.514607
vt 0.387247 0.394834
vt 0.451294 0.394834
vt 0.451294 0.514607
vt 0.526842 0.394834
vt 0.526842 0.514607
vt 0.602390 0.394834
vt 0.602390 0.514607
vt 0.666436 0.394834
vt 0.666436 0.514607
vt 0.666436 0.119774
vt 0.666436 0.000000
vt 0.730483 0.000000
vt 0.730483 0.119774
vt 0.806031 0.000000
vt 0.806031 0.119774
vt 0.881579 0.000000
vt 0.881579 0.119774
vt 0.945626 0.000000
vt 0.945626 0.119774
vt 0.666436 0.514607
vt 0.666436 0.394834
vt 0.730483 0.394834
vt 0.730483 0.514607
vt 0.806031 0.394834
vt 0.806031 0.514607
vt 0.881579 0.394834
vt 0.881579 0.514607
vt 0.945626 0.394834
vt 0.945626 0.514607
vt 0.029477 0.303302
vt -0.000000 0.232138
vt -0.000000 0.155109
vt 0.029477 0.083945
vt 0.083945 0.029477
vt 0.155109 -0.000000
vt 0.232138 -0.000000
vt 0.303302 0.029477
vt 0.357769 0.083945
vt 0.387247 0.155109
vt 0.387247 0.232138
vt 0.357769 0.303302
vt 0.303302 0.357769
vt 0.232138 0.387247
vt 0.155109 0.387247
vt 0.083945 0.357769
vt 0.387247 0.119774
vt 0.387247 0.000000
vt 0.451294 0.000000
vt 0.451294 0.119774
vt -0.000000 0.619384
vt -0.000000 0.542356
vt 0.029477 0.471191
vt 0.083945 0.416724
vt 0.155109 0.387247
vt 0.232138 0.387247
vt 0.303302 0.416724
vt 0.357769 0.471191
vt 0.387247 0.542356
vt 0.387247 0.619384
vt 0.357769 0.690549
vt 0.303302 0.745016
vt 0.232138 0.774494
vt 0.155109 0.774494
vt 0.083945 0.745016
vt 0.029477 0.690549
vt 0.881579 0.789667
vt 0.945626 0.789667
vt 0.806031 0.789667
vt 0.730483 0.789667
vt 0.666436 0.789667
vt 0.602390 0.789667
vt 0.666436 0.789667
vt 0.526842 0.789667
vt 0.451294 0.789667
vt 0.387247 0.789667
vt 0.969089 0.664468
vt 0.945626 0.664468
vt 0.945626 0.631692
vt 0.969089 0.631692
vt 0.945626 0.603906
vt 0.969089 0.603906
vt 0.986511 0.322425
vt 0.963048 0.322425
vt 0.963048 0.294639
vt 0.986511 0.294639
vt 0.963048 0.261864
vt 0.986511 0.261864
vt 0.963048 0.229088
vt 0.986511 0.229088
vt 0.963048 0.201302
vt 0.986511 0.201302
vt 0.986511 0.443549
vt 0.963048 0.443549
vt 0.963048 0.415763
vt 0.986511 0.415763
vt 0.963048 0.382987
vt 0.986511 0.382987
vt 0.963048 0.350211
vt 0.986511 0.350211
vt 0.986511 0.564673
vt 0.963048 0.564673
vt 0.963048 0.536887
vt 0.986511 0.536887
vt 0.963048 0.504111
vt 0.986511 0.504111
vt 0.963048 0.471335
vt 0.986511 0.471335
vt 0.963048 0.443549
vt 0.986511 0.443549
vt 0.012788 0.906078
vt -0.000000 0.875204
vt -0.000000 0.841786
vt 0.012788 0.810912
vt 0.036418 0.787282
vt 0.067293 0.774494
vt 0.100711 0.774494
vt 0.131585 0.787282
vt 0.155215 0.810912
vt 0.168003 0.841786
vt 0.168003 0.875204
vt 0.155215 0.906078
vt 0.131585 0.929708
vt 0.100711 0.942497
vt 0.067293 0.942497
vt 0.036419 0.929708
vt 0.969089 0.725029
vt 0.945626 0.725029
vt 0.945626 0.697243
vt 0.969089 0.697243
vt 0.168003 0.875204
vt 0.168003 0.841786
vt 0.180792 0.810912
vt 0.204422 0.787282
vt 0.235296 0.774494
vt 0.268714 0.774494
vt 0.299588 0.787282
vt 0.323218 0.810912
vt 0.336006 0.841786
vt 0.336006 0.875204
vt 0.323218 0.906078
vt 0.299588 0.929708
vt 0.268714 0.942497
vt 0.235296 0.942497
vt 0.204422 0.929708
vt 0.180792 0.906078
vt 0.963048 0.201302
vt 0.945626 0.201302
vt 0.945626 0.000000
vt 0.963048 0.000000
vt 0.985208 0.894834
vt 0.967786 0.894834
vt 0.967786 0.789667
vt 0.985208 0.789667
vt 0.963048 0.402604
vt 0.945626 0.402604
vt 0.986511 0.709072
vt 0.969089 0.709072
vt 0.969089 0.603906
vt 0.986511 0.603906
vt 0.492413 0.990969
vt 0.387247 0.990969
vt 0.492413 0.789667
vt 0.597580 0.990969
vt 0.597580 0.789667
vt 0.963048 0.603906
vt 0.945626 0.603906
vt 0.945626 0.402604
vt 0.963048 0.402604
vt 0.913083 1.000000
vt 0.895660 1.000000
vt 0.895661 0.894834
vt 0.913083 0.894834
vt 0.980470 0.201302
vt 0.963048 0.000000
vt 0.980470 0.000000
vt 0.997893 0.105167
vt 0.980470 0.105167
vt 0.980470 0.000000
vt 0.997893 0.000000
vt 0.702746 0.990969
vt 0.702746 0.789667
vt 0.807913 0.990969
vt 0.702746 0.990969
vt 0.702746 0.789667
vt 0.807913 0.789667
vt 0.851787 0.974770
vt 0.807913 0.974770
vt 0.807913 0.894834
vt 0.851787 0.894834
vt 0.379880 0.879660
vt 0.336006 0.879660
vt 0.336006 0.774494
vt 0.379880 0.774494
vt 0.851787 0.894834
vt 0.895660 0.894834
vt 0.895660 0.974770
vt 0.851787 0.974770
vt 0.379880 0.984827
vt 0.336006 0.984827
vt 0.336006 0.879660
vt 0.379880 0.879660
vt 0.807913 0.789667
vt 0.887850 0.789667
vt 0.887850 0.894834
vt 0.887849 0.894834
vt 0.887849 0.789667
vt 0.967786 0.789667
vt 0.967786 0.894834
s 0
f 33/1/1 2/2/1 4/3/1 34/4/1
f 34/4/2 4/3/2 6/5/2 35/6/2
f 35/7/3 6/8/3 8/9/3 36/10/3
f 36/10/4 8/9/4 10/11/4 37/12/4
f 37/12/5 10/11/5 12/13/5 38/14/5
f 38/14/6 12/13/6 14/15/6 39/16/6
f 39/17/7 14/18/7 16/19/7 40/20/7
f 40/20/8 16/19/8 18/21/8 41/22/8
f 41/22/9 18/21/9 20/23/9 42/24/9
f 42/24/10 20/23/10 22/25/10 43/26/10
f 43/27/11 22/28/11 24/29/11 44/30/11
f 44/30/12 24/29/12 26/31/12 45/32/12
f 45/32/13 26/31/13 28/33/13 46/34/13
f 46/34/14 28/33/14 30/35/14 47/36/14
f 4/37/15 2/38/15 32/39/15 30/40/15 28/41/15 26/42/15 24/43/15 22/44/15 20/45/15 18/46/15 16/47/15 14/48/15 12/49/15 10/50/15 8/51/15 6/52/15
f 47/53/16 30/54/16 32/55/16 48/56/16
f 48/56/17 32/55/17 2/2/17 33/1/17
f 1/57/18 3/58/18 5/59/18 7/60/18 9/61/18 11/62/18 13/63/18 15/64/18 17/65/18 19/66/18 21/67/18 23/68/18 25/69/18 27/70/18 29/71/18 31/72/18
f 31/9/17 48/56/17 33/1/17 1/11/17
f 29/8/16 47/53/16 48/56/16 31/9/16
f 27/73/14 46/34/14 47/36/14 29/74/14
f 25/75/13 45/32/13 46/34/13 27/73/13
f 23/76/12 44/30/12 45/32/12 25/75/12
f 21/77/11 43/27/11 44/30/11 23/76/11
f 19/33/10 42/24/10 43/26/10 21/35/10
f 17/31/9 41/22/9 42/24/9 19/33/9
f 15/29/8 40/20/8 41/22/8 17/31/8
f 13/28/7 39/17/7 40/20/7 15/29/7
f 11/78/6 38/14/6 39/16/6 13/79/6
f 9/80/5 37/12/5 38/14/5 11/78/5
f 7/81/4 36/10/4 37/12/4 9/80/4
f 5/82/3 35/7/3 36/10/3 7/81/3
f 3/13/2 34/4/2 35/6/2 5/15/2
f 1/11/1 33/1/1 34/4/1 3/13/1
f 49/83/1 50/84/1 52/85/1 51/86/1
f 51/86/2 52/85/2 54/87/2 53/88/2
f 53/89/3 54/90/3 56/91/3 55/92/3
f 55/92/4 56/91/4 58/93/4 57/94/4
f 57/94/5 58/93/5 60/95/5 59/96/5
f 59/96/6 60/95/6 62/97/6 61/98/6
f 61/99/7 62/100/7 64/101/7 63/102/7
f 63/102/8 64/101/8 66/103/8 65/104/8
f 65/104/9 66/103/9 68/105/9 67/106/9
f 67/106/10 68/105/10 70/90/10 69/89/10
f 69/107/11 70/108/11 72/109/11 71/110/11
f 71/110/12 72/109/12 74/111/12 73/112/12
f 73/112/13 74/111/13 76/113/13 75/114/13
f 75/114/14 76/113/14 78/115/14 77/116/14
f 52/117/15 50/118/15 80/119/15 78/120/15 76/121/15 74/122/15 72/123/15 70/124/15 68/125/15 66/126/15 64/127/15 62/128/15 60/129/15 58/130/15 56/131/15 54/132/15
f 77/133/16 78/134/16 80/135/16 79/136/16
f 79/136/17 80/135/17 50/84/17 49/83/17
f 49/137/18 51/138/18 53/139/18 55/140/18 57/141/18 59/142/18 61/143/18 63/144/18 65/145/18 67/146/18 69/147/18 71/148/18 73/149/18 75/150/18 77/151/18 79/152/18
f 81/153/19 82/154/19 84/155/19 83/156/19
f 83/157/20 84/158/20 88/159/20 87/160/20
f 87/161/21 88/162/21 86/154/21 85/153/21
f 85/163/22 86/164/22 82/165/22 81/166/22
f 83/167/18 87/168/18 85/82/18 81/169/18
f 88/170/15 84/167/15 82/169/15 86/171/15
f 89/172/19 90/173/19 92/174/19 91/175/19
f 91/176/20 92/177/20 96/178/20 95/179/20
f 95/180/21 96/153/21 94/181/21 93/182/21
f 93/183/22 94/184/22 90/185/22 89/186/22
f 91/187/18 95/170/18 93/171/18 89/188/18
f 96/189/15 92/190/15 90/191/15 94/192/15
f 97/193/19 98/194/19 100/195/19 99/196/19
f 99/197/15 100/198/15 104/199/15 103/200/15
f 103/201/21 104/202/21 102/203/21 101/204/21
f 101/205/18 102/206/18 98/207/18 97/208/18
f 99/195/20 103/209/20 101/210/20 97/211/20
f 104/212/22 100/213/22 98/214/22 102/215/22
