# Blender 4.4.3
# www.blender.org
o Cube.011
v -0.597073 0.675043 -0.655941
v -0.733646 0.675043 -0.655941
v -0.597073 0.675043 -0.519368
v -0.733646 0.675043 -0.519368
v -0.597073 -0.018399 -0.655941
v -0.733646 -0.018399 -0.655941
v -0.597073 -0.018399 -0.519368
v -0.733646 -0.018399 -0.519368
v 0.483939 0.972198 -1.000000
v 0.483939 0.445849 -1.000000
v 0.483939 0.972198 1.000000
v 0.483939 0.445849 1.000000
v -0.483939 0.972198 -1.000000
v -0.483939 0.445849 -1.000000
v -0.483939 0.972198 1.000000
v -0.483939 0.445849 1.000000
v 0.312936 0.507064 0.727975
v 0.312937 0.768540 0.727975
v 0.312937 0.507064 0.466499
v 0.312936 0.768540 0.466499
v 0.819337 0.507064 0.727975
v 0.819337 0.768540 0.727975
v 0.819337 0.507064 0.466499
v 0.819337 0.768540 0.466499
v 0.665000 0.675043 0.665523
v 0.801572 0.675043 0.665523
v 0.665000 0.675043 0.528951
v 0.801572 0.675043 0.528951
v 0.665000 -0.018399 0.665523
v 0.801572 -0.018399 0.665523
v 0.665000 -0.018399 0.528951
v 0.801572 -0.018399 0.528951
v 0.665000 0.675043 0.065932
v 0.801572 0.675043 0.065932
v 0.665000 0.675043 -0.070640
v 0.801572 0.675043 -0.070640
v 0.665000 -0.018399 0.065932
v 0.801572 -0.018399 0.065932
v 0.665000 -0.018399 -0.070640
v 0.801572 -0.018399 -0.070640
v 0.312936 0.507064 0.128384
v 0.312936 0.768540 0.128384
v 0.312936 0.507064 -0.133092
v 0.312936 0.768540 -0.133092
v 0.819337 0.507064 0.128384
v 0.819337 0.768540 0.128384
v 0.819337 0.507064 -0.133092
v 0.819337 0.768540 -0.133092
v 0.312936 0.507064 -0.449771
v 0.312936 0.768540 -0.449771
v 0.312936 0.507064 -0.711247
v 0.312936 0.768540 -0.711247
v 0.819337 0.507064 -0.449771
v 0.819337 0.768540 -0.449771
v 0.819337 0.507064 -0.711247
v 0.819337 0.768540 -0.711247
v 0.665000 0.675043 -0.512223
v 0.801572 0.675043 -0.512223
v 0.665000 0.675043 -0.648795
v 0.801572 0.675043 -0.648795
v 0.665000 -0.018399 -0.512223
v 0.801572 -0.018399 -0.512223
v 0.665000 -0.018399 -0.648795
v 0.801572 -0.018399 -0.648795
v -0.597073 0.675043 0.521806
v -0.733646 0.675043 0.521806
v -0.597073 0.675043 0.658378
v -0.733646 0.675043 0.658378
v -0.597073 -0.018399 0.521806
v -0.733646 -0.018399 0.521806
v -0.597073 -0.018399 0.658378
v -0.733645 -0.018399 0.658378
v -0.245010 0.507064 0.459354
v -0.245010 0.768540 0.459354
v -0.245009 0.507064 0.720830
v -0.245009 0.768540 0.720830
v -0.751410 0.507064 0.459354
v -0.751410 0.768540 0.459354
v -0.751410 0.507064 0.720830
v -0.751410 0.768540 0.720830
v -0.245010 0.507064 -0.118802
v -0.245010 0.768540 -0.118802
v -0.245010 0.507064 0.142675
v -0.245010 0.768540 0.142675
v -0.751411 0.507064 -0.118801
v -0.751411 0.768540 -0.118801
v -0.751411 0.507064 0.142675
v -0.751411 0.768540 0.142675
v -0.597073 0.675043 -0.056350
v -0.733646 0.675043 -0.056350
v -0.597073 0.675043 0.080223
v -0.733645 0.675043 0.080223
v -0.597073 -0.018399 -0.056350
v -0.733645 -0.018399 -0.056350
v -0.597073 -0.018399 0.080223
v -0.733645 -0.018399 0.080223
v -0.245010 0.507064 -0.718392
v -0.245010 0.768540 -0.718392
v -0.245010 0.507064 -0.456916
v -0.245010 0.768540 -0.456916
v -0.751411 0.507064 -0.718392
v -0.751411 0.768540 -0.718392
v -0.751411 0.507064 -0.456916
v -0.751411 0.768540 -0.456916
vn -0.0000 1.0000 -0.0000
vn -0.0000 -0.0000 1.0000
vn -0.0000 -1.0000 -0.0000
vn -0.0000 -0.0000 -1.0000
vn 1.0000 -0.0000 -0.0000
vn -1.0000 -0.0000 -0.0000
vt 0.913846 0.927367
vt 0.864732 0.927367
vt 0.864732 0.878252
vt 0.913846 0.878252
vt 0.049114 0.950470
vt 0.000000 0.950470
vt 0.000000 0.901356
vt 0.049114 0.901356
vt 0.098229 0.950470
vt 0.049114 0.950470
vt 0.049114 0.901356
vt 0.098229 0.901356
vt 0.447960 0.950470
vt 0.398846 0.950470
vt 0.398846 0.901356
vt 0.447960 0.901356
vt 0.147343 0.901356
vt 0.147343 0.950470
vt 0.196458 0.901356
vt 0.196458 0.950470
vt 0.147343 0.950470
vt 0.147343 0.901356
vt 0.348070 0.719243
vt 0.000000 0.719243
vt -0.000000 -0.000000
vt 0.348070 -0.000000
vt 0.902012 0.696140
vt 0.864732 0.696140
vt 0.864732 0.348070
vt 0.902012 0.348070
vt 0.733420 0.719243
vt 0.696140 0.719243
vt 0.696140 0.000000
vt 0.733420 0.000000
vt 0.696140 0.719243
vt 0.348070 0.719243
vt 0.348070 0.000000
vt 0.696140 0.000000
vt 0.733420 0.000000
vt 0.770699 0.000000
vt 0.770699 0.719243
vt 0.733420 0.719243
vt 0.864732 0.000000
vt 0.902012 0.000000
vt 0.902012 0.348070
vt 0.969646 0.640370
vt 0.951126 0.640370
vt 0.951126 0.546338
vt 0.969646 0.546338
vt 0.902012 0.182113
vt 0.920531 0.182113
vt 0.920531 0.364225
vt 0.902012 0.364225
vt 0.962961 0.878252
vt 0.981481 0.878252
vt 0.981481 0.972285
vt 0.962961 0.972285
vt 0.300617 0.901356
vt 0.282097 0.901356
vt 0.282097 0.719243
vt 0.300617 0.719243
vt 0.864732 0.546338
vt 0.864732 0.728451
vt 0.770699 0.728451
vt 0.770699 0.546338
vt 0.770700 0.546338
vt 0.770700 0.364225
vt 0.864732 0.364225
vt 0.864732 0.546338
vt 0.902012 0.595452
vt 0.951126 0.595452
vt 0.951126 0.644567
vt 0.902012 0.644567
vt 0.902012 0.644567
vt 0.951126 0.693681
vt 0.902012 0.693681
vt 0.770699 0.910563
vt 0.819814 0.910563
vt 0.819814 0.959678
vt 0.770699 0.959678
vt 0.913846 0.878253
vt 0.962961 0.878253
vt 0.962961 0.927367
vt 0.913846 0.927367
vt 0.920291 0.745254
vt 0.920291 0.696140
vt 0.969405 0.696140
vt 0.969405 0.745254
vt 0.920291 0.794369
vt 0.969405 0.794369
vt 0.196458 0.901356
vt 0.245572 0.901356
vt 0.245572 0.950470
vt 0.196458 0.950470
vt 0.920291 0.794369
vt 0.969405 0.794369
vt 0.969405 0.843483
vt 0.920291 0.843483
vt 0.969646 0.000000
vt 0.969646 0.049114
vt 0.920531 0.049114
vt 0.920531 0.000000
vt 0.920531 0.049114
vt 0.969646 0.049114
vt 0.969646 0.098229
vt 0.920531 0.098229
vt 0.300617 0.901356
vt 0.349731 0.901356
vt 0.349731 0.950470
vt 0.300617 0.950470
vt 0.864732 0.976481
vt 0.864732 0.927367
vt 0.913846 0.927367
vt 0.913846 0.976481
vt 0.987925 0.790172
vt 0.969405 0.790172
vt 0.969405 0.696140
vt 0.987925 0.696140
vt 0.714659 0.719243
vt 0.714659 0.901356
vt 0.696140 0.901356
vt 0.969646 0.376130
vt 0.988165 0.376130
vt 0.988165 0.470162
vt 0.969646 0.470162
vt 0.883252 0.878252
vt 0.864732 0.878253
vt 0.864732 0.696140
vt 0.883252 0.696140
vt 0.696140 0.719243
vt 0.696140 0.901356
vt 0.602107 0.901356
vt 0.602107 0.719243
vt 0.770699 0.182113
vt 0.770699 -0.000000
vt 0.864732 -0.000000
vt 0.864732 0.182113
vt 0.988165 0.564195
vt 0.969646 0.564195
vt 0.920531 0.546338
vt 0.902012 0.546338
vt 0.988165 0.658227
vt 0.969646 0.658227
vt 0.319137 0.901356
vt 0.300617 0.901356
vt 0.319137 0.719243
vt 0.094032 0.719243
vt 0.094032 0.901356
vt 0.000000 0.901356
vt 0.000000 0.719243
vt 0.770699 0.364225
vt 0.770699 0.182113
vt 0.864732 0.182113
vt 0.864732 0.364225
vt 0.969646 0.098229
vt 0.969646 0.147343
vt 0.920531 0.147343
vt 0.969646 0.147343
vt 0.969646 0.196458
vt 0.920531 0.196458
vt 0.969646 0.196458
vt 0.969646 0.245572
vt 0.920531 0.245572
vt 0.920531 0.196458
vt 0.920531 0.245572
vt 0.969646 0.245572
vt 0.969646 0.294687
vt 0.920531 0.294687
vt 0.920531 0.294687
vt 0.969646 0.294687
vt 0.969646 0.343801
vt 0.920531 0.343801
vt 0.497075 0.901356
vt 0.497075 0.950470
vt 0.546189 0.950470
vt 0.497075 0.950470
vt 0.497075 0.901356
vt 0.546189 0.901356
vt 0.595304 0.950470
vt 0.546189 0.950470
vt 0.546189 0.901356
vt 0.595304 0.901356
vt 0.644418 0.950470
vt 0.595304 0.950470
vt 0.595304 0.901356
vt 0.644418 0.901356
vt 0.693533 0.950470
vt 0.644418 0.950470
vt 0.644418 0.901356
vt 0.693533 0.901356
vt 0.742647 0.901356
vt 0.742647 0.950470
vt 0.693533 0.950470
vt 0.693533 0.901356
vt 0.951126 0.546338
vt 0.951126 0.595452
vt 0.902012 0.595452
vt 0.902012 0.546338
vt 0.742647 0.901356
vt 0.761167 0.901356
vt 0.761167 0.995388
vt 0.742647 0.995388
vt 0.733179 0.901356
vt 0.714659 0.901356
vt 0.714659 0.719243
vt 0.733179 0.719243
vt 1.000000 0.972285
vt 0.981480 0.972285
vt 0.981480 0.878252
vt 1.000000 0.878252
vt 0.733420 0.719243
vt 0.751939 0.719243
vt 0.751939 0.901356
vt 0.733420 0.901356
vt 0.320010 0.901356
vt 0.320010 0.719243
vt 0.414042 0.719243
vt 0.414042 0.901356
vt 0.864732 0.728451
vt 0.864732 0.910563
vt 0.770699 0.728451
vt 0.969646 0.000000
vt 0.988165 0.000000
vt 0.988165 0.094032
vt 0.969646 0.094032
vt 0.770459 0.901356
vt 0.751939 0.901356
vt 0.751939 0.719243
vt 0.770459 0.719243
vt 0.988165 0.188065
vt 0.969646 0.188065
vt 0.969646 0.094032
vt 0.988165 0.094032
vt 0.883251 0.696140
vt 0.901771 0.696140
vt 0.901771 0.878252
vt 0.883251 0.878252
vt 0.094032 0.901356
vt 0.094032 0.719243
vt 0.188065 0.719243
vt 0.188065 0.901356
vt 0.282097 0.719243
vt 0.282097 0.901356
vt 0.188065 0.719243
vt 0.969646 0.392916
vt 0.920531 0.392916
vt 0.920531 0.343801
vt 0.969646 0.343801
vt 0.300617 0.950470
vt 0.251503 0.950470
vt 0.251503 0.901356
vt 0.969646 0.442030
vt 0.920531 0.442030
vt 0.920531 0.392916
vt 0.969646 0.392916
vt 0.398846 0.950470
vt 0.349731 0.950470
vt 0.349731 0.901356
vt 0.398846 0.901356
vt 0.969646 0.442030
vt 0.969646 0.491145
vt 0.920531 0.491145
vt 0.920531 0.442030
vt 0.969646 0.540259
vt 0.920531 0.540259
vt 0.969646 0.188065
vt 0.988165 0.188065
vt 0.988165 0.282097
vt 0.969646 0.282097
vt 0.920291 0.878252
vt 0.901771 0.878252
vt 0.901771 0.696140
vt 0.920291 0.696140
vt 0.969646 0.282097
vt 0.988165 0.282097
vt 0.902012 0.000000
vt 0.920531 0.000000
vt 0.920531 0.182113
vt 0.902012 0.182113
vt 0.508075 0.901356
vt 0.508075 0.719243
vt 0.602107 0.719243
vt 0.508075 0.719243
vt 0.414042 0.901356
vt 0.414042 0.719243
s 0
f 1/1/1 2/2/1 4/3/1 3/4/1
f 3/5/2 4/6/2 8/7/2 7/8/2
f 7/9/3 8/10/3 6/11/3 5/12/3
f 5/13/4 6/14/4 2/15/4 1/16/4
f 3/17/5 7/18/5 5/9/5 1/12/5
f 8/19/6 4/20/6 2/21/6 6/22/6
f 9/23/1 13/24/1 15/25/1 11/26/1
f 12/27/2 11/28/2 15/29/2 16/30/2
f 16/31/6 15/32/6 13/33/6 14/34/6
f 14/35/3 10/36/3 12/37/3 16/38/3
f 10/39/5 9/40/5 11/41/5 12/42/5
f 14/43/4 13/44/4 9/45/4 10/29/4
f 17/46/6 18/47/6 20/48/6 19/49/6
f 19/50/4 20/51/4 24/52/4 23/53/4
f 23/54/5 24/55/5 22/56/5 21/57/5
f 21/58/2 22/59/2 18/60/2 17/61/2
f 19/62/3 23/63/3 21/64/3 17/65/3
f 24/66/1 20/67/1 18/68/1 22/69/1
f 25/70/1 26/71/1 28/72/1 27/73/1
f 27/74/4 28/72/4 32/75/4 31/76/4
f 31/77/3 32/78/3 30/79/3 29/80/3
f 29/81/2 30/82/2 26/83/2 25/84/2
f 27/85/6 31/86/6 29/87/6 25/88/6
f 32/89/5 28/85/5 26/88/5 30/90/5
f 33/91/1 34/92/1 36/93/1 35/94/1
f 35/95/4 36/96/4 40/97/4 39/98/4
f 39/99/3 40/100/3 38/101/3 37/102/3
f 37/103/2 38/104/2 34/105/2 33/106/2
f 35/107/6 39/108/6 37/109/6 33/110/6
f 40/111/5 36/112/5 34/113/5 38/114/5
f 41/115/6 42/116/6 44/117/6 43/118/6
f 43/35/4 44/119/4 48/120/4 47/121/4
f 47/122/5 48/123/5 46/124/5 45/125/5
f 45/126/2 46/127/2 42/128/2 41/129/2
f 43/130/3 47/131/3 45/132/3 41/133/3
f 48/134/1 44/135/1 42/136/1 46/137/1
f 49/138/6 50/139/6 52/125/6 51/124/6
f 51/53/4 52/52/4 56/140/4 55/141/4
f 55/139/5 56/138/5 54/142/5 53/143/5
f 53/144/2 54/145/2 50/61/2 49/146/2
f 51/147/3 55/148/3 53/149/3 49/150/3
f 56/151/1 52/152/1 50/153/1 54/154/1
f 57/155/1 58/156/1 60/157/1 59/106/1
f 59/157/4 60/158/4 64/159/4 63/160/4
f 63/161/3 64/162/3 62/163/3 61/164/3
f 61/165/2 62/166/2 58/167/2 57/168/2
f 59/169/6 63/170/6 61/171/6 57/172/6
f 64/13/5 60/16/5 58/173/5 62/174/5
f 65/175/1 66/176/1 68/177/1 67/178/1
f 67/179/2 68/180/2 72/181/2 71/182/2
f 71/183/3 72/184/3 70/185/3 69/186/3
f 69/187/4 70/188/4 66/189/4 65/190/4
f 67/191/5 71/192/5 69/193/5 65/194/5
f 72/195/6 68/196/6 66/197/6 70/198/6
f 73/199/5 74/200/5 76/201/5 75/202/5
f 75/203/2 76/204/2 80/205/2 79/206/2
f 79/207/6 80/208/6 78/209/6 77/210/6
f 77/211/4 78/212/4 74/213/4 73/214/4
f 75/215/3 79/216/3 77/217/3 73/218/3
f 80/219/1 76/220/1 74/77/1 78/221/1
f 81/222/5 82/223/5 84/224/5 83/225/5
f 83/226/2 84/227/2 88/228/2 87/229/2
f 87/230/6 88/231/6 86/232/6 85/233/6
f 85/234/4 86/235/4 82/236/4 81/237/4
f 83/238/3 87/239/3 85/240/3 81/241/3
f 88/242/1 84/243/1 82/241/1 86/244/1
f 89/245/1 90/246/1 92/247/1 91/248/1
f 91/249/2 92/250/2 96/251/2 95/107/2
f 95/252/3 96/253/3 94/254/3 93/255/3
f 93/256/4 94/257/4 90/258/4 89/259/4
f 91/260/5 95/261/5 93/262/5 89/263/5
f 96/261/6 92/264/6 90/265/6 94/262/6
f 97/266/5 98/267/5 100/268/5 99/269/5
f 99/270/2 100/271/2 104/272/2 103/273/2
f 103/123/6 104/122/6 102/274/6 101/275/6
f 101/276/4 102/277/4 98/278/4 97/279/4
f 99/280/3 103/281/3 101/282/3 97/132/3
f 104/283/1 100/280/1 98/284/1 102/285/1
