# Blender 4.4.3
# www.blender.org
o Cube
v -0.027960 1.615679 0.059342
v 0.000834 1.642804 0.059342
v -0.033854 1.615854 -0.059342
v 0.001010 1.648699 -0.059342
v -0.000834 1.586885 0.059342
v 0.027960 1.614010 0.059342
v -0.001010 1.580990 -0.059342
v 0.033854 1.613835 -0.059342
v -0.357649 1.625514 0.000000
v 0.010669 1.972494 0.000000
v -0.010669 1.257195 0.000000
v 0.357649 1.604175 0.000000
v -0.017432 1.598422 -0.059342
v 0.017432 1.631267 -0.059342
v -0.014397 1.601282 0.059342
v 0.014397 1.628407 0.059342
v 0.058035 1.669517 0.000000
v -0.058035 1.560172 0.000000
v -0.013563 1.629241 0.059342
v -0.016422 1.632277 -0.059342
v 0.016422 1.597412 -0.059342
v 0.013563 1.600448 0.059342
v 0.056639 1.554722 0.000000
v -0.056639 1.674967 0.000000
v 0.000000 1.614844 0.059342
v 0.000000 1.614844 -0.059342
vn -0.6647 0.1794 -0.7252
vn -0.0000 -0.0000 -1.0000
vn 0.1335 -0.6681 0.7320
vn -0.0000 -0.0000 1.0000
vn -0.6836 -0.1312 0.7180
vn 0.6836 0.1312 0.7180
vn 0.6897 0.1373 -0.7109
vn -0.6897 -0.1373 -0.7109
vn 0.1395 -0.6743 -0.7252
vn -0.6590 0.1731 0.7320
vn -0.1782 -0.6803 -0.7109
vn 0.1782 0.6803 -0.7109
vn 0.1717 0.6745 0.7180
vn -0.1717 -0.6745 0.7180
vn -0.1335 0.6681 0.7320
vn 0.6647 -0.1794 -0.7252
vn 0.6590 -0.1731 0.7320
vn -0.1395 0.6743 -0.7252
vt 0.163505 0.322507
vt -0.000000 0.244834
vt 0.218186 0.284818
vt 0.225468 0.299975
vt 0.237635 0.288387
vt 0.230353 0.273230
vt 0.242521 0.261643
vt 0.249803 0.276800
vt 0.682231 0.242760
vt 0.687197 0.000000
vt 0.751469 0.258909
vt 0.744658 0.271059
vt 0.273321 0.288548
vt 0.279557 0.276093
vt 0.289558 0.285773
vt 0.283322 0.298229
vt 0.694600 0.334073
vt 0.512933 0.310844
vt 0.737846 0.283210
vt 0.747383 0.293347
vt 0.330378 0.232943
vt 0.512933 0.247651
vt 0.181228 0.232081
vt 0.768425 0.295654
vt 0.779929 0.283408
vt 1.000000 0.311205
vt 0.819761 0.334010
vt 0.771816 0.268679
vt 0.763703 0.253950
vt 0.828583 0.000000
vt 0.832430 0.242738
vt 0.347003 0.323577
vt 0.756920 0.307901
vt 0.756920 0.569948
vt 0.257085 -0.000000
vt 0.257085 -0.000000
vt 0.269557 0.266413
vt 0.756920 0.570189
vt 0.756920 0.303484
vt 0.263321 0.278868
vt 0.232750 0.315132
vt 0.244917 0.303544
vt 0.257085 0.291324
vt 0.267085 0.301004
vt 0.277086 0.310684
vt 0.353395 0.566304
vt 0.257085 0.291957
vt 0.153856 0.565084
s 0
f 24/1/1 10/2/1 4/3/1 20/4/1
f 26/5/2 14/6/2 8/7/2 21/8/2
f 23/9/3 12/10/3 6/11/3 22/12/3
f 25/13/4 16/14/4 2/15/4 19/16/4
f 18/17/5 11/18/5 5/19/5 15/20/5
f 17/21/6 10/22/6 2/15/6 16/14/6
f 14/6/7 4/3/7 10/2/7 17/23/7
f 13/24/8 7/25/8 11/26/8 18/27/8
f 21/28/9 8/29/9 12/30/9 23/31/9
f 19/16/10 2/15/10 10/22/10 24/32/10
f 3/33/11 13/24/11 18/27/11 9/34/11
f 8/7/12 14/6/12 17/23/12 12/35/12
f 12/36/13 17/21/13 16/14/13 6/37/13
f 9/38/14 18/17/14 15/20/14 1/39/14
f 22/40/4 6/37/4 16/14/4 25/13/4
f 20/4/2 4/3/2 14/6/2 26/5/2
f 3/41/2 20/4/2 26/5/2 13/42/2
f 5/43/4 22/40/4 25/13/4 15/44/4
f 1/45/15 19/16/15 24/32/15 9/46/15
f 7/25/16 21/28/16 23/31/16 11/26/16
f 15/44/4 25/13/4 19/16/4 1/45/4
f 11/18/17 23/9/17 22/12/17 5/19/17
f 13/42/2 26/5/2 21/8/2 7/47/2
f 9/48/18 24/1/18 20/4/18 3/41/18
